<svg width="302" height="300" viewBox="0 0 402 400" fill="none" xmlns="http://www.w3.org/2000/svg">
<g clip-path="url(#clip0_214_408)">
<path d="M56.8752 317.562H23.7834V328.094H56.8752V317.562Z" fill="#EBEBEB"/>
<path d="M76.7529 194.729H43.6611V205.261H76.7529V194.729Z" fill="#EBEBEB"/>
<path d="M38.4189 341.412C32.9036 341.506 19.0024 341.741 13.6753 341.798H5.32709H4.90356V341.412V330.88V330.409H5.37415L21.92 330.475C26.033 330.475 34.3436 330.598 38.4659 330.654H38.6918V330.88L38.4189 341.412ZM38.4189 341.412L38.193 330.88L38.4189 331.106C34.2871 331.162 25.9953 331.247 21.873 331.285L5.32709 331.351L5.79768 330.88V341.412L5.36474 340.979H13.5624C18.8047 341.045 33.0259 341.28 38.4565 341.374L38.4189 341.412Z" fill="#EBEBEB"/>
<path d="M225.647 154.833C220.132 154.927 206.231 155.162 200.903 155.219H192.555H192.122V154.786V144.254V143.784H192.593L209.139 143.849C213.252 143.849 221.562 143.972 225.685 144.028H225.911V144.254L225.694 154.786L225.647 154.833ZM225.647 154.833L225.412 144.301L225.638 144.518C221.506 144.584 213.214 144.668 209.092 144.706L192.546 144.772L193.016 144.301L192.969 154.833L192.546 154.4H200.743C205.986 154.466 220.207 154.701 225.638 154.795L225.647 154.833Z" fill="#EBEBEB"/>
<path d="M207.181 168.113C201.675 168.207 187.774 168.442 182.438 168.499H174.099H173.647V168.075V157.544V157.073H174.127L190.663 157.139C194.786 157.139 203.096 157.261 207.209 157.318H207.445V157.544L207.219 168.075L207.181 168.113ZM207.181 168.113L206.965 157.581L207.181 157.798C203.059 157.864 194.767 157.948 190.635 157.986L174.099 158.052L174.569 157.581V168.113L174.146 167.68H182.343C187.586 167.746 201.807 167.981 207.228 168.075L207.181 168.113Z" fill="#EBEBEB"/>
<path d="M188.8 144.301H155.708V154.833H188.8V144.301Z" fill="#EBEBEB"/>
<path d="M394.673 330.842H361.581V341.374H394.673V330.842Z" fill="#EBEBEB"/>
<path d="M376.217 5.6189H343.125V16.1507H376.217V5.6189Z" fill="#EBEBEB"/>
<path d="M394.673 29.4306C389.158 29.5247 375.256 29.76 369.929 29.8165H361.581H361.158V29.393L361.111 18.8612V18.3906H361.581L378.127 18.4565C382.249 18.4565 390.551 18.5789 394.673 18.6353H394.899V18.8612L394.673 29.393V29.4306ZM394.673 29.4306L394.447 18.8989L394.673 19.1153C390.541 19.1812 382.259 19.2659 378.127 19.3036L361.581 19.3694L362.052 18.8989V29.4306L361.619 28.9977H369.816C375.068 29.0636 389.289 29.2989 394.711 29.393L394.673 29.4306Z" fill="#EBEBEB"/>
<path d="M56.8752 16.1506C51.3599 16.2447 37.4587 16.48 32.1316 16.5365H23.7834H23.3599V16.1036V5.57178V5.1012H23.8305L40.3763 5.16708C44.4987 5.16708 52.7999 5.28943 56.9222 5.3459H57.1481V5.57178L56.9222 16.1036L56.8752 16.1506ZM56.8752 16.1506L56.6493 5.61885L56.8752 5.83532C52.7434 5.9012 44.4516 5.98591 40.3293 6.02355L23.7834 6.08943L24.254 5.61885V16.1506L23.7834 15.7647H31.981C37.2234 15.8306 51.4446 16.0659 56.8752 16.16V16.1506Z" fill="#EBEBEB"/>
<path d="M247.689 365.6C242.174 365.694 228.273 365.93 222.946 365.986H214.598H214.174V365.553V355.021V354.588H214.645L231.191 354.654C235.313 354.654 243.614 354.777 247.736 354.833H247.962V355.059L247.746 365.591L247.689 365.6ZM247.689 365.6L247.463 355.068L247.689 355.294C243.558 355.351 235.266 355.435 231.143 355.473L214.598 355.539L215.068 355.068V365.6L214.635 365.167H222.833C228.075 365.233 242.296 365.468 247.727 365.562L247.689 365.6Z" fill="#EBEBEB"/>
<g filter="url(#filter0_d_214_408)">
<path d="M67.567 73.8447C66.6207 80.2191 63.8637 86.1876 59.6239 91.0406C55.3841 95.8937 49.8399 99.4271 43.6503 101.221C37.4608 103.015 30.8863 102.993 24.7086 101.159C18.5309 99.325 13.0098 95.7555 8.80175 90.8749C4.59371 85.9943 1.87573 80.0079 0.970982 73.6275C0.0662298 67.2471 1.01276 60.7411 3.69803 54.883C6.3833 49.0249 10.6944 44.0611 16.1186 40.5819C21.5429 37.1026 27.8522 35.2542 34.2965 35.2565V68.9035L67.567 73.8447Z" fill="#EBEBEB"/>
</g>
<path d="M74.8234 62.0613C74.8254 63.7121 74.7027 65.3607 74.4564 66.993L41.1858 62.0613V28.4142C45.605 28.4105 49.9815 29.2783 54.0649 30.968C58.1483 32.6578 61.8584 35.1362 64.9828 38.2615C68.1072 41.3868 70.5846 45.0975 72.2732 49.1814C73.9618 53.2653 74.8284 57.6421 74.8234 62.0613Z" fill="#DBDBDB"/>
<path d="M73.7128 80.8564H37.9387V81.7976H73.7128V80.8564Z" fill="#C7C7C7"/>
<path d="M76.2258 84.3012C75.635 84.303 75.0568 84.1294 74.5647 83.8023C74.0727 83.4751 73.6888 83.0093 73.4618 82.4637C73.2348 81.9182 73.175 81.3175 73.2898 80.7379C73.4046 80.1583 73.6889 79.6258 74.1068 79.208C74.5246 78.7901 75.0571 78.5058 75.6367 78.391C76.2163 78.2762 76.817 78.336 77.3625 78.563C77.9081 78.79 78.3739 79.1739 78.7011 79.6659C79.0282 80.158 79.2018 80.7362 79.2 81.327C79.1975 82.1151 78.8833 82.8701 78.3261 83.4273C77.7689 83.9845 77.0139 84.2987 76.2258 84.3012ZM76.2258 79.2847C75.8215 79.2828 75.4257 79.401 75.0886 79.6243C74.7515 79.8476 74.4883 80.1659 74.3323 80.5389C74.1762 80.9119 74.1344 81.3229 74.2122 81.7197C74.2899 82.1165 74.4837 82.4813 74.7689 82.7678C75.0542 83.0544 75.4181 83.2498 75.8145 83.3294C76.2109 83.409 76.6221 83.3691 76.9958 83.2148C77.3696 83.0605 77.6891 82.7987 77.9139 82.4627C78.1388 82.1266 78.2588 81.7314 78.2588 81.327C78.2588 80.787 78.0449 80.2689 77.6639 79.8862C77.2829 79.5034 76.7659 79.2872 76.2258 79.2847Z" fill="#C7C7C7"/>
<path d="M113.111 79.4447H85.3176V80.6965H113.111V79.4447Z" fill="#C7C7C7"/>
<path d="M101.045 81.9482H85.3176V83.2H101.045V81.9482Z" fill="#C7C7C7"/>
<path d="M184.132 201.854H175.256V265.007H184.132V201.854Z" fill="#EBEBEB"/>
<path d="M199.388 217.139H190.513V265.007H199.388V217.139Z" fill="#EBEBEB"/>
<path d="M214.635 241.073H205.76V265.007H214.635V241.073Z" fill="#EBEBEB"/>
<path d="M229.892 227.398H221.016V264.998H229.892V227.398Z" fill="#EBEBEB"/>
<path d="M245.148 213.045H236.273V265.007H245.148V213.045Z" fill="#EBEBEB"/>
<path d="M260.395 204.602H251.52V265.007H260.395V204.602Z" fill="#EBEBEB"/>
<path d="M170.108 193.817L170.212 211.614L170.259 229.412L170.334 265.007L170.108 264.781C178.265 264.781 186.422 264.781 194.579 264.781L219.049 264.838L243.52 264.885L267.991 265.017L243.52 265.148L219.049 265.195L194.579 265.242C186.422 265.242 178.265 265.242 170.108 265.242H169.882V265.026L169.958 229.431V211.633L170.108 193.817Z" fill="#EBEBEB"/>
<path d="M168.151 197.412C169.434 197.073 170.783 197.073 172.066 197.412C170.781 197.738 169.435 197.738 168.151 197.412Z" fill="#EBEBEB"/>
<path d="M168.151 202.795C169.435 202.469 170.781 202.469 172.066 202.795C171.43 202.977 170.77 203.062 170.108 203.049C169.447 203.058 168.788 202.972 168.151 202.795Z" fill="#EBEBEB"/>
<path d="M168.151 208.207C169.435 207.881 170.781 207.881 172.066 208.207C170.783 208.546 169.434 208.546 168.151 208.207Z" fill="#EBEBEB"/>
<path d="M168.151 213.619C169.434 213.28 170.783 213.28 172.066 213.619C170.783 213.957 169.434 213.957 168.151 213.619Z" fill="#EBEBEB"/>
<path d="M168.151 219.059C169.434 218.72 170.783 218.72 172.066 219.059C170.783 219.398 169.434 219.398 168.151 219.059Z" fill="#EBEBEB"/>
<path d="M168.151 224.442C169.434 224.104 170.783 224.104 172.066 224.442C170.781 224.769 169.435 224.769 168.151 224.442Z" fill="#EBEBEB"/>
<path d="M168.151 229.845C169.435 229.519 170.781 229.519 172.066 229.845C170.783 230.183 169.434 230.183 168.151 229.845Z" fill="#EBEBEB"/>
<path d="M168.151 235.256C169.435 234.93 170.781 234.93 172.066 235.256C170.783 235.595 169.434 235.595 168.151 235.256Z" fill="#EBEBEB"/>
<path d="M168.151 240.706C169.434 240.367 170.783 240.367 172.066 240.706C170.783 241.045 169.434 241.045 168.151 240.706Z" fill="#EBEBEB"/>
<path d="M168.151 246.08C169.434 245.741 170.783 245.741 172.066 246.08C170.783 246.419 169.434 246.419 168.151 246.08Z" fill="#EBEBEB"/>
<path d="M168.151 251.492C169.434 251.153 170.783 251.153 172.066 251.492C170.781 251.818 169.435 251.818 168.151 251.492Z" fill="#EBEBEB"/>
<path d="M168.151 256.904C168.788 256.727 169.447 256.641 170.108 256.649C170.77 256.637 171.43 256.722 172.066 256.904C170.781 257.23 169.435 257.23 168.151 256.904Z" fill="#EBEBEB"/>
<path d="M3.75537 387.294C129.478 386.72 270.522 386.72 396.226 387.294C270.504 387.878 129.459 387.868 3.75537 387.294Z" fill="#263238"/>
<g filter="url(#filter1_d_214_408)">
<path d="M384.471 0.978882H230.202C228.134 0.997334 226.089 1.42322 224.185 2.23222C222.281 3.04121 220.555 4.21745 219.106 5.69371C217.657 7.16998 216.513 8.91734 215.739 10.8359C214.966 12.7545 214.578 14.8068 214.598 16.8754V334.362C214.563 338.539 216.186 342.558 219.112 345.539C222.037 348.519 226.026 350.217 230.202 350.259H384.471C388.649 350.219 392.641 348.523 395.571 345.542C398.5 342.562 400.127 338.541 400.094 334.362V16.8754C400.129 12.6959 398.503 8.6735 395.573 5.69257C392.644 2.71164 388.65 1.01616 384.471 0.978882ZM390.325 324.546C390.325 332.904 384.066 339.671 376.348 339.671H238.334C230.598 339.671 224.339 332.904 224.339 324.546V28.9412C224.339 11.9154 230.598 11.0589 238.334 11.0589H265.976C267.586 11.0589 268.894 12.8848 268.894 15.1436V16.0848C268.894 21.3836 271.802 21.4024 275.36 21.4024H339.294C342.889 21.4024 345.769 21.4024 345.769 16.0848V15.1436C345.769 12.8848 347.068 11.0589 348.696 11.0589H376.329C384.047 11.0589 390.306 13.3271 390.306 28.9412L390.325 324.546Z" fill="#263238"/>
<path d="M390.287 28.9412V324.546C390.287 332.904 384.028 339.671 376.311 339.671H238.334C230.598 339.671 224.339 332.904 224.339 324.546V28.9412C224.339 11.9153 230.598 11.0588 238.334 11.0588H265.977C267.586 11.0588 268.894 12.8847 268.894 15.1435V16.0847C268.894 21.3835 271.802 21.4024 275.36 21.4024H339.294C342.889 21.4024 345.769 21.4024 345.769 16.0847V15.1435C345.769 12.8847 347.068 11.0588 348.697 11.0588H376.329C384.028 11.0588 390.287 13.3177 390.287 28.9412Z" fill="white"/>
<path d="M261.176 17.6942C261.092 17.7789 260.998 17.8636 260.913 17.9578L260.762 18.1083C260.079 17.4261 259.154 17.0429 258.188 17.0429C257.223 17.0429 256.297 17.4261 255.614 18.1083L255.463 17.9578L255.2 17.6942L255.529 17.4025C256.057 16.976 256.68 16.6851 257.346 16.5554C257.525 16.5554 257.694 16.5083 257.863 16.4801H258.353H258.711C259.032 16.5213 259.348 16.6003 259.652 16.7154C259.873 16.7951 260.087 16.8927 260.292 17.0072C260.507 17.1352 260.711 17.2799 260.903 17.4401L261.186 17.6942H261.176Z" fill="#C7C7C7"/>
<path d="M256.471 18.946L256.047 18.5319C256.508 18.063 257.11 17.7587 257.76 17.666C258.228 17.5974 258.706 17.6391 259.156 17.7878C259.605 17.9365 260.013 18.1881 260.348 18.5225L259.925 18.946C259.466 18.4891 258.845 18.2325 258.198 18.2325C257.55 18.2325 256.929 18.4891 256.471 18.946Z" fill="#C7C7C7"/>
<path d="M259.52 19.3695L259.096 19.793C258.982 19.6746 258.844 19.5809 258.692 19.5178C258.54 19.4546 258.376 19.4234 258.212 19.426C258.047 19.4239 257.884 19.4555 257.732 19.5186C257.579 19.5817 257.442 19.675 257.327 19.793L256.913 19.3695C257.263 19.033 257.73 18.8451 258.216 18.8451C258.702 18.8451 259.169 19.033 259.52 19.3695Z" fill="#C7C7C7"/>
<path d="M258.598 20.1696C258.599 20.2463 258.578 20.3218 258.537 20.3864C258.496 20.4511 258.436 20.5021 258.366 20.5327C258.296 20.5634 258.218 20.5724 258.142 20.5585C258.067 20.5447 257.997 20.5088 257.942 20.4552C257.887 20.4016 257.85 20.3329 257.834 20.2578C257.818 20.1827 257.825 20.1046 257.854 20.0336C257.883 19.9625 257.933 19.9017 257.996 19.8588C258.06 19.816 258.135 19.7931 258.212 19.7931C258.262 19.7918 258.312 19.8006 258.359 19.819C258.405 19.8374 258.448 19.8649 258.484 19.9C258.52 19.9351 258.549 19.977 258.568 20.0233C258.588 20.0696 258.598 20.1193 258.598 20.1696Z" fill="#C7C7C7"/>
<path d="M235.162 18.4941C235.162 18.2763 235.227 18.0634 235.348 17.8823C235.469 17.7013 235.641 17.5601 235.842 17.4768C236.043 17.3934 236.265 17.3716 236.478 17.4141C236.692 17.4566 236.888 17.5615 237.042 17.7155C237.196 17.8695 237.301 18.0657 237.344 18.2793C237.386 18.4929 237.364 18.7143 237.281 18.9155C237.198 19.1167 237.056 19.2887 236.875 19.4097C236.694 19.5307 236.481 19.5953 236.264 19.5953C236.119 19.5953 235.976 19.5668 235.842 19.5115C235.709 19.4561 235.587 19.375 235.485 19.2728C235.383 19.1705 235.302 19.0491 235.246 18.9155C235.191 18.7819 235.162 18.6387 235.162 18.4941Z" fill="#C7C7C7"/>
<path d="M238.588 18.4941C238.588 18.2763 238.653 18.0634 238.774 17.8823C238.895 17.7013 239.067 17.5601 239.268 17.4768C239.469 17.3934 239.691 17.3716 239.904 17.4141C240.118 17.4566 240.314 17.5615 240.468 17.7155C240.622 17.8695 240.727 18.0657 240.769 18.2793C240.812 18.4929 240.79 18.7143 240.707 18.9155C240.623 19.1167 240.482 19.2887 240.301 19.4097C240.12 19.5307 239.907 19.5953 239.689 19.5953C239.545 19.5953 239.402 19.5668 239.268 19.5115C239.134 19.4561 239.013 19.375 238.911 19.2728C238.808 19.1705 238.727 19.0491 238.672 18.9155C238.617 18.7819 238.588 18.6387 238.588 18.4941Z" fill="#C7C7C7"/>
<path d="M242.089 18.4941C242.089 18.2763 242.154 18.0634 242.275 17.8823C242.396 17.7013 242.568 17.5601 242.769 17.4768C242.97 17.3934 243.192 17.3716 243.405 17.4141C243.619 17.4566 243.815 17.5615 243.969 17.7155C244.123 17.8695 244.228 18.0657 244.271 18.2793C244.313 18.4929 244.291 18.7143 244.208 18.9155C244.125 19.1167 243.983 19.2887 243.802 19.4097C243.621 19.5307 243.408 19.5953 243.191 19.5953C243.046 19.5953 242.903 19.5668 242.769 19.5115C242.636 19.4561 242.514 19.375 242.412 19.2728C242.31 19.1705 242.229 19.0491 242.173 18.9155C242.118 18.7819 242.089 18.6387 242.089 18.4941Z" fill="#C7C7C7"/>
<path d="M245.562 18.4942C245.562 18.276 245.627 18.0627 245.749 17.8815C245.87 17.7002 246.043 17.559 246.244 17.476C246.446 17.3929 246.668 17.3717 246.882 17.4149C247.096 17.4582 247.292 17.564 247.445 17.7189C247.599 17.8739 247.703 18.071 247.745 18.2852C247.786 18.4994 247.763 18.7211 247.678 18.9222C247.593 19.1232 247.451 19.2945 247.268 19.4144C247.086 19.5343 246.872 19.5972 246.654 19.5954C246.51 19.5954 246.367 19.5668 246.234 19.5114C246.101 19.4559 245.98 19.3747 245.879 19.2723C245.777 19.1699 245.697 19.0484 245.643 18.9149C245.588 18.7813 245.561 18.6384 245.562 18.4942Z" fill="#C7C7C7"/>
<path d="M249.026 18.4942C249.026 18.276 249.091 18.0627 249.212 17.8815C249.334 17.7002 249.506 17.559 249.708 17.476C249.91 17.3929 250.132 17.3717 250.345 17.4149C250.559 17.4582 250.755 17.564 250.909 17.7189C251.063 17.8739 251.167 18.071 251.208 18.2852C251.25 18.4994 251.227 18.7211 251.142 18.9222C251.057 19.1232 250.914 19.2945 250.732 19.4144C250.55 19.5343 250.336 19.5972 250.118 19.5954C249.974 19.5954 249.831 19.5668 249.698 19.5114C249.565 19.4559 249.444 19.3747 249.342 19.2723C249.241 19.1699 249.161 19.0484 249.106 18.9149C249.052 18.7813 249.025 18.6384 249.026 18.4942Z" fill="#C7C7C7"/>
<path d="M377.882 20.9036H368.932V16.7531H377.882V20.9036ZM369.412 20.4425H377.459V17.2048H369.412V20.4425Z" fill="#C7C7C7"/>
<path d="M375.407 17.4589H369.638V20.1977H375.407V17.4589Z" fill="#C7C7C7"/>
<path d="M378.654 17.713H377.854V19.9342H378.654V17.713Z" fill="#C7C7C7"/>
<path d="M316.038 14.8236H298.607C298.32 14.8236 298.045 14.7096 297.842 14.5066C297.639 14.3036 297.525 14.0283 297.525 13.7413C297.527 13.4559 297.642 13.183 297.845 12.982C298.048 12.7811 298.322 12.6683 298.607 12.6683H316.038C316.323 12.6683 316.597 12.7811 316.8 12.982C317.002 13.183 317.117 13.4559 317.12 13.7413C317.12 14.0283 317.006 14.3036 316.803 14.5066C316.6 14.7096 316.325 14.8236 316.038 14.8236Z" fill="white"/>
<path d="M245.92 322.268H245.111V325.995H243.586V324.104H240.904V325.995H239.388V322.268H238.579L242.249 318.475L245.92 322.268Z" fill="#EBEBEB"/>
<path d="M377.374 318.475H368.527V319.737H377.374V318.475Z" fill="#EBEBEB"/>
<path d="M377.374 321.609H368.527V322.871H377.374V321.609Z" fill="#EBEBEB"/>
<path d="M377.374 324.734H368.527V325.995H377.374V324.734Z" fill="#EBEBEB"/>
<path d="M310.579 322.372L308.066 325.054L305.543 322.372L305.995 321.948L308.066 324.16L310.136 321.948L310.579 322.372Z" fill="#EBEBEB"/>
<path d="M308.066 327.831C307.161 327.832 306.276 327.566 305.522 327.064C304.769 326.563 304.181 325.849 303.833 325.013C303.486 324.178 303.394 323.258 303.569 322.37C303.745 321.482 304.18 320.666 304.819 320.025C305.458 319.385 306.273 318.948 307.161 318.771C308.048 318.594 308.968 318.684 309.805 319.03C310.641 319.376 311.356 319.962 311.859 320.714C312.362 321.467 312.631 322.351 312.631 323.256C312.628 324.467 312.147 325.628 311.292 326.485C310.436 327.342 309.277 327.826 308.066 327.831ZM308.066 319.294C307.28 319.292 306.51 319.524 305.856 319.96C305.201 320.395 304.691 321.016 304.389 321.742C304.087 322.468 304.008 323.267 304.161 324.038C304.314 324.81 304.692 325.518 305.248 326.074C305.804 326.63 306.513 327.009 307.284 327.162C308.055 327.315 308.855 327.235 309.581 326.934C310.307 326.632 310.927 326.121 311.363 325.467C311.799 324.812 312.03 324.043 312.028 323.256C312.026 322.206 311.608 321.2 310.865 320.457C310.122 319.715 309.116 319.297 308.066 319.294Z" fill="#EBEBEB"/>
<path d="M381.515 33.0824H233.129V76.3953H381.515V33.0824Z" fill="#3A5985"/>
<path d="M241.572 47.0024L236.668 42.4001L241.572 37.8071L242.334 38.6165L238.296 42.4001L242.334 46.1836L241.572 47.0024Z" fill="white"/>
<path d="M377.986 39.5388C377.986 39.725 377.931 39.9069 377.827 40.0617C377.724 40.2165 377.577 40.3371 377.405 40.4084C377.233 40.4796 377.044 40.4982 376.861 40.4619C376.679 40.4256 376.511 40.336 376.379 40.2043C376.248 40.0727 376.158 39.905 376.122 39.7224C376.085 39.5399 376.104 39.3506 376.175 39.1787C376.246 39.0067 376.367 38.8597 376.522 38.7563C376.677 38.6529 376.859 38.5977 377.045 38.5977C377.294 38.5977 377.534 38.6968 377.71 38.8733C377.887 39.0498 377.986 39.2892 377.986 39.5388Z" fill="white"/>
<path d="M377.986 42.9741C377.986 43.1603 377.931 43.3422 377.827 43.497C377.724 43.6518 377.577 43.7724 377.405 43.8437C377.233 43.9149 377.044 43.9335 376.861 43.8972C376.679 43.8609 376.511 43.7713 376.379 43.6396C376.248 43.508 376.158 43.3403 376.122 43.1577C376.085 42.9752 376.104 42.7859 376.175 42.614C376.246 42.442 376.367 42.295 376.522 42.1916C376.677 42.0882 376.859 42.033 377.045 42.033C377.294 42.033 377.534 42.1321 377.71 42.3086C377.887 42.4851 377.986 42.7245 377.986 42.9741Z" fill="white"/>
<path d="M377.986 46.4C377.986 46.5862 377.931 46.7681 377.827 46.9229C377.724 47.0777 377.577 47.1983 377.405 47.2696C377.233 47.3408 377.044 47.3594 376.861 47.3231C376.679 47.2868 376.511 47.1972 376.379 47.0656C376.248 46.9339 376.158 46.7662 376.122 46.5836C376.085 46.4011 376.104 46.2118 376.175 46.0399C376.246 45.8679 376.367 45.7209 376.522 45.6175C376.677 45.5141 376.859 45.4589 377.045 45.4589C377.294 45.4589 377.534 45.558 377.71 45.7345C377.887 45.911 377.986 46.1504 377.986 46.4Z" fill="white"/>
<path d="M249.026 42.4001C266.099 41.7695 283.294 41.7695 300.376 42.4001C283.294 43.0307 266.099 43.0307 249.026 42.4001Z" fill="white"/>
<path d="M249.026 47.0025C260.555 46.6919 273.242 46.6919 284.791 47.0025C273.261 47.3131 260.574 47.3036 249.026 47.0025Z" fill="white"/>
<path d="M266.005 62.8236C292.471 62.5318 322.165 62.5318 348.621 62.8236C322.165 63.1153 292.471 63.1153 266.005 62.8236Z" fill="white"/>
<path d="M239.887 111.981C263.303 111.812 286.729 111.85 310.146 111.784C333.562 111.718 356.988 111.784 380.414 111.981C356.988 112.141 333.572 112.104 310.146 112.169C286.72 112.235 263.303 112.141 239.887 111.981Z" fill="#455A64"/>
<path d="M239.887 127.765C263.303 127.605 286.729 127.642 310.146 127.576C333.562 127.511 356.988 127.576 380.414 127.765C356.988 127.934 333.572 127.896 310.146 127.962C286.72 128.028 263.303 127.972 239.887 127.765Z" fill="#455A64"/>
<path d="M239.887 143.633C263.303 143.473 286.729 143.511 310.146 143.445C333.562 143.379 356.988 143.445 380.414 143.633C356.988 143.802 333.572 143.765 310.146 143.831C286.72 143.897 263.303 143.765 239.887 143.633Z" fill="#455A64"/>
<path d="M239.887 159.464C263.303 159.304 286.729 159.341 310.146 159.275C333.562 159.209 356.988 159.275 380.414 159.464C356.988 159.633 333.572 159.586 310.146 159.661C286.729 159.586 263.303 159.633 239.887 159.464Z" fill="#455A64"/>
<path d="M239.887 175.294C263.303 175.125 286.729 175.172 310.146 175.106C333.562 175.04 356.988 175.106 380.414 175.294C356.988 175.464 333.572 175.417 310.146 175.492C286.729 175.417 263.303 175.464 239.887 175.294Z" fill="#455A64"/>
<path d="M268.179 101.685C268.386 116.48 268.329 131.266 268.424 146.061C268.339 160.847 268.424 175.642 268.179 190.428C267.972 175.642 268.028 160.847 267.944 146.061C268.028 131.266 267.972 116.471 268.179 101.685Z" fill="#455A64"/>
<path d="M292.48 101.685C292.687 116.48 292.63 131.266 292.725 146.061C292.63 160.847 292.725 175.642 292.48 190.428C292.273 175.642 292.329 160.847 292.245 146.061C292.329 131.266 292.235 116.471 292.48 101.685Z" fill="#455A64"/>
<path d="M316.781 101.685C316.988 116.48 316.932 131.266 317.016 146.061C316.932 160.847 317.016 175.642 316.781 190.428C316.574 175.642 316.63 160.847 316.536 146.061C316.63 131.266 316.574 116.471 316.781 101.685Z" fill="#455A64"/>
<path d="M341.082 101.685C341.289 116.48 341.233 131.266 341.318 146.061C341.233 160.847 341.318 175.642 341.082 190.428C340.875 175.642 340.922 160.847 340.838 146.061C340.932 131.266 340.875 116.471 341.082 101.685Z" fill="#455A64"/>
<path d="M365.384 101.685C365.591 116.48 365.534 131.266 365.619 146.061C365.534 160.847 365.619 175.642 365.384 190.428C365.177 175.642 365.224 160.847 365.139 146.061C365.224 131.266 365.177 116.471 365.384 101.685Z" fill="#455A64"/>
<path opacity="0.5" d="M243.426 163.812C247.718 163.812 250.278 147.737 256.348 147.737C262.419 147.737 263.068 159.464 268.179 159.464C273.289 159.464 273.139 138.861 280.009 138.861C286.88 138.861 285.289 147.219 292.48 147.219C299.67 147.219 296.941 127.765 304.47 127.765C312 127.765 308.95 154.513 316.781 154.513C321.741 154.513 323.652 146.042 329.572 146.042C333.487 146.042 335.793 150.287 340.913 150.287C346.033 150.287 347.153 133.948 353.553 133.948C359.953 133.948 360.678 143.614 365.383 143.614C370.089 143.614 371.774 127.784 380.442 127.784V190.409H243.426V163.812Z" fill="#3A5985"/>
<path opacity="0.3" d="M243.426 163.812C247.718 163.812 250.278 147.737 256.348 147.737C262.419 147.737 263.068 159.464 268.179 159.464C273.289 159.464 273.139 138.861 280.009 138.861C286.88 138.861 285.289 147.219 292.48 147.219C299.67 147.219 296.941 127.765 304.47 127.765C312 127.765 308.95 154.513 316.781 154.513C321.741 154.513 323.652 146.042 329.572 146.042C333.487 146.042 335.793 150.287 340.913 150.287C346.033 150.287 347.153 133.948 353.553 133.948C359.953 133.948 360.678 143.614 365.383 143.614C370.089 143.614 371.774 127.784 380.442 127.784V190.409H243.426V163.812Z" fill="#3A5985"/>
<path d="M243.426 164.584V163.04C244.725 163.04 246.513 159.275 247.821 156.546C250.061 151.84 252.386 146.965 256.348 146.965C260.113 146.965 262.042 150.532 263.708 153.675C265.016 156.141 266.362 158.692 268.179 158.692C269.779 158.692 271.162 153.741 272.179 150.127C273.835 144.207 275.548 138.089 280.009 138.089C283.99 138.089 285.553 140.489 286.927 142.607C288.301 144.725 289.421 146.447 292.48 146.447C295.247 146.447 296.329 141.911 297.374 137.525C298.607 132.367 299.878 127.031 304.47 127.031C309.063 127.031 310.193 133.751 311.426 140.866C312.423 146.617 313.656 153.779 316.781 153.779C318.663 153.779 320.169 152.009 321.788 150.146C323.746 147.868 325.976 145.28 329.572 145.28C331.727 145.28 333.412 146.334 335.04 147.36C336.668 148.386 338.513 149.534 340.913 149.534C342.692 149.534 344.31 145.647 345.619 142.522C347.501 137.939 349.506 133.195 353.562 133.195C357.619 133.195 359.567 136.282 361.318 139.002C362.598 140.988 363.802 142.861 365.393 142.861C366.748 142.861 368.273 139.859 369.628 137.214C371.934 132.678 374.805 127.04 380.423 127.04V128.593C376.094 128.593 373.609 133.487 371.407 137.798C369.525 141.497 368.038 144.386 365.393 144.386C362.748 144.386 361.167 142.099 359.614 139.68C358.061 137.261 356.414 134.72 353.562 134.72C350.889 134.72 349.063 139.115 347.445 142.993C345.638 147.313 344.085 151.049 340.922 151.049C337.76 151.049 335.746 149.722 333.873 148.555C332.376 147.614 331.049 146.805 329.581 146.805C326.993 146.805 325.158 148.932 323.369 151.002C321.581 153.073 319.661 155.294 316.781 155.294C311.99 155.294 310.786 148.377 309.515 141.054C308.574 135.482 307.35 128.555 304.47 128.555C301.59 128.555 300.292 133.459 299.266 137.788C298.014 143.021 296.838 147.962 292.48 147.962C288.122 147.962 286.645 145.487 285.223 143.257C283.943 141.28 282.823 139.567 280.009 139.567C277.195 139.567 275.407 145.572 274.052 150.409C272.527 155.859 271.313 160.169 268.179 160.169C265.045 160.169 263.567 157.28 261.939 154.212C260.433 151.388 258.88 148.442 256.348 148.442C253.816 148.442 251.445 153.205 249.619 157.026C247.623 161.28 246.052 164.584 243.426 164.584Z" fill="#3A5985"/>
<path opacity="0.5" d="M316.781 154.551V190.428H292.48V147.219C299.671 147.219 296.941 127.765 304.471 127.765C312 127.765 308.951 154.551 316.781 154.551Z" fill="#3A5985"/>
<path d="M304.461 131.153C306.587 131.153 308.311 129.43 308.311 127.304C308.311 125.178 306.587 123.454 304.461 123.454C302.335 123.454 300.612 125.178 300.612 127.304C300.612 129.43 302.335 131.153 304.461 131.153Z" fill="#263238"/>
<path d="M306.663 127.304C306.663 127.739 306.534 128.165 306.292 128.527C306.05 128.889 305.706 129.172 305.304 129.338C304.901 129.505 304.459 129.549 304.031 129.464C303.604 129.379 303.212 129.169 302.904 128.861C302.596 128.553 302.386 128.16 302.301 127.733C302.216 127.306 302.26 126.863 302.426 126.461C302.593 126.058 302.875 125.714 303.238 125.472C303.6 125.23 304.026 125.101 304.461 125.101C305.045 125.101 305.605 125.333 306.018 125.746C306.431 126.159 306.663 126.719 306.663 127.304Z" fill="#3A5985"/>
<path d="M311.398 111.614H297.431V119.407H311.398V111.614Z" fill="#3A5985"/>
<path d="M302.569 119.407H306.249L304.414 122.052L302.569 119.407Z" fill="#3A5985"/>
<path d="M300.038 114.494C302.984 114.334 305.938 114.334 308.885 114.494C305.938 114.645 302.985 114.645 300.038 114.494Z" fill="white"/>
<path d="M300.038 116C302.984 115.84 305.938 115.84 308.885 116C305.938 116.155 302.985 116.155 300.038 116Z" fill="white"/>
<path d="M243.426 102.645C243.586 117.28 243.718 131.906 243.727 146.541L243.878 190.428L243.426 190.071L311.915 190.155L346.165 190.231L380.414 190.428L346.165 190.626L311.915 190.701L243.426 190.795H242.974V190.428L243.125 146.541C243.134 131.906 243.294 117.28 243.426 102.645Z" fill="#455A64"/>
<path d="M250.758 196.998C253.992 196.508 257.283 196.508 260.518 196.998C257.282 197.478 253.993 197.478 250.758 196.998Z" fill="#DBDBDB"/>
<path d="M233.129 111.981C234.57 111.492 236.131 111.492 237.572 111.981C236.13 112.461 234.571 112.461 233.129 111.981Z" fill="#DBDBDB"/>
<path d="M233.129 127.765C234.571 127.285 236.13 127.285 237.572 127.765C236.131 128.254 234.57 128.254 233.129 127.765Z" fill="#DBDBDB"/>
<path d="M233.129 143.633C234.571 143.153 236.13 143.153 237.572 143.633C236.131 144.122 234.57 144.122 233.129 143.633Z" fill="#DBDBDB"/>
<path d="M233.129 159.464C234.571 158.983 236.13 158.983 237.572 159.464C236.131 159.953 234.57 159.953 233.129 159.464Z" fill="#DBDBDB"/>
<path d="M233.129 175.294C234.57 174.809 236.131 174.809 237.572 175.294C236.131 175.779 234.57 175.779 233.129 175.294Z" fill="#DBDBDB"/>
<path d="M274.701 196.998C277.933 196.508 281.22 196.508 284.452 196.998C281.219 197.478 277.934 197.478 274.701 196.998Z" fill="#DBDBDB"/>
<path d="M298.635 196.998C301.87 196.508 305.16 196.508 308.395 196.998C305.16 197.478 301.871 197.478 298.635 196.998Z" fill="#DBDBDB"/>
<path d="M322.569 196.998C325.804 196.508 329.094 196.508 332.329 196.998C329.094 197.478 325.805 197.478 322.569 196.998Z" fill="#DBDBDB"/>
<path d="M346.503 196.998C349.738 196.508 353.028 196.508 356.263 196.998C353.028 197.478 349.739 197.478 346.503 196.998Z" fill="#DBDBDB"/>
<path d="M370.447 196.998C373.682 196.508 376.972 196.508 380.207 196.998C376.971 197.478 373.683 197.478 370.447 196.998Z" fill="#DBDBDB"/>
<path d="M233.252 87.4353C247.031 86.7953 260.913 86.7953 274.663 87.4353C260.875 88.0753 246.993 88.0753 233.252 87.4353Z" fill="#DBDBDB"/>
<path d="M233.252 91.793C242.103 91.1435 250.989 91.1435 259.84 91.793C250.989 92.433 242.103 92.433 233.252 91.793Z" fill="#DBDBDB"/>
<path d="M353.826 91.793C362.682 91.313 371.558 91.313 380.414 91.793C371.558 92.2636 362.682 92.2636 353.826 91.793Z" fill="#3A5985"/>
<path d="M234.174 211.53C248.103 210.89 262.155 210.89 276.094 211.53C262.146 212.17 248.103 212.17 234.174 211.53Z" fill="#263238"/>
<path d="M348.753 211.529C359.3 211.059 369.854 211.059 380.414 211.529C369.867 212.006 359.313 212.006 348.753 211.529Z" fill="#3A5985"/>
<path d="M262.711 224.706C273.682 224.062 284.681 224.062 295.652 224.706C284.681 225.345 273.682 225.345 262.711 224.706Z" fill="#263238"/>
<path d="M262.711 229.534C271.911 228.894 281.144 228.894 290.344 229.534C281.144 230.174 271.911 230.174 262.711 229.534Z" fill="#263238"/>
<path d="M380.414 245.054C380.085 244.734 233.515 245.995 233.854 245.054V219.341V218.984H234.212L307.294 219.059C331.699 219.115 356.104 219.059 380.518 219.21C380.518 219.294 380.376 244.922 380.414 245.026V245.054ZM380.414 245.054L380.311 219.341C356.602 219.774 331.473 219.426 307.294 219.586C307.624 219.332 232.489 220.273 234.522 219.341V245.054C232.527 244.179 380.894 245.327 380.452 245.054H380.414Z" fill="#DBDBDB"/>
<path d="M256.593 223.04H237.958V241.675H256.593V223.04Z" fill="#3A5985"/>
<path d="M376.132 232.358C376.132 234.62 375.31 236.804 373.818 238.505C372.326 240.205 370.267 241.304 368.024 241.598C365.781 241.892 363.508 241.359 361.629 240.101C359.749 238.842 358.392 236.942 357.81 234.757C357.228 232.571 357.461 230.248 358.466 228.221C359.47 226.195 361.178 224.603 363.27 223.742C365.361 222.882 367.695 222.811 369.835 223.545C371.974 224.278 373.774 225.764 374.899 227.727C375.707 229.137 376.132 230.733 376.132 232.358Z" fill="#455A64"/>
<path d="M374.899 227.727L366.814 232.358V223.04C368.455 223.041 370.066 223.475 371.486 224.298C372.905 225.121 374.083 226.304 374.899 227.727Z" fill="#3A5985"/>
<path d="M366.814 238.805C370.375 238.805 373.261 235.918 373.261 232.358C373.261 228.797 370.375 225.911 366.814 225.911C363.254 225.911 360.367 228.797 360.367 232.358C360.367 235.918 363.254 238.805 366.814 238.805Z" fill="white"/>
<path d="M262.711 257.751C273.682 257.112 284.681 257.112 295.652 257.751C284.681 258.39 273.682 258.39 262.711 257.751Z" fill="#263238"/>
<path d="M262.711 262.598C271.911 261.958 281.144 261.958 290.344 262.598C281.144 263.238 271.911 263.238 262.711 262.598Z" fill="#263238"/>
<path d="M380.414 278.118C380.085 277.798 233.515 279.059 233.854 278.118V252.405V252.047H234.212L307.332 252.151C331.736 252.207 356.141 252.151 380.555 252.301C380.555 252.386 380.414 278.014 380.452 278.118H380.414ZM380.414 278.118L380.311 252.405C356.602 252.838 331.473 252.489 307.294 252.649C307.624 252.395 232.489 253.337 234.522 252.405V278.118C232.527 277.242 380.894 278.391 380.452 278.118H380.414Z" fill="#DBDBDB"/>
<path d="M256.593 256.104H237.958V274.739H256.593V256.104Z" fill="#455A64"/>
<path d="M376.132 265.421C376.132 267.683 375.31 269.868 373.818 271.568C372.326 273.268 370.267 274.368 368.024 274.661C365.781 274.955 363.508 274.423 361.629 273.164C359.749 271.905 358.392 270.006 357.81 267.82C357.228 265.634 357.461 263.311 358.466 261.285C359.47 259.258 361.178 257.666 363.27 256.806C365.361 255.945 367.695 255.875 369.835 256.608C371.974 257.341 373.774 258.828 374.899 260.791C375.707 262.2 376.132 263.797 376.132 265.421Z" fill="#455A64"/>
<path d="M376.132 265.421C376.131 265.878 376.096 266.334 376.028 266.786L366.814 265.421V256.104C369.285 256.104 371.655 257.085 373.403 258.833C375.15 260.58 376.132 262.95 376.132 265.421Z" fill="#3A5985"/>
<path d="M373.252 265.421C373.254 266.697 372.877 267.945 372.169 269.007C371.461 270.068 370.455 270.896 369.276 271.385C368.098 271.874 366.801 272.003 365.549 271.754C364.298 271.506 363.148 270.892 362.246 269.989C361.344 269.087 360.73 267.938 360.481 266.686C360.233 265.435 360.361 264.138 360.85 262.959C361.339 261.781 362.167 260.774 363.229 260.066C364.29 259.359 365.538 258.982 366.814 258.984C368.521 258.986 370.157 259.665 371.363 260.872C372.57 262.079 373.249 263.715 373.252 265.421Z" fill="white"/>
<path d="M262.711 290.814C273.682 290.175 284.681 290.175 295.652 290.814C284.681 291.453 273.682 291.453 262.711 290.814Z" fill="#263238"/>
<path d="M262.711 295.661C271.911 295.021 281.144 295.021 290.344 295.661C281.144 296.301 271.911 296.301 262.711 295.661Z" fill="#263238"/>
<path d="M380.414 311.181C380.085 310.861 233.515 312.122 233.854 311.181V285.468V285.111H234.212L307.332 285.214C331.736 285.271 356.141 285.214 380.555 285.365C380.555 285.449 380.414 311.078 380.452 311.181H380.414ZM380.414 311.181L380.311 285.468C356.602 285.901 331.473 285.553 307.294 285.713C307.624 285.459 232.489 286.4 234.522 285.468V311.181C232.527 310.306 380.894 311.454 380.452 311.181H380.414Z" fill="#DBDBDB"/>
<path d="M256.593 289.167H237.958V307.802H256.593V289.167Z" fill="#3A5985"/>
<path d="M376.132 298.485C376.133 300.369 375.562 302.209 374.495 303.762C373.428 305.314 371.915 306.507 370.155 307.181C369.09 307.594 367.957 307.804 366.814 307.802C364.971 307.802 363.17 307.256 361.638 306.232C360.105 305.208 358.911 303.753 358.206 302.05C357.501 300.348 357.316 298.474 357.676 296.667C358.035 294.859 358.923 293.199 360.226 291.896C361.529 290.593 363.189 289.706 364.996 289.346C366.804 288.987 368.677 289.171 370.38 289.876C372.083 290.581 373.538 291.776 374.562 293.308C375.585 294.84 376.132 296.642 376.132 298.485Z" fill="#455A64"/>
<path d="M376.132 298.485C376.133 300.369 375.562 302.209 374.495 303.762C373.428 305.314 371.915 306.507 370.155 307.181L366.814 298.485V289.167C369.285 289.167 371.655 290.149 373.403 291.896C375.15 293.643 376.132 296.013 376.132 298.485Z" fill="#3A5985"/>
<path d="M373.252 298.485C373.254 299.761 372.877 301.008 372.169 302.07C371.461 303.132 370.455 303.96 369.276 304.449C368.098 304.938 366.801 305.066 365.549 304.818C364.298 304.569 363.148 303.955 362.246 303.053C361.344 302.151 360.73 301.001 360.481 299.75C360.233 298.498 360.361 297.201 360.85 296.023C361.339 294.844 362.167 293.837 363.229 293.13C364.29 292.422 365.538 292.045 366.814 292.047C368.521 292.05 370.157 292.729 371.363 293.935C372.57 295.142 373.249 296.778 373.252 298.485Z" fill="white"/>
</g>
<path d="M394.824 302.137C383.191 317.901 371.05 336.188 368.094 355.962C368.087 355.996 368.087 356.031 368.094 356.065C368.101 356.099 368.114 356.132 368.133 356.161C368.153 356.189 368.177 356.214 368.206 356.234C368.235 356.253 368.267 356.266 368.301 356.273C368.335 356.28 368.37 356.28 368.404 356.273C368.438 356.266 368.471 356.253 368.499 356.234C368.528 356.215 368.553 356.19 368.572 356.161C368.592 356.132 368.605 356.1 368.612 356.066C369.948 350.674 371.665 345.384 373.751 340.235C381.402 338.127 388.922 336.395 392.932 328.8C397.035 320.998 396.518 310.814 395.755 302.306C395.652 301.882 395.031 301.882 394.824 302.137Z" fill="#3A5985"/>
<path d="M373.845 340.085C379.068 328.348 385.788 316.555 394.315 306.918C394.372 306.852 394.466 306.918 394.41 307.012C388.819 313.882 384.574 321.374 380.433 328.988C384.292 325.073 388.508 321.572 392.16 317.421C392.235 317.337 392.348 317.421 392.282 317.534C388.65 321.882 384.697 326.617 379.972 329.835C378.701 332.17 377.431 334.541 376.132 336.857C376.452 336.678 376.781 336.518 377.073 336.358C377.13 336.358 377.186 336.414 377.13 336.442C376.763 336.631 376.405 336.819 376.038 336.979C375.426 338.09 374.814 339.2 374.155 340.301C374.118 340.546 373.732 340.329 373.845 340.085Z" fill="#263238"/>
<path d="M377.732 335.991C380.861 334.239 383.848 332.244 386.664 330.024C386.739 329.967 386.852 330.071 386.777 330.137C384.048 332.495 381.058 334.532 377.864 336.207C377.85 336.216 377.834 336.222 377.817 336.224C377.801 336.227 377.784 336.226 377.768 336.222C377.752 336.218 377.736 336.211 377.723 336.201C377.71 336.191 377.698 336.179 377.69 336.165C377.681 336.151 377.675 336.135 377.673 336.118C377.67 336.102 377.671 336.085 377.675 336.069C377.679 336.053 377.686 336.038 377.696 336.024C377.705 336.011 377.718 335.999 377.732 335.991Z" fill="#263238"/>
<path d="M366.72 353.026C366.72 353.261 367.153 353.261 367.144 353.026C367.209 346.513 367.144 339.972 367.247 333.431C368.913 330.071 372.499 328.207 374.984 325.506C376.776 323.538 378.333 321.368 379.624 319.04C382.628 313.485 384.464 307.374 385.016 301.082C385.704 294.118 383.059 271.144 380.122 271.906C378.598 272.311 373.675 283.699 372.367 287.464C370.249 293.686 368.699 300.087 367.736 306.588C365.355 321.873 365.553 337.647 366.72 353.026Z" fill="#3A5985"/>
<path d="M366.673 324.941C367.031 316.706 368.885 308.386 370.626 300.395C372.508 291.793 374.682 283.689 379.097 276.009C379.172 275.868 379.388 276.009 379.313 276.141C376.36 282.111 374.075 288.389 372.499 294.861C372.791 294.391 373.148 293.92 373.44 293.515C373.562 293.346 373.845 293.515 373.732 293.685C373.334 294.379 372.867 295.032 372.339 295.633C372.33 295.637 372.32 295.639 372.311 295.639C372.301 295.639 372.291 295.637 372.282 295.633C370.758 301.788 369.666 308.075 368.734 314.353C368.8 314.278 368.866 314.193 368.941 314.118C369.017 314.042 369.064 314.118 369.035 314.184C368.922 314.4 368.791 314.598 368.659 314.814C368.188 317.995 367.718 321.176 367.313 324.329C372.96 319.482 377.826 313.76 380.565 306.72C380.565 306.72 380.631 306.72 380.612 306.72C377.939 314.024 373.722 320.518 367.219 324.951C367.106 325.798 366.984 326.645 366.861 327.492C366.861 327.661 366.56 327.624 366.56 327.445C366.56 326.701 366.56 325.948 366.626 325.195C366.612 325.176 366.602 325.153 366.597 325.13C366.591 325.106 366.591 325.082 366.595 325.058C366.6 325.034 366.609 325.012 366.622 324.992C366.636 324.972 366.653 324.954 366.673 324.941Z" fill="#263238"/>
<path d="M369.346 313.007C373.685 306.532 377.732 300.254 380.904 293.101C380.911 293.083 380.926 293.068 380.944 293.06C380.963 293.052 380.984 293.051 381.003 293.059C381.021 293.066 381.036 293.081 381.044 293.1C381.052 293.118 381.052 293.139 381.045 293.158C378.372 300.264 374.626 307.464 369.563 313.177C369.538 313.196 369.507 313.207 369.475 313.208C369.443 313.208 369.412 313.197 369.387 313.178C369.362 313.158 369.344 313.13 369.337 313.1C369.329 313.069 369.333 313.036 369.346 313.007Z" fill="#263238"/>
<path d="M375.106 291.529C376.904 288.348 378.795 285.261 380.489 282.024C380.536 281.929 380.659 282.024 380.621 282.099C379.234 285.48 377.476 288.697 375.379 291.69C375.355 291.719 375.321 291.739 375.283 291.746C375.245 291.753 375.207 291.746 375.174 291.727C375.141 291.707 375.116 291.677 375.103 291.641C375.091 291.604 375.092 291.565 375.106 291.529Z" fill="#263238"/>
<path d="M374.4 292.885V292.941C374.4 292.941 374.372 292.885 374.4 292.885Z" fill="#263238"/>
<path d="M362.315 334.193C362.226 338.521 361.716 342.83 360.791 347.059C360.857 347.52 360.923 348 360.998 348.461C362.326 343.804 363.094 339.004 363.285 334.165C363.325 334.098 363.346 334.021 363.346 333.943C363.346 333.866 363.325 333.789 363.285 333.722C363.484 327.219 363.015 320.713 361.883 314.306C359.868 302.334 355.464 290.852 347.115 281.892C347.047 281.828 346.964 281.782 346.874 281.757C346.784 281.731 346.689 281.728 346.597 281.746C346.505 281.764 346.419 281.804 346.345 281.862C346.272 281.92 346.213 281.995 346.174 282.08C342.805 290.645 343.981 300.903 346.852 309.374C348.402 313.999 350.621 318.372 353.44 322.353C356.339 326.4 360 329.798 362.315 334.193Z" fill="#3A5985"/>
<path d="M348.094 285.882C356 298.72 361.506 313.939 362.212 329.101C362.212 329.365 361.769 329.44 361.732 329.158C361.544 327.802 361.337 326.447 361.12 325.101C357.845 321.967 354.485 318.664 352.141 314.748C352.141 314.673 352.207 314.598 352.254 314.654C354.961 317.987 357.862 321.158 360.941 324.151C360.377 320.8 359.702 317.5 358.918 314.25C358.701 314.014 358.494 313.76 358.287 313.515C358.08 313.271 358.381 313.12 358.522 313.28L358.711 313.497C357.6 309.041 356.22 304.656 354.579 300.367C352.565 297.967 350.315 295.887 348.847 292.998C348.847 292.932 348.904 292.875 348.951 292.932C350.127 294.588 351.275 296.254 352.612 297.788C353.139 298.4 353.732 298.974 354.278 299.567C352.444 294.913 350.267 290.402 347.765 286.071C347.671 285.882 347.972 285.704 348.094 285.882Z" fill="#263238"/>
<path d="M349.694 301.732C352.245 305.167 355.163 308.452 357.534 312.01C357.6 312.104 357.459 312.207 357.374 312.132C354.316 309.308 351.727 305.355 349.516 301.826C349.45 301.713 349.647 301.628 349.694 301.732Z" fill="#263238"/>
<path d="M357.892 312.8L358.005 312.913C358.08 312.988 357.958 313.101 357.882 313.026L357.779 312.922C357.704 312.847 357.817 312.725 357.892 312.8Z" fill="#263238"/>
<path d="M335.699 310.57C336.636 317.736 339.524 324.508 344.047 330.146C345.909 332.359 348.215 334.158 350.814 335.426C353.741 336.875 356.81 338.551 359.85 339.737C361.286 343.408 362.355 347.214 363.04 351.097C363.144 350.767 363.238 350.419 363.332 350.09C361.393 333.374 350.57 319.031 336.734 309.911C336.626 309.842 336.499 309.805 336.371 309.805C336.242 309.805 336.116 309.842 336.007 309.911C335.899 309.98 335.812 310.079 335.757 310.195C335.703 310.312 335.682 310.442 335.699 310.57Z" fill="#3A5985"/>
<path d="M340.48 315.511C340.386 315.417 340.48 315.247 340.621 315.322C348.226 320.976 354.291 328.448 358.259 337.054C358.353 337.28 358.042 337.487 357.911 337.252C357.271 336.132 356.612 335.031 355.944 333.958C352.791 333.365 349.798 331.134 347.473 329.026C347.407 328.97 347.473 328.875 347.567 328.932C348.773 330.038 350.113 330.987 351.558 331.755C352.847 332.405 354.231 332.819 355.576 333.337C354.4 331.454 353.186 329.704 351.915 327.972C348.49 326.661 345.28 324.847 342.391 322.588C342.296 322.522 342.391 322.381 342.475 322.438C345.334 324.159 348.281 325.73 351.304 327.144C349.372 324.601 347.291 322.175 345.073 319.878C344 319.313 342.908 318.748 341.873 318.137C341.862 318.132 341.853 318.126 341.845 318.118C341.837 318.11 341.83 318.1 341.826 318.09C341.822 318.079 341.819 318.068 341.819 318.057C341.819 318.045 341.822 318.034 341.826 318.024C341.83 318.013 341.837 318.004 341.845 317.996C341.853 317.988 341.862 317.981 341.873 317.977C341.883 317.972 341.894 317.97 341.906 317.97C341.917 317.97 341.928 317.972 341.939 317.977C342.802 318.28 343.627 318.685 344.395 319.181C343.144 317.967 341.864 316.725 340.48 315.511Z" fill="#263238"/>
<path d="M340.781 321.28C340.967 321.392 341.143 321.517 341.308 321.657C341.365 321.704 341.308 321.769 341.243 321.751C341.05 321.657 340.865 321.55 340.687 321.431C340.593 321.374 340.678 321.214 340.781 321.28Z" fill="#263238"/>
<path d="M384.932 387.294H347.012L350.071 352.763L350.748 345.148H381.195L381.873 352.763L384.932 387.294Z" fill="#455A64"/>
<path d="M381.873 352.763H350.071L350.748 345.148H381.195L381.873 352.763Z" fill="#263238"/>
<path d="M383.012 339.831H348.932V347.369H383.012V339.831Z" fill="#455A64"/>
<path d="M207.897 54.7483C207.902 60.7598 206.235 66.6544 203.082 71.7727C199.929 76.8911 195.414 81.0314 190.043 83.7308C184.671 86.4302 178.655 87.5822 172.666 87.058C166.677 86.5337 160.953 84.354 156.132 80.7624L140.254 84.8188L146.842 70.033C144.515 65.6878 143.21 60.8692 143.025 55.9436C142.841 51.018 143.782 46.1152 145.777 41.608C147.772 37.1009 150.769 33.1081 154.54 29.9335C158.311 26.7589 162.755 24.4861 167.537 23.2878C172.318 22.0896 177.309 21.9975 182.131 23.0186C186.954 24.0397 191.479 26.1471 195.365 29.1805C199.25 32.2139 202.392 36.0934 204.552 40.5239C206.712 44.9544 207.833 49.8192 207.831 54.7483H207.897Z" fill="white"/>
<path d="M207.897 54.7483C207.895 60.7771 206.222 66.6876 203.065 71.8234C199.907 76.9593 195.388 81.1197 190.009 83.8428C184.631 86.5658 178.602 87.745 172.594 87.2495C166.585 86.7539 160.832 84.6029 155.972 81.0353L156.254 81.0918L140.395 85.2142L139.567 85.4306L139.915 84.6495L146.504 69.8448V70.2495C144.129 65.8531 142.809 60.9656 142.645 55.9718C141.967 40.8 152.725 26.4847 167.539 23.0871C187.784 17.9106 208.075 33.8918 207.897 54.7483ZM207.897 54.7483C207.962 33.9577 187.793 18.1836 167.671 23.5859C153.318 27.0589 142.786 41.2236 143.529 55.9342C143.722 60.7862 145.009 65.5318 147.294 69.8165L147.398 70.0142L147.313 70.2212L140.706 84.9883L140.235 84.4142L156.132 80.4424H156.282C161.059 84.0598 166.75 86.2731 172.715 86.8335C178.681 87.3938 184.684 86.279 190.051 83.6143C195.417 80.9496 199.934 76.8407 203.093 71.7496C206.253 66.6585 207.929 60.787 207.934 54.7953L207.897 54.7483Z" fill="#263238"/>
<path d="M170.231 74.0329L155.708 59.3223L160.584 54.5035L169.073 63.0965L186.701 35.4541L192.48 39.1435L170.231 74.0329Z" fill="#3A5985"/>
<g filter="url(#filter2_d_214_408)">
<path d="M158.588 176.235C160.95 175.89 163.164 174.878 164.97 173.318C166.777 171.758 168.1 169.715 168.785 167.429C169.47 165.142 169.488 162.708 168.837 160.412C168.186 158.115 166.894 156.053 165.111 154.466C170.099 153.242 174.334 149.694 174.635 144.113C174.955 138.325 170.777 133.929 165.318 132.819C165.318 132.819 165.261 132.875 165.318 132.894C170.165 134.456 174.099 138.701 173.732 144.038C173.421 148.602 170.504 151.398 166.786 152.922C168.233 151.69 169.412 150.174 170.249 148.468C171.086 146.761 171.564 144.901 171.652 143.002C171.684 140.88 171.086 138.795 169.934 137.013C168.781 135.23 167.126 133.83 165.177 132.988C167.115 128.546 167.643 123.125 165.101 118.795C164.07 116.982 162.533 115.507 160.678 114.553C158.823 113.599 156.729 113.205 154.654 113.421C155.209 111.14 155.081 108.745 154.288 106.535C153.495 104.325 152.071 102.397 150.193 100.988C148.314 99.5792 146.064 98.7527 143.72 98.6105C141.376 98.4684 139.042 99.0169 137.007 100.188C137.241 98.5103 137.047 96.8005 136.444 95.2172C135.842 93.6339 134.849 92.2283 133.559 91.1304C132.269 90.0325 130.722 89.2779 129.063 88.9364C127.404 88.5948 125.685 88.6774 124.066 89.1765C123.994 87.8796 123.55 86.6309 122.787 85.5795C122.024 84.5281 120.975 83.7184 119.765 83.2471C116.941 82.0424 113.835 82.7012 111.078 83.8212C110.305 82.7067 109.266 81.8039 108.054 81.1955C106.842 80.5871 105.497 80.2926 104.141 80.3388C102.398 80.4587 100.754 81.195 99.5042 82.4158C98.2541 83.6366 97.4791 85.2624 97.3178 87.0024C92.6119 85.8635 87.3414 85.2894 82.9367 87.6612C79.3131 89.6188 76.5931 93.5435 77.0825 97.7224C75.0341 97.5052 72.9628 97.725 71.0055 98.3671C69.0482 99.0092 67.2493 100.059 65.7275 101.448C64.2057 102.836 62.9956 104.531 62.1771 106.422C61.3586 108.312 60.9502 110.354 60.979 112.414C59.218 112.76 57.5789 113.564 56.226 114.743C54.8731 115.922 53.854 117.437 53.2708 119.134C52.3686 121.436 52.0455 123.925 52.3296 126.381C50.7738 126.804 49.3909 127.706 48.3772 128.96C47.3634 130.214 46.7705 131.755 46.6825 133.365C46.4849 136.584 48.0567 139.162 50.2214 141.28C50.4158 142.132 50.4158 143.016 50.2214 143.868C49.758 146.024 49.8371 148.261 50.4515 150.378C51.0658 152.495 52.1963 154.427 53.7414 156C53.1245 157.135 52.7567 158.389 52.6625 159.678C52.5684 160.967 52.75 162.261 53.1953 163.474C53.6406 164.687 54.3394 165.791 55.245 166.712C56.1506 167.634 57.2423 168.352 58.4472 168.819C57.9349 171.453 58.4788 174.182 59.9614 176.418C61.4441 178.655 63.7465 180.218 66.372 180.772C66.1175 182.892 66.322 185.043 66.9715 187.078C67.6211 189.112 68.7005 190.984 70.1367 192.565C72.4049 194.993 75.972 196.725 79.1531 195.482C79.0967 198.099 81.7602 199.953 84.292 200.188C85.2549 200.243 86.221 200.19 87.172 200.028C88.292 199.859 89.6943 199.351 90.8237 199.595C91.9531 199.84 92.8284 200.96 93.7414 201.647C94.4011 202.141 95.1109 202.563 95.859 202.908C98.6777 204.143 101.833 204.381 104.805 203.582C107.777 202.783 110.388 200.995 112.207 198.513C115.746 201.148 120.471 200.169 124.123 198.08C125.286 197.371 126.388 196.565 127.417 195.671C128.288 194.815 129.402 194.25 130.607 194.052C131.398 193.958 132.217 194.052 133.017 193.958C135.727 193.666 137.563 191.793 139.153 189.751C148.904 196.405 159.84 186.984 158.588 176.235ZM47.7367 134.899C47.5817 133.225 47.9515 131.545 48.7948 130.091C49.638 128.638 50.9129 127.482 52.4425 126.786C52.4425 127.04 52.5367 127.2 52.5367 127.2C52.5367 127.2 51.699 127.944 51.332 128.348C50.6756 129.096 50.1332 129.936 49.7225 130.842C48.8446 132.737 48.5497 134.85 48.8755 136.913C49.0412 137.822 49.3194 138.708 49.7037 139.548C49.7037 139.661 49.779 139.765 49.8261 139.868C48.6825 138.437 47.9591 136.717 47.7367 134.899ZM105.704 82.5882C104.11 82.4747 102.519 82.8534 101.147 83.6732C99.7754 84.4929 98.6884 85.7142 98.0331 87.1718L97.779 87.1059C98.6543 83.8871 100.339 81.1859 104.198 81.0165C105.389 80.9767 106.57 81.2504 107.622 81.8104C108.674 82.3703 109.561 83.1968 110.193 84.2071H110.146C108.847 83.2613 107.307 82.7003 105.704 82.5882ZM139.473 189.318C139.497 189.288 139.519 189.256 139.539 189.224C142.993 190.426 146.779 190.236 150.095 188.693C153.41 187.15 155.995 184.376 157.299 180.96C154.946 188.715 148.424 194.052 139.473 189.318Z" fill="#263238"/>
<path d="M109.741 232.998C128.81 273.798 161.13 328.998 175.962 331.322C184.922 332.715 200.075 333.929 211.586 323.078C236.715 299.407 253.939 265.591 263.482 248.226C267.812 240.339 219.369 205.252 213.28 212.696C199.002 230.108 182.899 263.859 180.254 263.755C170.485 263.36 155.991 239.576 132.32 217.525C103.812 190.946 101.6 215.567 109.741 232.998Z" fill="#AD6359"/>
<path d="M256.574 259.266C268.546 246.494 284.264 227.464 284.301 219.454C284.301 211.059 283.294 181.506 280.838 174.72C278.381 167.934 265.233 150.428 259.191 148.122C254.362 146.24 251.784 152.245 257.393 163.087C263.671 175.209 261.751 180.104 262.042 183.991C262.344 188.019 255.595 205.148 249.939 206.579C246.598 207.435 239.671 207.398 238.099 201.374C236.527 195.351 238.099 189.911 235.774 179.407C233.948 171.238 227.125 166.165 224.311 167.595C221.496 169.026 223.831 173.911 221.977 186.146C220.819 193.779 219.689 199.256 210.588 210.409C202.626 220.169 202.118 233.685 202.118 233.685L256.574 259.266Z" fill="#AD6359"/>
<path d="M284.857 200.621C284.527 196.019 287.68 182.071 286.588 175.991C285.497 169.911 278.362 147.529 271.53 145.704C262.974 143.416 265.515 161.609 267.332 169.412C269.148 177.214 264.16 191.275 264.16 191.275L275.934 196.282L284.857 200.621Z" fill="#AD6359"/>
<path d="M262.475 194.485C264.584 187.407 267.181 180.217 267.304 172.781C266.937 167.454 265.873 162.212 265.619 156.847C265.544 153.666 265.346 150.193 266.955 147.313C267.229 146.84 267.607 146.436 268.06 146.131C268.514 145.826 269.031 145.628 269.572 145.553C269.059 145.672 268.578 145.903 268.163 146.228C267.748 146.553 267.41 146.965 267.172 147.435C265.826 150.334 266.146 153.675 266.344 156.8C266.701 161.035 267.398 165.271 267.944 169.515C269.045 178.146 265.544 186.588 262.475 194.485Z" fill="#263238"/>
<path d="M284.461 204.631C285.402 200.151 292.264 187.765 292.932 181.647C293.6 175.529 292.988 152.141 287.021 148.424C279.492 143.718 276.913 161.835 276.489 169.807C276.066 177.779 267.417 189.722 267.417 189.722L277.224 197.911L284.461 204.631Z" fill="#AD6359"/>
<path d="M264.885 192.282C268.857 186.146 273.355 180.047 275.473 172.969C276.602 167.802 277.035 162.513 278.297 157.336C279.106 154.287 279.868 150.918 282.202 148.631C282.594 148.254 283.066 147.974 283.584 147.81C284.101 147.647 284.65 147.606 285.186 147.689C284.663 147.649 284.137 147.727 283.648 147.918C283.16 148.108 282.72 148.407 282.362 148.791C280.282 151.181 279.661 154.438 278.984 157.468C278.155 161.609 277.657 165.807 276.998 170.014C275.68 178.532 269.995 185.628 264.885 192.263V192.282Z" fill="#263238"/>
<path d="M266.494 203.059C260.998 207.614 253.318 209.308 246.353 209.769C241.031 209.961 235.813 211.303 231.059 213.703C229.469 214.503 227.926 215.392 226.438 216.367C232.065 211.781 239.025 209.14 246.278 208.838C253.271 208.348 260.537 206.955 266.485 203.049L266.494 203.059Z" fill="#263238"/>
<path d="M283.878 150.56L258.974 218.024C258.616 218.943 257.954 219.712 257.097 220.202C256.241 220.692 255.242 220.873 254.268 220.715L220.433 213.977C219.998 213.898 219.585 213.722 219.227 213.462C218.869 213.202 218.575 212.864 218.366 212.474C218.157 212.084 218.038 211.651 218.02 211.209C218.001 210.767 218.083 210.326 218.259 209.92L243.163 142.466C243.514 141.541 244.175 140.767 245.033 140.275C245.891 139.783 246.893 139.602 247.868 139.765L281.704 146.504C282.139 146.582 282.551 146.758 282.91 147.018C283.268 147.278 283.562 147.616 283.771 148.006C283.98 148.396 284.098 148.829 284.117 149.271C284.135 149.713 284.054 150.154 283.878 150.56Z" fill="#37474F"/>
<path d="M279.624 146.089L245.741 139.36C244.767 139.197 243.766 139.376 242.908 139.866C242.05 140.357 241.389 141.129 241.035 142.052L216.132 209.506C215.956 209.912 215.874 210.353 215.893 210.795C215.911 211.237 216.029 211.669 216.238 212.06C216.448 212.45 216.742 212.787 217.1 213.048C217.458 213.308 217.87 213.484 218.306 213.562L252.188 220.301C253.163 220.462 254.163 220.283 255.02 219.792C255.877 219.302 256.539 218.531 256.894 217.609L281.798 150.155C281.975 149.749 282.058 149.307 282.041 148.864C282.023 148.42 281.905 147.987 281.696 147.595C281.487 147.204 281.192 146.865 280.833 146.604C280.474 146.344 280.06 146.168 279.624 146.089ZM255.529 215.096C255.227 215.95 254.64 216.674 253.867 217.147C253.094 217.62 252.183 217.813 251.285 217.694L221.007 211.671C220.607 211.584 220.231 211.408 219.909 211.156C219.586 210.903 219.325 210.582 219.144 210.214C218.963 209.847 218.867 209.444 218.864 209.034C218.86 208.625 218.95 208.22 219.125 207.849L242.353 145.035C243.689 141.412 245.177 141.515 246.824 141.854L252.885 143.059C253.242 143.125 253.384 143.576 253.205 144.056L253.129 144.264C252.715 145.384 253.346 145.515 254.127 145.675L268.151 148.499C268.941 148.649 269.572 148.772 270.033 147.652L270.108 147.445C270.287 146.955 270.711 146.626 271.049 146.701L277.111 147.906C278.805 148.245 280 148.998 278.777 152.311L255.529 215.096Z" fill="#263238"/>
<path d="M278.72 152.282L255.529 215.097C255.227 215.95 254.64 216.674 253.867 217.147C253.094 217.62 252.183 217.813 251.285 217.694L221.007 211.671C220.607 211.584 220.231 211.408 219.909 211.156C219.586 210.904 219.324 210.582 219.144 210.214C218.963 209.847 218.867 209.444 218.864 209.034C218.86 208.625 218.95 208.22 219.125 207.849L242.353 145.035C243.689 141.412 245.176 141.515 246.824 141.854L252.885 143.059C253.242 143.125 253.384 143.577 253.205 144.057L253.129 144.264C252.715 145.384 253.346 145.515 254.127 145.675L268.151 148.499C268.941 148.649 269.572 148.772 270.033 147.652L270.108 147.445C270.287 146.955 270.711 146.626 271.049 146.701L277.111 147.906C278.748 148.217 279.944 148.969 278.72 152.282Z" fill="white"/>
<path d="M251.285 144.264H251.2C251.152 144.174 251.083 144.096 251 144.038C250.917 143.979 250.821 143.94 250.72 143.925C250.497 143.888 250.268 143.928 250.071 144.038V143.972L250.165 143.915L250.381 143.849C250.466 143.84 250.551 143.84 250.635 143.849H250.852H250.927C250.994 143.868 251.057 143.896 251.115 143.934L251.238 144.028C251.274 144.065 251.306 144.106 251.332 144.151L251.379 144.217L251.285 144.264Z" fill="#C7C7C7"/>
<path d="M250.146 144.32L250.09 144.216C250.222 144.135 250.376 144.095 250.532 144.104C250.634 144.107 250.733 144.137 250.82 144.19C250.907 144.242 250.98 144.316 251.031 144.405L250.908 144.471C250.874 144.411 250.826 144.359 250.769 144.32C250.712 144.281 250.647 144.255 250.579 144.245C250.43 144.219 250.277 144.245 250.146 144.32Z" fill="#C7C7C7"/>
<path d="M250.824 144.546L250.701 144.612C250.684 144.583 250.66 144.559 250.633 144.539C250.605 144.52 250.574 144.506 250.541 144.499C250.469 144.471 250.388 144.471 250.316 144.499L250.259 144.395C250.305 144.366 250.357 144.346 250.412 144.337C250.466 144.329 250.522 144.332 250.575 144.346C250.628 144.36 250.677 144.385 250.72 144.42C250.763 144.454 250.798 144.497 250.824 144.546Z" fill="#C7C7C7"/>
<path d="M250.513 144.706C250.503 144.726 250.487 144.743 250.466 144.753C250.446 144.764 250.423 144.767 250.4 144.762C250.39 144.76 250.381 144.756 250.372 144.75C250.364 144.744 250.357 144.736 250.352 144.728C250.346 144.719 250.343 144.709 250.341 144.699C250.34 144.689 250.341 144.678 250.344 144.668C250.353 144.647 250.369 144.629 250.39 144.617C250.41 144.606 250.433 144.6 250.457 144.602C250.468 144.604 250.478 144.609 250.488 144.615C250.497 144.622 250.504 144.631 250.51 144.641C250.515 144.65 250.518 144.662 250.519 144.673C250.52 144.684 250.518 144.695 250.513 144.706Z" fill="#C7C7C7"/>
<path d="M245.506 143.294C245.532 143.231 245.579 143.178 245.639 143.144C245.698 143.11 245.767 143.096 245.835 143.106C245.865 143.112 245.894 143.124 245.918 143.143C245.943 143.161 245.963 143.184 245.977 143.211C245.992 143.238 246 143.268 246.002 143.299C246.003 143.329 245.998 143.36 245.986 143.388C245.963 143.454 245.917 143.509 245.856 143.543C245.796 143.578 245.725 143.589 245.657 143.576C245.627 143.57 245.598 143.558 245.574 143.54C245.549 143.521 245.529 143.498 245.515 143.471C245.5 143.444 245.492 143.414 245.49 143.383C245.489 143.353 245.494 143.322 245.506 143.294Z" fill="#C7C7C7"/>
<path d="M246.268 143.445C246.293 143.38 246.34 143.327 246.4 143.292C246.46 143.258 246.53 143.245 246.598 143.257C246.628 143.263 246.656 143.275 246.681 143.293C246.705 143.312 246.725 143.335 246.74 143.362C246.754 143.389 246.762 143.419 246.764 143.45C246.765 143.48 246.76 143.511 246.748 143.539C246.723 143.603 246.677 143.657 246.617 143.691C246.557 143.726 246.487 143.738 246.419 143.727C246.389 143.721 246.361 143.709 246.336 143.69C246.311 143.672 246.291 143.649 246.277 143.622C246.262 143.595 246.254 143.565 246.253 143.534C246.251 143.504 246.257 143.473 246.268 143.445Z" fill="#C7C7C7"/>
<path d="M247.059 143.595C247.085 143.534 247.13 143.482 247.188 143.448C247.245 143.414 247.313 143.4 247.379 143.407C247.41 143.412 247.439 143.424 247.465 143.441C247.491 143.459 247.512 143.482 247.527 143.51C247.543 143.537 247.552 143.567 247.554 143.598C247.556 143.629 247.551 143.661 247.539 143.689C247.514 143.754 247.468 143.808 247.408 143.842C247.348 143.876 247.278 143.889 247.21 143.878C247.179 143.873 247.149 143.862 247.124 143.844C247.098 143.826 247.077 143.802 247.062 143.775C247.048 143.747 247.04 143.717 247.039 143.686C247.039 143.654 247.045 143.623 247.059 143.595Z" fill="#C7C7C7"/>
<path d="M247.784 143.765C247.81 143.702 247.857 143.65 247.917 143.618C247.977 143.585 248.046 143.574 248.113 143.586C248.144 143.591 248.173 143.602 248.199 143.62C248.225 143.638 248.246 143.661 248.261 143.688C248.277 143.716 248.286 143.746 248.288 143.777C248.29 143.808 248.285 143.839 248.273 143.868C248.245 143.93 248.198 143.981 248.138 144.013C248.079 144.045 248.011 144.057 247.944 144.047C247.913 144.042 247.884 144.031 247.858 144.013C247.832 143.995 247.811 143.972 247.795 143.945C247.78 143.917 247.771 143.887 247.769 143.856C247.767 143.825 247.772 143.794 247.784 143.765Z" fill="#C7C7C7"/>
<path d="M248.546 143.897C248.573 143.834 248.62 143.782 248.68 143.75C248.739 143.717 248.808 143.706 248.875 143.718C248.906 143.722 248.936 143.734 248.961 143.751C248.987 143.769 249.008 143.793 249.023 143.82C249.037 143.848 249.045 143.879 249.046 143.91C249.047 143.941 249.04 143.972 249.026 144C248.999 144.063 248.952 144.114 248.893 144.147C248.833 144.179 248.764 144.191 248.697 144.179C248.667 144.173 248.638 144.16 248.614 144.142C248.589 144.124 248.569 144.1 248.555 144.073C248.54 144.046 248.532 144.016 248.531 143.986C248.529 143.955 248.534 143.925 248.546 143.897Z" fill="#C7C7C7"/>
<path d="M276.621 150.042L274.654 149.647L274.984 148.762L276.941 149.158L276.621 150.042ZM274.795 149.572L276.555 149.92L276.81 149.233L275.04 148.885L274.795 149.572Z" fill="#C7C7C7"/>
<path d="M276.358 149.205L275.087 148.951L274.871 149.534L276.141 149.779L276.358 149.205Z" fill="#C7C7C7"/>
<path d="M276.875 149.873L276.697 149.835L276.866 149.365L277.045 149.393L276.875 149.873Z" fill="#C7C7C7"/>
<path d="M263.539 146.042L259.708 145.28C259.679 145.275 259.65 145.264 259.626 145.247C259.601 145.229 259.581 145.207 259.566 145.18C259.552 145.154 259.543 145.125 259.542 145.095C259.54 145.065 259.546 145.035 259.558 145.007C259.584 144.946 259.629 144.896 259.687 144.863C259.745 144.831 259.812 144.819 259.878 144.828L263.708 145.591C263.738 145.595 263.766 145.607 263.791 145.624C263.815 145.641 263.836 145.664 263.85 145.69C263.865 145.717 263.873 145.746 263.875 145.776C263.876 145.806 263.871 145.836 263.859 145.864C263.834 145.925 263.789 145.977 263.73 146.009C263.672 146.042 263.605 146.054 263.539 146.042Z" fill="white"/>
<path d="M224.038 208.301L223.859 208.273L223.567 209.063L223.238 208.998L223.388 208.593L222.795 208.47L222.645 208.875L222.315 208.809L222.607 208.019L222.428 207.981L223.53 207.341L224.038 208.301Z" fill="#EBEBEB"/>
<path d="M253.073 213.515L251.134 213.12L251.238 212.856L253.177 213.242L253.073 213.515Z" fill="#EBEBEB"/>
<path d="M252.828 214.174L250.889 213.788L250.993 213.525L252.932 213.901L252.828 214.174Z" fill="#EBEBEB"/>
<path d="M252.584 214.842L250.645 214.457L250.748 214.184L252.687 214.569L252.584 214.842Z" fill="#EBEBEB"/>
<path d="M238.221 211.153L237.459 211.614L237.111 210.927L237.242 210.861L237.525 211.416L238.155 211.04L238.221 211.153Z" fill="#EBEBEB"/>
<path d="M237.233 212.198C237.107 212.176 236.987 212.127 236.882 212.053C236.778 211.979 236.691 211.882 236.63 211.769C236.568 211.657 236.533 211.532 236.526 211.404C236.52 211.276 236.543 211.148 236.593 211.031C236.697 210.765 236.89 210.543 237.138 210.402C237.387 210.262 237.676 210.211 237.958 210.259C238.084 210.28 238.204 210.329 238.309 210.403C238.413 210.478 238.499 210.575 238.561 210.687C238.623 210.799 238.658 210.924 238.664 211.052C238.671 211.18 238.648 211.308 238.598 211.426C238.494 211.692 238.301 211.914 238.052 212.054C237.804 212.195 237.515 212.245 237.233 212.198ZM237.901 210.391C237.658 210.348 237.408 210.391 237.193 210.513C236.978 210.635 236.813 210.828 236.725 211.059C236.682 211.161 236.663 211.272 236.669 211.383C236.675 211.494 236.706 211.602 236.759 211.7C236.812 211.797 236.887 211.882 236.977 211.947C237.067 212.012 237.171 212.056 237.28 212.075C237.525 212.116 237.777 212.07 237.993 211.947C238.209 211.824 238.376 211.63 238.466 211.398C238.509 211.295 238.527 211.184 238.521 211.073C238.514 210.962 238.483 210.854 238.428 210.757C238.374 210.66 238.298 210.576 238.207 210.513C238.116 210.45 238.011 210.408 237.901 210.391Z" fill="#EBEBEB"/>
<path d="M244.678 149.628L243.962 148.442L245.402 147.68L245.506 147.878L244.32 148.508L244.904 149.487L244.678 149.628Z" fill="#DBDBDB"/>
<path d="M275.191 154.005C275.168 154.061 275.126 154.107 275.073 154.137C275.02 154.166 274.959 154.176 274.899 154.165C274.872 154.162 274.846 154.152 274.823 154.137C274.801 154.121 274.782 154.101 274.769 154.077C274.756 154.053 274.749 154.026 274.749 153.999C274.749 153.971 274.755 153.944 274.767 153.92C274.788 153.865 274.828 153.818 274.88 153.789C274.931 153.76 274.991 153.75 275.05 153.76C275.077 153.764 275.102 153.774 275.125 153.789C275.148 153.804 275.166 153.824 275.18 153.848C275.194 153.871 275.202 153.898 275.204 153.925C275.205 153.952 275.201 153.979 275.191 154.005Z" fill="#DBDBDB"/>
<path d="M274.918 154.729C274.897 154.785 274.858 154.833 274.806 154.864C274.755 154.894 274.695 154.907 274.635 154.899C274.608 154.894 274.582 154.883 274.56 154.867C274.537 154.85 274.518 154.829 274.505 154.805C274.491 154.781 274.483 154.754 274.482 154.726C274.48 154.698 274.484 154.671 274.494 154.645C274.518 154.59 274.56 154.544 274.613 154.515C274.666 154.486 274.727 154.475 274.786 154.485C274.812 154.49 274.837 154.5 274.858 154.516C274.88 154.532 274.898 154.552 274.91 154.576C274.923 154.599 274.93 154.625 274.931 154.652C274.933 154.678 274.928 154.705 274.918 154.729Z" fill="#DBDBDB"/>
<path d="M274.645 155.464C274.624 155.519 274.584 155.565 274.532 155.594C274.481 155.624 274.421 155.634 274.362 155.624C274.335 155.62 274.31 155.61 274.287 155.595C274.264 155.58 274.246 155.559 274.232 155.536C274.218 155.512 274.21 155.486 274.208 155.459C274.207 155.431 274.211 155.404 274.221 155.379C274.244 155.323 274.286 155.276 274.339 155.247C274.392 155.218 274.453 155.208 274.513 155.219C274.54 155.222 274.566 155.232 274.589 155.247C274.611 155.262 274.63 155.283 274.643 155.307C274.656 155.331 274.663 155.358 274.663 155.385C274.663 155.412 274.657 155.439 274.645 155.464Z" fill="#DBDBDB"/>
<path d="M253.129 150.353C257.365 151.04 261.6 151.878 265.703 152.856C261.468 152.179 257.233 151.341 253.129 150.353Z" fill="#DBDBDB"/>
<path d="M241.28 153.525C244.34 153.971 247.374 154.574 250.372 155.332C247.312 154.885 244.278 154.282 241.28 153.525Z" fill="#DBDBDB"/>
<path d="M265.195 161.854C267.278 162.109 269.339 162.521 271.36 163.087C269.276 162.836 267.215 162.424 265.195 161.854Z" fill="#DBDBDB"/>
<path d="M264.941 162.522C267.025 162.773 269.086 163.186 271.106 163.755C269.023 163.501 266.962 163.089 264.941 162.522Z" fill="#DBDBDB"/>
<path d="M240.941 154.447C242.911 154.68 244.859 155.07 246.767 155.614C244.797 155.381 242.849 154.991 240.941 154.447Z" fill="#DBDBDB"/>
<path d="M253.722 159.765L248 167.906L244.687 176.875C243.516 176.679 242.405 176.22 241.437 175.533C240.469 174.846 239.669 173.948 239.097 172.907C238.526 171.867 238.197 170.71 238.137 169.524C238.076 168.339 238.286 167.155 238.748 166.061C239.709 163.613 241.481 161.569 243.768 160.27C246.055 158.972 248.718 158.497 251.313 158.927C252.152 159.089 252.964 159.371 253.722 159.765Z" fill="#3A5985"/>
<path d="M250.824 176.216C248.886 177.029 246.753 177.258 244.687 176.875L248 167.906L250.824 176.216Z" fill="#263238"/>
<path d="M257.252 169.741C256.683 171.206 255.817 172.537 254.709 173.651C253.601 174.765 252.275 175.639 250.814 176.217L247.991 167.906L257.28 163.699C258.025 165.646 258.015 167.801 257.252 169.741Z" fill="#37474F"/>
<path d="M258.532 163.247L247.868 168.075L254.457 158.748C256.306 159.716 257.751 161.311 258.532 163.247Z" fill="#C7C7C7"/>
<path d="M252.621 168.819C252.141 170.044 251.254 171.067 250.11 171.716C248.965 172.365 247.632 172.602 246.334 172.386C245.749 172.287 245.194 172.058 244.711 171.715C244.227 171.371 243.827 170.923 243.541 170.404C243.255 169.884 243.09 169.307 243.059 168.714C243.028 168.122 243.131 167.53 243.36 166.984C243.841 165.759 244.727 164.736 245.872 164.086C247.016 163.437 248.349 163.201 249.647 163.416C250.234 163.512 250.791 163.739 251.277 164.081C251.763 164.424 252.164 164.872 252.45 165.393C252.737 165.914 252.901 166.493 252.931 167.086C252.961 167.68 252.855 168.272 252.621 168.819Z" fill="white"/>
<path d="M263.953 162.485L262.965 162.287L263.313 161.327L264.311 161.525L263.953 162.485Z" fill="#3A5985"/>
<path d="M264.264 164.386C266.347 164.637 268.408 165.049 270.428 165.619C268.345 165.365 266.284 164.953 264.264 164.386Z" fill="#DBDBDB"/>
<path d="M264 165.054C266.083 165.307 268.143 165.716 270.165 166.278C268.082 166.027 266.021 165.618 264 165.054Z" fill="#DBDBDB"/>
<path d="M263.021 165.016L262.024 164.819L262.381 163.849L263.379 164.056L263.021 165.016Z" fill="#263238"/>
<path d="M263.323 166.918C265.409 167.168 267.474 167.58 269.497 168.151C267.41 167.896 265.347 167.484 263.323 166.918Z" fill="#DBDBDB"/>
<path d="M263.059 167.586C265.142 167.837 267.203 168.246 269.224 168.809C267.141 168.557 265.08 168.148 263.059 167.586Z" fill="#DBDBDB"/>
<path d="M262.089 167.548L261.092 167.351L261.449 166.381L262.447 166.579L262.089 167.548Z" fill="#37474F"/>
<path d="M262.391 169.449C264.474 169.7 266.534 170.109 268.555 170.673C266.473 170.421 264.412 170.012 262.391 169.449Z" fill="#DBDBDB"/>
<path d="M262.118 170.118C264.201 170.368 266.262 170.777 268.282 171.341C266.2 171.089 264.139 170.68 262.118 170.118Z" fill="#DBDBDB"/>
<path d="M261.158 170.08L260.16 169.882L260.518 168.913L261.515 169.111L261.158 170.08Z" fill="#C7C7C7"/>
<path d="M242.908 209.515L240.725 209.082L248.367 188.395L250.541 188.828L242.908 209.515Z" fill="#EBEBEB"/>
<path d="M232.471 177.958C238.344 178.965 244.48 180.188 250.25 181.496C244.377 180.48 238.231 179.266 232.471 177.958Z" fill="#263238"/>
<path d="M232.047 179.106C235.388 179.614 238.701 180.273 241.929 181.073C238.588 180.574 235.275 179.915 232.047 179.106Z" fill="#263238"/>
<path d="M257.609 182.965C259.947 183.308 262.265 183.77 264.555 184.348C262.218 184.003 259.9 183.541 257.609 182.965Z" fill="#3A5985"/>
<path d="M228.273 197.111L227.567 196.969L231.718 185.713L232.433 185.854L228.273 197.111Z" fill="#3A5985"/>
<path d="M225.242 205.327L224.527 205.176L227.2 197.939L227.915 198.089L225.242 205.327Z" fill="#455A64"/>
<path d="M233.421 193.148L232.715 192.998L235.153 186.4L235.868 186.541L233.421 193.148Z" fill="#3A5985"/>
<path d="M228.678 206.005L227.962 205.864L232.358 193.976L233.064 194.118L228.678 206.005Z" fill="#455A64"/>
<path d="M238.174 190.259L237.459 190.118L238.588 187.078L239.294 187.219L238.174 190.259Z" fill="#3A5985"/>
<path d="M232.113 206.692L231.398 206.551L237.101 191.087L237.817 191.238L232.113 206.692Z" fill="#455A64"/>
<path d="M239.643 196.273L238.927 196.132L242.014 187.765L242.73 187.906L239.643 196.273Z" fill="#3A5985"/>
<path d="M235.539 207.369L234.833 207.228L238.569 197.111L239.285 197.252L235.539 207.369Z" fill="#455A64"/>
<path d="M243.727 195.191L243.012 195.049L245.449 188.442L246.165 188.593L243.727 195.191Z" fill="#3A5985"/>
<path d="M238.974 208.056L238.259 207.915L242.654 196.028L243.36 196.169L238.974 208.056Z" fill="#455A64"/>
<path d="M244.273 203.68L243.567 203.539L248.885 189.129L249.591 189.271L244.273 203.68Z" fill="#3A5985"/>
<path d="M242.409 208.744L241.694 208.602L243.2 204.508L243.915 204.649L242.409 208.744Z" fill="#455A64"/>
<path d="M250.767 196.075L250.052 195.934L252.311 189.816L253.026 189.958L250.767 196.075Z" fill="#3A5985"/>
<path d="M245.835 209.421L245.129 209.28L249.694 196.904L250.409 197.045L245.835 209.421Z" fill="#455A64"/>
<path d="M250.08 207.906L249.365 207.765L255.746 190.494L256.461 190.645L250.08 207.906Z" fill="#3A5985"/>
<path d="M249.271 210.108L248.555 209.967L249.007 208.744L249.722 208.885L249.271 210.108Z" fill="#455A64"/>
<path d="M258.522 195.021L257.816 194.88L259.181 191.181L259.887 191.322L258.522 195.021Z" fill="#3A5985"/>
<path d="M252.706 210.795L251.991 210.645L257.45 195.849L258.165 196L252.706 210.795Z" fill="#455A64"/>
<path d="M234.974 182.504C237.06 182.758 239.124 183.17 241.148 183.736C239.061 183.486 236.997 183.074 234.974 182.504Z" fill="#DBDBDB"/>
<path d="M234.729 183.172C236.813 183.421 238.875 183.833 240.894 184.405C238.811 184.149 236.751 183.737 234.729 183.172Z" fill="#DBDBDB"/>
<path d="M233.741 183.134L232.744 182.936L233.101 181.976L234.099 182.174L233.741 183.134Z" fill="#3A5985"/>
<path d="M245.271 184.555C247.358 184.805 249.422 185.218 251.445 185.788C249.358 185.538 247.294 185.126 245.271 184.555Z" fill="#DBDBDB"/>
<path d="M245.026 185.224C247.109 185.474 249.17 185.883 251.191 186.447C249.108 186.195 247.047 185.786 245.026 185.224Z" fill="#DBDBDB"/>
<path d="M244.038 185.186L243.04 184.988L243.398 184.028L244.395 184.226L244.038 185.186Z" fill="#455A64"/>
<path d="M282.513 225.016C284.395 220.96 290.908 204.998 291.275 198.24C291.642 191.482 289.628 165.703 282.805 161.826C274.174 156.951 272.311 176.979 272.301 185.769C272.292 194.56 264.442 203.887 264.442 203.887L277.035 215.021L282.513 225.016Z" fill="#AD6359"/>
<path d="M273.412 172C273.518 174.924 273.474 177.852 273.28 180.772C273.293 183.55 273.098 186.324 272.696 189.073C272.088 191.737 271.042 194.281 269.6 196.602C268.913 197.76 268.169 198.871 267.379 199.962C266.588 201.054 265.544 202.278 264.715 203.482C264.631 203.605 264.414 203.482 264.499 203.351C265.93 201.078 267.209 198.714 268.329 196.273C269.539 193.767 270.434 191.121 270.993 188.395C272.085 182.974 271.991 177.365 273.035 171.934C273.054 171.718 273.412 171.784 273.412 172Z" fill="#263238"/>
<path d="M272.668 189.063C272.574 182.908 270.965 157.336 282.005 161.12C288.16 164.696 289.835 178.061 290.551 184.649C289.365 178.494 287.238 165.148 281.619 161.892C272.104 158.795 273.242 183.426 272.668 189.026V189.063Z" fill="#263238"/>
<path d="M201.638 226.588L256.226 271.595C256.226 271.595 227.172 315.972 207.473 328.499C198.174 334.4 179.313 334.428 173.026 332.075C167.153 329.892 134.193 297.007 109.534 237.807C90.4188 191.765 120.941 203.059 132.376 214.983C144.706 227.831 177.233 260.781 179.021 260.245C180.809 259.708 201.638 226.588 201.638 226.588Z" fill="#3A5985"/>
<path d="M194.541 242.852C202.776 249.27 210.805 255.934 218.786 262.616C222.701 265.901 237.741 279.558 242.08 283.407C242.249 283.567 241.845 284.009 241.656 283.868C237.393 280.583 221.487 267.2 217.628 263.849C209.769 257.016 201.958 250.136 194.353 243.021C194.221 242.927 194.4 242.739 194.541 242.852Z" fill="#263238"/>
<path opacity="0.1" d="M201.882 331.059C192.028 334.343 178.249 334.023 173.064 332.075C167.191 329.882 134.231 296.998 109.562 237.816C99.0589 212.602 103.492 204.593 111.539 204.499C123.162 220.649 171.511 288.216 201.882 331.059Z" fill="black"/>
<path d="M165.93 387.266H21.7319C28.7908 353.11 59.5484 230.089 84.6308 211.896C100.057 200.696 120.395 208.461 123.897 213.242C138.118 232.875 161.798 355.849 165.93 387.266Z" fill="#EBEBEB"/>
<path d="M126.268 216.885C126.268 216.819 126.155 216.838 126.155 216.885C126.861 222.889 128.038 236.828 117.064 236.649C112.65 236.583 108.527 234.466 105.073 232.348C101.597 230.196 98.3652 227.671 95.4355 224.819C92.1214 221.791 89.0762 218.481 86.3343 214.927C86.2213 214.776 85.9578 214.927 86.0708 215.106C88.8284 218.626 91.1625 222.315 94.3249 225.59C97.3938 228.847 100.897 231.666 104.734 233.967C108.424 236.132 112.8 238.23 117.468 238.099C119.408 238.132 121.306 237.533 122.876 236.394C124.446 235.256 125.603 233.637 126.174 231.783C127.671 227.04 127.341 221.6 126.268 216.885Z" fill="#263238"/>
<path d="M89.233 207.096C89.233 207.096 98.7954 258.127 100.602 277.073C102.409 296.019 96.6589 387.266 96.6589 387.266H19.2942C19.2942 387.266 42.7295 275.059 65.7224 231.595C78.5883 207.341 89.233 207.096 89.233 207.096Z" fill="#3A5985"/>
<path d="M122.212 210.588C122.212 210.588 137.657 268.31 138.673 274.447C139.69 280.583 144.819 387.765 144.819 387.765L170.09 387.586C170.09 387.586 143.53 226.023 122.212 210.588Z" fill="#3A5985"/>
<path d="M65.0353 227.736C32.4706 271.576 -3.90586 359.294 7.30355 374.438C19.8024 391.379 65.0918 329.92 64.4424 326.805C63.953 324.442 75.633 272.64 84.7153 234.87C93.7977 197.101 73.0824 216.894 65.0353 227.736Z" fill="#AD6359"/>
<path d="M64.8095 326.814C65.6848 321.327 81.873 252.904 86.2213 231.369C90.5695 209.835 82.9742 204.442 64.9413 226.137C46.9083 247.831 10.4565 316.941 4.80948 351.765C-0.639931 385.252 15.8777 382.927 35.5954 365.064C51.7365 350.41 64.8095 326.814 64.8095 326.814Z" fill="#3A5985"/>
<path d="M64.8096 326.814C69.4966 300.254 75.4574 273.964 82.6919 247.944C78.0174 274.497 72.0566 300.788 64.8096 326.814Z" fill="#263238"/>
<path d="M83.5672 251.831C83.3401 255.417 81.9602 258.834 79.6331 261.572C80.7436 258.268 82.1554 255.031 83.5672 251.831Z" fill="#263238"/>
<path d="M7.30365 374.438C17.5719 385.468 41.186 384.518 100.81 387.727C109.064 388.169 127.859 330.767 119.068 329.845C108 328.678 64.7907 326.551 61.6566 326.786C34.7954 328.838 0.338941 366.965 7.30365 374.438Z" fill="#AD6359"/>
<path d="M108.64 331.896C108.64 331.896 130.588 324.809 143.275 324.649C160.264 324.442 175.012 331.238 181.017 334.485C193.562 341.224 219.228 366.193 213.327 374.842C207.991 382.664 183.04 355.821 183.04 355.821C183.04 355.821 212.998 378.993 204.828 387.238C196.659 395.482 169.478 362.673 169.478 362.673C169.478 362.673 199.718 387.144 189.958 394.344C182.579 399.755 156.273 371.426 156.273 371.426C156.273 371.426 182.118 392.668 174.776 398.56C166.654 405.082 140.744 380.452 140.744 380.452C119.539 392.301 104.593 389.261 94.2212 385.845C91.7083 385.016 108.64 331.896 108.64 331.896Z" fill="#AD6359"/>
<path d="M173.195 347.144C176.81 349.741 180.49 352.339 183.868 355.247C187.247 358.155 190.513 361.186 193.6 364.395C201.177 372.264 204.687 378.372 204.433 378.024C198.325 369.647 186.41 359.05 183.031 356.141C179.652 353.233 176.442 350.174 173.082 347.266C172.998 347.191 173.111 347.059 173.195 347.144Z" fill="#263238"/>
<path d="M162.475 359.134C166.946 362.645 171.52 365.967 175.84 369.685C180.16 373.402 183.897 377.214 187.934 381.242C188.245 381.543 187.934 381.609 187.652 381.318C183.464 377.496 179.294 374.296 175.059 370.532C170.824 366.767 166.739 362.833 162.381 359.238C162.353 359.181 162.409 359.078 162.475 359.134Z" fill="#263238"/>
<path d="M151.426 367.765C158.541 372.781 164.715 379.106 170.626 385.459C170.927 385.77 170.569 385.817 170.249 385.515C163.981 379.511 159.096 374.758 151.247 368.01C151.125 367.915 151.275 367.671 151.426 367.765Z" fill="#263238"/>
<path d="M112.216 328.104L69.3365 391.887C69.3365 391.887 16.2541 387.322 6.82352 375.2C0.611751 367.219 34.3812 326.607 64.1788 326.598L112.216 328.104Z" fill="#3A5985"/>
<path d="M30.5882 340.715C34.8141 336.631 46.9647 326.805 64.1882 326.541C64.3388 326.541 64.3764 326.786 64.1882 326.805C51.3788 328.235 35.0964 337.327 30.6917 340.922C30.6353 340.998 30.5035 340.819 30.5882 340.715Z" fill="#263238"/>
<path d="M54.1178 384.367C58.4566 377.101 63.1813 370.071 67.9248 363.059C72.6683 356.047 77.4025 349.007 82.3248 342.108C85.1483 338.212 87.8589 334.296 90.7954 330.494C90.8707 330.391 91.0589 330.494 90.993 330.607C86.6636 337.863 81.9578 344.922 77.2707 351.953C72.5836 358.983 67.793 366.005 62.9554 372.969C60.226 376.894 57.4119 380.781 54.4848 384.583C54.3248 384.772 53.9672 384.574 54.1178 384.367Z" fill="#263238"/>
<path d="M112.207 327.36C108.951 326.863 105.665 326.586 102.372 326.532C99.0778 326.381 95.7837 326.287 92.4896 326.221C85.9014 326.099 72.0567 325.082 60.2167 326.776C60.0849 326.776 60.8472 327.341 60.979 327.313C66.5696 326.212 108.094 328.565 111.445 328.339C111.337 328.573 111.249 328.815 111.181 329.063C111.181 329.233 111.332 329.421 111.492 329.28C111.868 328.941 112.113 328.555 112.433 328.188C112.5 328.129 112.548 328.052 112.573 327.966C112.599 327.881 112.599 327.79 112.576 327.704C112.553 327.618 112.506 327.541 112.441 327.48C112.375 327.419 112.295 327.377 112.207 327.36Z" fill="#263238"/>
<path d="M20.2354 382.823C25.4871 383.915 32.8471 386.052 38.1177 387.426C31.9204 387.031 25.8534 385.469 20.2354 382.823Z" fill="#263238"/>
<path d="M116.038 231.68C108.226 232.621 93.3554 221.892 89.1389 210.409C88.8472 209.619 91.1154 202.118 93.4401 192.866C94.8236 187.219 96.2636 180.96 97.1107 175.134C97.2895 173.939 132.348 189.496 132.348 189.496C132.348 189.496 126.918 201.186 125.459 211.36C125.348 212.164 125.31 212.977 125.346 213.788C125.346 213.901 125.346 214.033 125.346 214.193C125.402 218.842 124.395 230.654 116.038 231.68Z" fill="#AD6359"/>
<path d="M125.355 213.788C125.355 213.901 125.355 214.052 125.355 214.193C124.093 214.164 122.835 214.041 121.591 213.826C100.141 210.118 98.5035 182.334 98.4282 175.341C104.791 177.224 132.376 189.459 132.376 189.459C132.376 189.459 126.946 201.158 125.478 211.332C125.365 212.145 125.325 212.967 125.355 213.788Z" fill="#263238"/>
<path d="M97.1294 128.706C91.6236 141.261 94.08 179.689 102.353 189.158C114.344 202.899 136.188 206.645 148.414 191.727C160.273 177.261 156.188 127.238 146.748 118.4C132.828 105.402 105.261 110.184 97.1294 128.706Z" fill="#AD6359"/>
<path d="M130.936 157.374C130.936 157.28 130.739 157.506 130.748 157.619C130.918 160.207 130.682 163.2 128.367 164.141C128.292 164.141 128.311 164.301 128.367 164.282C131.238 163.783 131.52 159.765 130.936 157.374Z" fill="#263238"/>
<path d="M128.527 154.758C124.348 154.588 124.32 162.955 128.188 163.115C132.056 163.275 132.028 154.899 128.527 154.758Z" fill="#263238"/>
<path d="M145.948 157.882C145.948 157.779 146.146 158.005 146.146 158.108C146.052 160.696 146.381 163.689 148.725 164.555C148.8 164.555 148.791 164.715 148.725 164.696C145.845 164.264 145.412 160.301 145.948 157.882Z" fill="#263238"/>
<path d="M148.235 155.162C152.405 154.861 152.706 163.228 148.838 163.501C144.97 163.774 144.772 155.407 148.235 155.162Z" fill="#263238"/>
<path d="M125.243 150.908C126.339 150.595 127.416 150.221 128.471 149.788C129.704 149.336 130.739 149.111 131.558 148C131.754 147.662 131.834 147.269 131.785 146.881C131.736 146.493 131.56 146.132 131.285 145.854C130.033 144.744 128.377 144.913 126.861 145.384C125.302 145.803 123.958 146.794 123.097 148.16C122.91 148.485 122.825 148.857 122.851 149.231C122.878 149.604 123.015 149.961 123.245 150.256C123.476 150.551 123.789 150.77 124.144 150.887C124.5 151.003 124.882 151.01 125.243 150.908Z" fill="#263238"/>
<path d="M151.529 150.955C150.406 150.727 149.297 150.435 148.207 150.08C146.927 149.732 145.882 149.581 144.979 148.546C144.756 148.223 144.647 147.836 144.667 147.444C144.688 147.053 144.837 146.679 145.092 146.381C146.259 145.176 147.915 145.214 149.468 145.572C151.039 145.885 152.438 146.771 153.393 148.056C153.595 148.361 153.703 148.718 153.706 149.083C153.709 149.448 153.605 149.807 153.407 150.114C153.21 150.421 152.927 150.665 152.593 150.814C152.26 150.963 151.89 151.012 151.529 150.955Z" fill="#263238"/>
<path d="M128.471 181.412C129.092 182.023 129.713 182.861 130.654 182.936C131.631 182.931 132.595 182.713 133.478 182.296C133.563 182.296 133.647 182.353 133.591 182.428C133.219 182.937 132.716 183.335 132.136 183.582C131.557 183.829 130.921 183.915 130.297 183.831C129.771 183.684 129.3 183.388 128.939 182.979C128.578 182.569 128.344 182.064 128.264 181.525C128.16 181.412 128.358 181.346 128.471 181.412Z" fill="#263238"/>
<path d="M131.2 173.685C131.856 174.713 132.717 175.594 133.729 176.275C134.741 176.955 135.883 177.419 137.082 177.638C138.127 177.839 139.195 177.889 140.254 177.788C140.46 177.791 140.665 177.769 140.866 177.722C141.056 177.707 141.244 177.678 141.431 177.638C141.569 177.612 141.695 177.542 141.79 177.438C141.885 177.335 141.944 177.203 141.958 177.064C141.962 176.976 141.962 176.888 141.958 176.8V176.546C142.014 174.551 141.835 171.52 141.835 171.52C142.56 171.887 146.278 173.572 146.221 172.527C145.741 163.887 145.205 154.287 142.899 145.788C142.89 145.726 142.857 145.669 142.807 145.632C142.756 145.594 142.693 145.577 142.631 145.586C142.568 145.595 142.512 145.628 142.474 145.678C142.436 145.728 142.42 145.792 142.428 145.854C142.56 154.174 144.16 162.419 144.424 170.767C143.102 170.151 141.702 169.721 140.264 169.487C139.981 169.572 140.715 175.351 140.621 176.245C140.626 176.276 140.626 176.308 140.621 176.339C137.261 176.762 134.739 175.736 131.492 173.468C131.294 173.299 131.049 173.478 131.2 173.685Z" fill="#263238"/>
<path d="M139.087 176.772C137.985 178.194 136.537 179.309 134.88 180.009C133.964 180.364 132.96 180.423 132.009 180.179C129.939 179.623 129.901 177.722 130.287 176.103C130.502 175.241 130.818 174.407 131.228 173.619C133.445 175.481 136.198 176.586 139.087 176.772Z" fill="#263238"/>
<path d="M134.88 180.009C133.964 180.364 132.96 180.423 132.009 180.179C129.939 179.624 129.901 177.722 130.287 176.104C132.508 176.339 134.692 177.854 134.88 180.009Z" fill="#FF9BBC"/>
<path d="M154.635 132.894C153.506 129.647 152 128.988 152 128.988C152 128.988 152 125.176 148.593 120.292C144.998 115.181 141.064 114.513 141.064 114.513C141.064 114.513 137.807 110.824 130.353 109.421C128.64 109.101 123.454 109.016 121.883 109.666C120 110.409 118.118 109.431 116.151 109.393C114.361 109.36 112.585 109.703 110.937 110.4C109.541 110.979 108.25 111.784 107.115 112.781C106.447 113.394 105.819 114.047 105.233 114.739C104.368 115.72 103.209 116.397 101.93 116.668C100.447 117.129 99.0783 117.899 97.915 118.927C96.7517 119.956 95.82 121.22 95.1813 122.635C94.361 124.407 93.9187 126.33 93.8825 128.282C93.7884 130.72 91.2378 131.859 90.2778 133.929C89.551 135.577 89.3259 137.401 89.6306 139.176C89.9352 140.95 90.7562 142.595 91.9908 143.906C88.8096 146.184 87.6237 151.275 89.3272 155.294C90.6449 158.4 93.4025 159.784 96.1884 160.546C96.702 160.685 97.2288 160.771 97.7602 160.8C103.464 161.741 109.054 155.473 107.031 148.696V148.64C110.159 147.662 112.898 145.718 114.852 143.087C117.017 140.264 117.723 136.499 117.751 132.734C124.913 137.252 134.843 132.8 136.113 123.605C138.155 125.845 144.01 129.628 146.711 128.781C147.878 137.045 153.299 140.075 154.73 140.075C154.918 140.132 155.915 136.602 154.635 132.894ZM103.464 158.4C105.12 156.678 106.372 154.24 106.965 149.073C107.333 150.8 107.199 152.596 106.579 154.249C105.958 155.902 104.877 157.342 103.464 158.4ZM126.052 133.195C128.243 132.511 130.236 131.309 131.863 129.69C133.49 128.071 134.703 126.084 135.398 123.896C134.118 129.525 130.466 132.471 126.08 133.195H126.052Z" fill="#263238"/>
<path d="M127.53 169.346C125.582 169.111 123.74 168.335 122.212 167.105C120.684 165.874 119.533 164.24 118.888 162.388C118.244 160.535 118.133 158.539 118.567 156.626C119.001 154.713 119.964 152.961 121.345 151.568C122.727 150.176 124.471 149.199 126.38 148.75C128.289 148.3 130.287 148.395 132.144 149.025C134.002 149.654 135.645 150.793 136.888 152.31C138.13 153.828 138.922 155.664 139.172 157.609C139.375 159.191 139.215 160.798 138.703 162.308C138.192 163.818 137.342 165.191 136.219 166.323C135.096 167.455 133.73 168.316 132.224 168.839C130.718 169.363 129.112 169.537 127.53 169.346ZM129.892 149.948C129.142 149.85 128.383 149.85 127.633 149.948C125.345 150.236 123.253 151.384 121.782 153.16C120.311 154.936 119.573 157.206 119.717 159.507C119.861 161.808 120.876 163.968 122.557 165.547C124.237 167.126 126.457 168.005 128.762 168.005C131.068 168.005 133.287 167.126 134.968 165.547C136.649 163.968 137.664 161.808 137.808 159.507C137.952 157.206 137.214 154.936 135.743 153.16C134.272 151.384 132.18 150.236 129.892 149.948Z" fill="#3A5985"/>
<path d="M151.529 169.327C147.548 168.838 144.442 164.329 144.461 158.861C144.427 156.25 145.211 153.693 146.701 151.548C147.283 150.588 148.103 149.794 149.082 149.243C150.06 148.692 151.164 148.402 152.287 148.402C153.41 148.402 154.514 148.692 155.493 149.243C156.471 149.794 157.291 150.588 157.873 151.548C159.349 153.704 160.109 156.268 160.047 158.88C160.047 164.649 156.508 169.336 152.217 169.318C152 169.365 151.755 169.346 151.529 169.327ZM152.828 149.854C152.65 149.845 152.471 149.845 152.292 149.854C151.398 149.891 150.527 150.142 149.75 150.585C148.974 151.029 148.316 151.653 147.831 152.405C146.514 154.311 145.826 156.582 145.864 158.899C145.864 163.896 148.687 167.981 152.217 167.991C155.746 168 158.626 163.953 158.654 158.955C158.722 156.641 158.063 154.364 156.772 152.442C156.334 151.757 155.756 151.173 155.077 150.727C154.397 150.281 153.631 149.983 152.828 149.854Z" fill="#3A5985"/>
<path d="M138.824 158.823L137.882 157.751C139.482 156.423 143.162 154.645 145.703 157.393L144.678 158.334C142.409 155.878 138.936 158.701 138.824 158.823Z" fill="#3A5985"/>
<path d="M92.1223 161.318L90.8894 160.668C91.1906 160.094 93.9294 155.021 97.0541 154.513C99.9812 154.061 118.701 155.897 119.539 155.972L119.398 157.365C114.024 156.838 99.5388 155.539 97.28 155.897C95.2094 156.217 92.8565 159.925 92.1223 161.318Z" fill="#3A5985"/>
<path d="M102.993 160.932C102.993 160.932 95.6518 147.906 89.8165 150.409C83.9812 152.913 88.6776 171.2 94.9365 174.249C95.7118 174.696 96.5695 174.981 97.458 175.088C98.3464 175.194 99.2472 175.12 100.106 174.869C100.965 174.619 101.765 174.197 102.456 173.63C103.148 173.062 103.718 172.361 104.132 171.567L102.993 160.932Z" fill="#AD6359"/>
<path d="M91.3036 155.624C91.2838 155.624 91.2646 155.63 91.2486 155.641C91.2325 155.653 91.2205 155.669 91.2143 155.688C91.2081 155.707 91.2079 155.727 91.2138 155.746C91.2196 155.765 91.2313 155.781 91.2471 155.793C95.6236 158.08 97.6095 162.532 98.8612 167.087C97.6753 165.271 95.9154 164.16 93.5059 165.553C93.3742 165.628 93.5059 165.826 93.6001 165.807C94.4291 165.635 95.2911 165.723 96.0679 166.06C96.8447 166.397 97.4983 166.966 97.9389 167.689C98.6723 168.898 99.2719 170.182 99.7271 171.52C99.8965 171.944 100.668 171.802 100.546 171.313V171.209C101.177 165.412 97.4777 156.809 91.3036 155.624Z" fill="#263238"/>
</g>
</g>
<defs>
<filter id="filter0_d_214_408" x="-31.3623" y="7.25647" width="130.929" height="131.294" filterUnits="userSpaceOnUse" color-interpolation-filters="sRGB">
<feFlood flood-opacity="0" result="BackgroundImageFix"/>
<feColorMatrix in="SourceAlpha" type="matrix" values="0 0 0 0 0 0 0 0 0 0 0 0 0 0 0 0 0 0 127 0" result="hardAlpha"/>
<feOffset dy="4"/>
<feGaussianBlur stdDeviation="16"/>
<feComposite in2="hardAlpha" operator="out"/>
<feColorMatrix type="matrix" values="0 0 0 0 0.2 0 0 0 0 0.2 0 0 0 0 0.2 0 0 0 0.1 0"/>
<feBlend mode="normal" in2="BackgroundImageFix" result="effect1_dropShadow_214_408"/>
<feBlend mode="normal" in="SourceGraphic" in2="effect1_dropShadow_214_408" result="shape"/>
</filter>
<filter id="filter1_d_214_408" x="182.597" y="-27.0211" width="249.498" height="413.28" filterUnits="userSpaceOnUse" color-interpolation-filters="sRGB">
<feFlood flood-opacity="0" result="BackgroundImageFix"/>
<feColorMatrix in="SourceAlpha" type="matrix" values="0 0 0 0 0 0 0 0 0 0 0 0 0 0 0 0 0 0 127 0" result="hardAlpha"/>
<feOffset dy="4"/>
<feGaussianBlur stdDeviation="16"/>
<feComposite in2="hardAlpha" operator="out"/>
<feColorMatrix type="matrix" values="0 0 0 0 0.2 0 0 0 0 0.2 0 0 0 0 0.2 0 0 0 0.1 0"/>
<feBlend mode="normal" in2="BackgroundImageFix" result="effect1_dropShadow_214_408"/>
<feBlend mode="normal" in="SourceGraphic" in2="effect1_dropShadow_214_408" result="shape"/>
</filter>
<filter id="filter2_d_214_408" x="-28.2434" y="52.3341" width="353.39" height="383.325" filterUnits="userSpaceOnUse" color-interpolation-filters="sRGB">
<feFlood flood-opacity="0" result="BackgroundImageFix"/>
<feColorMatrix in="SourceAlpha" type="matrix" values="0 0 0 0 0 0 0 0 0 0 0 0 0 0 0 0 0 0 127 0" result="hardAlpha"/>
<feOffset dy="4"/>
<feGaussianBlur stdDeviation="16"/>
<feComposite in2="hardAlpha" operator="out"/>
<feColorMatrix type="matrix" values="0 0 0 0 0.2 0 0 0 0 0.2 0 0 0 0 0.2 0 0 0 0.1 0"/>
<feBlend mode="normal" in2="BackgroundImageFix" result="effect1_dropShadow_214_408"/>
<feBlend mode="normal" in="SourceGraphic" in2="effect1_dropShadow_214_408" result="shape"/>
</filter>
<clipPath id="clip0_214_408">
<rect width="401.176" height="400" fill="white"/>
</clipPath>
</defs>
</svg>
