<svg width="415" height="480" viewBox="0 0 415 480" fill="none" xmlns="http://www.w3.org/2000/svg">
<path d="M207.059 479.258C320.865 479.258 413.124 426.847 413.124 362.196C413.124 297.545 320.865 245.135 207.059 245.135C93.2518 245.135 0.993164 297.545 0.993164 362.196C0.993164 426.847 93.2518 479.258 207.059 479.258Z" fill="#F5F5F5"/>
<path d="M292.811 436.005L138.991 347.19C137.638 346.41 136.514 345.288 135.733 343.935C134.951 342.583 134.54 341.049 134.54 339.488C134.54 337.926 134.951 336.392 135.733 335.04C136.514 333.688 137.638 332.565 138.991 331.786L154.165 322.217C156.785 320.708 159.754 319.914 162.777 319.914C165.8 319.914 168.769 320.708 171.389 322.217L325.229 411.043C326.582 411.823 327.706 412.945 328.488 414.297C329.269 415.649 329.681 417.183 329.681 418.745C329.681 420.307 329.269 421.841 328.488 423.193C327.706 424.545 326.582 425.667 325.229 426.447L310.055 436.005C307.435 437.522 304.461 438.32 301.433 438.32C298.406 438.32 295.431 437.522 292.811 436.005Z" fill="#E0E0E0"/>
<path d="M58.9282 355.033C77.3637 355.033 92.3086 346.451 92.3086 335.864C92.3086 325.278 77.3637 316.695 58.9282 316.695C40.4928 316.695 25.5479 325.278 25.5479 335.864C25.5479 346.451 40.4928 355.033 58.9282 355.033Z" fill="#E6E6E6"/>
<path d="M347.356 359.425L361.997 367.843C361.997 367.843 354.52 344.345 358.504 320.659C360.01 311.707 363.241 307.263 364.371 304.868C365.5 302.473 374.253 287.676 366.462 280.899C358.671 274.123 340.549 287.749 341.532 324.214C341.978 336.15 343.936 347.981 347.356 359.425Z" fill="#3A5985"/>
<path opacity="0.5" d="M347.356 359.425L361.997 367.843C361.997 367.843 354.52 344.345 358.504 320.659C360.01 311.707 363.241 307.263 364.371 304.868C365.5 302.473 374.253 287.676 366.462 280.899C358.671 274.123 340.549 287.749 341.532 324.214C341.978 336.15 343.936 347.981 347.356 359.425Z" fill="black"/>
<path d="M354.164 363.859C354.058 363.861 353.953 363.83 353.865 363.77C353.777 363.71 353.71 363.624 353.673 363.524C353.62 363.367 348.026 348.078 348.203 323.503C348.381 298.928 361.296 285.584 361.422 285.459C361.47 285.41 361.528 285.371 361.592 285.344C361.656 285.318 361.724 285.304 361.793 285.304C361.862 285.304 361.93 285.318 361.994 285.344C362.058 285.371 362.116 285.41 362.164 285.459C362.213 285.507 362.252 285.565 362.279 285.629C362.305 285.693 362.319 285.761 362.319 285.83C362.319 285.899 362.305 285.967 362.279 286.031C362.252 286.095 362.213 286.153 362.164 286.201C362.039 286.327 349.427 299.273 349.249 323.514C349.071 347.754 354.593 363.022 354.656 363.169C354.703 363.299 354.696 363.443 354.637 363.568C354.578 363.694 354.472 363.791 354.342 363.838C354.284 363.856 354.224 363.863 354.164 363.859Z" fill="white"/>
<path d="M353.464 363.022L373.479 374.526C375.565 375.758 378.038 376.16 380.407 375.65C382.775 375.14 384.865 373.757 386.258 371.775C387.583 369.714 388.142 367.252 387.837 364.821C386.875 354.426 382.358 352.031 387.89 347.399C393.422 342.766 394.865 342.442 394.551 337.987C394.237 333.532 391.194 331.587 389.751 329.83C388.308 328.073 384.313 324.392 387.032 318.954C389.751 313.516 393.464 308.256 387.837 305.851C384.481 304.408 378.886 306.332 375.205 310.327C371.524 314.322 368.491 317.197 364.967 318.159C361.443 319.122 354.101 319.278 354.415 325.354C354.729 331.43 356.339 333.511 354.896 336.22C352.177 341.281 340.35 344.157 353.464 363.022Z" fill="#3A5985"/>
<path d="M363.356 369.213C363.226 369.209 363.101 369.158 363.005 369.07C362.909 368.981 362.848 368.862 362.833 368.732C362.833 368.376 359.759 332.486 384.438 308.601C384.54 308.517 384.67 308.475 384.802 308.483C384.934 308.49 385.057 308.548 385.149 308.643C385.24 308.738 385.292 308.864 385.294 308.996C385.296 309.128 385.248 309.256 385.16 309.354C360.836 332.894 363.848 368.282 363.879 368.638C363.891 368.775 363.848 368.911 363.76 369.017C363.672 369.123 363.545 369.189 363.408 369.203L363.356 369.213Z" fill="white"/>
<path d="M367.32 338.322C367.188 338.322 367.061 338.273 366.964 338.183C366.868 338.094 366.808 337.972 366.797 337.841C366.578 335.059 365.795 332.352 364.495 329.883C363.195 327.414 361.406 325.237 359.236 323.482C359.18 323.443 359.132 323.392 359.095 323.334C359.058 323.276 359.033 323.211 359.021 323.142C359.01 323.074 359.011 323.005 359.027 322.937C359.042 322.87 359.071 322.807 359.111 322.75C359.15 322.694 359.199 322.646 359.257 322.609C359.314 322.573 359.378 322.548 359.445 322.536C359.513 322.524 359.581 322.526 359.648 322.541C359.714 322.557 359.777 322.585 359.833 322.625C362.144 324.458 364.05 326.752 365.429 329.36C366.808 331.969 367.63 334.835 367.843 337.778C367.855 337.918 367.811 338.056 367.721 338.164C367.631 338.272 367.502 338.34 367.362 338.353L367.32 338.322Z" fill="white"/>
<path d="M365.615 344.481C365.489 344.482 365.366 344.438 365.27 344.356C365.166 344.263 365.103 344.134 365.093 343.995C365.083 343.856 365.128 343.719 365.218 343.613C365.469 343.32 371.649 336.502 386.133 338.311C386.27 338.329 386.395 338.401 386.479 338.511C386.563 338.621 386.6 338.759 386.583 338.897C386.564 339.035 386.493 339.16 386.383 339.246C386.274 339.332 386.135 339.372 385.997 339.357C372.088 337.61 366.055 344.241 365.992 344.303C365.944 344.357 365.886 344.4 365.822 344.43C365.757 344.461 365.687 344.478 365.615 344.481Z" fill="white"/>
<path d="M288.125 425.391L152.847 347.284C143.299 341.773 135.561 326.986 135.561 314.259V24.5856C135.561 11.8588 143.299 6.01307 152.847 11.5242L288.125 89.6314C297.673 95.1425 305.412 109.929 305.412 122.656V412.329C305.412 425.046 297.673 430.902 288.125 425.391Z" fill="#455A64"/>
<path d="M303.707 80.5229L168.418 2.41569C164.339 0.0627471 160.595 -0.209149 157.636 1.23399C157.274 1.41543 156.924 1.62158 156.59 1.85098L141.427 10.6667C144.48 8.8366 148.475 8.97255 152.857 11.5033L288.135 89.6105C297.683 95.1216 305.422 109.909 305.422 122.635V412.309C305.422 419.043 303.257 423.812 299.806 426.071L314.771 417.36C318.588 415.331 321.045 410.363 321.045 403.242V113.569C321.045 100.821 313.254 86.034 303.707 80.5229Z" fill="#37474F"/>
<path d="M305.412 122.635V412.308C305.412 419.043 303.247 423.812 299.796 426.071L314.771 417.359C318.588 415.331 321.046 410.363 321.046 403.242V113.569L305.464 122.614L305.412 122.635Z" fill="#263238"/>
<path d="M320.993 136.042L305.411 145.035V152.063L320.993 143.059V136.042Z" fill="#37474F"/>
<path d="M314.165 182.776C312.774 183.582 311.645 182.724 311.645 180.873V165.762C311.659 164.817 311.894 163.889 312.332 163.052C312.769 162.215 313.397 161.492 314.165 160.941C315.556 160.136 316.685 160.941 316.685 162.844V177.956C316.671 178.9 316.436 179.828 315.998 180.666C315.56 181.503 314.932 182.226 314.165 182.776Z" fill="#37474F"/>
<path d="M311.634 180.915V165.762C311.648 164.817 311.883 163.889 312.321 163.052C312.759 162.215 313.386 161.492 314.154 160.941C314.383 160.781 314.651 160.683 314.929 160.657C315.208 160.632 315.489 160.679 315.744 160.795L313.851 159.822C313.592 159.698 313.305 159.644 313.018 159.666C312.732 159.688 312.456 159.785 312.219 159.948C311.451 160.498 310.822 161.221 310.383 162.058C309.943 162.895 309.706 163.823 309.689 164.769V179.869C309.649 180.251 309.707 180.636 309.857 180.989C310.007 181.342 310.244 181.651 310.546 181.888L312.523 182.933C312.208 182.707 311.96 182.4 311.803 182.045C311.647 181.69 311.589 181.3 311.634 180.915Z" fill="#455A64"/>
<path d="M314.165 219.346C312.774 220.152 311.645 219.346 311.645 217.443V202.332C311.659 201.388 311.895 200.46 312.333 199.623C312.77 198.786 313.398 198.062 314.165 197.511C315.556 196.706 316.685 197.511 316.685 199.425V214.525C316.673 215.47 316.438 216.399 316 217.237C315.562 218.074 314.934 218.797 314.165 219.346Z" fill="#37474F"/>
<path d="M311.633 217.443V202.332C311.648 201.388 311.884 200.46 312.322 199.623C312.759 198.785 313.387 198.062 314.154 197.511C314.384 197.353 314.651 197.257 314.929 197.232C315.208 197.206 315.488 197.252 315.743 197.365L313.85 196.382C313.593 196.252 313.305 196.195 313.017 196.217C312.73 196.239 312.453 196.339 312.219 196.507C311.449 197.056 310.819 197.779 310.379 198.616C309.939 199.453 309.703 200.382 309.688 201.328V216.471C309.648 216.852 309.706 217.238 309.856 217.591C310.006 217.944 310.243 218.253 310.546 218.489L312.522 219.535C312.195 219.303 311.938 218.984 311.781 218.615C311.624 218.246 311.573 217.84 311.633 217.443Z" fill="#455A64"/>
<path d="M283.399 97.7569L150.463 20.9778C149.908 20.6586 149.279 20.4901 148.639 20.4889C147.999 20.4877 147.37 20.6539 146.814 20.971C146.258 21.2881 145.794 21.7451 145.469 22.2966C145.145 22.8481 144.97 23.475 144.962 24.115V314.259C144.962 323.942 151.833 335.833 160.219 340.675L289.893 415.582C290.508 415.936 291.205 416.121 291.914 416.121C292.624 416.12 293.321 415.933 293.935 415.578C294.549 415.223 295.06 414.713 295.415 414.099C295.77 413.485 295.957 412.788 295.958 412.078V119.54C296.01 111.55 290.342 101.752 283.399 97.7569Z" fill="#3A5985"/>
<path opacity="0.9" d="M283.399 97.7569L150.463 20.9778C149.908 20.6586 149.279 20.4901 148.639 20.4889C147.999 20.4877 147.37 20.6539 146.814 20.971C146.258 21.2881 145.794 21.7451 145.469 22.2966C145.145 22.8481 144.97 23.475 144.962 24.115V314.259C144.962 323.942 151.833 335.833 160.219 340.675L289.893 415.582C290.508 415.936 291.205 416.121 291.914 416.121C292.624 416.12 293.321 415.933 293.935 415.578C294.549 415.223 295.06 414.713 295.415 414.099C295.77 413.485 295.957 412.788 295.958 412.078V119.54C296.01 111.55 290.342 101.752 283.399 97.7569Z" fill="white"/>
<path d="M190.222 41.0248L192.282 49.6941L236.35 75.1059L243.963 71.0484L190.222 41.0248Z" fill="#455A64"/>
<path d="M203.179 49.4013C203.179 50.8444 202.133 51.4196 200.92 50.7085C200.269 50.2761 199.728 49.6971 199.341 49.0178C198.954 48.3386 198.732 47.5781 198.692 46.7974C198.692 45.3647 199.738 44.7791 200.951 45.5007C201.602 45.9308 202.143 46.5079 202.53 47.1854C202.917 47.863 203.139 48.622 203.179 49.4013Z" fill="#263238"/>
<path d="M232.868 67.7542C232.627 67.7523 232.39 67.6913 232.178 67.5765L209.673 55.0275C209.356 54.8408 209.123 54.5374 209.026 54.1819C208.929 53.8264 208.975 53.4471 209.154 53.1249C209.333 52.8028 209.631 52.5633 209.984 52.4576C210.337 52.352 210.717 52.3885 211.043 52.5595L233.558 65.1085C233.832 65.2606 234.047 65.4994 234.171 65.7873C234.294 66.0752 234.318 66.3959 234.239 66.6988C234.16 67.0018 233.982 67.27 233.734 67.461C233.486 67.6521 233.181 67.7552 232.868 67.7542Z" fill="#263238"/>
<path d="M172.842 81.3595C171.472 80.5647 170.478 81.2549 170.478 83.0013C170.478 83.8746 170.694 84.7345 171.106 85.5043C171.519 86.2742 172.115 86.9303 172.842 87.4144C173.231 87.6507 173.678 87.7757 174.133 87.7757C174.589 87.7757 175.035 87.6507 175.425 87.4144L177.61 91.3673C176.841 91.7916 175.97 91.9938 175.093 91.9513C174.215 91.9088 173.367 91.6234 172.643 91.1268C170.867 90.0404 169.387 88.5332 168.333 86.7383C167.278 84.9435 166.683 82.9165 166.599 80.8366C166.599 76.9569 169.203 75.6078 172.789 77.6993C174.815 79.0037 176.474 80.8034 177.61 82.9281L175.425 84.6641C174.886 83.3449 173.992 82.201 172.842 81.3595Z" fill="#3A5985"/>
<path d="M190.191 94.4627C190.191 98.3739 187.545 99.6915 183.916 97.6C182.09 96.5086 180.561 94.9829 179.467 93.1585C178.372 91.3341 177.745 89.2675 177.642 87.1425C177.642 83.2314 180.287 81.9137 183.916 84.0052C185.747 85.0917 187.279 86.6162 188.374 88.4416C189.469 90.2671 190.093 92.3362 190.191 94.4627ZM181.521 89.4745C181.54 90.3724 181.771 91.2531 182.197 92.044C182.622 92.8349 183.229 93.5134 183.968 94.0235C185.265 94.7765 186.311 94.0235 186.311 92.2457C186.307 91.3681 186.093 90.5042 185.685 89.727C185.277 88.9498 184.688 88.2821 183.968 87.7804C182.651 87.017 181.521 87.6654 181.521 89.4745Z" fill="#3A5985"/>
<path d="M194.405 90.3111L198.922 99.7229V92.9464L202.342 94.9229V108.11L199.205 106.29L194.708 96.9621V103.697L191.268 101.71V88.4915L194.405 90.3111Z" fill="#3A5985"/>
<path d="M213.521 101.344V104.795L210.258 102.912V112.659L206.483 110.473V100.727L203.241 98.8549V95.4144L213.521 101.344Z" fill="#3A5985"/>
<path d="M220.883 116.925L216.596 114.447L216.01 115.974L212.141 113.736L216.962 103.331L220.841 105.569L225.484 121.443L221.458 119.122L220.883 116.925ZM219.952 113.265L218.781 108.758L217.579 111.895L219.952 113.265Z" fill="#3A5985"/>
<path d="M231.477 115.21C230.107 114.426 229.113 115.106 229.113 116.863C229.115 117.736 229.332 118.595 229.744 119.364C230.156 120.134 230.751 120.79 231.477 121.276C231.869 121.51 232.317 121.633 232.773 121.633C233.23 121.633 233.678 121.51 234.07 121.276L236.256 125.229C235.483 125.648 234.611 125.848 233.733 125.805C232.855 125.763 232.006 125.48 231.278 124.988C229.501 123.901 228.019 122.392 226.965 120.595C225.911 118.798 225.316 116.769 225.233 114.688C225.233 110.808 227.848 109.459 231.424 111.55C233.447 112.861 235.109 114.659 236.256 116.779L234.07 118.505C233.519 117.192 232.623 116.054 231.477 115.21Z" fill="#3A5985"/>
<path d="M246.567 120.429V123.869L243.304 121.987V131.765L239.529 129.579V119.833L236.287 117.961V114.52L246.567 120.429Z" fill="#3A5985"/>
<path d="M257.725 136.617C258.656 137.15 259.367 136.732 259.367 135.425V127.822L263.153 129.997V137.6C263.153 141.103 261.061 142.149 257.715 140.235C256.102 139.34 254.747 138.046 253.779 136.476C252.81 134.907 252.26 133.116 252.183 131.273V123.671L255.968 125.856V133.459C255.983 134.088 256.15 134.705 256.457 135.255C256.763 135.805 257.198 136.273 257.725 136.617Z" fill="#3A5985"/>
<path d="M269.25 136.659C268.821 136.418 268.549 136.408 268.549 136.805C268.549 138.458 274.458 140.842 274.458 145.621C274.458 148.549 272.23 148.559 269.658 147.074C267.396 145.689 265.448 143.848 263.938 141.668L265.339 139.2C266.489 140.98 267.965 142.527 269.689 143.759C270.243 144.084 270.599 144.084 270.599 143.613C270.599 141.898 264.68 139.618 264.68 134.986C264.68 132.35 266.604 131.848 269.574 133.522C271.487 134.679 273.171 136.178 274.541 137.945L273.171 140.476C272.04 139.035 270.721 137.751 269.25 136.659Z" fill="#3A5985"/>
<path d="M153.82 146.342C158.063 141.131 160.199 134.519 159.806 127.81C159.413 121.101 156.52 114.783 151.698 110.103C146.876 105.422 140.475 102.719 133.757 102.526C127.04 102.333 120.494 104.665 115.411 109.061C110.328 113.458 107.078 119.599 106.301 126.275C105.524 132.95 107.278 139.674 111.215 145.12C115.152 150.566 120.988 154.339 127.57 155.694C134.152 157.049 141.003 155.887 146.771 152.439L159.864 158.128L153.82 146.342Z" fill="#3A5985"/>
<path opacity="0.4" d="M153.82 146.342C158.063 141.131 160.199 134.519 159.806 127.81C159.413 121.101 156.52 114.783 151.698 110.103C146.876 105.422 140.475 102.719 133.757 102.526C127.04 102.333 120.494 104.665 115.411 109.061C110.328 113.458 107.078 119.599 106.301 126.275C105.524 132.95 107.278 139.674 111.215 145.12C115.152 150.566 120.988 154.339 127.57 155.694C134.152 157.049 141.003 155.887 146.771 152.439L159.864 158.128L153.82 146.342Z" fill="black"/>
<path d="M123.033 127.937C123.033 127.529 122.74 127.299 122.207 127.299C120.969 127.461 119.814 128.006 118.902 128.858L117.417 125.971C118.98 124.795 120.868 124.13 122.824 124.068C125.333 124.068 127.237 125.386 127.237 127.352C127.237 128.753 126.191 130.102 124.852 131.451L122.98 133.302H127.404V136.376H117.898V133.856L122.133 129.475C122.589 129.071 122.904 128.532 123.033 127.937Z" fill="white"/>
<path d="M135.143 124.246L132.256 131.169H133.438V128.837H137.077V131.169H138.458V134.024H137.077V136.376H133.438V134.024H128.262V131.43L131.399 124.246H135.143Z" fill="white"/>
<path d="M149.689 130.342V136.376H145.799V131.461C145.821 131.301 145.809 131.138 145.763 130.983C145.717 130.829 145.638 130.685 145.532 130.563C145.426 130.441 145.295 130.344 145.148 130.277C145.001 130.21 144.841 130.175 144.68 130.175C143.916 130.175 143.435 130.771 143.435 131.691V136.376H139.545V123.556H143.435V128.272C143.739 127.791 144.164 127.397 144.666 127.13C145.168 126.862 145.731 126.729 146.3 126.745C146.767 126.733 147.23 126.82 147.661 126.999C148.091 127.178 148.479 127.447 148.799 127.786C149.119 128.126 149.363 128.529 149.517 128.969C149.67 129.41 149.729 129.878 149.689 130.342Z" fill="white"/>
<path d="M276.538 227.514V357.448C276.541 358.918 276.156 360.362 275.422 361.636C274.689 362.909 273.633 363.967 272.361 364.703C271.089 365.439 269.645 365.826 268.176 365.827C266.706 365.827 265.262 365.441 263.989 364.706L194.008 324.298L181.605 317.145C177.334 314.676 173.787 311.128 171.316 306.858C168.846 302.588 167.54 297.744 167.529 292.81V162.865C167.527 161.396 167.912 159.952 168.646 158.678C169.379 157.405 170.435 156.347 171.707 155.611C172.979 154.875 174.423 154.488 175.892 154.487C177.362 154.486 178.806 154.873 180.078 155.608L262.484 203.179C266.756 205.645 270.304 209.192 272.772 213.463C275.239 217.735 276.538 222.581 276.538 227.514Z" fill="#3A5985"/>
<path opacity="0.5" d="M276.538 227.514V357.448C276.541 358.918 276.156 360.362 275.422 361.636C274.689 362.909 273.633 363.967 272.361 364.703C271.089 365.439 269.645 365.826 268.176 365.827C266.706 365.827 265.262 365.441 263.989 364.706L194.008 324.298L181.605 317.145C177.334 314.676 173.787 311.128 171.316 306.858C168.846 302.588 167.54 297.744 167.529 292.81V162.865C167.527 161.396 167.912 159.952 168.646 158.678C169.379 157.405 170.435 156.347 171.707 155.611C172.979 154.875 174.423 154.488 175.892 154.487C177.362 154.486 178.806 154.873 180.078 155.608L262.484 203.179C266.756 205.645 270.304 209.192 272.772 213.463C275.239 217.735 276.538 222.581 276.538 227.514Z" fill="white"/>
<path d="M236.225 304.397C236.225 304.397 249.328 326.128 239.864 350.63L193.977 324.298L236.225 304.397Z" fill="#263238"/>
<path d="M257.121 206.763C258.113 198.709 252.388 191.377 244.334 190.385C236.28 189.393 228.948 195.118 227.956 203.172C226.964 211.226 232.689 218.558 240.743 219.55C248.797 220.542 256.129 214.817 257.121 206.763Z" fill="#263238"/>
<path d="M242.614 163.754C242.614 163.754 247.121 156.434 248.502 156.967C249.882 157.501 247.602 164.476 247.602 164.476C247.602 164.476 254.421 165.898 253.155 167.613C251.89 169.328 243.555 168.92 243.555 168.92L242.614 163.754Z" fill="#263238"/>
<path d="M245.752 182.62C242.614 206.191 222.745 206.191 222.745 206.191L181.124 187.869C181.124 187.869 177.987 185.119 177.025 178.803C176.656 176.215 176.656 173.589 177.025 171.001C177.025 171.001 177.025 170.949 177.025 170.928C178.353 161.014 185.767 150.358 201.914 147.085C205.452 146.371 209.054 146.02 212.664 146.039C214.41 146.033 216.156 146.12 217.893 146.301C230.442 147.535 239.237 153.391 243.43 162.499C244.373 164.555 245.075 166.713 245.522 168.931C246.373 173.448 246.451 178.077 245.752 182.62Z" fill="#263238"/>
<path d="M145.83 228.214C145.83 228.214 131.053 227.702 125.364 242.102C125.364 242.102 131.639 246.337 139.869 242.102C148.099 237.867 145.83 228.214 145.83 228.214Z" fill="#3A5985"/>
<path opacity="0.5" d="M145.83 228.214C145.83 228.214 131.053 227.702 125.364 242.102C125.364 242.102 131.639 246.337 139.869 242.102C148.099 237.867 145.83 228.214 145.83 228.214Z" fill="black"/>
<path d="M145.411 235.148C145.411 235.148 141.228 216.973 139.022 216.753C136.815 216.533 136.387 222.295 136.564 225.548L131.336 214.295C131.17 213.946 130.934 213.634 130.643 213.379C130.352 213.124 130.012 212.931 129.643 212.812C129.275 212.694 128.886 212.652 128.501 212.689C128.116 212.727 127.742 212.843 127.404 213.03C122.175 215.906 113.004 224.648 132.34 246.264L145.411 235.148Z" fill="#945959"/>
<path d="M198.954 222.578L195.817 222.17C192.655 221.751 189.439 222.181 186.499 223.416C183.558 224.651 180.999 226.646 179.085 229.197L160.418 254.044L145.778 228.214C145.778 228.214 144.021 245.783 125.312 242.102L145.401 275.911C146.673 278.051 148.442 279.853 150.559 281.163C152.677 282.472 155.079 283.251 157.562 283.433C160.045 283.614 162.535 283.194 164.82 282.206C167.105 281.219 169.118 279.694 170.688 277.762L187.88 256.627L198.954 222.578Z" fill="#3A5985"/>
<path d="M238.797 280.565C234.614 291.169 234.154 293.239 236.705 298.541C238.482 302.457 239.883 306.533 240.888 310.714C240.888 310.714 221.5 332.444 193.903 324.309L181.5 317.156C178.921 315.668 176.597 313.776 174.619 311.55L178.394 283.399C178.584 281.917 178.434 280.411 177.955 278.996L173.991 267.378C172.057 261.703 171.77 255.597 173.161 249.765C174.553 243.934 177.567 238.616 181.855 234.426L195.178 221.407L230.169 225.882L235.398 227.378C238.821 228.368 241.772 230.56 243.708 233.551C245.645 236.542 246.437 240.132 245.939 243.66C244.224 256 241.421 273.903 238.797 280.565Z" fill="#3A5985"/>
<path opacity="0.5" d="M238.797 280.565C234.614 291.169 234.154 293.239 236.705 298.541C238.482 302.457 239.883 306.533 240.888 310.714C240.888 310.714 221.5 332.444 193.903 324.309L181.5 317.156C178.921 315.668 176.597 313.776 174.619 311.55L178.394 283.399C178.584 281.917 178.434 280.411 177.955 278.996L173.991 267.378C172.057 261.703 171.77 255.597 173.161 249.765C174.553 243.934 177.567 238.616 181.855 234.426L195.178 221.407L230.169 225.882L235.398 227.378C238.821 228.368 241.772 230.56 243.708 233.551C245.645 236.542 246.437 240.132 245.939 243.66C244.224 256 241.421 273.903 238.797 280.565Z" fill="black"/>
<path d="M217.694 248.889L210.687 242.918C209.945 242.283 209.05 241.853 208.091 241.669C207.132 241.486 206.142 241.556 205.218 241.872L196.747 244.79L195.607 240.042C195.429 239.303 195.104 238.608 194.65 237.999C194.196 237.389 193.624 236.878 192.967 236.496C192.31 236.114 191.583 235.869 190.829 235.776C190.075 235.682 189.31 235.743 188.58 235.953L184.909 236.999L191.121 225.098C193.149 221.222 196.273 218.029 200.104 215.916L202.541 214.578L222.671 215.624C222.671 215.624 230.169 218.761 230.169 225.82L217.694 248.826" fill="#3A5985"/>
<path d="M222.755 224.544L202.572 240.272V190.191H222.755V224.544Z" fill="#945959"/>
<path d="M202.886 220.413L196.747 244.831L222.671 224.544L202.886 220.413Z" fill="#945959"/>
<path d="M202.572 216.784C207.06 215.118 211.162 212.557 214.63 209.256C218.098 205.956 220.859 201.985 222.745 197.584V190.191H202.562L202.572 216.784Z" fill="#703838"/>
<path d="M206.923 153.077C199.268 153.077 182.996 157.344 181.114 177.38C179.231 197.417 181.051 212.936 191.383 214.442C201.715 215.948 225.725 208.45 228.946 182.515C232.167 156.58 214.379 153.077 206.923 153.077Z" fill="#945959"/>
<path d="M194.875 185.861V197.668L187.952 195.545L194.875 185.861Z" fill="#703838"/>
<path d="M202.572 190.306C203.901 190.306 204.977 189.229 204.977 187.901C204.977 186.572 203.901 185.495 202.572 185.495C201.244 185.495 200.167 186.572 200.167 187.901C200.167 189.229 201.244 190.306 202.572 190.306Z" fill="#263238"/>
<path d="M189.144 186.227C189.142 186.703 189 187.167 188.734 187.561C188.468 187.955 188.092 188.262 187.652 188.442C187.213 188.623 186.729 188.669 186.264 188.575C185.798 188.481 185.37 188.251 185.035 187.914C184.699 187.577 184.471 187.149 184.379 186.682C184.287 186.216 184.336 185.733 184.518 185.294C184.7 184.855 185.009 184.48 185.404 184.216C185.799 183.953 186.264 183.812 186.739 183.812C187.056 183.812 187.37 183.874 187.662 183.996C187.955 184.117 188.22 184.295 188.444 184.52C188.667 184.744 188.844 185.011 188.964 185.304C189.085 185.597 189.146 185.911 189.144 186.227Z" fill="#263238"/>
<path d="M183.801 181.208L188.507 178.416C188.507 178.416 186.708 176.544 184.91 177.663C183.111 178.782 183.801 181.208 183.801 181.208Z" fill="#263238"/>
<path d="M191.623 202.458C193.915 202.625 196.196 202.013 198.096 200.722C198.096 200.722 198.546 204.141 195.681 204.79C192.815 205.438 191.623 202.458 191.623 202.458Z" fill="#703838"/>
<path d="M187.514 159.895C187.514 159.895 190.389 187.556 228.005 188.424C228.005 188.424 239.373 160.931 216.91 152C194.447 143.069 187.514 159.895 187.514 159.895Z" fill="#263238"/>
<path d="M239.079 184.282L234.457 181.605C232.7 180.559 230.274 180.706 227.587 182.254C222.253 185.328 217.924 192.826 217.924 198.986C217.924 202.071 218.97 204.214 220.768 205.26L225.307 207.875L225.568 208.021L225.725 208.115C227.44 208.952 229.73 208.753 232.251 207.299C237.584 204.162 241.913 196.727 241.913 190.567C241.882 187.451 240.805 185.297 239.079 184.282Z" fill="#3A5985"/>
<path d="M239.043 200.034C242.814 193.501 242.814 186.441 239.043 184.263C235.271 182.086 229.157 185.616 225.385 192.149C221.614 198.681 221.614 205.741 225.385 207.919C229.157 210.096 235.271 206.566 239.043 200.034Z" fill="#3A5985"/>
<path opacity="0.5" d="M239.043 200.034C242.814 193.501 242.814 186.441 239.043 184.263C235.271 182.086 229.157 185.616 225.385 192.149C221.614 198.681 221.614 205.741 225.385 207.919C229.157 210.096 235.271 206.566 239.043 200.034Z" fill="black"/>
<path d="M240.93 190.086L237.793 188.256C236.601 187.545 234.938 187.639 233.097 188.695C231.175 189.952 229.575 191.643 228.427 193.632C227.279 195.622 226.614 197.853 226.488 200.146C226.488 202.238 227.231 203.733 228.433 204.424L231.571 206.212C231.626 206.252 231.686 206.287 231.748 206.316L231.853 206.379C232.588 206.658 233.381 206.752 234.161 206.654C234.942 206.555 235.686 206.267 236.329 205.814C238.25 204.559 239.849 202.869 240.997 200.882C242.145 198.895 242.81 196.665 242.938 194.374C242.854 192.251 242.122 190.776 240.93 190.086Z" fill="#3A5985"/>
<path d="M242.855 194.353C242.727 196.644 242.062 198.874 240.914 200.861C239.766 202.848 238.167 204.538 236.246 205.793C232.585 207.885 229.626 206.191 229.626 201.976C229.75 199.683 230.414 197.451 231.565 195.463C232.715 193.475 234.319 191.787 236.246 190.536C239.895 188.424 242.855 190.128 242.855 194.353Z" fill="#3A5985"/>
<path opacity="0.3" d="M242.855 194.353C242.727 196.644 242.062 198.874 240.914 200.861C239.766 202.848 238.167 204.538 236.246 205.793C232.585 207.885 229.626 206.191 229.626 201.976C229.75 199.683 230.414 197.451 231.565 195.463C232.715 193.475 234.319 191.787 236.246 190.536C239.895 188.424 242.855 190.128 242.855 194.353Z" fill="black"/>
<path d="M224.722 147.681C221.724 145.365 218.052 144.091 214.264 144.052H213.333C209.498 144.011 205.668 144.361 201.903 145.098C202.594 145.098 203.284 145.098 203.995 145.098H201.903V147.043H203.848C210.552 147.271 216.904 150.097 221.562 154.923C226.221 159.749 228.82 166.197 228.81 172.905V181.135C228.81 181.46 228.878 181.782 229.01 182.079C229.142 182.376 229.336 182.643 229.577 182.861C229.819 183.078 230.103 183.243 230.413 183.344C230.722 183.445 231.049 183.479 231.373 183.446H231.613L233.705 182.797C233.565 182.841 233.421 182.869 233.276 182.881C233.899 182.796 234.47 182.485 234.879 182.007C235.288 181.529 235.506 180.917 235.493 180.288V172.654C235.472 158.839 229.501 151.414 224.722 147.681Z" fill="#3A5985"/>
<path d="M211.556 213.867C210.693 213.867 209.841 213.681 209.056 213.323L202.52 210.301C202.418 210.264 202.325 210.207 202.246 210.132C202.167 210.058 202.104 209.967 202.062 209.867C202.02 209.767 201.999 209.66 202 209.551C202.002 209.443 202.026 209.336 202.071 209.237C202.116 209.138 202.181 209.05 202.262 208.977C202.343 208.905 202.438 208.85 202.541 208.816C202.644 208.783 202.753 208.771 202.861 208.782C202.969 208.792 203.074 208.825 203.169 208.878L209.705 211.901C210.538 212.288 211.472 212.406 212.376 212.237C213.279 212.069 214.108 211.622 214.745 210.959L221.02 204.476C221.167 204.329 221.366 204.246 221.574 204.246C221.782 204.246 221.981 204.329 222.128 204.476C222.273 204.624 222.353 204.823 222.353 205.03C222.353 205.237 222.273 205.436 222.128 205.584L215.854 212.068C215.295 212.642 214.627 213.096 213.888 213.405C213.149 213.715 212.356 213.871 211.556 213.867Z" fill="#3A5985"/>
<path opacity="0.5" d="M211.556 213.867C210.693 213.867 209.841 213.681 209.056 213.323L202.52 210.301C202.418 210.264 202.325 210.207 202.246 210.132C202.167 210.058 202.104 209.967 202.062 209.867C202.02 209.767 201.999 209.66 202 209.551C202.002 209.443 202.026 209.336 202.071 209.237C202.116 209.138 202.181 209.05 202.262 208.977C202.343 208.905 202.438 208.85 202.541 208.816C202.644 208.783 202.753 208.771 202.861 208.782C202.969 208.792 203.074 208.825 203.169 208.878L209.705 211.901C210.538 212.288 211.472 212.406 212.376 212.237C213.279 212.069 214.108 211.622 214.745 210.959L221.02 204.476C221.167 204.329 221.366 204.246 221.574 204.246C221.782 204.246 221.981 204.329 222.128 204.476C222.273 204.624 222.353 204.823 222.353 205.03C222.353 205.237 222.273 205.436 222.128 205.584L215.854 212.068C215.295 212.642 214.627 213.096 213.888 213.405C213.149 213.715 212.356 213.871 211.556 213.867Z" fill="black"/>
<path d="M204.235 208.105C204.235 208.709 204.056 209.299 203.72 209.801C203.385 210.303 202.908 210.695 202.35 210.926C201.792 211.157 201.178 211.217 200.586 211.099C199.993 210.982 199.449 210.691 199.022 210.264C198.595 209.837 198.304 209.293 198.187 208.7C198.069 208.108 198.129 207.494 198.36 206.936C198.591 206.378 198.983 205.901 199.485 205.566C199.987 205.23 200.578 205.051 201.182 205.051C201.991 205.051 202.768 205.373 203.341 205.945C203.913 206.518 204.235 207.295 204.235 208.105Z" fill="#3A5985"/>
<path opacity="0.5" d="M204.235 208.105C204.235 208.709 204.056 209.299 203.72 209.801C203.385 210.303 202.908 210.695 202.35 210.926C201.792 211.157 201.178 211.217 200.586 211.099C199.993 210.982 199.449 210.691 199.022 210.264C198.595 209.837 198.304 209.293 198.187 208.7C198.069 208.108 198.129 207.494 198.36 206.936C198.591 206.378 198.983 205.901 199.485 205.566C199.987 205.23 200.578 205.051 201.182 205.051C201.991 205.051 202.768 205.373 203.341 205.945C203.913 206.518 204.235 207.295 204.235 208.105Z" fill="black"/>
<path d="M235.471 172.654V180.288C235.485 180.917 235.266 181.529 234.857 182.007C234.448 182.485 233.878 182.796 233.254 182.881C232.91 182.918 232.561 182.882 232.232 182.775C231.902 182.668 231.599 182.493 231.341 182.261C231.084 182.029 230.878 181.746 230.738 181.429C230.597 181.113 230.524 180.77 230.525 180.424V172.654C230.531 168.945 229.786 165.274 228.337 161.861C226.887 158.448 224.761 155.363 222.088 152.793C219.415 150.223 216.25 148.22 212.783 146.904C209.316 145.589 205.618 144.989 201.913 145.14C205.678 144.403 209.507 144.053 213.343 144.094H214.253C218.041 144.133 221.713 145.407 224.71 147.723C229.5 151.414 235.471 158.839 235.471 172.654Z" fill="#3A5985"/>
<path opacity="0.5" d="M235.471 172.654V180.288C235.485 180.917 235.266 181.529 234.857 182.007C234.448 182.485 233.878 182.796 233.254 182.881C232.91 182.918 232.561 182.882 232.232 182.775C231.902 182.668 231.599 182.493 231.341 182.261C231.084 182.029 230.878 181.746 230.738 181.429C230.597 181.113 230.524 180.77 230.525 180.424V172.654C230.531 168.945 229.786 165.274 228.337 161.861C226.887 158.448 224.761 155.363 222.088 152.793C219.415 150.223 216.25 148.22 212.783 146.904C209.316 145.589 205.618 144.989 201.913 145.14C205.678 144.403 209.507 144.053 213.343 144.094H214.253C218.041 144.133 221.713 145.407 224.71 147.723C229.5 151.414 235.471 158.839 235.471 172.654Z" fill="black"/>
<path d="M223.717 316.518C223.717 316.518 218.656 330.458 236.747 336.732C236.747 336.732 242.656 328.052 236.747 320.952C230.839 313.851 223.717 316.518 223.717 316.518Z" fill="#3A5985"/>
<path opacity="0.7" d="M223.717 316.518C223.717 316.518 218.656 330.458 236.747 336.732C236.747 336.732 242.656 328.052 236.747 320.952C230.839 313.851 223.717 316.518 223.717 316.518Z" fill="black"/>
<path d="M230.065 317.156C230.065 317.156 212.392 323.629 212.486 326.139C212.58 328.648 219.995 326.933 219.995 326.933L217.286 328.711C214.434 330.572 212.225 333.267 210.959 336.429C210.683 337.126 210.674 337.9 210.932 338.604C211.191 339.308 211.699 339.893 212.361 340.246L219.074 343.801C219.453 344.002 219.869 344.125 220.297 344.163C220.724 344.201 221.155 344.153 221.563 344.021C221.972 343.889 222.35 343.677 222.675 343.397C223 343.117 223.266 342.774 223.456 342.39C223.83 341.65 224.347 340.992 224.977 340.454C225.607 339.915 226.338 339.507 227.127 339.252C230.776 338.039 237.584 334.546 240.313 324.988L230.065 317.156Z" fill="#945959"/>
<path d="M235.367 227.357C235.367 227.357 225.956 232.586 230.954 248.46C235.953 264.335 245.333 288.962 245.333 288.962L223.718 316.518C226.027 316.796 228.252 317.559 230.246 318.755C232.241 319.952 233.961 321.555 235.294 323.461C236.571 325.4 237.369 327.614 237.622 329.921C237.874 332.229 237.575 334.563 236.748 336.732L263.582 302.222C266.063 299.033 267.711 295.276 268.376 291.29C269.04 287.304 268.701 283.215 267.388 279.393L255.885 245.804C254.479 241.701 252.142 237.979 249.058 234.929C245.974 231.879 242.226 229.585 238.107 228.225L235.367 227.357Z" fill="#3A5985"/>
<path d="M76.497 133.584L34.9075 109.532C34.4289 109.2 33.8751 108.993 33.2963 108.929C32.7175 108.865 32.1319 108.947 31.5925 109.166C31.4788 109.219 31.3702 109.282 31.2683 109.354L22.2225 114.656H22.2853C21.1454 115.305 20.4238 116.81 20.4238 118.965V165.229C20.4238 169.14 22.7977 173.689 25.7362 175.383L67.3258 199.435C67.8535 199.817 68.4816 200.035 69.1323 200.063C69.783 200.091 70.4275 199.927 70.9859 199.592C70.9577 199.603 70.9325 199.621 70.9127 199.644L79.8957 194.416C81.067 193.788 81.8094 192.261 81.8094 190.076V143.739C81.8094 139.827 79.4774 135.278 76.497 133.584Z" fill="#3A5985"/>
<path d="M80.3246 137.966C79.4832 136.177 78.1573 134.659 76.4972 133.584L34.9076 109.532C34.429 109.2 33.8753 108.993 33.2965 108.929C32.7177 108.865 32.132 108.947 31.5926 109.166C31.4789 109.219 31.3704 109.282 31.2684 109.354L22.2227 114.656C22.776 114.373 23.3965 114.248 24.0162 114.294C24.6359 114.34 25.231 114.556 25.7364 114.918L67.3259 138.97C69.0425 140.092 70.403 141.681 71.2475 143.55L80.3246 137.966Z" fill="#3A5985"/>
<path d="M72.6386 195.367C72.6386 197.459 71.9693 198.912 70.9131 199.55L79.8961 194.322C81.0673 193.694 81.8098 192.167 81.8098 189.982V143.739C81.7656 141.726 81.2574 139.75 80.3249 137.966L71.2477 143.55C72.1192 145.282 72.5944 147.186 72.6386 149.124V195.367Z" fill="#3A5985"/>
<path opacity="0.3" d="M80.3246 137.966C79.4832 136.177 78.1573 134.659 76.4972 133.584L34.9076 109.532C34.429 109.2 33.8753 108.993 33.2965 108.929C32.7177 108.865 32.132 108.947 31.5926 109.166C31.4789 109.219 31.3704 109.282 31.2684 109.354L22.2227 114.656C22.776 114.373 23.3965 114.248 24.0162 114.294C24.6359 114.34 25.231 114.556 25.7364 114.918L67.3259 138.97C69.0425 140.092 70.403 141.681 71.2475 143.55L80.3246 137.966Z" fill="black"/>
<path opacity="0.6" d="M72.6386 195.367C72.6386 197.459 71.9693 198.912 70.9131 199.55L79.8961 194.322C81.0673 193.694 81.8098 192.167 81.8098 189.982V143.739C81.7656 141.726 81.2574 139.75 80.3249 137.966L71.2477 143.55C72.1192 145.282 72.5944 147.186 72.6386 149.124V195.367Z" fill="black"/>
<path d="M60.4448 162.374C60.4448 168.366 58.071 170.405 54.5154 168.345C53.5346 167.787 52.6769 167.036 51.994 166.137C51.311 165.238 50.817 164.211 50.5416 163.116C49.4958 164.403 47.8749 164.486 45.5952 163.169C41.8514 161.004 38.9024 155.848 38.9024 150.839C38.9024 145.83 41.82 144.105 45.5952 146.28C47.5108 147.409 49.0582 149.069 50.0501 151.059V149.082L53.9925 151.362V162.196C53.9338 162.766 54.0324 163.342 54.2776 163.86C54.5228 164.378 54.9053 164.819 55.3834 165.135C56.7115 165.909 57.5272 164.601 57.5272 160.722C57.5272 153.935 53.1769 146.74 46.7455 143.027C40.3141 139.315 35.9743 141.898 35.9743 148.884C36.0585 152.59 37.0799 156.216 38.9432 159.421C40.8066 162.627 43.4511 165.308 46.6305 167.216C48.3567 168.279 50.317 168.904 52.3403 169.035L53.271 172.643C50.9152 172.453 48.6387 171.704 46.6305 170.458C38.2644 165.616 32.7324 155.869 32.7324 147.043C32.7324 138.217 38.3167 135.017 46.7455 139.89C54.8919 144.586 60.4448 153.987 60.4448 162.374ZM50.1128 157.344C50.1332 156.018 49.8096 154.709 49.1736 153.545C48.5377 152.381 47.611 151.402 46.4841 150.703C44.3925 149.48 42.8971 150.337 42.8971 153.182C42.8702 154.51 43.1862 155.823 43.8145 156.993C44.4428 158.164 45.3622 159.152 46.4841 159.864C48.5756 161.046 50.1128 160.282 50.1128 157.344Z" fill="#3A5985"/>
<g opacity="0.9">
<path d="M60.4448 162.374C60.4448 168.366 58.071 170.405 54.5154 168.345C53.5346 167.787 52.6769 167.036 51.994 166.137C51.311 165.238 50.817 164.211 50.5416 163.116C49.4958 164.403 47.8749 164.486 45.5952 163.169C41.8514 161.004 38.9024 155.848 38.9024 150.839C38.9024 145.83 41.82 144.105 45.5952 146.28C47.5108 147.409 49.0582 149.069 50.0501 151.059V149.082L53.9925 151.362V162.196C53.9338 162.766 54.0324 163.342 54.2776 163.86C54.5228 164.378 54.9053 164.819 55.3834 165.135C56.7115 165.909 57.5272 164.601 57.5272 160.722C57.5272 153.935 53.1769 146.74 46.7455 143.027C40.3141 139.315 35.9743 141.898 35.9743 148.884C36.0585 152.59 37.0799 156.216 38.9432 159.421C40.8066 162.627 43.4511 165.308 46.6305 167.216C48.3567 168.279 50.317 168.904 52.3403 169.035L53.271 172.643C50.9152 172.453 48.6387 171.704 46.6305 170.458C38.2644 165.616 32.7324 155.869 32.7324 147.043C32.7324 138.217 38.3167 135.017 46.7455 139.89C54.8919 144.586 60.4448 153.987 60.4448 162.374ZM50.1128 157.344C50.1332 156.018 49.8096 154.709 49.1736 153.545C48.5377 152.381 47.611 151.402 46.4841 150.703C44.3925 149.48 42.8971 150.337 42.8971 153.182C42.8702 154.51 43.1862 155.823 43.8145 156.993C44.4428 158.164 45.3622 159.152 46.4841 159.864C48.5756 161.046 50.1128 160.282 50.1128 157.344Z" fill="white"/>
</g>
<path d="M76.497 215.969L34.9075 191.916C34.4295 191.583 33.8751 191.375 33.2956 191.313C32.7161 191.251 32.1303 191.336 31.5925 191.561C31.4788 191.613 31.3702 191.676 31.2683 191.749L22.2225 197.051H22.2853C21.1454 197.699 20.4238 199.205 20.4238 201.349V247.592C20.4238 251.514 22.7977 256.052 25.7362 257.746L67.3258 281.799C67.8524 282.183 68.4809 282.403 69.1321 282.431C69.7834 282.459 70.4284 282.293 70.9859 281.956L70.9127 282.018L79.8957 276.737C81.067 276.12 81.8094 274.646 81.8094 272.397V226.112C81.8094 222.201 79.4774 217.663 76.497 215.969Z" fill="#3A5985"/>
<path d="M80.3246 220.35C79.4861 218.559 78.1595 217.04 76.4972 215.969L34.9076 191.916C34.4297 191.583 33.8752 191.375 33.2957 191.313C32.7162 191.251 32.1304 191.336 31.5926 191.561C31.4789 191.613 31.3704 191.676 31.2684 191.749L22.2227 197.051C22.7747 196.765 23.3949 196.638 24.0148 196.682C24.6348 196.726 25.2305 196.941 25.7364 197.302L67.3259 221.354C69.0452 222.478 70.4062 224.071 71.2475 225.945L80.3246 220.35Z" fill="#3A5985"/>
<path d="M72.6386 277.741C72.6386 279.833 71.9693 281.286 70.9131 281.976L79.8961 276.695C81.0673 276.078 81.8098 274.604 81.8098 272.356V226.112C81.7655 224.103 81.2573 222.131 80.3249 220.35L71.2477 225.935C72.1191 227.663 72.5942 229.563 72.6386 231.498V277.741Z" fill="#3A5985"/>
<path opacity="0.3" d="M80.3246 220.35C79.4861 218.559 78.1595 217.04 76.4972 215.969L34.9076 191.916C34.4297 191.583 33.8752 191.375 33.2957 191.313C32.7162 191.251 32.1304 191.336 31.5926 191.561C31.4789 191.613 31.3704 191.676 31.2684 191.749L22.2227 197.051C22.7747 196.765 23.3949 196.638 24.0148 196.682C24.6348 196.726 25.2305 196.941 25.7364 197.302L67.3259 221.354C69.0452 222.478 70.4062 224.071 71.2475 225.945L80.3246 220.35Z" fill="black"/>
<path opacity="0.6" d="M72.6386 277.741C72.6386 279.833 71.9693 281.286 70.9131 281.976L79.8961 276.695C81.0673 276.078 81.8098 274.604 81.8098 272.356V226.112C81.7655 224.103 81.2573 222.131 80.3249 220.35L71.2477 225.935C72.1191 227.663 72.5942 229.563 72.6386 231.498V277.741Z" fill="black"/>
<path d="M41.8823 236.643L31.8535 220.35V242.426L41.8823 236.643Z" fill="#3A5985"/>
<path d="M51.2002 241.339L61.208 258.667V236.622L51.2002 241.339Z" fill="#3A5985"/>
<path d="M33.3701 219.608L43.6708 236.34C43.7144 236.377 43.753 236.419 43.7858 236.465C43.7949 236.507 43.7949 236.55 43.7858 236.591L46.8499 241.569L49.4433 240.345C49.4837 240.301 49.5294 240.263 49.5793 240.23C49.6815 240.17 49.7959 240.135 49.9139 240.125L60.3714 235.221L33.3701 219.608Z" fill="#3A5985"/>
<path d="M49.6839 242.05L46.8813 243.367C46.7733 243.418 46.6553 243.443 46.5362 243.441C46.3918 243.442 46.2495 243.406 46.1231 243.337C45.9967 243.267 45.8904 243.166 45.8146 243.043L42.7506 238.065L32.6904 243.88L59.7649 259.503L49.6839 242.05Z" fill="#3A5985"/>
<g opacity="0.9">
<path d="M41.8823 236.643L31.8535 220.35V242.426L41.8823 236.643Z" fill="white"/>
<path d="M51.2002 241.339L61.208 258.667V236.622L51.2002 241.339Z" fill="white"/>
<path d="M33.3701 219.608L43.6708 236.34C43.7144 236.377 43.753 236.419 43.7858 236.465C43.7949 236.507 43.7949 236.55 43.7858 236.591L46.8499 241.569L49.4433 240.345C49.4837 240.301 49.5294 240.263 49.5793 240.23C49.6815 240.17 49.7959 240.135 49.9139 240.125L60.3714 235.221L33.3701 219.608Z" fill="white"/>
<path d="M49.6839 242.05L46.8813 243.367C46.7733 243.418 46.6553 243.443 46.5362 243.441C46.3918 243.442 46.2495 243.406 46.1231 243.337C45.9967 243.267 45.8904 243.166 45.8146 243.043L42.7506 238.065L32.6904 243.88L59.7649 259.503L49.6839 242.05Z" fill="white"/>
</g>
<path d="M76.497 51.2418L34.9075 27.1895C34.4295 26.856 33.8751 26.6485 33.2956 26.5863C32.7161 26.5242 32.1303 26.6094 31.5925 26.834C31.4788 26.8865 31.3702 26.9495 31.2683 27.0222L22.2225 32.3242H22.2853C21.1454 32.9621 20.4238 34.4784 20.4238 36.6222V82.8654C20.4238 86.7765 22.7977 91.3255 25.7362 93.0196L67.3258 117.072C67.8524 117.456 68.4809 117.676 69.1321 117.704C69.7834 117.732 70.4284 117.567 70.9859 117.229L70.9127 117.281L79.8957 112.052C81.067 111.435 81.8094 109.961 81.8094 107.712V61.3542C81.8094 57.4431 79.4774 52.8941 76.497 51.2418Z" fill="#3A5985"/>
<path d="M80.3246 55.5922C79.4863 53.7979 78.1599 52.2759 76.4972 51.2L34.9076 27.1895C34.4297 26.856 33.8752 26.6485 33.2957 26.5863C32.7162 26.5242 32.1304 26.6094 31.5926 26.834C31.4789 26.8865 31.3704 26.9495 31.2684 27.0222L22.2227 32.3242C22.7747 32.0387 23.3949 31.9111 24.0148 31.9554C24.6348 31.9996 25.2305 32.2141 25.7364 32.5752L67.3259 56.6275C69.0452 57.7513 70.4062 59.3445 71.2475 61.2183L80.3246 55.5922Z" fill="#3A5985"/>
<path d="M72.6386 112.941C72.6386 115.033 71.9693 116.486 70.9131 117.124L79.8961 111.895C81.0673 111.278 81.8098 109.804 81.8098 107.556V61.3542C81.7655 59.3448 81.2573 57.3728 80.3249 55.5922L71.2477 61.1765C72.1191 62.9045 72.5942 64.8051 72.6386 66.7399V112.941Z" fill="#3A5985"/>
<path opacity="0.3" d="M80.3246 55.5922C79.4863 53.7979 78.1599 52.2759 76.4972 51.2L34.9076 27.1895C34.4297 26.856 33.8752 26.6485 33.2957 26.5863C32.7162 26.5242 32.1304 26.6094 31.5926 26.834C31.4789 26.8865 31.3704 26.9495 31.2684 27.0222L22.2227 32.3242C22.7747 32.0387 23.3949 31.9111 24.0148 31.9554C24.6348 31.9996 25.2305 32.2141 25.7364 32.5752L67.3259 56.6275C69.0452 57.7513 70.4062 59.3445 71.2475 61.2183L80.3246 55.5922Z" fill="black"/>
<path opacity="0.6" d="M72.6386 112.941C72.6386 115.033 71.9693 116.486 70.9131 117.124L79.8961 111.895C81.0673 111.278 81.8098 109.804 81.8098 107.556V61.3542C81.7655 59.3448 81.2573 57.3728 80.3249 55.5922L71.2477 61.1765C72.1191 62.9045 72.5942 64.8051 72.6386 66.7399V112.941Z" fill="black"/>
<path d="M59.0329 93.0719C57.4329 90.4366 55.8224 87.8431 54.2224 85.1869C53.9686 84.6838 53.6139 84.2384 53.1802 83.8786C52.7466 83.5187 52.2434 83.2521 51.7022 83.0954C50.9283 82.9386 50.1544 82.7608 49.3597 82.5307C49.0766 82.4127 48.8385 82.2076 48.6799 81.9451C46.0618 77.4642 43.9803 72.6906 42.4786 67.7229C42.4467 67.6167 42.4376 67.5049 42.452 67.3949C42.4665 67.285 42.504 67.1793 42.5623 67.085C43.0538 66.5935 43.608 66.1438 44.11 65.7046C44.612 65.2654 44.8734 64.251 44.5074 62.9333C43.7335 60.1412 42.991 57.349 42.2172 54.5673C42.0674 53.7769 41.7122 53.0399 41.1872 52.4305C40.6621 51.821 39.9858 51.3605 39.2263 51.0954C37.5399 50.6266 35.7496 50.6923 34.1021 51.2837C33.4642 51.5242 33.1296 52.0993 33.1191 53.0928C33.391 55.0065 33.5688 56.8993 33.9348 58.8444C36.5143 72.8715 42.7191 85.7691 52.5492 97.5373C52.8058 97.9275 53.1506 98.252 53.5557 98.4845C53.9608 98.717 54.4148 98.851 54.8812 98.8758C56.5087 98.8371 58.0722 98.2346 59.3048 97.1712C60.2355 96.3346 60.1414 94.8497 59.0329 93.0719Z" fill="#3A5985"/>
<path d="M58.9076 78.8183C58.6888 75.8103 57.8598 72.8784 56.471 70.2013C55.4341 68.1099 54.1145 66.1711 52.5494 64.4392C52.1416 63.9791 51.7965 63.8327 51.5873 64.1778C51.3782 64.5229 51.5873 65.0144 51.9847 65.464L52.3926 65.9346C55.283 69.2711 57.1046 73.3989 57.6213 77.783C57.6162 78.1028 57.6478 78.4221 57.7154 78.7346C57.8468 79.0943 58.0577 79.4196 58.3324 79.6863C58.552 79.8431 58.803 79.6863 58.9808 79.6863C58.9181 79.2575 58.9285 79.0379 58.9076 78.8183Z" fill="#3A5985"/>
<path d="M49.4333 70.2327C50.7465 71.6771 51.5445 73.5157 51.7026 75.4614C51.7714 75.7573 51.8805 76.0423 52.0267 76.3085C52.6646 76.8314 52.9784 76.6536 52.9784 75.9948C52.7548 73.5 51.723 71.1464 50.0398 69.2915C49.6424 68.8837 49.3182 68.7582 49.13 69.1033C49.0623 69.3003 49.055 69.5131 49.109 69.7143C49.1631 69.9156 49.276 70.0961 49.4333 70.2327Z" fill="#3A5985"/>
<g opacity="0.9">
<path d="M59.0329 93.0719C57.4329 90.4366 55.8224 87.8431 54.2224 85.1869C53.9686 84.6838 53.6139 84.2384 53.1802 83.8786C52.7466 83.5187 52.2434 83.2521 51.7022 83.0954C50.9283 82.9386 50.1544 82.7608 49.3597 82.5307C49.0766 82.4127 48.8385 82.2076 48.6799 81.9451C46.0618 77.4642 43.9803 72.6906 42.4786 67.7229C42.4467 67.6167 42.4376 67.5049 42.452 67.3949C42.4665 67.285 42.504 67.1793 42.5623 67.085C43.0538 66.5935 43.608 66.1438 44.11 65.7046C44.612 65.2654 44.8734 64.251 44.5074 62.9333C43.7335 60.1412 42.991 57.349 42.2172 54.5673C42.0674 53.7769 41.7122 53.0399 41.1872 52.4305C40.6621 51.821 39.9858 51.3605 39.2263 51.0954C37.5399 50.6266 35.7496 50.6923 34.1021 51.2837C33.4642 51.5242 33.1296 52.0993 33.1191 53.0928C33.391 55.0065 33.5688 56.8993 33.9348 58.8444C36.5143 72.8715 42.7191 85.7691 52.5492 97.5373C52.8058 97.9275 53.1506 98.252 53.5557 98.4845C53.9608 98.717 54.4148 98.851 54.8812 98.8758C56.5087 98.8371 58.0722 98.2346 59.3048 97.1712C60.2355 96.3346 60.1414 94.8497 59.0329 93.0719Z" fill="white"/>
<path d="M58.9076 78.8183C58.6888 75.8103 57.8598 72.8784 56.471 70.2013C55.4341 68.1099 54.1145 66.1711 52.5494 64.4392C52.1416 63.9791 51.7965 63.8327 51.5873 64.1778C51.3782 64.5229 51.5873 65.0144 51.9847 65.464L52.3926 65.9346C55.283 69.2711 57.1046 73.3989 57.6213 77.783C57.6162 78.1028 57.6478 78.4221 57.7154 78.7346C57.8468 79.0943 58.0577 79.4196 58.3324 79.6863C58.552 79.8431 58.803 79.6863 58.9808 79.6863C58.9181 79.2575 58.9285 79.0379 58.9076 78.8183Z" fill="white"/>
<path d="M49.4333 70.2327C50.7465 71.6771 51.5445 73.5157 51.7026 75.4614C51.7714 75.7573 51.8805 76.0423 52.0267 76.3085C52.6646 76.8314 52.9784 76.6536 52.9784 75.9948C52.7548 73.5 51.723 71.1464 50.0398 69.2915C49.6424 68.8837 49.3182 68.7582 49.13 69.1033C49.0623 69.3003 49.055 69.5131 49.109 69.7143C49.1631 69.9156 49.276 70.0961 49.4333 70.2327Z" fill="white"/>
</g>
<path d="M289.882 23.5085L299.681 29.0824V25.6105C299.681 25.3699 299.681 25.119 299.681 24.8784C299.681 24.6379 299.681 24.4078 299.681 24.1778V24.0523C300.037 19.4614 303.519 17.6941 307.765 20.1516C309.687 21.3339 311.334 22.9134 312.596 24.7843C313.548 18.5098 318.64 16.2928 324.8 19.8379C331.639 23.7909 337.182 33.4327 337.182 41.2967V48.7216C337.172 49.3155 337.318 49.9016 337.607 50.421C337.895 50.9404 338.314 51.375 338.824 51.681L344.596 55.0588C345.842 55.7975 346.875 56.8469 347.593 58.1044C348.312 59.3619 348.692 60.7844 348.695 62.2327C348.696 62.8335 348.537 63.4239 348.237 63.9442C347.936 64.4645 347.504 64.8964 346.983 65.1964C346.463 65.4965 345.872 65.6541 345.272 65.6533C344.671 65.6526 344.081 65.4935 343.561 65.1922L290.029 34.2484C288.609 33.4236 287.429 32.2416 286.607 30.8199C285.785 29.3981 285.35 27.786 285.344 26.1438C285.343 25.6122 285.482 25.0899 285.747 24.629C286.012 24.1682 286.394 23.7852 286.854 23.5183C287.313 23.2513 287.835 23.1099 288.367 23.1082C288.898 23.1065 289.421 23.2445 289.882 23.5085Z" fill="#E6E6E6"/>
<path d="M364.58 22.0549L371.702 26.1438V23.5922C371.702 23.4144 371.702 23.2366 371.702 23.0588C371.702 22.881 371.702 22.7137 371.702 22.5464V22.4837C371.963 19.1477 374.494 17.8614 377.579 19.6497C378.976 20.5056 380.174 21.6501 381.093 23.0065C381.793 18.468 385.495 16.8261 389.971 19.4092C394.949 22.285 398.975 29.2706 398.975 35.0118V40.4183C398.979 40.8421 399.093 41.2577 399.305 41.6243C399.518 41.991 399.822 42.2961 400.188 42.5098L404.371 44.9673C405.281 45.5026 406.035 46.267 406.558 47.1844C407.081 48.1018 407.355 49.1401 407.351 50.1961C407.351 50.6286 407.237 51.0534 407.023 51.4287C406.808 51.8041 406.499 52.117 406.126 52.3365C405.754 52.5561 405.33 52.6747 404.898 52.6808C404.465 52.6869 404.039 52.5802 403.66 52.3712L364.685 29.8667C363.652 29.2692 362.794 28.4108 362.198 27.3775C361.601 26.3441 361.287 25.1722 361.286 23.9791C361.285 23.5929 361.386 23.2133 361.578 22.8782C361.77 22.5431 362.046 22.2643 362.38 22.0695C362.713 21.8747 363.092 21.7709 363.478 21.7683C363.864 21.7657 364.244 21.8646 364.58 22.0549Z" fill="#E6E6E6"/>
</svg>
