<svg width="328" height="380" viewBox="0 0 328 380" fill="none" xmlns="http://www.w3.org/2000/svg">
<g clip-path="url(#clip0_227_6576)">
<path d="M163.921 379.412C254.018 379.412 327.056 337.921 327.056 286.739C327.056 235.556 254.018 194.065 163.921 194.065C73.8242 194.065 0.786133 235.556 0.786133 286.739C0.786133 337.921 73.8242 379.412 163.921 379.412Z" fill="#F5F5F5"/>
<path d="M231.809 345.171L110.035 274.858C108.963 274.241 108.074 273.353 107.455 272.282C106.836 271.212 106.511 269.997 106.511 268.761C106.511 267.525 106.836 266.31 107.455 265.24C108.074 264.169 108.963 263.281 110.035 262.664L122.047 255.088C124.121 253.894 126.472 253.266 128.865 253.266C131.258 253.266 133.609 253.894 135.683 255.088L257.473 325.409C258.544 326.026 259.434 326.915 260.053 327.985C260.671 329.056 260.997 330.27 260.997 331.507C260.997 332.743 260.671 333.957 260.053 335.028C259.434 336.098 258.544 336.987 257.473 337.604L245.46 345.171C243.386 346.371 241.031 347.004 238.634 347.004C236.238 347.004 233.883 346.371 231.809 345.171Z" fill="#E0E0E0"/>
<path d="M46.6517 281.068C61.2465 281.068 73.0779 274.273 73.0779 265.892C73.0779 257.511 61.2465 250.717 46.6517 250.717C32.057 250.717 20.2256 257.511 20.2256 265.892C20.2256 274.273 32.057 281.068 46.6517 281.068Z" fill="#E6E6E6"/>
<path d="M274.99 284.545L286.581 291.209C286.581 291.209 280.661 272.607 283.816 253.855C285.008 246.768 287.566 243.25 288.46 241.354C289.354 239.458 296.284 227.743 290.116 222.379C283.948 217.014 269.601 227.801 270.379 256.67C270.733 266.119 272.282 275.485 274.99 284.545Z" fill="#3A5985"/>
<path opacity="0.5" d="M274.99 284.545L286.581 291.209C286.581 291.209 280.661 272.607 283.816 253.855C285.008 246.768 287.566 243.25 288.46 241.354C289.354 239.458 296.284 227.743 290.116 222.379C283.948 217.014 269.601 227.801 270.379 256.67C270.733 266.119 272.282 275.485 274.99 284.545Z" fill="black"/>
<path d="M280.38 288.055C280.296 288.057 280.213 288.032 280.144 287.985C280.074 287.937 280.021 287.869 279.991 287.79C279.95 287.666 275.521 275.562 275.661 256.107C275.802 236.651 286.027 226.088 286.126 225.988C286.164 225.949 286.21 225.919 286.261 225.898C286.311 225.877 286.365 225.866 286.42 225.866C286.475 225.866 286.529 225.877 286.579 225.898C286.63 225.919 286.675 225.949 286.714 225.988C286.753 226.027 286.783 226.073 286.804 226.123C286.825 226.173 286.836 226.227 286.836 226.282C286.836 226.337 286.825 226.391 286.804 226.441C286.783 226.492 286.753 226.538 286.714 226.576C286.614 226.675 276.63 236.925 276.489 256.115C276.349 275.305 280.72 287.393 280.77 287.508C280.807 287.612 280.802 287.725 280.755 287.825C280.708 287.924 280.624 288.001 280.521 288.038C280.476 288.052 280.428 288.058 280.38 288.055Z" fill="white"/>
<path d="M279.825 287.393L295.671 296.499C297.322 297.475 299.28 297.793 301.155 297.39C303.03 296.986 304.684 295.891 305.788 294.322C306.836 292.69 307.279 290.741 307.038 288.817C306.276 280.587 302.7 278.692 307.079 275.024C311.459 271.356 312.601 271.1 312.353 267.573C312.104 264.046 309.695 262.506 308.553 261.115C307.41 259.725 304.248 256.81 306.4 252.505C308.553 248.2 311.492 244.036 307.038 242.132C304.38 240.99 299.951 242.513 297.037 245.675C294.123 248.838 291.722 251.115 288.932 251.876C286.142 252.638 280.33 252.762 280.578 257.572C280.827 262.382 282.102 264.03 280.959 266.174C278.807 270.181 269.443 272.458 279.825 287.393Z" fill="#3A5985"/>
<path d="M287.657 292.294C287.554 292.29 287.455 292.25 287.379 292.18C287.304 292.11 287.255 292.015 287.243 291.913C287.243 291.631 284.809 263.218 304.347 244.309C304.428 244.243 304.531 244.209 304.635 244.215C304.739 244.222 304.837 244.267 304.91 244.342C304.982 244.418 305.023 244.518 305.025 244.622C305.026 244.727 304.989 244.828 304.919 244.905C285.662 263.541 288.046 291.557 288.071 291.838C288.08 291.947 288.047 292.055 287.977 292.138C287.907 292.222 287.807 292.275 287.699 292.285L287.657 292.294Z" fill="white"/>
<path d="M290.795 267.838C290.69 267.838 290.59 267.799 290.513 267.729C290.436 267.658 290.389 267.561 290.381 267.457C290.207 265.255 289.587 263.112 288.558 261.157C287.529 259.203 286.113 257.479 284.395 256.09C284.35 256.059 284.312 256.019 284.283 255.973C284.254 255.927 284.234 255.875 284.225 255.821C284.215 255.767 284.217 255.712 284.229 255.659C284.241 255.605 284.264 255.555 284.296 255.511C284.326 255.466 284.366 255.428 284.411 255.399C284.457 255.37 284.507 255.35 284.561 255.341C284.614 255.332 284.668 255.333 284.721 255.345C284.774 255.357 284.823 255.38 284.867 255.411C286.697 256.863 288.206 258.678 289.298 260.743C290.389 262.808 291.04 265.078 291.209 267.407C291.218 267.518 291.183 267.628 291.112 267.713C291.04 267.799 290.938 267.852 290.828 267.863L290.795 267.838Z" fill="white"/>
<path d="M289.446 272.714C289.346 272.715 289.249 272.68 289.172 272.615C289.09 272.542 289.04 272.439 289.032 272.329C289.025 272.22 289.06 272.111 289.131 272.027C289.33 271.795 294.223 266.397 305.689 267.83C305.797 267.844 305.896 267.901 305.963 267.988C306.029 268.075 306.059 268.185 306.045 268.293C306.03 268.402 305.974 268.502 305.887 268.57C305.801 268.638 305.691 268.669 305.581 268.658C294.57 267.275 289.793 272.524 289.744 272.573C289.706 272.616 289.66 272.65 289.609 272.674C289.558 272.698 289.502 272.712 289.446 272.714Z" fill="white"/>
<path d="M228.1 336.768L121.004 274.933C113.446 270.57 107.319 258.864 107.319 248.788V19.4636C107.319 9.38823 113.446 4.76035 121.004 9.12331L228.1 70.9582C235.658 75.3211 241.785 87.0274 241.785 97.1028V326.427C241.785 336.495 235.658 341.131 228.1 336.768Z" fill="#455A64"/>
<path d="M240.435 63.7473L133.332 1.91242C130.103 0.0496716 127.139 -0.16558 124.796 0.976904C124.509 1.12055 124.233 1.28375 123.968 1.46536L111.964 8.44444C114.381 6.99564 117.544 7.10327 121.013 9.10675L228.108 70.9416C235.667 75.3046 241.793 87.0109 241.793 97.0863V326.411C241.793 331.742 240.079 335.518 237.347 337.306L249.194 330.41C252.216 328.803 254.162 324.871 254.162 319.233V89.9085C254.162 79.8166 247.994 68.1102 240.435 63.7473Z" fill="#37474F"/>
<path d="M241.785 97.0863V326.411C241.785 331.742 240.071 335.518 237.339 337.306L249.194 330.41C252.216 328.803 254.162 324.871 254.162 319.233V89.9085L241.826 97.0697L241.785 97.0863Z" fill="#263238"/>
<path d="M254.121 107.7L241.785 114.82V120.383L254.121 113.255V107.7Z" fill="#37474F"/>
<path d="M248.714 144.698C247.613 145.336 246.719 144.657 246.719 143.191V131.228C246.73 130.48 246.916 129.746 247.263 129.083C247.609 128.42 248.106 127.848 248.714 127.412C249.815 126.774 250.709 127.412 250.709 128.919V140.881C250.698 141.629 250.512 142.364 250.165 143.027C249.819 143.69 249.322 144.262 248.714 144.698Z" fill="#37474F"/>
<path d="M246.71 143.224V131.228C246.722 130.48 246.908 129.746 247.254 129.083C247.601 128.42 248.098 127.848 248.706 127.412C248.887 127.285 249.099 127.207 249.319 127.187C249.54 127.167 249.762 127.204 249.964 127.296L248.466 126.526C248.261 126.427 248.033 126.385 247.806 126.402C247.58 126.419 247.361 126.496 247.174 126.625C246.566 127.061 246.068 127.633 245.72 128.296C245.372 128.959 245.184 129.694 245.171 130.442V142.397C245.139 142.698 245.185 143.003 245.304 143.283C245.423 143.562 245.61 143.807 245.849 143.994L247.414 144.822C247.165 144.643 246.968 144.4 246.845 144.119C246.721 143.838 246.675 143.529 246.71 143.224Z" fill="#455A64"/>
<path d="M248.714 173.649C247.613 174.287 246.719 173.649 246.719 172.142V160.18C246.731 159.432 246.917 158.697 247.264 158.035C247.61 157.372 248.107 156.799 248.714 156.363C249.815 155.725 250.709 156.363 250.709 157.878V169.833C250.699 170.581 250.514 171.316 250.167 171.979C249.82 172.642 249.323 173.214 248.714 173.649Z" fill="#37474F"/>
<path d="M246.711 172.142V160.18C246.723 159.432 246.909 158.697 247.256 158.035C247.602 157.372 248.099 156.799 248.706 156.363C248.889 156.238 249.1 156.162 249.32 156.142C249.54 156.121 249.762 156.158 249.964 156.247L248.466 155.469C248.262 155.366 248.034 155.321 247.806 155.338C247.579 155.356 247.36 155.435 247.174 155.568C246.565 156.003 246.066 156.575 245.718 157.238C245.37 157.901 245.182 158.636 245.171 159.385V171.373C245.139 171.675 245.185 171.98 245.304 172.259C245.422 172.539 245.61 172.784 245.85 172.97L247.415 173.798C247.155 173.615 246.952 173.363 246.828 173.07C246.704 172.778 246.663 172.457 246.711 172.142Z" fill="#455A64"/>
<path d="M224.357 77.3908L119.116 16.6074C118.677 16.3547 118.18 16.2213 117.673 16.2204C117.166 16.2194 116.668 16.351 116.228 16.602C115.788 16.8531 115.421 17.2149 115.164 17.6515C114.906 18.0881 114.768 18.5844 114.762 19.0911V248.788C114.762 256.454 120.201 265.868 126.841 269.701L229.499 329.002C229.985 329.282 230.537 329.43 231.099 329.429C231.661 329.429 232.212 329.28 232.699 329C233.185 328.719 233.589 328.315 233.87 327.828C234.151 327.342 234.3 326.79 234.3 326.229V94.6357C234.342 88.3107 229.855 80.5534 224.357 77.3908Z" fill="#3A5985"/>
<path opacity="0.9" d="M224.357 77.3908L119.116 16.6074C118.677 16.3547 118.18 16.2213 117.673 16.2204C117.166 16.2194 116.668 16.351 116.228 16.602C115.788 16.8531 115.421 17.2149 115.164 17.6515C114.906 18.0881 114.768 18.5844 114.762 19.0911V248.788C114.762 256.454 120.201 265.868 126.841 269.701L229.499 329.002C229.985 329.282 230.537 329.43 231.099 329.429C231.661 329.429 232.212 329.28 232.699 329C233.185 328.719 233.589 328.315 233.87 327.828C234.151 327.342 234.3 326.79 234.3 326.229V94.6357C234.342 88.3107 229.855 80.5534 224.357 77.3908Z" fill="white"/>
<path d="M150.593 32.478L152.224 39.3412L187.111 59.4588L193.138 56.2466L150.593 32.478Z" fill="#455A64"/>
<path d="M160.85 39.1094C160.85 40.2519 160.023 40.7072 159.062 40.1442C158.547 39.8019 158.119 39.3435 157.812 38.8058C157.506 38.268 157.33 37.666 157.299 37.0479C157.299 35.9137 158.127 35.4501 159.087 36.0214C159.602 36.3619 160.031 36.8187 160.337 37.3551C160.643 37.8916 160.819 38.4925 160.85 39.1094Z" fill="#263238"/>
<path d="M184.355 53.6388C184.164 53.6372 183.976 53.5889 183.808 53.498L165.992 43.5634C165.741 43.4157 165.557 43.1754 165.48 42.894C165.403 42.6126 165.439 42.3123 165.581 42.0572C165.722 41.8022 165.958 41.6126 166.238 41.5289C166.517 41.4453 166.818 41.4742 167.077 41.6096L184.901 51.5442C185.118 51.6646 185.288 51.8537 185.386 52.0816C185.483 52.3095 185.502 52.5634 185.44 52.8032C185.377 53.0431 185.236 53.2554 185.04 53.4066C184.844 53.5579 184.602 53.6395 184.355 53.6388Z" fill="#263238"/>
<path d="M136.833 64.4096C135.749 63.7804 134.962 64.3268 134.962 65.7094C134.962 66.4008 135.133 67.0814 135.459 67.6909C135.786 68.3004 136.258 68.8198 136.833 69.203C137.141 69.3901 137.495 69.4891 137.856 69.4891C138.216 69.4891 138.57 69.3901 138.878 69.203L140.608 72.3325C140 72.6683 139.309 72.8284 138.615 72.7948C137.921 72.7611 137.249 72.5352 136.676 72.142C135.27 71.282 134.098 70.0888 133.263 68.6678C132.429 67.2469 131.957 65.6422 131.891 63.9956C131.891 60.9242 133.952 59.8562 136.792 61.512C138.395 62.5446 139.709 63.9694 140.608 65.6514L138.878 67.0257C138.451 65.9814 137.743 65.0758 136.833 64.4096Z" fill="#3A5985"/>
<path d="M150.568 74.783C150.568 77.8793 148.474 78.9224 145.601 77.2667C144.155 76.4026 142.945 75.1948 142.079 73.7505C141.212 72.3062 140.716 70.6701 140.634 68.9878C140.634 65.8915 142.728 64.8484 145.601 66.5041C147.05 67.3642 148.263 68.5712 149.13 70.0163C149.997 71.4614 150.492 73.0995 150.568 74.783ZM143.705 70.834C143.72 71.5448 143.903 72.242 144.24 72.8681C144.577 73.4943 145.057 74.0314 145.643 74.4353C146.669 75.0314 147.497 74.4353 147.497 73.0279C147.494 72.3331 147.324 71.6492 147.001 71.0339C146.679 70.4186 146.213 69.89 145.643 69.4928C144.599 68.8884 143.705 69.4017 143.705 70.834Z" fill="#3A5985"/>
<path d="M153.905 71.4963L157.481 78.9473V73.5826L160.188 75.1473V85.5869L157.705 84.1464L154.145 76.7617V82.0932L151.421 80.5203V70.0558L153.905 71.4963Z" fill="#3A5985"/>
<path d="M169.039 80.2305V82.9625L166.456 81.4723V89.1882L163.467 87.4579V79.742L160.9 78.2601V75.5364L169.039 80.2305Z" fill="#3A5985"/>
<path d="M174.866 92.566L171.472 90.6039L171.008 91.8126L167.945 90.0409L171.762 81.8035L174.833 83.5752L178.509 96.1425L175.322 94.3046L174.866 92.566ZM174.13 89.6684L173.202 86.1002L172.25 88.5839L174.13 89.6684Z" fill="#3A5985"/>
<path d="M183.253 91.2083C182.169 90.5874 181.382 91.1255 181.382 92.5163C181.383 93.2075 181.555 93.8876 181.881 94.4969C182.207 95.1061 182.679 95.6258 183.253 96.01C183.563 96.1952 183.918 96.293 184.28 96.293C184.641 96.293 184.996 96.1952 185.306 96.01L187.036 99.1394C186.425 99.4715 185.734 99.6293 185.039 99.5957C184.345 99.5621 183.672 99.3385 183.096 98.949C181.689 98.0882 180.516 96.8937 179.681 95.4712C178.847 94.0487 178.376 92.4423 178.311 90.7943C178.311 87.7229 180.38 86.6549 183.212 88.3107C184.813 89.3483 186.128 90.7717 187.036 92.4501L185.306 93.8161C184.87 92.7773 184.161 91.8761 183.253 91.2083Z" fill="#3A5985"/>
<path d="M195.2 95.3394V98.0632L192.617 96.573V104.314L189.628 102.583V94.8675L187.062 93.3856V90.6619L195.2 95.3394Z" fill="#3A5985"/>
<path d="M204.033 108.155C204.77 108.577 205.333 108.246 205.333 107.211V101.193L208.33 102.915V108.933C208.33 111.707 206.674 112.535 204.025 111.02C202.749 110.311 201.676 109.286 200.909 108.044C200.142 106.802 199.707 105.383 199.646 103.925V97.9059L202.642 99.6362V105.655C202.654 106.153 202.787 106.641 203.029 107.077C203.271 107.512 203.616 107.883 204.033 108.155Z" fill="#3A5985"/>
<path d="M213.157 108.188C212.817 107.998 212.602 107.99 212.602 108.304C212.602 109.612 217.28 111.5 217.28 115.283C217.28 117.601 215.516 117.61 213.48 116.434C211.689 115.337 210.147 113.879 208.951 112.154L210.061 110.2C210.971 111.609 212.139 112.834 213.505 113.81C213.943 114.066 214.225 114.066 214.225 113.694C214.225 112.336 209.539 110.531 209.539 106.864C209.539 104.777 211.062 104.38 213.413 105.705C214.928 106.621 216.261 107.808 217.346 109.207L216.261 111.21C215.366 110.069 214.322 109.053 213.157 108.188Z" fill="#3A5985"/>
<path d="M121.774 115.854C125.133 111.729 126.824 106.494 126.513 101.183C126.202 95.8718 123.912 90.87 120.095 87.1645C116.277 83.459 111.209 81.3188 105.891 81.1662C100.573 81.0136 95.3911 82.8597 91.3673 86.3402C87.3435 89.8207 84.7703 94.6829 84.1553 99.9674C83.5403 105.252 84.9283 110.575 88.0453 114.887C91.1623 119.198 95.782 122.185 100.993 123.258C106.204 124.33 111.628 123.411 116.194 120.681L126.559 125.185L121.774 115.854Z" fill="#3A5985"/>
<path opacity="0.4" d="M121.774 115.854C125.133 111.729 126.824 106.494 126.513 101.183C126.202 95.8718 123.912 90.87 120.095 87.1645C116.277 83.459 111.209 81.3188 105.891 81.1662C100.573 81.0136 95.3911 82.8597 91.3673 86.3402C87.3435 89.8207 84.7703 94.6829 84.1553 99.9674C83.5403 105.252 84.9283 110.575 88.0453 114.887C91.1623 119.198 95.782 122.185 100.993 123.258C106.204 124.33 111.628 123.411 116.194 120.681L126.559 125.185L121.774 115.854Z" fill="black"/>
<path d="M97.4008 101.284C97.4008 100.961 97.169 100.779 96.7468 100.779C95.7675 100.907 94.8527 101.338 94.1307 102.012L92.9551 99.7272C94.1925 98.7961 95.6874 98.2699 97.2353 98.2205C99.2222 98.2205 100.729 99.2636 100.729 100.82C100.729 101.929 99.901 102.997 98.8414 104.065L97.3594 105.531H100.861V107.965H93.3359V105.969L96.6888 102.501C97.0499 102.181 97.2993 101.755 97.4008 101.284Z" fill="white"/>
<path d="M106.989 98.3612L104.704 103.842H105.639V101.996H108.52V103.842H109.613V106.102H108.52V107.965H105.639V106.102H101.541V104.049L104.025 98.3612H106.989Z" fill="white"/>
<path d="M118.504 103.188V107.965H115.424V104.074C115.442 103.947 115.433 103.818 115.396 103.695C115.36 103.573 115.298 103.459 115.214 103.363C115.13 103.266 115.026 103.189 114.909 103.136C114.793 103.083 114.667 103.055 114.539 103.055C113.934 103.055 113.553 103.527 113.553 104.256V107.965H110.474V97.8148H113.553V101.549C113.794 101.168 114.13 100.856 114.528 100.644C114.925 100.432 115.371 100.327 115.822 100.34C116.191 100.33 116.558 100.399 116.899 100.541C117.24 100.683 117.547 100.895 117.8 101.164C118.053 101.433 118.247 101.752 118.368 102.101C118.489 102.449 118.536 102.82 118.504 103.188Z" fill="white"/>
<path d="M218.927 180.115V282.98C218.929 284.143 218.624 285.287 218.043 286.295C217.463 287.303 216.627 288.141 215.62 288.723C214.612 289.306 213.47 289.612 212.306 289.613C211.143 289.613 210 289.307 208.992 288.725L153.59 256.736L143.771 251.073C140.39 249.118 137.582 246.31 135.626 242.929C133.671 239.549 132.637 235.714 132.628 231.808V128.935C132.626 127.772 132.931 126.628 133.512 125.62C134.092 124.612 134.928 123.774 135.935 123.192C136.942 122.61 138.085 122.303 139.249 122.302C140.412 122.302 141.555 122.608 142.563 123.19L207.8 160.85C211.183 162.802 213.992 165.61 215.945 168.992C217.898 172.373 218.926 176.21 218.927 180.115Z" fill="#3A5985"/>
<path opacity="0.5" d="M218.927 180.115V282.98C218.929 284.143 218.624 285.287 218.043 286.295C217.463 287.303 216.627 288.141 215.62 288.723C214.612 289.306 213.47 289.612 212.306 289.613C211.143 289.613 210 289.307 208.992 288.725L153.59 256.736L143.771 251.073C140.39 249.118 137.582 246.31 135.626 242.929C133.671 239.549 132.637 235.714 132.628 231.808V128.935C132.626 127.772 132.931 126.628 133.512 125.62C134.092 124.612 134.928 123.774 135.935 123.192C136.942 122.61 138.085 122.303 139.249 122.302C140.412 122.302 141.555 122.608 142.563 123.19L207.8 160.85C211.183 162.802 213.992 165.61 215.945 168.992C217.898 172.373 218.926 176.21 218.927 180.115Z" fill="white"/>
<path d="M187.012 240.981C187.012 240.981 197.385 258.185 189.893 277.582L153.565 256.736L187.012 240.981Z" fill="#263238"/>
<path d="M203.555 163.688C204.34 157.312 199.808 151.506 193.432 150.721C187.056 149.936 181.251 154.468 180.466 160.844C179.68 167.22 184.213 173.025 190.589 173.811C196.964 174.596 202.77 170.063 203.555 163.688Z" fill="#263238"/>
<path d="M192.07 129.639C192.07 129.639 195.639 123.844 196.731 124.266C197.824 124.688 196.019 130.21 196.019 130.21C196.019 130.21 201.417 131.336 200.415 132.694C199.414 134.051 192.815 133.729 192.815 133.729L192.07 129.639Z" fill="#263238"/>
<path d="M194.554 144.574C192.07 163.234 176.34 163.234 176.34 163.234L143.39 148.73C143.39 148.73 140.907 146.553 140.145 141.552C139.853 139.504 139.853 137.424 140.145 135.376C140.145 135.376 140.145 135.335 140.145 135.318C141.196 127.47 147.066 119.034 159.849 116.442C162.65 115.877 165.502 115.599 168.359 115.614C169.742 115.61 171.124 115.679 172.499 115.821C182.433 116.798 189.396 121.434 192.716 128.645C193.462 130.273 194.018 131.981 194.372 133.737C195.045 137.313 195.107 140.977 194.554 144.574Z" fill="#263238"/>
<path d="M115.449 180.67C115.449 180.67 103.751 180.264 99.2471 191.664C99.2471 191.664 104.214 195.017 110.73 191.664C117.245 188.311 115.449 180.67 115.449 180.67Z" fill="#3A5985"/>
<path opacity="0.5" d="M115.449 180.67C115.449 180.67 103.751 180.264 99.2471 191.664C99.2471 191.664 104.214 195.017 110.73 191.664C117.245 188.311 115.449 180.67 115.449 180.67Z" fill="black"/>
<path d="M115.118 186.159C115.118 186.159 111.806 171.77 110.06 171.596C108.313 171.422 107.973 175.984 108.114 178.559L103.975 169.651C103.843 169.374 103.657 169.127 103.426 168.925C103.196 168.723 102.927 168.57 102.635 168.476C102.343 168.383 102.035 168.349 101.731 168.379C101.426 168.409 101.13 168.501 100.862 168.649C96.7224 170.926 89.4618 177.847 104.769 194.959L115.118 186.159Z" fill="#945959"/>
<path d="M157.506 176.207L155.022 175.885C152.519 175.553 149.973 175.893 147.645 176.871C145.317 177.849 143.291 179.428 141.776 181.448L126.998 201.119L115.408 180.67C115.408 180.67 114.017 194.578 99.2061 191.664L115.11 218.43C116.116 220.124 117.517 221.55 119.193 222.587C120.869 223.624 122.771 224.24 124.737 224.384C126.702 224.528 128.673 224.195 130.483 223.413C132.292 222.632 133.886 221.425 135.128 219.895L148.739 203.163L157.506 176.207Z" fill="#3A5985"/>
<path d="M189.048 222.114C185.737 230.509 185.373 232.148 187.393 236.345C188.799 239.445 189.908 242.672 190.704 245.982C190.704 245.982 175.355 263.185 153.507 256.744L143.688 251.081C141.646 249.904 139.807 248.406 138.241 246.644L141.23 224.357C141.38 223.184 141.261 221.992 140.882 220.872L137.744 211.674C136.213 207.182 135.985 202.348 137.087 197.731C138.189 193.114 140.575 188.904 143.97 185.587L154.517 175.28L182.218 178.824L186.358 180.007C189.068 180.791 191.404 182.526 192.937 184.895C194.47 187.263 195.097 190.104 194.703 192.898C193.345 202.667 191.126 216.84 189.048 222.114Z" fill="#3A5985"/>
<path opacity="0.5" d="M189.048 222.114C185.737 230.509 185.373 232.148 187.393 236.345C188.799 239.445 189.908 242.672 190.704 245.982C190.704 245.982 175.355 263.185 153.507 256.744L143.688 251.081C141.646 249.904 139.807 248.406 138.241 246.644L141.23 224.357C141.38 223.184 141.261 221.992 140.882 220.872L137.744 211.674C136.213 207.182 135.985 202.348 137.087 197.731C138.189 193.114 140.575 188.904 143.97 185.587L154.517 175.28L182.218 178.824L186.358 180.007C189.068 180.791 191.404 182.526 192.937 184.895C194.47 187.263 195.097 190.104 194.703 192.898C193.345 202.667 191.126 216.84 189.048 222.114Z" fill="black"/>
<path d="M172.342 197.037L166.795 192.31C166.208 191.807 165.499 191.467 164.74 191.321C163.981 191.176 163.197 191.232 162.465 191.482L155.759 193.792L154.857 190.033C154.716 189.448 154.458 188.898 154.099 188.416C153.74 187.933 153.287 187.529 152.767 187.226C152.247 186.924 151.671 186.73 151.074 186.656C150.477 186.582 149.872 186.63 149.294 186.796L146.388 187.624L151.305 178.203C152.911 175.134 155.384 172.606 158.417 170.934L160.346 169.874L176.283 170.702C176.283 170.702 182.219 173.186 182.219 178.774L172.342 196.987" fill="#3A5985"/>
<path d="M176.348 177.764L160.37 190.215V150.568H176.348V177.764Z" fill="#945959"/>
<path d="M160.618 174.494L155.759 193.825L176.282 177.764L160.618 174.494Z" fill="#945959"/>
<path d="M160.371 171.621C163.924 170.302 167.171 168.274 169.917 165.661C172.662 163.048 174.847 159.904 176.341 156.421V150.568H160.362L160.371 171.621Z" fill="#703838"/>
<path d="M163.814 121.186C157.754 121.186 144.872 124.564 143.382 140.426C141.892 156.288 143.332 168.574 151.512 169.766C159.691 170.959 178.699 165.023 181.249 144.491C183.799 123.959 169.717 121.186 163.814 121.186Z" fill="#945959"/>
<path d="M154.277 147.14V156.487L148.797 154.807L154.277 147.14Z" fill="#703838"/>
<path d="M160.37 150.659C161.422 150.659 162.274 149.806 162.274 148.755C162.274 147.703 161.422 146.851 160.37 146.851C159.318 146.851 158.466 147.703 158.466 148.755C158.466 149.806 159.318 150.659 160.37 150.659Z" fill="#263238"/>
<path d="M149.74 147.43C149.738 147.806 149.625 148.174 149.415 148.486C149.205 148.798 148.907 149.041 148.559 149.183C148.211 149.326 147.828 149.363 147.459 149.288C147.09 149.214 146.752 149.032 146.486 148.765C146.221 148.499 146.04 148.159 145.968 147.79C145.895 147.421 145.933 147.039 146.077 146.691C146.222 146.344 146.466 146.047 146.779 145.838C147.092 145.629 147.46 145.518 147.836 145.518C148.087 145.518 148.335 145.567 148.566 145.663C148.798 145.76 149.008 145.901 149.185 146.078C149.362 146.256 149.502 146.467 149.597 146.699C149.693 146.931 149.741 147.179 149.74 147.43Z" fill="#263238"/>
<path d="M145.51 143.456L149.236 141.246C149.236 141.246 147.812 139.764 146.388 140.65C144.964 141.536 145.51 143.456 145.51 143.456Z" fill="#263238"/>
<path d="M151.702 160.279C153.516 160.411 155.322 159.927 156.827 158.905C156.827 158.905 157.183 161.612 154.914 162.125C152.646 162.638 151.702 160.279 151.702 160.279Z" fill="#703838"/>
<path d="M148.449 126.584C148.449 126.584 150.726 148.481 180.505 149.169C180.505 149.169 189.504 127.403 171.721 120.333C153.938 113.263 148.449 126.584 148.449 126.584Z" fill="#263238"/>
<path d="M189.272 145.89L185.612 143.771C184.221 142.943 182.301 143.059 180.173 144.284C175.951 146.718 172.523 152.654 172.523 157.53C172.523 159.973 173.351 161.67 174.775 162.498L178.368 164.567L178.575 164.683L178.699 164.758C180.057 165.42 181.87 165.263 183.865 164.112C188.088 161.628 191.515 155.742 191.515 150.866C191.49 148.399 190.638 146.693 189.272 145.89Z" fill="#3A5985"/>
<path d="M189.243 158.36C192.229 153.188 192.229 147.599 189.244 145.875C186.258 144.151 181.417 146.946 178.431 152.118C175.446 157.289 175.446 162.879 178.431 164.602C181.417 166.326 186.258 163.531 189.243 158.36Z" fill="#3A5985"/>
<path opacity="0.5" d="M189.243 158.36C192.229 153.188 192.229 147.599 189.244 145.875C186.258 144.151 181.417 146.946 178.431 152.118C175.446 157.289 175.446 162.879 178.431 164.602C181.417 166.326 186.258 163.531 189.243 158.36Z" fill="black"/>
<path d="M190.737 150.485L188.253 149.036C187.309 148.473 185.993 148.548 184.536 149.384C183.014 150.379 181.747 151.717 180.838 153.292C179.929 154.867 179.404 156.634 179.304 158.449C179.304 160.105 179.892 161.289 180.844 161.835L183.327 163.251C183.371 163.283 183.418 163.311 183.468 163.334L183.551 163.383C184.133 163.604 184.76 163.679 185.378 163.601C185.996 163.523 186.585 163.295 187.094 162.936C188.615 161.942 189.881 160.605 190.79 159.032C191.699 157.458 192.225 155.693 192.326 153.879C192.26 152.199 191.681 151.031 190.737 150.485Z" fill="#3A5985"/>
<path d="M192.261 153.863C192.16 155.677 191.633 157.442 190.725 159.015C189.816 160.588 188.55 161.926 187.029 162.92C184.131 164.576 181.788 163.234 181.788 159.898C181.886 158.082 182.412 156.315 183.323 154.741C184.234 153.167 185.503 151.831 187.029 150.841C189.918 149.169 192.261 150.518 192.261 153.863Z" fill="#3A5985"/>
<path opacity="0.3" d="M192.261 153.863C192.16 155.677 191.633 157.442 190.725 159.015C189.816 160.588 188.55 161.926 187.029 162.92C184.131 164.576 181.788 163.234 181.788 159.898C181.886 158.082 182.412 156.315 183.323 154.741C184.234 153.167 185.503 151.831 187.029 150.841C189.918 149.169 192.261 150.518 192.261 153.863Z" fill="black"/>
<path d="M177.905 116.914C175.532 115.081 172.625 114.072 169.626 114.041H168.89C165.853 114.009 162.821 114.286 159.841 114.869C160.387 114.869 160.934 114.869 161.497 114.869H159.841V116.409H161.381C166.688 116.59 171.717 118.827 175.404 122.647C179.092 126.468 181.15 131.573 181.142 136.883V143.398C181.142 143.656 181.196 143.911 181.301 144.146C181.405 144.381 181.558 144.592 181.749 144.765C181.94 144.937 182.166 145.067 182.411 145.147C182.656 145.227 182.914 145.255 183.171 145.228H183.361L185.017 144.715C184.907 144.749 184.793 144.772 184.677 144.781C185.171 144.714 185.623 144.468 185.946 144.089C186.27 143.71 186.443 143.226 186.433 142.728V136.684C186.416 125.748 181.689 119.87 177.905 116.914Z" fill="#3A5985"/>
<path d="M167.482 169.311C166.799 169.311 166.124 169.164 165.503 168.881L160.329 166.488C160.248 166.459 160.174 166.414 160.111 166.355C160.049 166.296 159.999 166.224 159.966 166.145C159.933 166.066 159.916 165.981 159.917 165.895C159.918 165.809 159.937 165.724 159.973 165.646C160.009 165.568 160.06 165.498 160.124 165.44C160.188 165.383 160.264 165.34 160.345 165.313C160.427 165.286 160.513 165.277 160.599 165.285C160.684 165.294 160.767 165.32 160.842 165.362L166.016 167.755C166.676 168.062 167.416 168.155 168.131 168.021C168.846 167.888 169.502 167.534 170.007 167.01L174.974 161.877C175.091 161.76 175.248 161.695 175.413 161.695C175.578 161.695 175.735 161.76 175.852 161.877C175.966 161.994 176.03 162.152 176.03 162.315C176.03 162.479 175.966 162.637 175.852 162.754L170.884 167.887C170.442 168.341 169.913 168.701 169.328 168.946C168.744 169.191 168.116 169.315 167.482 169.311Z" fill="#3A5985"/>
<path opacity="0.5" d="M167.482 169.311C166.799 169.311 166.124 169.164 165.503 168.881L160.329 166.488C160.248 166.459 160.174 166.414 160.111 166.355C160.049 166.296 159.999 166.224 159.966 166.145C159.933 166.066 159.916 165.981 159.917 165.895C159.918 165.809 159.937 165.724 159.973 165.646C160.009 165.568 160.06 165.498 160.124 165.44C160.188 165.383 160.264 165.34 160.345 165.313C160.427 165.286 160.513 165.277 160.599 165.285C160.684 165.294 160.767 165.32 160.842 165.362L166.016 167.755C166.676 168.062 167.416 168.155 168.131 168.021C168.846 167.888 169.502 167.534 170.007 167.01L174.974 161.877C175.091 161.76 175.248 161.695 175.413 161.695C175.578 161.695 175.735 161.76 175.852 161.877C175.966 161.994 176.03 162.152 176.03 162.315C176.03 162.479 175.966 162.637 175.852 162.754L170.884 167.887C170.442 168.341 169.913 168.701 169.328 168.946C168.744 169.191 168.116 169.315 167.482 169.311Z" fill="black"/>
<path d="M161.686 164.749C161.686 165.228 161.545 165.695 161.279 166.093C161.013 166.49 160.636 166.8 160.194 166.983C159.752 167.166 159.266 167.214 158.797 167.12C158.328 167.027 157.898 166.797 157.56 166.459C157.222 166.121 156.991 165.69 156.898 165.221C156.805 164.752 156.853 164.266 157.036 163.824C157.219 163.383 157.528 163.005 157.926 162.739C158.323 162.474 158.791 162.332 159.269 162.332C159.91 162.332 160.525 162.587 160.978 163.04C161.432 163.493 161.686 164.108 161.686 164.749Z" fill="#3A5985"/>
<path opacity="0.5" d="M161.686 164.749C161.686 165.228 161.545 165.695 161.279 166.093C161.013 166.49 160.636 166.8 160.194 166.983C159.752 167.166 159.266 167.214 158.797 167.12C158.328 167.027 157.898 166.797 157.56 166.459C157.222 166.121 156.991 165.69 156.898 165.221C156.805 164.752 156.853 164.266 157.036 163.824C157.219 163.383 157.528 163.005 157.926 162.739C158.323 162.474 158.791 162.332 159.269 162.332C159.91 162.332 160.525 162.587 160.978 163.04C161.432 163.493 161.686 164.108 161.686 164.749Z" fill="black"/>
<path d="M186.416 136.684V142.728C186.426 143.226 186.253 143.71 185.929 144.089C185.606 144.468 185.154 144.714 184.66 144.781C184.388 144.81 184.112 144.781 183.851 144.697C183.59 144.612 183.35 144.474 183.146 144.29C182.942 144.106 182.779 143.882 182.668 143.631C182.557 143.381 182.499 143.11 182.5 142.835V136.684C182.504 133.748 181.915 130.842 180.767 128.14C179.619 125.438 177.937 122.996 175.821 120.961C173.705 118.926 171.199 117.341 168.454 116.299C165.709 115.258 162.782 114.783 159.849 114.902C162.829 114.319 165.861 114.042 168.897 114.075H169.618C172.616 114.105 175.523 115.114 177.897 116.947C181.688 119.87 186.416 125.748 186.416 136.684Z" fill="#3A5985"/>
<path opacity="0.5" d="M186.416 136.684V142.728C186.426 143.226 186.253 143.71 185.929 144.089C185.606 144.468 185.154 144.714 184.66 144.781C184.388 144.81 184.112 144.781 183.851 144.697C183.59 144.612 183.35 144.474 183.146 144.29C182.942 144.106 182.779 143.882 182.668 143.631C182.557 143.381 182.499 143.11 182.5 142.835V136.684C182.504 133.748 181.915 130.842 180.767 128.14C179.619 125.438 177.937 122.996 175.821 120.961C173.705 118.926 171.199 117.341 168.454 116.299C165.709 115.258 162.782 114.783 159.849 114.902C162.829 114.319 165.861 114.042 168.897 114.075H169.618C172.616 114.105 175.523 115.114 177.897 116.947C181.688 119.87 186.416 125.748 186.416 136.684Z" fill="black"/>
<path d="M177.111 250.576C177.111 250.576 173.104 261.612 187.426 266.58C187.426 266.58 192.104 259.708 187.426 254.087C182.748 248.465 177.111 250.576 177.111 250.576Z" fill="#3A5985"/>
<path opacity="0.7" d="M177.111 250.576C177.111 250.576 173.104 261.612 187.426 266.58C187.426 266.58 192.104 259.708 187.426 254.087C182.748 248.465 177.111 250.576 177.111 250.576Z" fill="black"/>
<path d="M182.136 251.081C182.136 251.081 168.145 256.206 168.219 258.193C168.294 260.18 174.163 258.822 174.163 258.822L172.019 260.23C169.761 261.703 168.012 263.836 167.01 266.339C166.792 266.891 166.784 267.505 166.989 268.062C167.194 268.619 167.596 269.082 168.12 269.361L173.435 272.176C173.735 272.335 174.064 272.433 174.402 272.463C174.741 272.492 175.082 272.454 175.405 272.35C175.729 272.246 176.028 272.078 176.285 271.856C176.543 271.634 176.753 271.363 176.904 271.058C177.2 270.473 177.609 269.952 178.108 269.526C178.607 269.1 179.185 268.776 179.809 268.575C182.699 267.614 188.088 264.849 190.249 257.282L182.136 251.081Z" fill="#945959"/>
<path d="M186.333 179.991C186.333 179.991 178.882 184.13 182.839 196.698C186.797 209.265 194.223 228.762 194.223 228.762L177.11 250.576C178.939 250.797 180.7 251.401 182.279 252.348C183.858 253.295 185.22 254.565 186.275 256.074C187.286 257.608 187.918 259.361 188.118 261.188C188.318 263.014 188.081 264.863 187.426 266.58L208.669 239.259C210.634 236.735 211.938 233.76 212.464 230.604C212.991 227.449 212.722 224.212 211.683 221.187L202.576 194.595C201.463 191.346 199.613 188.4 197.171 185.986C194.73 183.571 191.763 181.755 188.502 180.678L186.333 179.991Z" fill="#3A5985"/>
<path d="M60.5602 105.754L27.6352 86.7129C27.2563 86.4502 26.8179 86.2862 26.3597 86.2356C25.9014 86.185 25.4378 86.2495 25.0108 86.4231C24.9208 86.4647 24.8348 86.5145 24.7541 86.5721L17.5929 90.7695H17.6426C16.7402 91.2828 16.1689 92.4749 16.1689 94.1804V130.806C16.1689 133.902 18.0482 137.504 20.3746 138.845L53.2997 157.886C53.7174 158.188 54.2147 158.361 54.7298 158.383C55.2449 158.405 55.7552 158.276 56.1973 158.01C56.1749 158.019 56.155 158.034 56.1393 158.052L63.2509 153.912C64.1781 153.416 64.7659 152.207 64.7659 150.477V113.793C64.7659 110.697 62.9197 107.095 60.5602 105.754Z" fill="#3A5985"/>
<path d="M63.5902 109.223C62.924 107.806 61.8744 106.605 60.5601 105.754L27.635 86.7129C27.2561 86.4502 26.8178 86.2862 26.3595 86.2356C25.9013 86.185 25.4377 86.2495 25.0106 86.4231C24.9206 86.4647 24.8347 86.5145 24.754 86.5721L17.5928 90.7695C18.0308 90.5456 18.522 90.4465 19.0126 90.483C19.5033 90.5195 19.9744 90.6902 20.3745 90.9765L53.2995 110.018C54.6585 110.906 55.7356 112.164 56.4041 113.644L63.5902 109.223Z" fill="#3A5985"/>
<path d="M57.5057 154.666C57.5057 156.322 56.9758 157.472 56.1396 157.977L63.2512 153.838C64.1784 153.341 64.7662 152.132 64.7662 150.402V113.793C64.7312 112.2 64.3289 110.636 63.5906 109.223L56.4046 113.644C57.0945 115.015 57.4707 116.522 57.5057 118.057V154.666Z" fill="#3A5985"/>
<path opacity="0.3" d="M63.5902 109.223C62.924 107.806 61.8744 106.605 60.5601 105.754L27.635 86.7129C27.2561 86.4502 26.8178 86.2862 26.3595 86.2356C25.9013 86.185 25.4377 86.2495 25.0106 86.4231C24.9206 86.4647 24.8347 86.5145 24.754 86.5721L17.5928 90.7695C18.0308 90.5456 18.522 90.4465 19.0126 90.483C19.5033 90.5195 19.9744 90.6902 20.3745 90.9765L53.2995 110.018C54.6585 110.906 55.7356 112.164 56.4041 113.644L63.5902 109.223Z" fill="black"/>
<path opacity="0.6" d="M57.5057 154.666C57.5057 156.322 56.9758 157.472 56.1396 157.977L63.2512 153.838C64.1784 153.341 64.7662 152.132 64.7662 150.402V113.793C64.7312 112.2 64.3289 110.636 63.5906 109.223L56.4046 113.644C57.0945 115.015 57.4707 116.522 57.5057 118.057V154.666Z" fill="black"/>
<path d="M47.8521 128.546C47.8521 133.29 45.9728 134.904 43.158 133.273C42.3815 132.831 41.7025 132.236 41.1618 131.525C40.6212 130.814 40.23 130 40.012 129.134C39.1841 130.152 37.9009 130.218 36.0961 129.175C33.1323 127.461 30.7976 123.38 30.7976 119.414C30.7976 115.449 33.1074 114.083 36.0961 115.805C37.6127 116.699 38.8377 118.013 39.6229 119.588V118.024L42.744 119.828V128.405C42.6975 128.857 42.7756 129.312 42.9697 129.722C43.1638 130.132 43.4666 130.481 43.8451 130.732C44.8965 131.344 45.5423 130.309 45.5423 127.238C45.5423 121.865 42.0983 116.169 37.0068 113.23C31.9153 110.291 28.4795 112.336 28.4795 117.866C28.5462 120.801 29.3548 123.671 30.83 126.208C32.3051 128.746 34.3987 130.869 36.9157 132.379C38.2823 133.221 39.8342 133.715 41.436 133.82L42.1728 136.676C40.3078 136.525 38.5055 135.932 36.9157 134.946C30.2926 131.112 25.9131 123.397 25.9131 116.409C25.9131 109.422 30.334 106.888 37.0068 110.746C43.456 114.464 47.8521 121.906 47.8521 128.546ZM39.6726 124.564C39.6887 123.514 39.4325 122.478 38.929 121.557C38.4256 120.635 37.692 119.86 36.7998 119.307C35.144 118.338 33.9601 119.017 33.9601 121.269C33.9388 122.32 34.189 123.36 34.6864 124.286C35.1838 125.213 35.9117 125.996 36.7998 126.559C38.4556 127.495 39.6726 126.89 39.6726 124.564Z" fill="#3A5985"/>
<g opacity="0.9">
<path d="M47.8521 128.546C47.8521 133.29 45.9728 134.904 43.158 133.273C42.3815 132.831 41.7025 132.236 41.1618 131.525C40.6212 130.814 40.23 130 40.012 129.134C39.1841 130.152 37.9009 130.218 36.0961 129.175C33.1323 127.461 30.7976 123.38 30.7976 119.414C30.7976 115.449 33.1074 114.083 36.0961 115.805C37.6127 116.699 38.8377 118.013 39.6229 119.588V118.024L42.744 119.828V128.405C42.6975 128.857 42.7756 129.312 42.9697 129.722C43.1638 130.132 43.4666 130.481 43.8451 130.732C44.8965 131.344 45.5423 130.309 45.5423 127.238C45.5423 121.865 42.0983 116.169 37.0068 113.23C31.9153 110.291 28.4795 112.336 28.4795 117.866C28.5462 120.801 29.3548 123.671 30.83 126.208C32.3051 128.746 34.3987 130.869 36.9157 132.379C38.2823 133.221 39.8342 133.715 41.436 133.82L42.1728 136.676C40.3078 136.525 38.5055 135.932 36.9157 134.946C30.2926 131.112 25.9131 123.397 25.9131 116.409C25.9131 109.422 30.334 106.888 37.0068 110.746C43.456 114.464 47.8521 121.906 47.8521 128.546ZM39.6726 124.564C39.6887 123.514 39.4325 122.478 38.929 121.557C38.4256 120.635 37.692 119.86 36.7998 119.307C35.144 118.338 33.9601 119.017 33.9601 121.269C33.9388 122.32 34.189 123.36 34.6864 124.286C35.1838 125.213 35.9117 125.996 36.7998 126.559C38.4556 127.495 39.6726 126.89 39.6726 124.564Z" fill="white"/>
</g>
<path d="M60.5602 170.975L27.6352 151.934C27.2568 151.67 26.8179 151.505 26.3591 151.456C25.9003 151.407 25.4365 151.474 25.0108 151.652C24.9208 151.694 24.8348 151.744 24.7541 151.801L17.5929 155.999H17.6426C16.7402 156.512 16.1689 157.704 16.1689 159.401V196.01C16.1689 199.115 18.0482 202.708 20.3746 204.049L53.2997 223.091C53.7166 223.395 54.2141 223.569 54.7297 223.591C55.2453 223.613 55.7559 223.482 56.1973 223.215L56.1393 223.264L63.2509 219.084C64.1781 218.595 64.7659 217.428 64.7659 215.648V179.006C64.7659 175.909 62.9197 172.316 60.5602 170.975Z" fill="#3A5985"/>
<path d="M63.5902 174.444C62.9263 173.026 61.8761 171.824 60.5601 170.975L27.635 151.934C27.2567 151.67 26.8177 151.505 26.359 151.456C25.9002 151.407 25.4364 151.474 25.0106 151.652C24.9206 151.694 24.8347 151.744 24.754 151.801L17.5928 155.999C18.0298 155.773 18.5208 155.672 19.0116 155.707C19.5024 155.742 19.974 155.912 20.3745 156.197L53.2995 175.239C54.6606 176.128 55.7381 177.39 56.4041 178.873L63.5902 174.444Z" fill="#3A5985"/>
<path d="M57.5057 219.878C57.5057 221.534 56.9758 222.685 56.1396 223.231L63.2512 219.051C64.1784 218.562 64.7662 217.395 64.7662 215.615V179.006C64.7311 177.415 64.3288 175.854 63.5906 174.444L56.4046 178.865C57.0944 180.233 57.4705 181.738 57.5057 183.269V219.878Z" fill="#3A5985"/>
<path opacity="0.3" d="M63.5902 174.444C62.9263 173.026 61.8761 171.824 60.5601 170.975L27.635 151.934C27.2567 151.67 26.8177 151.505 26.359 151.456C25.9002 151.407 25.4364 151.474 25.0106 151.652C24.9206 151.694 24.8347 151.744 24.754 151.801L17.5928 155.999C18.0298 155.773 18.5208 155.672 19.0116 155.707C19.5024 155.742 19.974 155.912 20.3745 156.197L53.2995 175.239C54.6606 176.128 55.7381 177.39 56.4041 178.873L63.5902 174.444Z" fill="black"/>
<path opacity="0.6" d="M57.5057 219.878C57.5057 221.534 56.9758 222.685 56.1396 223.231L63.2512 219.051C64.1784 218.562 64.7662 217.395 64.7662 215.615V179.006C64.7311 177.415 64.3288 175.854 63.5906 174.444L56.4046 178.865C57.0944 180.233 57.4705 181.738 57.5057 183.269V219.878Z" fill="black"/>
<path d="M33.1572 187.342L25.2178 174.444V191.921L33.1572 187.342Z" fill="#3A5985"/>
<path d="M40.5332 191.06L48.4561 204.778V187.326L40.5332 191.06Z" fill="#3A5985"/>
<path d="M26.418 173.856L34.5727 187.102C34.6072 187.131 34.6378 187.165 34.6637 187.202C34.6709 187.234 34.6709 187.268 34.6637 187.301L37.0894 191.242L39.1426 190.273C39.1746 190.239 39.2107 190.208 39.2502 190.182C39.3311 190.135 39.4217 190.107 39.5151 190.099L47.794 186.217L26.418 173.856Z" fill="#3A5985"/>
<path d="M39.333 191.623L37.1143 192.666C37.0288 192.706 36.9354 192.725 36.8411 192.724C36.7268 192.725 36.6142 192.697 36.5141 192.642C36.414 192.586 36.3298 192.506 36.2699 192.409L33.8441 188.468L25.8799 193.071L47.3139 205.44L39.333 191.623Z" fill="#3A5985"/>
<g opacity="0.9">
<path d="M33.1572 187.342L25.2178 174.444V191.921L33.1572 187.342Z" fill="white"/>
<path d="M40.5332 191.06L48.4561 204.778V187.326L40.5332 191.06Z" fill="white"/>
<path d="M26.418 173.856L34.5727 187.102C34.6072 187.131 34.6378 187.165 34.6637 187.202C34.6709 187.234 34.6709 187.268 34.6637 187.301L37.0894 191.242L39.1426 190.273C39.1746 190.239 39.2107 190.208 39.2502 190.182C39.3311 190.135 39.4217 190.107 39.5151 190.099L47.794 186.217L26.418 173.856Z" fill="white"/>
<path d="M39.333 191.623L37.1143 192.666C37.0288 192.706 36.9354 192.725 36.8411 192.724C36.7268 192.725 36.6142 192.697 36.5141 192.642C36.414 192.586 36.3298 192.506 36.2699 192.409L33.8441 188.468L25.8799 193.071L47.3139 205.44L39.333 191.623Z" fill="white"/>
</g>
<path d="M60.5602 40.5664L27.6352 21.5251C27.2568 21.261 26.8179 21.0967 26.3591 21.0475C25.9003 20.9983 25.4365 21.0657 25.0108 21.2436C24.9208 21.2851 24.8348 21.335 24.7541 21.3926L17.5929 25.59H17.6426C16.7402 26.095 16.1689 27.2954 16.1689 28.9926V65.6017C16.1689 68.698 18.0482 72.2993 20.3746 73.6405L53.2997 92.6819C53.7166 92.9861 54.2141 93.1602 54.7297 93.1823C55.2453 93.2044 55.7559 93.0735 56.1973 92.8061L56.1393 92.8475L63.2509 88.708C64.1781 88.2196 64.7659 87.0523 64.7659 85.2723V48.5721C64.7659 45.4758 62.9197 41.8745 60.5602 40.5664Z" fill="#3A5985"/>
<path d="M63.5902 44.0105C62.9265 42.59 61.8764 41.385 60.5601 40.5333L27.635 21.5251C27.2567 21.261 26.8177 21.0967 26.359 21.0475C25.9002 20.9983 25.4364 21.0657 25.0106 21.2436C24.9206 21.2851 24.8347 21.335 24.754 21.3926L17.5928 25.59C18.0298 25.364 18.5208 25.2629 19.0116 25.298C19.5024 25.333 19.974 25.5028 20.3745 25.7887L53.2995 44.8301C54.6606 45.7197 55.7381 46.9811 56.4041 48.4645L63.5902 44.0105Z" fill="#3A5985"/>
<path d="M57.5057 89.4118C57.5057 91.0675 56.9758 92.2183 56.1396 92.7233L63.2512 88.5839C64.1784 88.0954 64.7662 86.9281 64.7662 85.1481V48.5721C64.7311 46.9813 64.3288 45.4201 63.5906 44.0105L56.4046 48.4314C57.0944 49.7994 57.4705 51.304 57.5057 52.8357V89.4118Z" fill="#3A5985"/>
<path opacity="0.3" d="M63.5902 44.0105C62.9265 42.59 61.8764 41.385 60.5601 40.5333L27.635 21.5251C27.2567 21.261 26.8177 21.0967 26.359 21.0475C25.9002 20.9983 25.4364 21.0657 25.0106 21.2436C24.9206 21.2851 24.8347 21.335 24.754 21.3926L17.5928 25.59C18.0298 25.364 18.5208 25.2629 19.0116 25.298C19.5024 25.333 19.974 25.5028 20.3745 25.7887L53.2995 44.8301C54.6606 45.7197 55.7381 46.9811 56.4041 48.4645L63.5902 44.0105Z" fill="black"/>
<path opacity="0.6" d="M57.5057 89.4118C57.5057 91.0675 56.9758 92.2183 56.1396 92.7233L63.2512 88.5839C64.1784 88.0954 64.7662 86.9281 64.7662 85.1481V48.5721C64.7311 46.9813 64.3288 45.4201 63.5906 44.0105L56.4046 48.4314C57.0944 49.7994 57.4705 51.304 57.5057 52.8357V89.4118Z" fill="black"/>
<path d="M46.7348 73.6819C45.4681 71.5956 44.1931 69.5425 42.9265 67.4396C42.7256 67.0413 42.4447 66.6887 42.1014 66.4039C41.7581 66.119 41.3598 65.9079 40.9313 65.7839C40.3186 65.6597 39.706 65.5189 39.0768 65.3368C38.8527 65.2434 38.6642 65.081 38.5387 64.8732C36.466 61.3258 34.8182 57.5467 33.6293 53.6139C33.604 53.5299 33.5968 53.4414 33.6083 53.3543C33.6197 53.2673 33.6494 53.1836 33.6955 53.1089C34.0847 52.7198 34.5234 52.3638 34.9208 52.0161C35.3182 51.6684 35.5252 50.8654 35.2354 49.8222C34.6228 47.6118 34.035 45.4013 33.4223 43.1991C33.3038 42.5734 33.0226 41.9899 32.6069 41.5074C32.1913 41.0249 31.6559 40.6604 31.0546 40.4505C29.7195 40.0794 28.3022 40.1314 26.9979 40.5996C26.4929 40.79 26.228 41.2453 26.2197 42.0318C26.435 43.5468 26.5757 45.0453 26.8655 46.5852C28.9076 57.6899 33.8197 67.9005 41.6019 77.217C41.805 77.5259 42.078 77.7828 42.3987 77.9669C42.7194 78.1509 43.0788 78.2571 43.4481 78.2767C44.7364 78.2461 45.9742 77.7691 46.95 76.9272C47.6868 76.2649 47.6123 75.0893 46.7348 73.6819Z" fill="#3A5985"/>
<path d="M46.6349 62.3978C46.4617 60.0165 45.8054 57.6954 44.7059 55.576C43.885 53.9204 42.8404 52.3854 41.6013 51.0144C41.2785 50.6501 41.0053 50.5342 40.8397 50.8074C40.6741 51.0806 40.8397 51.4697 41.1543 51.8257L41.4772 52.1983C43.7654 54.8397 45.2076 58.1075 45.6166 61.5782C45.6126 61.8314 45.6376 62.0841 45.6911 62.3316C45.7951 62.6163 45.9621 62.8738 46.1796 63.085C46.3534 63.2091 46.5521 63.085 46.6929 63.085C46.6432 62.7455 46.6515 62.5717 46.6349 62.3978Z" fill="#3A5985"/>
<path d="M39.1346 55.6009C40.1743 56.7444 40.806 58.1999 40.9312 59.7403C40.9857 59.9745 41.072 60.2001 41.1878 60.4109C41.6928 60.8248 41.9412 60.6841 41.9412 60.1625C41.7642 58.1875 40.9473 56.3242 39.6148 54.8558C39.3002 54.5329 39.0436 54.4336 38.8946 54.7068C38.8409 54.8627 38.8352 55.0312 38.8779 55.1905C38.9207 55.3498 39.0101 55.4927 39.1346 55.6009Z" fill="#3A5985"/>
<g opacity="0.9">
<path d="M46.7348 73.6819C45.4681 71.5956 44.1931 69.5425 42.9265 67.4396C42.7256 67.0413 42.4447 66.6887 42.1014 66.4039C41.7581 66.119 41.3598 65.9079 40.9313 65.7839C40.3186 65.6597 39.706 65.5189 39.0768 65.3368C38.8527 65.2434 38.6642 65.081 38.5387 64.8732C36.466 61.3258 34.8182 57.5467 33.6293 53.6139C33.604 53.5299 33.5968 53.4414 33.6083 53.3543C33.6197 53.2673 33.6494 53.1836 33.6955 53.1089C34.0847 52.7198 34.5234 52.3638 34.9208 52.0161C35.3182 51.6684 35.5252 50.8654 35.2354 49.8222C34.6228 47.6118 34.035 45.4013 33.4223 43.1991C33.3038 42.5734 33.0226 41.9899 32.6069 41.5074C32.1913 41.0249 31.6559 40.6604 31.0546 40.4505C29.7195 40.0794 28.3022 40.1314 26.9979 40.5996C26.4929 40.79 26.228 41.2453 26.2197 42.0318C26.435 43.5468 26.5757 45.0453 26.8655 46.5852C28.9076 57.6899 33.8197 67.9005 41.6019 77.217C41.805 77.5259 42.078 77.7828 42.3987 77.9669C42.7194 78.1509 43.0788 78.2571 43.4481 78.2767C44.7364 78.2461 45.9742 77.7691 46.95 76.9272C47.6868 76.2649 47.6123 75.0893 46.7348 73.6819Z" fill="white"/>
<path d="M46.6359 62.3978C46.4627 60.0165 45.8064 57.6954 44.7069 55.576C43.886 53.9204 42.8414 52.3854 41.6023 51.0144C41.2794 50.6501 41.0062 50.5342 40.8407 50.8074C40.6751 51.0806 40.8407 51.4697 41.1553 51.8257L41.4781 52.1982C43.7664 54.8397 45.2085 58.1075 45.6176 61.5782C45.6135 61.8313 45.6385 62.0841 45.6921 62.3316C45.7961 62.6163 45.963 62.8738 46.1805 63.085C46.3544 63.2091 46.5531 63.085 46.6938 63.085C46.6442 62.7455 46.6524 62.5717 46.6359 62.3978Z" fill="white"/>
<path d="M39.1346 55.6009C40.1743 56.7444 40.806 58.1999 40.9312 59.7403C40.9857 59.9745 41.072 60.2001 41.1878 60.4109C41.6928 60.8248 41.9412 60.6841 41.9412 60.1625C41.7642 58.1875 40.9473 56.3242 39.6148 54.8558C39.3002 54.5329 39.0436 54.4335 38.8946 54.7068C38.8409 54.8627 38.8352 55.0312 38.8779 55.1905C38.9207 55.3498 39.0101 55.4927 39.1346 55.6009Z" fill="white"/>
</g>
<path d="M229.491 18.6109L237.248 23.0235V20.2749C237.248 20.0845 237.248 19.8858 237.248 19.6954C237.248 19.505 237.248 19.3229 237.248 19.1407V19.0414C237.529 15.407 240.286 14.0078 243.647 15.9534C245.169 16.8893 246.473 18.1398 247.472 19.6209C248.226 14.6536 252.257 12.8985 257.134 15.705C262.548 18.8344 266.936 26.4675 266.936 32.6932V38.5712C266.928 39.0414 267.044 39.5054 267.272 39.9166C267.5 40.3278 267.833 40.6718 268.236 40.9142L272.806 43.5882C273.792 44.173 274.609 45.0038 275.178 45.9993C275.747 46.9948 276.048 48.121 276.051 49.2675C276.051 49.7432 275.926 50.2106 275.688 50.6225C275.45 51.0344 275.108 51.3763 274.696 51.6138C274.283 51.8514 273.816 51.9761 273.34 51.9755C272.865 51.975 272.397 51.849 271.986 51.6105L229.606 27.1133C228.482 26.4604 227.548 25.5246 226.898 24.3991C226.247 23.2735 225.902 21.9973 225.897 20.6972C225.897 20.2763 226.007 19.8628 226.217 19.498C226.427 19.1332 226.729 18.8299 227.093 18.6186C227.457 18.4073 227.87 18.2954 228.291 18.294C228.711 18.2927 229.125 18.4019 229.491 18.6109Z" fill="#E6E6E6"/>
<path d="M288.626 17.4601L294.264 20.6972V18.6771C294.264 18.5364 294.264 18.3956 294.264 18.2549C294.264 18.1142 294.264 17.9817 294.264 17.8492V17.7996C294.471 15.1586 296.475 14.1403 298.917 15.556C300.023 16.2336 300.971 17.1397 301.699 18.2135C302.253 14.6205 305.184 13.3207 308.727 15.3656C312.668 17.6423 315.856 23.1726 315.856 27.7176V31.9978C315.859 32.3333 315.949 32.6624 316.117 32.9526C316.285 33.2429 316.526 33.4844 316.816 33.6536L320.127 35.5991C320.848 36.0229 321.445 36.628 321.859 37.3543C322.273 38.0806 322.49 38.9026 322.487 39.7386C322.486 40.081 322.397 40.4173 322.227 40.7144C322.056 41.0116 321.812 41.2593 321.517 41.4331C321.222 41.6069 320.887 41.7008 320.544 41.7057C320.202 41.7105 319.864 41.626 319.565 41.4606L288.709 23.6444C287.892 23.1714 287.213 22.4919 286.74 21.6738C286.268 20.8558 286.019 19.928 286.019 18.9834C286.018 18.6777 286.098 18.3772 286.25 18.1119C286.401 17.8466 286.62 17.6259 286.884 17.4717C287.148 17.3175 287.448 17.2353 287.754 17.2332C288.06 17.2312 288.36 17.3094 288.626 17.4601Z" fill="#E6E6E6"/>
</g>
<defs>
<clipPath id="clip0_227_6576">
<rect width="327.843" height="380" fill="white"/>
</clipPath>
</defs>
</svg>
