<svg width="312" height="300" viewBox="0 0 312 300" fill="none" xmlns="http://www.w3.org/2000/svg">
<g clip-path="url(#clip0_231_195)">
<path d="M176.075 297.925C163.906 292.165 159.057 278.471 157.341 265.715C157.052 263.598 156.445 261.395 157.137 259.362C157.828 257.329 159.96 255.671 162.007 256.242C163.708 256.715 164.704 258.424 165.84 259.772C167.352 261.591 169.349 262.942 171.6 263.668C173.068 264.141 174.812 264.289 176.019 263.329C177.671 262.009 177.431 259.454 177.092 257.351C176.4 253.449 175.722 249.548 175.059 245.647C174.581 243.565 174.44 241.42 174.642 239.294C174.953 237.176 176.09 235.059 177.995 234.184C179.901 233.308 182.577 234.021 183.346 236.012C183.573 236.868 183.743 237.738 183.854 238.616C184.059 239.485 184.631 240.381 185.499 240.487C186.367 240.593 187.122 239.852 187.652 239.125C189.459 236.633 190.475 233.647 191.393 230.689C192.311 227.732 193.172 224.718 194.753 222.064C196.334 219.409 198.748 217.122 201.734 216.416C204.72 215.711 208.25 217.052 209.499 219.882C210.748 222.713 209.541 226.024 208.087 228.748C205.879 232.783 203.1 236.477 199.835 239.718C199.184 240.236 198.715 240.948 198.494 241.751C198.275 243.233 199.842 244.405 201.318 244.631C202.97 244.885 204.65 244.433 206.322 244.348C207.995 244.264 209.894 244.687 210.784 246.134C212.005 248.139 210.586 250.701 209.068 252.487C206.02 256.045 202.384 259.053 198.318 261.381C196.864 262.207 195.318 262.984 194.252 264.282C193.186 265.581 192.755 267.6 193.758 268.955C194.76 270.311 196.786 270.459 198.353 269.88C199.92 269.301 201.226 268.179 202.673 267.339C205.384 265.758 209.153 265.32 211.433 267.508C212.144 268.273 212.668 269.193 212.963 270.195C213.258 271.197 213.317 272.254 213.134 273.282C212.759 275.331 211.974 277.283 210.826 279.021C207.17 285.305 201.914 290.508 195.593 294.099C189.275 297.558 183.162 299.245 176.082 297.932" fill="#F5F5F5"/>
<path d="M178.002 289.412C178.939 282.147 180.291 274.942 182.054 267.833L183.409 262.235C183.854 260.393 184.299 258.572 184.821 256.821C185.877 253.461 187.116 250.162 188.534 246.939C189.868 243.847 191.245 240.953 192.551 238.264C193.857 235.574 195.134 233.089 196.391 230.88C198.352 227.376 200.59 224.033 203.082 220.885C203.965 219.769 204.678 218.929 205.165 218.365C205.398 218.096 205.588 217.885 205.722 217.722C205.857 217.56 205.92 217.511 205.927 217.518C205.876 217.599 205.819 217.677 205.758 217.751L205.221 218.414C204.755 218.993 204.064 219.826 203.202 220.976C200.764 224.156 198.567 227.514 196.631 231.021C195.395 233.238 194.139 235.722 192.84 238.412C191.541 241.101 190.186 243.995 188.866 247.087C187.46 250.311 186.235 253.61 185.195 256.969C184.652 258.713 184.214 260.499 183.784 262.362L182.428 267.967C180.669 275.062 179.31 282.249 178.355 289.496" fill="#E0E0E0"/>
<path d="M184.942 256.793C184.789 256.518 184.668 256.227 184.582 255.925C184.37 255.367 184.095 254.513 183.77 253.518C183.12 251.471 182.316 248.612 181.44 245.463C180.565 242.315 179.725 239.471 179.04 237.445C178.702 236.428 178.419 235.602 178.222 235.045C178.103 234.755 178.011 234.455 177.946 234.148C178.117 234.411 178.256 234.693 178.363 234.988C178.61 235.532 178.927 236.343 179.302 237.346C180.057 239.365 180.939 242.195 181.822 245.358C182.704 248.52 183.445 251.287 184.038 253.433C184.313 254.407 184.539 255.226 184.744 255.882C184.836 256.179 184.902 256.484 184.942 256.793Z" fill="#E0E0E0"/>
<path d="M211.165 247.151C210.824 247.293 210.469 247.399 210.106 247.468C209.4 247.645 208.433 247.899 207.219 248.252C204.784 248.958 201.459 250.002 197.838 251.344C194.217 252.685 190.991 254.047 188.661 255.092C187.504 255.607 186.579 256.052 185.937 256.355C185.614 256.531 185.276 256.678 184.927 256.793C185.219 256.568 185.534 256.374 185.866 256.214C186.487 255.868 187.398 255.388 188.541 254.802C190.821 253.687 194.04 252.282 197.668 250.934C200.765 249.776 203.92 248.779 207.12 247.948C208.348 247.624 209.351 247.412 210.05 247.278C210.417 247.201 210.79 247.158 211.165 247.151Z" fill="#E0E0E0"/>
<path d="M178.25 288.868C178.159 288.776 178.079 288.674 178.01 288.565L177.381 287.668C176.838 286.878 176.083 285.727 175.172 284.287C173.337 281.407 170.937 277.348 168.346 272.831C165.756 268.313 163.405 264.24 161.619 261.332L159.501 257.88L158.937 256.941C158.862 256.837 158.803 256.723 158.76 256.602C158.76 256.602 158.852 256.694 159 256.899C159.148 257.103 159.381 257.435 159.628 257.802C160.172 258.586 160.927 259.736 161.845 261.183C163.673 264.063 166.08 268.115 168.671 272.633C171.261 277.151 173.612 281.223 175.391 284.139L177.508 287.583C177.734 287.958 177.925 288.289 178.073 288.522C178.149 288.628 178.208 288.745 178.25 288.868Z" fill="#E0E0E0"/>
<path d="M212.259 271.186C212.16 271.273 212.048 271.344 211.927 271.398L210.946 271.92L207.304 273.819C204.226 275.428 200.005 277.694 195.346 280.172C190.687 282.649 186.445 284.915 183.346 286.454C181.793 287.223 180.522 287.866 179.647 288.24L178.588 288.706C178.472 288.767 178.349 288.815 178.221 288.847C178.322 288.762 178.434 288.691 178.553 288.635L179.541 288.113L183.184 286.207C186.254 284.605 190.475 282.339 195.134 279.854C199.793 277.369 204.042 275.118 207.134 273.579C208.687 272.809 209.958 272.167 210.833 271.793L211.849 271.327C211.978 271.259 212.116 271.212 212.259 271.186Z" fill="#E0E0E0"/>
<path d="M87.8118 146.407C87.8118 146.407 79.426 147.572 84.1342 165.939C88.8424 184.306 92.8377 193.779 92.8377 193.779C92.8377 193.779 93.466 197.936 90.113 197.809C86.7601 197.682 79.9201 194.986 77.5977 198.579C75.1977 202.334 77.3012 206.852 82.5389 211.588C87.7765 216.325 98.9436 227.118 99.9459 228.099C100.948 229.08 101.682 231.099 99.3812 231.374C97.0801 231.649 80.7601 229.736 80.3224 237.536C79.8848 245.336 96.706 256.122 98.5201 257.336C100.334 258.551 100.638 259.496 100.214 260.555C99.7907 261.614 94.3836 260.449 89.7177 260.089C85.0518 259.729 79.5742 260.146 79.6942 264.664C79.8142 269.181 88.6518 280.616 114.417 289.115L126.621 292.271L135.635 283.391C153.777 263.209 155.76 248.901 153.621 244.92C151.482 240.939 146.562 243.304 142.652 245.929C138.741 248.555 134.647 252.282 133.772 251.576C132.897 250.871 132.671 249.896 133.645 247.941C134.619 245.986 143.859 228.268 139.595 221.718C135.332 215.167 122.118 224.922 120 225.819C117.882 226.715 117.501 224.584 117.882 223.256C118.264 221.929 122.569 207.021 124.786 200.28C127.002 193.539 126.579 188.584 122.626 186.522C118.814 184.539 114.233 190.299 111.381 192.078C108.529 193.856 107.019 189.96 107.019 189.96C107.019 189.96 105.777 179.76 100.737 161.478C95.6965 143.195 87.6565 146.471 87.6565 146.471" fill="#EBEBEB"/>
<path d="M126.614 295.306C122.965 281.894 116.873 257.894 111.544 237.289C106.214 216.685 101.372 198.106 97.7861 184.652C95.9932 177.932 94.539 172.496 93.5508 168.72C93.0567 166.849 92.6685 165.388 92.4002 164.386L92.1037 163.256C92.0402 163.002 92.019 162.868 92.019 162.868C92.019 162.868 92.0684 162.988 92.1461 163.242C92.2237 163.496 92.3296 163.885 92.4708 164.365C92.7602 165.367 93.1767 166.814 93.699 168.678C94.7579 172.426 96.2543 177.854 98.0755 184.574C101.725 197.986 106.617 216.628 111.946 237.19C117.276 257.753 123.318 281.774 126.904 295.228" fill="#E0E0E0"/>
<path d="M87.0142 202.772C87.2961 202.888 87.5657 203.032 87.8189 203.202C88.32 203.499 89.04 203.951 89.9365 204.515C91.6942 205.652 94.0871 207.282 96.6918 209.125L103.341 213.868L105.367 215.28C105.623 215.439 105.859 215.626 106.073 215.838C105.788 215.723 105.516 215.578 105.261 215.407C104.76 215.111 104.04 214.659 103.144 214.087C101.4 212.936 99.0283 211.263 96.4236 209.428L89.7389 204.734L87.7059 203.322C87.4564 203.164 87.2245 202.979 87.0142 202.772Z" fill="#E0E0E0"/>
<path d="M107.097 215.252C107.005 215.195 110.146 210.12 114.106 203.915C118.066 197.711 121.363 192.727 121.454 192.783C121.546 192.84 118.405 197.922 114.438 204.127C110.471 210.332 107.188 215.294 107.097 215.252Z" fill="#E0E0E0"/>
<path d="M113.859 247.214C114.054 246.97 114.28 246.752 114.529 246.565L116.428 244.899C118.031 243.487 120.24 241.539 122.598 239.294C124.955 237.049 127.031 234.953 128.513 233.421C129.219 232.715 129.798 232.087 130.271 231.607C130.484 231.37 130.721 231.155 130.977 230.965C130.82 231.235 130.63 231.484 130.412 231.706C130.031 232.165 129.459 232.814 128.739 233.605C127.327 235.193 125.266 237.332 122.894 239.576C120.522 241.821 118.292 243.755 116.64 245.111C115.807 245.816 115.129 246.325 114.649 246.685C114.406 246.89 114.141 247.067 113.859 247.214Z" fill="#E0E0E0"/>
<path d="M93.2119 239.922C93.4969 239.956 93.7766 240.025 94.0449 240.127L96.2825 240.833C98.1601 241.433 100.751 242.287 103.603 243.247C106.454 244.207 109.031 245.111 110.887 245.781L113.082 246.586C113.356 246.671 113.619 246.787 113.866 246.932C113.581 246.903 113.301 246.836 113.033 246.734L110.795 246.028C108.918 245.428 106.327 244.574 103.475 243.607C100.624 242.64 98.0472 241.744 96.1907 241.08L93.9954 240.268C93.7199 240.189 93.4564 240.072 93.2119 239.922Z" fill="#E0E0E0"/>
<path d="M95.5977 268.899C95.9609 268.953 96.3179 269.043 96.6635 269.167L99.5294 270.042C101.944 270.798 105.268 271.864 108.939 273.071C112.609 274.278 115.92 275.379 118.313 276.205L121.136 277.193C121.488 277.305 121.83 277.445 122.16 277.609C121.794 277.556 121.435 277.466 121.087 277.341L118.221 276.466C115.807 275.711 112.482 274.645 108.812 273.438C105.141 272.231 101.831 271.122 99.4447 270.304L96.6212 269.308C96.2684 269.203 95.9258 269.066 95.5977 268.899Z" fill="#E0E0E0"/>
<path d="M121.582 277.221C121.83 276.916 122.107 276.635 122.407 276.381L124.744 274.186C126.713 272.329 129.424 269.753 132.339 266.824C135.254 263.894 137.831 261.177 139.68 259.2L141.869 256.856C142.126 256.557 142.407 256.279 142.709 256.024C142.503 256.356 142.267 256.667 142.003 256.955C141.523 257.541 140.803 258.367 139.885 259.384C138.085 261.416 135.544 264.169 132.614 267.099C129.685 270.028 126.967 272.584 124.934 274.391C123.918 275.287 123.092 276.014 122.506 276.508C122.218 276.771 121.909 277.01 121.582 277.221Z" fill="#E0E0E0"/>
<path d="M51.3882 36.8753L44.4988 34.7576C44.4988 34.7576 42.6918 40.5459 36.6494 38.7741C35.4796 38.452 34.4389 37.7742 33.6713 36.8346C32.9036 35.8949 32.447 34.7399 32.3647 33.5294C32.2743 32.5086 32.4288 31.4809 32.8156 30.5318C33.2023 29.5828 33.8101 28.7398 34.5882 28.0729C36.36 26.5059 39.4659 25.5529 43.8494 27.8188L48.6988 12.2894L41.8871 10.1718L39.0635 19.2706C39.0635 19.2706 28.7294 18.7553 25.4471 29.28C22.3059 39.3529 30.6071 44.5129 34.4753 45.72C37.4118 46.6376 47.7247 49.0659 51.3882 36.8753Z" fill="#F5F5F5"/>
<path d="M42.81 6.93949L49.7236 9.0968L51.738 2.64143L44.8244 0.484113L42.81 6.93949Z" fill="#F5F5F5"/>
<path d="M70.3977 19.3411L73.1577 18.6352C73.0734 18.3218 73.053 17.9946 73.0977 17.6731C73.1425 17.3517 73.2514 17.0425 73.418 16.7639C73.5846 16.4854 73.8055 16.2432 74.0675 16.0517C74.3296 15.8602 74.6275 15.7234 74.9435 15.6494C75.4034 15.5105 75.895 15.5182 76.3503 15.6712C76.8056 15.8242 77.2021 16.1151 77.4847 16.5035C77.7247 16.826 77.8849 17.2006 77.9524 17.5969C78.0199 17.9932 77.9927 18.3998 77.873 18.7835C77.6118 19.68 76.7718 20.6541 74.8235 20.8164L76.4682 27.0353L79.193 26.3294L78.233 22.687C79.2662 22.0638 80.0658 21.118 80.5085 19.9955C80.9511 18.8729 81.0122 17.636 80.6824 16.4752C79.6235 12.4376 75.7412 12.4588 74.2094 12.8611C73.0235 13.1364 69.0635 14.4847 70.3977 19.3411Z" fill="#EBEBEB"/>
<path d="M80.1544 27.2363L77.3745 27.9814L78.0701 30.5765L80.85 29.8314L80.1544 27.2363Z" fill="#EBEBEB"/>
<path d="M298.264 90.7835L300.946 91.7506C301.059 91.4468 301.231 91.1687 301.452 90.9325C301.674 90.6963 301.941 90.5069 302.237 90.3753C302.533 90.2438 302.852 90.1728 303.176 90.1665C303.5 90.1602 303.822 90.2188 304.122 90.3388C304.574 90.4842 304.97 90.7657 305.256 91.1448C305.541 91.5239 305.703 91.982 305.718 92.4565C305.734 92.8613 305.655 93.2643 305.485 93.6325C305.316 94.0006 305.062 94.3233 304.744 94.5741C304.038 95.16 302.774 95.4776 301.08 94.5035L298.885 100.553L301.539 101.513L302.824 97.9835C304.028 98.0581 305.224 97.7353 306.228 97.0646C307.231 96.3938 307.987 95.4123 308.379 94.2706C309.791 90.3459 306.607 88.1647 305.104 87.6212C303.953 87.1694 299.93 86.0329 298.264 90.7835Z" fill="#EBEBEB"/>
<path d="M301.142 102.739L298.447 101.763L297.536 104.279L300.231 105.255L301.142 102.739Z" fill="#EBEBEB"/>
<path d="M13.5955 121.503L19.2425 119.315C19.2425 119.315 17.4073 114.551 22.3273 112.553C23.2689 112.154 24.3109 112.058 25.3097 112.277C26.3085 112.495 27.2148 113.019 27.9037 113.774C28.4899 114.402 28.9194 115.16 29.1573 115.985C29.3953 116.811 29.435 117.681 29.2731 118.525C28.9202 120.487 27.3673 122.76 23.2802 123.543L28.2214 136.341L33.8684 134.181L30.9743 126.685C30.9743 126.685 38.0331 121.616 34.7225 112.934C31.5108 104.633 23.2943 105.579 20.139 106.8C17.7037 107.739 9.62843 111.529 13.5955 121.503Z" fill="#F5F5F5"/>
<path d="M34.9384 136.786L29.2407 138.981L31.2912 144.303L36.9888 142.108L34.9384 136.786Z" fill="#F5F5F5"/>
<path d="M300.473 143.04L296.45 144.586C296.45 144.586 297.748 147.967 294.261 149.379C293.594 149.658 292.856 149.725 292.149 149.571C291.442 149.417 290.799 149.049 290.308 148.518C289.893 148.072 289.589 147.535 289.421 146.95C289.253 146.365 289.226 145.748 289.341 145.151C289.595 143.739 290.697 142.158 293.577 141.621L290.118 132.522L286.137 134.054L288.184 139.369C286.735 140.478 285.69 142.032 285.211 143.792C284.731 145.552 284.843 147.42 285.529 149.111C287.795 154.991 293.598 154.327 295.857 153.459C297.565 152.788 303.282 150.106 300.473 143.04Z" fill="#F5F5F5"/>
<path d="M285.349 132.21L289.387 130.655L287.935 126.887L283.897 128.443L285.349 132.21Z" fill="#F5F5F5"/>
<path d="M311.837 299.132C311.837 299.238 242.061 299.315 156.007 299.315C69.9527 299.315 0.162109 299.238 0.162109 299.132C0.162109 299.026 69.9245 298.948 156.007 298.948C242.089 298.948 311.837 299.033 311.837 299.132Z" fill="#263238"/>
<path d="M44.9226 280.8C45.6284 278.202 43.8849 275.598 41.979 273.741C40.0731 271.885 37.7931 270.177 36.7978 267.685C35.1884 263.647 37.3484 258.424 34.6096 255.057C32.9931 253.08 30.099 252.417 28.6661 250.299C28.0035 249.132 27.5654 247.851 27.3743 246.522C25.8512 239.816 22.5525 233.643 17.8237 228.65C17.505 234.623 18.7997 240.572 21.572 245.873C22.6802 247.991 24.0496 250.052 24.3955 252.417C24.9955 256.25 22.8496 260.181 23.7955 263.965C24.8755 268.271 29.7108 271.158 29.9367 275.591C30.1343 279.339 26.8661 282.65 27.1131 286.377C27.3111 287.973 27.8897 289.498 28.8002 290.824C31.6943 295.645 35.9578 298.962 42.4096 298.857L50.3155 299.132L44.9226 280.8Z" fill="#3A5985"/>
<g opacity="0.3">
<path d="M44.9226 280.8C45.6284 278.202 43.8849 275.598 41.979 273.741C40.0731 271.885 37.7931 270.177 36.7978 267.685C35.1884 263.647 37.3484 258.424 34.6096 255.057C32.9931 253.08 30.099 252.417 28.6661 250.299C28.0035 249.132 27.5654 247.851 27.3743 246.522C25.8512 239.816 22.5525 233.643 17.8237 228.65C17.505 234.623 18.7997 240.572 21.572 245.873C22.6802 247.991 24.0496 250.052 24.3955 252.417C24.9955 256.25 22.8496 260.181 23.7955 263.965C24.8755 268.271 29.7108 271.158 29.9367 275.591C30.1343 279.339 26.8661 282.65 27.1131 286.377C27.3111 287.973 27.8897 289.498 28.8002 290.824C31.6943 295.645 35.9578 298.962 42.4096 298.857L50.3155 299.132L44.9226 280.8Z" fill="black"/>
</g>
<path d="M51.9109 299.294C52.6349 299.406 53.3729 299.392 54.0921 299.252C54.9652 299.119 55.8234 298.902 56.6544 298.602C57.802 298.203 58.8755 297.617 59.8309 296.866C60.4057 296.404 60.8548 295.804 61.1368 295.122C61.3729 294.359 61.4965 293.564 61.5038 292.765C61.5197 291.91 61.5834 291.057 61.6944 290.209C61.8431 289.307 62.1694 288.443 62.6544 287.668C63.5862 286.031 65.1391 284.478 65.6332 282.254C66.1274 280.031 65.7885 277.701 65.4215 275.329C65.0544 272.958 64.7156 270.388 65.605 267.904C66.4944 265.419 68.1885 263.195 69.0568 260.414C69.925 257.633 69.5156 254.569 69.6991 251.584C69.7533 250.067 70.1034 248.575 70.7297 247.193C71.365 245.781 72.2544 244.475 72.9462 243.007C74.3579 240.028 74.5979 236.654 74.9791 233.344C75.1697 231.678 75.3532 229.991 75.5438 228.297C75.664 226.584 75.9596 224.888 76.4262 223.235C76.9617 221.57 77.5934 219.936 78.3179 218.344C78.6911 217.52 78.9979 216.668 79.2356 215.795C79.3686 214.892 79.4534 213.983 79.4897 213.071C79.5739 211.244 79.503 209.414 79.2779 207.6C79.0662 205.779 78.7344 203.972 78.5368 202.144C78.5368 202.031 78.5368 201.925 78.5368 201.826L78.4944 201.466L78.1768 201.621C76.5078 202.478 75.0585 203.707 73.9415 205.214C72.8459 206.69 71.9642 208.313 71.3226 210.035C70.0026 213.431 69.5297 216.988 68.8662 220.384C68.2026 223.779 67.3556 227.118 65.6191 229.941C64.7509 231.353 63.6991 232.638 62.7956 234.007C61.8145 235.344 61.1441 236.882 60.8332 238.511C60.3603 241.857 62.2026 244.793 61.8215 247.758C61.6495 249.21 61.1681 250.608 60.4097 251.859C59.7038 253.122 58.8497 254.294 58.045 255.466C57.2294 256.615 56.5206 257.837 55.9274 259.115C55.369 260.367 55.0391 261.708 54.9532 263.075C54.7626 265.744 55.1368 268.271 54.9532 270.657C54.7328 272.931 54.0685 275.139 52.9979 277.158C52.045 279.099 50.9791 280.857 50.0897 282.565C49.645 283.412 49.2285 284.245 48.8897 285.085C48.5691 285.891 48.3325 286.729 48.1838 287.584C47.9476 289.077 47.9285 290.596 48.1274 292.094C48.3347 294.184 49.1166 296.175 50.3862 297.847C50.5803 298.1 50.7951 298.336 51.0285 298.553C51.1844 298.717 51.3571 298.863 51.5438 298.991C51.8403 299.209 51.9956 299.308 51.9956 299.308C51.4313 298.862 50.9176 298.356 50.4638 297.798C49.2519 296.119 48.5198 294.143 48.3462 292.08C48.1664 290.601 48.1997 289.103 48.445 287.633C48.5936 286.799 48.8302 285.982 49.1509 285.198C49.5086 284.348 49.9115 283.519 50.3579 282.713C51.2544 281.019 52.3274 279.268 53.3015 277.313C54.404 275.263 55.0901 273.015 55.3203 270.699C55.5321 268.264 55.165 265.722 55.3626 263.125C55.4536 261.801 55.7761 260.504 56.3156 259.292C56.9125 258.04 57.6212 256.844 58.4332 255.72C59.2379 254.548 60.0921 253.377 60.8262 252.085C61.6319 250.787 62.1472 249.33 62.3368 247.814C62.7179 244.659 60.8897 241.708 61.3626 238.595C61.6721 237.038 62.3203 235.568 63.2615 234.289C64.1579 232.941 65.2168 231.657 66.085 230.209C67.885 227.308 68.7532 223.906 69.4097 220.497C70.0662 217.087 70.5532 213.558 71.8521 210.226C72.4767 208.551 73.3346 206.974 74.4003 205.539C75.4749 204.093 76.8687 202.914 78.4732 202.094L78.1132 201.889C78.1132 201.995 78.1132 202.101 78.1485 202.214C78.3462 204.064 78.6779 205.871 78.8544 207.678C79.0773 209.464 79.1458 211.266 79.0591 213.064C79.0234 213.947 78.9433 214.828 78.8191 215.704C78.591 216.548 78.2935 217.372 77.9297 218.167C77.2013 219.777 76.565 221.426 76.0238 223.108C75.5533 224.787 75.2553 226.508 75.1344 228.247C74.9509 229.948 74.7603 231.635 74.5768 233.301C74.1956 236.626 73.9485 239.944 72.6003 242.817C71.8944 244.228 71.0474 245.577 70.3909 247.017C69.7448 248.451 69.3851 249.997 69.3321 251.569C69.1556 254.619 69.5509 257.605 68.725 260.301C67.8991 262.998 66.1838 265.242 65.3156 267.791C64.4474 270.339 64.765 273.035 65.1462 275.4C65.5274 277.765 65.9085 280.094 65.4003 282.191C64.8921 284.287 63.4379 285.854 62.4921 287.534C61.9934 288.343 61.6599 289.243 61.5109 290.181C61.4042 291.038 61.3477 291.901 61.3415 292.765C61.3426 293.544 61.2284 294.32 61.0026 295.066C60.7412 295.713 60.3212 296.283 59.7815 296.725C58.8516 297.474 57.8047 298.066 56.6827 298.475C55.8626 298.791 55.0139 299.028 54.1485 299.181C53.6196 299.277 53.0837 299.329 52.5462 299.337C52.1015 299.294 51.9109 299.294 51.9109 299.294Z" fill="#263238"/>
<path d="M76.8851 206.188C76.8474 206.264 76.8212 206.345 76.8075 206.428L76.6381 207.134C76.4828 207.762 76.2922 208.701 75.9957 209.873C75.6992 211.045 74.9722 212.372 74.3581 214.002C73.6388 215.838 73.0121 217.709 72.4804 219.607C71.8733 221.725 71.3439 224.054 70.7792 226.567C70.2993 229.244 69.4488 231.841 68.2522 234.282C67.6028 235.567 66.8404 236.866 66.2969 238.292C65.7269 239.748 65.345 241.271 65.1604 242.824C64.7589 246.04 64.1887 249.232 63.4522 252.388C61.871 258.861 60.3604 265.031 58.9839 270.65C57.6075 276.268 56.3086 281.294 55.2357 285.544C54.1628 289.793 53.351 293.181 52.7581 295.602C52.4828 296.76 52.2639 297.671 52.1086 298.341C52.0451 298.631 51.9886 298.864 51.9463 299.047C51.9385 299.129 51.9385 299.212 51.9463 299.294C51.9873 299.221 52.0182 299.143 52.0381 299.061C52.0875 298.871 52.1581 298.645 52.2428 298.355C52.4192 297.699 52.6663 296.788 52.9839 295.638C53.6192 293.238 54.5157 289.828 55.6239 285.628C56.7322 281.428 58.0239 276.346 59.471 270.762C60.9181 265.179 62.3863 258.967 63.9816 252.487C64.7134 249.323 65.2696 246.12 65.6475 242.894C65.8278 241.379 66.1978 239.892 66.7486 238.468C67.3063 237.057 68.0192 235.793 68.6686 234.494C70.0804 231.918 70.6381 229.151 71.1957 226.659C71.7533 224.167 72.2475 221.81 72.8263 219.706C73.4051 217.602 74.0122 215.725 74.6192 214.101C75.2263 212.478 75.8969 211.137 76.1863 209.922C76.4757 208.708 76.6098 207.805 76.7369 207.155C76.7839 206.864 76.8263 206.628 76.8639 206.45C76.8851 206.273 76.8992 206.188 76.8851 206.188Z" fill="#263238"/>
<path d="M53.3083 299.329C58.4683 296.259 59.9507 286.941 57.7977 281.337C55.6448 275.732 51.8754 270.607 51.2965 264.628C50.8448 260.033 52.3554 255.318 51.2965 250.828C49.8495 244.765 43.9342 240.071 44.0048 233.838C44.0401 230.344 46.0307 227.054 45.8683 223.56C45.6777 219.282 42.3883 215.88 40.3554 212.111C37.2354 206.329 37.0307 199.504 35.9648 193.052C34.8989 186.6 32.4354 179.64 26.6895 176.457C25.8424 181.955 24.3954 185.725 24.8471 193.172C25.0165 195.847 28.1224 200.937 28.546 206.831C28.8001 210.36 28.9695 213.847 29.1883 217.348C29.4071 220.849 29.6189 224.238 30.8401 227.428C31.7789 229.878 33.2824 232.101 33.9812 234.628C35.2871 239.379 33.5648 244.511 34.6236 249.339C35.5201 253.419 38.3436 256.927 38.9224 261.064C39.7271 266.873 35.9718 272.915 37.8918 278.457C38.8518 281.209 41.1107 283.398 41.753 286.257C42.2542 288.459 41.7107 290.795 42.1624 293.005C42.8683 296.577 49.6871 299.358 53.3224 299.125" fill="#3A5985"/>
<path d="M28.1015 181.885C28.0918 181.988 28.0918 182.092 28.1015 182.195C28.1015 182.428 28.1721 182.725 28.2144 183.099C28.3344 183.897 28.4685 185.061 28.7368 186.572C29.005 188.082 29.8097 189.791 30.4309 191.852C31.0521 193.913 31.7438 196.271 32.3226 198.911C32.9015 201.551 33.4097 204.494 33.925 207.649C34.4403 210.805 35.005 214.242 36.572 217.532C37.2779 219.177 38.1109 220.828 38.6897 222.593C39.2828 224.399 39.648 226.273 39.7768 228.169C40.0653 232.194 40.572 236.2 41.2944 240.169C42.8756 248.315 44.3791 256.073 45.7485 263.139C47.1179 270.205 48.4944 276.508 49.5956 281.845C50.6968 287.181 51.6003 291.445 52.2285 294.452L52.9344 297.875C53.0191 298.242 53.0826 298.532 53.1391 298.758C53.1582 298.861 53.1866 298.963 53.2238 299.061C53.2363 298.958 53.2363 298.854 53.2238 298.751C53.1815 298.518 53.1321 298.228 53.0685 297.854C52.9132 297.035 52.6944 295.878 52.4191 294.409C51.8262 291.395 51.0073 287.089 49.9415 281.774C48.8756 276.459 47.6121 270.085 46.2073 263.047C44.8026 256.009 43.3838 248.224 41.7956 240.085C41.0727 236.115 40.5637 232.109 40.2709 228.085C40.1365 226.149 39.7595 224.237 39.1485 222.395C38.5203 220.602 37.6944 218.944 36.9673 217.306C35.4144 214.066 34.8497 210.685 34.3132 207.544C33.7768 204.402 33.2615 201.452 32.6473 198.798C32.0332 196.144 31.3626 193.772 30.6709 191.739C29.9791 189.706 29.2097 187.984 28.8991 186.508C28.5885 185.033 28.4403 183.847 28.2921 183.064C28.2215 182.697 28.165 182.4 28.1226 182.167C28.1212 182.073 28.1141 181.978 28.1015 181.885Z" fill="#263238"/>
<path d="M277.037 34.4259H274.214C274.216 34.7461 274.153 35.0635 274.03 35.3592C273.907 35.6549 273.726 35.923 273.498 36.1474C273.27 36.3719 272.998 36.5482 272.701 36.666C272.403 36.7837 272.084 36.8405 271.764 36.8329C271.292 36.8499 270.825 36.7189 270.43 36.4583C270.036 36.1976 269.732 35.8203 269.562 35.3788C269.413 35.0112 269.354 34.6137 269.388 34.2186C269.422 33.8236 269.55 33.4423 269.76 33.1059C270.24 32.3153 271.284 31.6024 273.176 31.9341V25.5812H270.402V29.2941C269.264 29.6292 268.267 30.3286 267.564 31.285C266.861 32.2413 266.492 33.4017 266.513 34.5882C266.513 38.6965 270.197 39.6494 271.778 39.6494C272.985 39.6776 277.094 39.3882 277.037 34.4259Z" fill="#3A5985"/>
<path d="M270.381 24.2964H273.197V21.6634H270.381V24.2964Z" fill="#3A5985"/>
<path d="M292.433 30.6705C292.442 30.5507 292.442 30.4304 292.433 30.3105C292.433 30.0564 292.433 29.7105 292.433 29.2658C292.433 29.04 292.433 28.7788 292.397 28.4964C292.362 28.2141 292.32 27.9035 292.27 27.5788C292.221 27.2541 292.172 26.8729 292.115 26.4988L291.819 25.2988C291.294 23.2322 290.436 21.2651 289.277 19.4752C287.595 16.8245 285.328 14.5948 282.649 12.9575C279.97 11.3202 276.952 10.3189 273.826 10.0305C272.887 9.94763 271.944 9.92876 271.002 9.97407C270.529 9.97407 270.042 9.97407 269.59 10.0658L268.136 10.2847C266.141 10.6555 264.21 11.3141 262.405 12.24C260.519 13.2376 258.786 14.4998 257.259 15.9882C255.694 17.5735 254.387 19.393 253.383 21.3811C252.303 23.4308 251.596 25.6559 251.294 27.9529C251.206 28.5349 251.156 29.122 251.146 29.7105C251.099 30.2999 251.087 30.8915 251.11 31.4823C251.264 35.269 252.448 38.942 254.534 42.1058V41.887C253.553 44.3364 252.586 46.7435 251.64 49.087L251.47 49.5176L251.915 49.3905L259.609 47.2729L259.426 47.2305C262.017 49.1923 265.036 50.513 268.235 51.0847C269.719 51.3613 271.232 51.4538 272.739 51.36C273.465 51.3491 274.19 51.2807 274.906 51.1552L275.957 50.9929C276.303 50.9294 276.663 50.8235 276.974 50.7458C281.715 49.5443 285.874 46.6942 288.706 42.7058C289.762 41.2366 290.61 39.6284 291.226 37.927C291.36 37.5529 291.487 37.2211 291.607 36.8541C291.727 36.487 291.79 36.1482 291.868 35.8305C291.946 35.5129 292.03 35.1882 292.101 34.8917C292.172 34.5952 292.193 34.3058 292.235 34.0305C292.299 33.487 292.397 33.007 292.419 32.6188C292.44 32.2305 292.419 31.8564 292.419 31.56C292.419 31.2635 292.419 31.08 292.419 30.9176C292.419 30.7552 292.419 30.6988 292.419 30.6988C292.408 30.7713 292.408 30.8451 292.419 30.9176C292.419 31.08 292.419 31.2917 292.369 31.56C292.32 31.8282 292.327 32.2023 292.299 32.6117C292.27 33.0211 292.165 33.5011 292.08 34.0235C291.407 37.9303 289.613 41.5575 286.918 44.4646C284.223 47.3717 280.741 49.4336 276.896 50.4C276.565 50.4776 276.233 50.5764 275.894 50.64L274.856 50.7952C274.156 50.9121 273.448 50.9758 272.739 50.9858C271.259 51.0638 269.776 50.9667 268.32 50.6964C265.195 50.1214 262.248 48.8233 259.715 46.9058L259.63 46.8352H259.525L251.823 48.9529L252.092 49.2564L254.993 42.0635L255.035 41.9505L254.972 41.8447C253.582 39.7417 252.595 37.3982 252.063 34.9341C251.82 33.7909 251.673 32.6291 251.626 31.4611C251.602 30.8845 251.614 30.3069 251.661 29.7317C251.665 29.1572 251.713 28.5839 251.802 28.0164C252.073 25.7733 252.74 23.596 253.772 21.5858C254.753 19.6428 256.026 17.8621 257.548 16.3058C259.043 14.8446 260.74 13.6061 262.588 12.6282C264.354 11.7099 266.244 11.0558 268.2 10.687L269.612 10.4682C270.085 10.3976 270.557 10.4047 271.023 10.3694C271.943 10.3256 272.865 10.3421 273.783 10.4188C276.858 10.6879 279.831 11.6542 282.477 13.2443C285.123 14.8343 287.371 17.0063 289.052 19.5952C290.216 21.3539 291.089 23.2895 291.635 25.327L291.953 26.5129C292.016 26.887 292.073 27.2188 292.129 27.5717C292.186 27.9247 292.228 28.207 292.277 28.4894C292.327 28.7717 292.313 29.0258 292.334 29.2517C292.334 29.6894 292.39 30.0352 292.412 30.2894C292.398 30.4167 292.405 30.5454 292.433 30.6705Z" fill="#263238"/>
<path d="M81.9318 113.915H122.697C122.697 113.915 122.697 79.6871 158.266 79.08C176.739 78.7553 186.318 90.8612 190.214 100.129C194.732 110.894 193.362 123.162 187.306 133.151C180.395 144.551 165.501 156.007 138.028 151.165L137.767 241.991H178.08V188.146C178.08 188.146 234.614 173.534 234.614 111.205C234.614 51.593 186.409 38.7177 160.497 37.8847C146.082 37.4259 140.859 36.8047 123.028 39.3388C100.306 42.5859 81.4518 68.9718 81.9318 113.915Z" fill="#3A5985"/>
<path d="M178.567 260.922H137.654V299.132H178.567V260.922Z" fill="#3A5985"/>
<path opacity="0.1" d="M178.567 260.922H137.654V299.132H178.567V260.922Z" fill="black"/>
<path opacity="0.1" d="M81.9318 113.915H122.697C122.697 113.915 122.697 79.6871 158.266 79.08C176.739 78.7553 186.318 90.8612 190.214 100.129C194.732 110.894 193.362 123.162 187.306 133.151C180.395 144.551 165.501 156.007 138.028 151.165L137.767 241.991H178.08V188.146C178.08 188.146 234.614 173.534 234.614 111.205C234.614 51.593 186.409 38.7177 160.497 37.8847C146.082 37.4259 140.859 36.8047 123.028 39.3388C100.306 42.5859 81.4518 68.9718 81.9318 113.915Z" fill="black"/>
<path d="M65.0401 113.915H105.812C105.812 113.915 105.812 79.6871 141.381 79.08C159.854 78.7553 169.433 90.8612 173.322 100.129C177.847 110.894 176.478 123.162 170.421 133.151C163.511 144.551 148.355 154.913 120.882 150.092V241.991H161.195V188.146C161.195 188.146 217.73 173.534 217.73 111.205C217.73 51.593 164.266 37.7506 141.388 37.7506C123.89 37.7718 64.2707 42 65.0401 113.915Z" fill="#3A5985"/>
<path opacity="0.3" d="M65.0401 113.915H105.812C105.812 113.915 105.812 79.6871 141.381 79.08C159.854 78.7553 169.433 90.8612 173.322 100.129C177.847 110.894 176.478 123.162 170.421 133.151C163.511 144.551 148.355 154.913 120.882 150.092V241.991H161.195V188.146C161.195 188.146 217.73 173.534 217.73 111.205C217.73 51.593 164.266 37.7506 141.388 37.7506C123.89 37.7718 64.2707 42 65.0401 113.915Z" fill="black"/>
<path d="M161.682 260.922H120.77V299.132H161.682V260.922Z" fill="#3A5985"/>
<path opacity="0.3" d="M161.682 260.922H120.77V299.132H161.682V260.922Z" fill="black"/>
<path d="M145.984 79.2636C145.782 79.281 145.579 79.281 145.377 79.2636C144.974 79.2636 144.395 79.1295 143.64 79.1224C141.505 79.0175 139.364 79.1073 137.245 79.3907C134.102 79.7885 131.01 80.5148 128.019 81.5577C126.256 82.174 124.538 82.9147 122.88 83.7742C121.088 84.6699 119.4 85.7613 117.847 87.0283C116.305 88.3068 114.924 89.7667 113.732 91.3765C112.602 92.8649 111.572 94.4259 110.647 96.0495C109.103 98.8147 107.879 101.746 106.998 104.788C106.4 106.841 105.989 108.944 105.769 111.071C105.685 111.819 105.664 112.412 105.642 112.807C105.643 113.011 105.624 113.214 105.586 113.414C105.568 113.212 105.568 113.009 105.586 112.807C105.586 112.405 105.586 111.812 105.649 111.057C105.812 108.907 106.188 106.779 106.772 104.704C107.621 101.627 108.829 98.6603 110.372 95.866C111.298 94.2245 112.334 92.6469 113.471 91.1436C114.672 89.5075 116.071 88.0257 117.635 86.7318C119.207 85.4474 120.916 84.3418 122.732 83.4354C124.4 82.5601 126.13 81.8052 127.906 81.1765C130.924 80.1376 134.046 79.4276 137.217 79.0589C139.35 78.7968 141.504 78.7471 143.647 78.9107C144.23 78.9479 144.809 79.0186 145.384 79.1224C145.587 79.1553 145.787 79.2025 145.984 79.2636Z" fill="#263238"/>
<path d="M207.41 72C207.41 72 207.36 71.9506 207.276 71.8447C207.191 71.7389 207.064 71.5553 206.923 71.3506L205.574 69.4448C205.285 69.0353 204.974 68.5624 204.607 68.0753L203.337 66.5295L201.883 64.7436C201.353 64.1224 200.732 63.5224 200.111 62.8659C199.49 62.2095 198.854 61.5106 198.134 60.84C197.414 60.1695 196.645 59.4847 195.854 58.7789C195.459 58.4259 195.071 58.073 194.647 57.6989L193.334 56.6612C192.438 55.9553 191.548 55.2495 190.581 54.5436C186.366 51.5278 181.895 48.8871 177.219 46.6518L173.499 44.9718L169.807 43.56C168.6 43.0589 167.372 42.7059 166.186 42.3106C165 41.9153 163.843 41.513 162.657 41.2377L159.283 40.3553C158.188 40.0659 157.101 39.8895 156.064 39.6495C155.026 39.4095 154.024 39.1977 153.043 39.0777L150.219 38.6683C148.433 38.3647 146.795 38.3012 145.37 38.16C144.664 38.1036 143.958 38.0259 143.372 37.9977L141.692 37.9553L139.363 37.8777H138.755H138.551C138.619 37.8671 138.688 37.8671 138.755 37.8777H139.363H141.692H143.379C143.993 37.8777 144.664 37.9624 145.384 38.0118C146.795 38.1318 148.461 38.1812 150.247 38.4706L153.071 38.8518C154.052 38.9647 155.054 39.2189 156.099 39.4095C157.144 39.6 158.217 39.7977 159.339 40.1153L162.727 40.9906C163.899 41.2589 165.057 41.6965 166.257 42.0565C167.457 42.4165 168.678 42.7624 169.885 43.2989L173.598 44.7106L177.339 46.3977C182.04 48.6381 186.529 51.2983 190.751 54.3459C191.725 55.0518 192.614 55.8071 193.511 56.5059L194.824 57.4589C195.247 57.8118 195.635 58.1648 196.031 58.5459L198.304 60.6636C199.01 61.3695 199.645 62.0753 200.273 62.7177C200.901 63.36 201.501 63.9883 202.031 64.6165L203.443 66.4165L204.699 67.9836C205.059 68.4777 205.363 68.9577 205.645 69.3953C206.195 70.2212 206.626 70.8706 206.93 71.3365L207.261 71.8518C207.317 71.8946 207.367 71.9444 207.41 72Z" fill="#263238"/>
<path d="M203.16 159.529C203.076 159.682 202.974 159.824 202.857 159.953L201.883 161.104C201.48 161.619 200.972 162.233 200.344 162.918C199.716 163.602 199.045 164.407 198.226 165.24C197.407 166.073 196.532 167.005 195.537 167.944C194.541 168.882 193.461 169.871 192.311 170.901C187.264 175.306 181.732 179.121 175.821 182.273C174.452 182.979 173.16 183.685 171.911 184.228C170.661 184.772 169.497 185.329 168.424 185.781C167.351 186.233 166.363 186.607 165.501 186.939C164.64 187.271 163.885 187.539 163.264 187.736L161.852 188.195C161.688 188.26 161.518 188.308 161.344 188.336C161.496 188.249 161.657 188.178 161.824 188.125L163.236 187.602C163.85 187.384 164.591 187.101 165.445 186.748C166.299 186.395 167.287 186.042 168.346 185.541C169.405 185.04 170.577 184.567 171.798 183.953C173.019 183.339 174.325 182.689 175.687 181.976C178.377 180.494 181.278 178.758 184.207 176.753C187.137 174.748 189.77 172.638 192.113 170.647C193.264 169.631 194.365 168.678 195.346 167.718C196.327 166.758 197.245 165.889 198.057 165.056C198.868 164.224 199.581 163.454 200.217 162.776C200.852 162.099 201.374 161.506 201.798 161.012L202.786 159.889C202.901 159.76 203.026 159.639 203.16 159.529Z" fill="#263238"/>
<path d="M160.483 238.786C160.377 238.786 160.292 227.449 160.292 213.466C160.292 199.482 160.377 188.139 160.483 188.139C160.588 188.139 160.666 199.475 160.666 213.466C160.666 227.456 160.581 238.786 160.483 238.786Z" fill="#263238"/>
<path d="M162.036 296.541C161.93 296.541 161.852 288.586 161.852 278.774C161.852 268.962 161.93 261 162.036 261C162.141 261 162.219 268.955 162.219 278.774C162.219 288.593 162.134 296.541 162.036 296.541Z" fill="#263238"/>
<path d="M202.165 108.501C201.459 109.913 204.092 111.071 205.609 111.529C207.158 111.91 208.76 112.019 210.346 111.854C212.464 111.741 214.631 111.544 216.459 110.499C218.06 109.507 219.34 108.073 220.144 106.369C220.936 104.672 221.563 102.901 222.014 101.082C222.014 101.082 205.334 102.169 202.165 108.501Z" fill="#3A5985"/>
<g opacity="0.4">
<path d="M202.165 108.501C201.459 109.913 204.092 111.071 205.609 111.529C207.158 111.91 208.76 112.019 210.346 111.854C212.464 111.741 214.631 111.544 216.459 110.499C218.06 109.507 219.34 108.073 220.144 106.369C220.936 104.672 221.563 102.901 222.014 101.082C222.014 101.082 205.334 102.169 202.165 108.501Z" fill="black"/>
</g>
<path d="M249.276 103.984C252.025 105.934 255.321 106.967 258.692 106.934C260.308 107.024 261.902 106.522 263.174 105.522C263.718 105.021 264.127 104.386 264.685 103.906C265.066 103.581 265.511 103.334 265.871 102.988C266.061 102.825 266.207 102.617 266.297 102.383C266.387 102.149 266.418 101.896 266.386 101.647C266.247 101.034 265.903 100.487 265.412 100.094C263.499 99.0072 261.212 99.0495 259.01 99.0989C256.806 99.1943 254.628 99.6203 252.551 100.362C250.843 100.941 249.057 101.774 248.188 103.327" fill="#3A5985"/>
<g opacity="0.4">
<path d="M266.386 101.647C266.137 101.052 265.697 100.555 265.137 100.235C263.224 99.1483 261.212 99.0495 259.01 99.0989C256.806 99.1943 254.628 99.6203 252.551 100.362C250.843 100.941 249.057 101.774 248.188 103.327L249.276 103.984C252.025 105.934 255.321 106.967 258.692 106.934C260.308 107.024 261.902 106.522 263.174 105.522C263.718 105.021 264.127 104.386 264.685 103.906C265.066 103.581 265.511 103.334 265.871 102.988C266.061 102.825 266.207 102.617 266.297 102.383C266.387 102.149 266.418 101.896 266.386 101.647Z" fill="black"/>
</g>
<path d="M216.706 129.318L251.894 129.784C251.966 129.783 252.036 129.766 252.1 129.734C252.164 129.702 252.22 129.655 252.262 129.597C252.305 129.54 252.333 129.473 252.345 129.402C252.357 129.332 252.353 129.259 252.332 129.191L248.202 116.315C248.202 116.315 248.81 109.878 249.65 102.141C250.927 90.3883 252.628 75.6142 252.65 75.6565C250.242 68.9083 236.04 67.7648 236.04 67.7648L219.854 68.7248L219.29 67.7718L214.631 69.9389C213.615 70.4116 212.637 70.9639 211.708 71.5907C208.631 73.6448 201.219 78.3671 199.864 83.6259C196.737 95.8024 202.031 109.391 202.031 109.391L205.433 106.729C206.29 106.069 207.191 105.468 208.13 104.929L214.948 123.205C214.543 123.461 214.199 123.804 213.943 124.209C213.686 124.615 213.523 125.072 213.466 125.548C213.41 127.031 214.172 128.809 216.706 129.318Z" fill="#3A5985"/>
<g opacity="0.3">
<path d="M231.805 107.774C232.92 101.774 232.334 95.6048 231.734 89.5342C229.786 94.4754 229.857 100.122 227.788 105.021C227.535 105.539 227.35 106.087 227.238 106.652C227.184 106.936 227.198 107.228 227.279 107.505C227.36 107.783 227.505 108.037 227.704 108.247C228.268 108.762 229.115 108.48 229.864 108.395C230.533 108.268 231.185 108.059 231.805 107.774Z" fill="black"/>
</g>
<g opacity="0.4">
<path d="M218.824 121.666C221.647 122.647 224.654 120.819 227.64 120.494C229.617 120.282 231.593 120.734 233.555 121.052C237.523 121.694 241.56 121.793 245.555 121.348C246.168 121.315 246.768 121.159 247.32 120.889C247.605 120.695 247.838 120.434 248 120.129C248.161 119.824 248.245 119.484 248.245 119.139C241.595 118.433 234.953 118.052 228.304 117.367C226.648 117.085 224.953 117.14 223.32 117.529C221.315 118.151 219.791 119.725 218.379 121.285" fill="black"/>
</g>
<path d="M265.37 99.3319C262.497 92.8589 252.367 74.9578 252.367 74.9578L244.525 84.7907L246.353 104.097C246.353 104.097 250.497 99.4731 262.08 99.3813C262.922 99.415 263.746 99.6366 264.491 100.03C265.236 100.423 265.883 100.978 266.386 101.654L265.37 99.3319Z" fill="#3A5985"/>
<path d="M218.28 95.9083C217.721 94.536 217.277 93.1193 216.953 91.673C216.515 90.2643 216.194 88.8218 215.993 87.3601C216.544 88.7348 216.986 90.151 217.313 91.5954C217.752 93.0045 218.075 94.4469 218.28 95.9083Z" fill="#263238"/>
<path d="M243.932 83.4847C244.187 83.6652 244.424 83.8709 244.638 84.0989C245.261 84.7011 245.846 85.3424 246.388 86.0189C248.214 88.25 249.497 90.874 250.137 93.6847C250.469 95.2385 250.543 96.8364 250.355 98.4141C250.179 99.8612 249.904 101.132 249.72 102.205C249.537 103.278 249.424 104.153 249.367 104.76C249.366 105.075 249.333 105.39 249.268 105.699C249.218 105.384 249.204 105.064 249.226 104.746C249.257 103.881 249.337 103.018 249.466 102.162C249.614 101.082 249.861 99.7977 250.024 98.3789C250.187 96.8367 250.104 95.2783 249.777 93.7624C249.144 91.0042 247.918 88.417 246.184 86.1812C244.892 84.4447 243.875 83.5412 243.932 83.4847Z" fill="#263238"/>
<path d="M236.746 127.765C236.501 127.874 236.242 127.95 235.977 127.991C235.675 128.07 235.369 128.129 235.059 128.167C234.699 128.217 234.29 128.294 233.831 128.315C232.756 128.414 231.673 128.414 230.598 128.315C229.282 128.18 227.982 127.92 226.716 127.539C225.455 127.134 224.236 126.612 223.073 125.979C222.131 125.453 221.236 124.846 220.398 124.165C220.031 123.882 219.734 123.586 219.466 123.339C219.235 123.13 219.016 122.909 218.81 122.675C218.614 122.494 218.445 122.284 218.309 122.054C218.358 122.005 219.113 122.852 220.56 123.96C221.406 124.603 222.3 125.179 223.236 125.682C224.385 126.286 225.585 126.789 226.822 127.186C228.066 127.561 229.342 127.826 230.633 127.977C231.688 128.09 232.75 128.123 233.81 128.075C235.624 127.977 236.732 127.708 236.746 127.765Z" fill="#263238"/>
<path d="M247.609 123.755C247.776 124.075 247.87 124.426 247.885 124.786C247.997 125.646 247.932 126.521 247.694 127.355C247.452 128.209 246.96 128.971 246.282 129.544C245.767 129.974 245.372 130.108 245.351 130.073C245.329 130.038 245.661 129.805 246.106 129.367C246.677 128.772 247.092 128.044 247.313 127.249C247.878 125.386 247.475 123.762 247.609 123.755Z" fill="#263238"/>
<path d="M245.697 126.24C245.85 126.966 245.789 127.721 245.52 128.413C245.252 129.105 244.789 129.704 244.186 130.137C244.108 130.059 244.765 129.36 245.174 128.28C245.584 127.2 245.591 126.247 245.697 126.24Z" fill="#263238"/>
<path d="M239.4 103.016C239.026 103.649 238.606 104.253 238.143 104.824C237.779 105.461 237.366 106.07 236.908 106.645C237.044 105.9 237.364 105.201 237.84 104.612C238.216 103.956 238.753 103.407 239.4 103.016Z" fill="#263238"/>
<path d="M215.245 85.9201C214.707 85.6042 214.186 85.2602 213.685 84.8895C211.174 83.2402 208.325 82.1763 205.348 81.7765C204.725 81.7311 204.105 81.6486 203.492 81.5295C204.117 81.4431 204.751 81.4431 205.376 81.5295C208.435 81.7905 211.363 82.8815 213.847 84.6848C214.368 85.0297 214.838 85.4455 215.245 85.9201Z" fill="#263238"/>
<path d="M252.367 74.7247C251.104 75.7421 249.924 76.8586 248.838 78.0636C247.838 79.3496 246.943 80.714 246.163 82.1436C246.246 81.6628 246.411 81.1997 246.65 80.7741C247.161 79.7157 247.801 78.7246 248.556 77.8236C249.312 76.9243 250.181 76.125 251.139 75.4447C251.504 75.1358 251.919 74.8922 252.367 74.7247Z" fill="#263238"/>
<path d="M237.84 68.9083C237.904 69.0101 237.956 69.1191 237.995 69.233C238.133 69.5527 238.244 69.8833 238.327 70.2213C238.625 71.4792 238.625 72.7892 238.327 74.0471C237.888 75.925 236.882 77.6227 235.447 78.9107C233.635 80.4455 231.327 81.2684 228.953 81.226C226.577 81.2341 224.262 80.474 222.353 79.0589C220.832 77.8977 219.598 76.4028 218.746 74.6895C218.172 73.5423 217.767 72.3177 217.546 71.0542C217.481 70.7138 217.439 70.3696 217.419 70.0236C217.399 69.9021 217.399 69.7781 217.419 69.6566C217.419 69.6566 217.496 70.1507 217.694 71.026C217.968 72.2538 218.403 73.4404 218.986 74.5554C219.847 76.2171 221.07 77.6644 222.565 78.7907C224.404 80.1527 226.629 80.8944 228.918 80.9083C231.206 80.9504 233.433 80.1688 235.193 78.706C236.579 77.4652 237.563 75.8377 238.016 74.033C238.33 72.8149 238.374 71.5427 238.143 70.306C238.009 69.3742 237.798 68.9224 237.84 68.9083Z" fill="#263238"/>
<g opacity="0.3">
<path d="M240.311 104.266C240.311 103.913 240.254 103.496 239.944 103.32C239.845 103.27 239.736 103.245 239.626 103.245C239.516 103.245 239.407 103.27 239.308 103.32C239.111 103.427 238.936 103.571 238.793 103.744C237.963 104.607 237.321 105.633 236.908 106.758L240.367 106.454C240.346 105.741 240.332 104.993 240.311 104.266Z" fill="black"/>
</g>
<g opacity="0.3">
<path d="M251.795 96.9882C251.447 95.009 250.58 93.1576 249.282 91.6235C250.779 96.5082 250.278 99.2682 249.438 102.614L249.621 102.148C250.588 100.193 252.056 98.9647 251.795 96.9882Z" fill="black"/>
</g>
<path d="M244.885 261.078L242.774 292.737L229.009 292.574L226.842 259.659L244.885 261.078Z" fill="#FFBE9D"/>
<path d="M243.162 288.572V289.489C243.162 289.489 258.692 295.729 258.84 298.666L228 298.496L228.48 288.24C233.075 290.393 237.882 290.661 243.162 288.572Z" fill="#3A5985"/>
<path d="M231.607 291.529C231.314 291.618 231.064 291.81 230.903 292.07C230.742 292.33 230.681 292.64 230.732 292.941C230.807 293.242 230.997 293.502 231.26 293.667C231.523 293.832 231.84 293.888 232.144 293.824C232.458 293.73 232.726 293.522 232.895 293.242C233.065 292.961 233.124 292.628 233.061 292.306C232.949 292.001 232.723 291.752 232.431 291.611C232.138 291.47 231.802 291.448 231.494 291.551" fill="white"/>
<path d="M228 298.496L228.113 296.033L257.647 297.106C257.647 297.106 259.016 297.713 258.854 298.673L228 298.496Z" fill="#263238"/>
<path d="M243.275 289.574C243.275 289.722 242.513 289.786 241.772 290.28C241.031 290.774 240.628 291.388 240.494 291.332C240.36 291.275 240.586 290.4 241.496 289.835C242.407 289.271 243.311 289.412 243.275 289.574Z" fill="#263238"/>
<path d="M246.502 290.929C246.537 291.078 245.88 291.325 245.365 291.96C244.85 292.595 244.702 293.266 244.546 293.259C244.391 293.252 244.306 292.398 244.963 291.628C245.619 290.859 246.494 290.824 246.502 290.929Z" fill="#263238"/>
<path d="M248.315 294.812C248.174 294.812 247.969 294.106 248.365 293.266C248.76 292.426 249.459 292.122 249.522 292.242C249.586 292.362 249.148 292.807 248.816 293.492C248.485 294.177 248.471 294.798 248.315 294.812Z" fill="#263238"/>
<path d="M242.372 29.5412C243.17 27.5648 242.203 25.1718 240.487 23.8942C238.68 22.7042 236.475 22.2755 234.353 22.7012C232.26 23.1402 230.233 23.8522 228.325 24.8189C227.438 23.9241 226.319 23.2935 225.094 22.9975C223.87 22.7016 222.587 22.7519 221.389 23.1429C220.191 23.5339 219.125 24.2502 218.311 25.2118C217.496 26.1734 216.965 27.3424 216.777 28.5883C216.014 28.3962 215.212 28.4155 214.459 28.6442C213.706 28.8729 213.03 29.3023 212.502 29.8864C211.975 30.4705 211.616 31.1872 211.465 31.9596C211.314 32.732 211.376 33.5309 211.645 34.2707L221.189 37.6236L231.607 55.9765C233.147 57.2902 235.112 57.9988 237.136 57.9701C239.16 57.9415 241.104 57.1775 242.606 55.8207C244.108 54.4639 245.065 52.607 245.299 50.5965C245.532 48.586 245.027 46.5591 243.876 44.8942C244.459 44.375 244.955 43.7648 245.344 43.0871C246.176 42.5948 246.903 41.9418 247.481 41.1663C248.059 40.3907 248.477 39.508 248.711 38.5695C249.636 34.4824 246.473 30.0212 242.372 29.5412Z" fill="#263238"/>
<path d="M236.054 67.7648C235.461 64.7789 235.052 62.7319 235.059 62.753C235.066 62.7742 240.706 60.5648 240.297 52.7083C240.099 48.7978 238.61 42.6354 237.226 37.6378C235.984 33.1342 231.784 28.1719 227.344 29.6048L213.882 36.1695C212.534 36.6072 212.301 37.8778 212.619 39.2542V39.9601L217.849 61.6025L220.059 71.2731C220.53 73.2588 221.727 74.9962 223.415 76.1433C225.103 77.2904 227.159 77.7639 229.179 77.4707C230.282 77.3156 231.342 76.9367 232.293 76.3572C233.244 75.7778 234.067 75.0101 234.711 74.1012C235.355 73.1923 235.806 72.1614 236.037 71.0717C236.268 69.9821 236.274 68.8568 236.054 67.7648Z" fill="#FFBE9D"/>
<path d="M237.177 42.8613C237.233 43.1117 237.192 43.3744 237.06 43.595C236.929 43.8157 236.718 43.9775 236.471 44.0472C236.346 44.082 236.216 44.0912 236.087 44.0743C235.959 44.0574 235.835 44.0147 235.724 43.9487C235.612 43.8828 235.515 43.795 235.439 43.6906C235.362 43.5862 235.307 43.4674 235.278 43.3413C235.222 43.0917 235.263 42.83 235.395 42.6105C235.526 42.391 235.737 42.2306 235.984 42.1624C236.108 42.1265 236.238 42.1162 236.367 42.1322C236.495 42.1482 236.619 42.1902 236.73 42.2556C236.842 42.321 236.939 42.4084 237.016 42.5125C237.093 42.6166 237.147 42.7353 237.177 42.8613Z" fill="#263238"/>
<path d="M236.562 41.3578C236.464 41.513 235.61 41.1248 234.565 41.3578C233.52 41.5907 232.857 42.2683 232.715 42.1625C232.574 42.0566 232.715 41.8589 233.005 41.5483C233.393 41.138 233.898 40.857 234.452 40.7436C234.998 40.6259 235.567 40.6878 236.075 40.9201C236.471 41.0825 236.605 41.2942 236.562 41.3578Z" fill="#263238"/>
<path d="M226.927 45.1766C226.984 45.4261 226.942 45.6878 226.811 45.9073C226.679 46.1269 226.468 46.2873 226.222 46.3554C226.1 46.3909 225.972 46.4018 225.846 46.3876C225.72 46.3734 225.598 46.3343 225.487 46.2726C225.376 46.2109 225.278 46.1278 225.199 46.0281C225.121 45.9284 225.063 45.8142 225.029 45.6919C224.972 45.4414 225.014 45.1788 225.145 44.9581C225.276 44.7375 225.487 44.5756 225.734 44.506C225.857 44.4706 225.985 44.46 226.112 44.4746C226.238 44.4893 226.36 44.529 226.471 44.5914C226.582 44.6538 226.68 44.7377 226.758 44.8382C226.836 44.9386 226.894 45.0537 226.927 45.1766Z" fill="#263238"/>
<path d="M226.412 43.8495C226.32 44.0048 225.459 43.6095 224.414 43.8495C223.37 44.0895 222.706 44.753 222.565 44.6542C222.424 44.5554 222.565 44.3506 222.854 44.033C223.245 43.6263 223.749 43.3481 224.302 43.2354C224.847 43.1194 225.415 43.1787 225.925 43.4048C226.299 43.5742 226.461 43.7648 226.412 43.8495Z" fill="#263238"/>
<path d="M231.727 50.4848C232.245 50.1993 232.794 49.9765 233.365 49.8213C233.626 49.7366 233.873 49.6307 233.88 49.4401C233.843 49.1593 233.723 48.8962 233.534 48.6848L232.313 46.8071C230.605 44.1319 229.306 41.9154 229.412 41.866C229.518 41.8166 230.993 43.913 232.701 46.5883L233.894 48.4801C234.128 48.7696 234.256 49.1312 234.254 49.5036C234.233 49.6052 234.19 49.7008 234.128 49.7838C234.065 49.8667 233.986 49.935 233.894 49.9836C233.756 50.0567 233.609 50.1113 233.457 50.146C232.898 50.3371 232.316 50.4511 231.727 50.4848Z" fill="#263238"/>
<path d="M235.059 62.753C231.489 63.5599 227.764 63.3596 224.301 62.1742C224.301 62.1742 228 67.0024 235.461 64.6942L235.059 62.753Z" fill="#EB996E"/>
<path d="M226.588 42.353C226.518 42.6565 225.438 42.6495 224.209 42.953C222.981 43.2565 222.007 43.7154 221.809 43.4754C221.725 43.3624 221.866 43.066 222.24 42.7695C222.737 42.3507 223.328 42.0578 223.962 41.9154C224.591 41.7662 225.246 41.7662 225.875 41.9154C226.376 42.0071 226.638 42.2118 226.588 42.353Z" fill="#263238"/>
<path d="M236.16 38.026C235.991 38.3083 235.087 38.2377 234.042 38.4424C232.998 38.6471 232.172 39.0001 231.925 38.7954C231.812 38.6895 231.925 38.4213 232.228 38.0895C232.694 37.6975 233.258 37.439 233.859 37.3413C234.45 37.2221 235.063 37.2661 235.631 37.4683C236.061 37.666 236.231 37.8848 236.16 38.026Z" fill="#263238"/>
<path d="M217.207 31.1153C217.363 31.88 217.686 32.6009 218.152 33.2268C218.618 33.8527 219.217 34.3683 219.905 34.7368C220.593 35.1054 221.353 35.3179 222.133 35.3594C222.912 35.4008 223.691 35.2701 224.414 34.9765C225.529 34.5248 226.687 33.6777 227.816 34.0871C228.946 34.4965 229.412 36.1059 230.492 36.7059C232.08 37.5953 234.021 36.0565 235.793 36.2118C237.205 36.3318 238.271 37.4118 239.365 38.3295C240.459 39.2471 241.969 39.9389 243.205 39.2753C242.922 38.0965 242.503 36.9547 241.955 35.873C241.403 34.784 240.49 33.9206 239.372 33.4306C238.751 33.1836 238.08 33.0989 237.487 32.7953C236.209 32.1459 235.638 30.6777 234.713 29.5695C234.106 28.8711 233.341 28.3275 232.481 27.9838C231.622 27.6401 230.693 27.5061 229.772 27.593C228.247 27.7483 226.8 28.5177 225.261 28.4542C224.125 28.4048 223.038 27.8965 221.901 27.9177C219.692 27.9177 218.033 29.8942 216.805 31.7365" fill="#263238"/>
<path d="M224.647 32.7318C223.631 32.6542 221.556 32.4424 220.871 31.7224C220.175 30.9444 219.288 30.3627 218.296 30.0357C217.305 29.7086 216.246 29.6477 215.224 29.8589C214.21 30.1612 213.319 30.7812 212.684 31.6275C212.049 32.4738 211.702 33.5018 211.694 34.56C210.459 34.8614 209.329 35.4908 208.422 36.3816C207.515 37.2725 206.865 38.3918 206.541 39.6212C206.213 40.9083 206.202 42.2559 206.509 43.5482C206.817 44.8405 207.433 46.0388 208.306 47.04C208.73 47.5703 209.117 48.1293 209.464 48.713C208.985 49.3068 208.564 49.945 208.207 50.6189C206.591 54.1906 210.974 55.56 210.974 55.56C210.974 57.96 213.198 57.9459 214.617 57.9389C216.036 57.9318 216.819 61.7224 217.927 61.5742L216.805 49.8777C216.969 49.9416 217.144 49.9751 217.32 49.9765C219.996 50.0259 219.297 44.9577 218.436 43.6236C219.233 42.6313 219.906 41.5457 220.44 40.3906C220.925 38.6249 220.959 36.7658 220.539 34.9836C221.436 34.8706 225.085 32.76 224.647 32.7318Z" fill="#263238"/>
<path d="M217.158 50.4988C217.067 50.1272 216.883 49.7847 216.624 49.5032C216.364 49.2218 216.038 49.0106 215.675 48.8894C215.312 48.7682 214.924 48.7409 214.548 48.81C214.172 48.8791 213.819 49.0424 213.523 49.2847C212.817 49.8918 212.443 50.9082 212.866 52.6094C214.01 57.1553 218.337 55.073 218.308 54.9459C218.28 54.8188 217.652 52.3765 217.158 50.4988Z" fill="#FFBE9D"/>
<path d="M216.487 53.5694C216.487 53.5694 216.424 53.6471 216.304 53.7388C216.137 53.8668 215.927 53.925 215.718 53.9012C215.195 53.8447 214.595 53.1953 214.369 52.3694C214.262 51.9835 214.24 51.5787 214.306 51.1835C214.313 51.03 214.357 50.8805 214.435 50.7478C214.512 50.615 214.621 50.503 214.751 50.4212C214.836 50.375 214.936 50.3603 215.031 50.3796C215.126 50.399 215.212 50.4511 215.273 50.5271C215.365 50.6329 215.358 50.7318 215.386 50.7388C215.414 50.7459 215.464 50.6329 215.386 50.4565C215.332 50.3518 215.245 50.2676 215.139 50.2165C214.989 50.156 214.822 50.156 214.673 50.2165C214.496 50.3007 214.343 50.4283 214.228 50.5875C214.113 50.7467 214.04 50.9323 214.017 51.1271C213.925 51.5716 213.942 52.0316 214.066 52.4682C214.145 52.8781 214.343 53.2556 214.635 53.5533C214.928 53.8509 215.302 54.0555 215.711 54.1412C215.844 54.1466 215.976 54.1221 216.098 54.0696C216.22 54.017 216.329 53.9378 216.417 53.8376C216.508 53.6824 216.508 53.5765 216.487 53.5694Z" fill="#EB996E"/>
<path d="M241.532 44.153C241.532 44.153 241.948 43.8353 242.527 43.1294C243.326 42.1123 243.816 40.8874 243.939 39.6C244.032 38.7212 243.946 37.8326 243.685 36.9882C243.383 36.0198 242.824 35.1512 242.068 34.4753C241.195 33.7127 240.138 33.1917 239.001 32.9638C237.864 32.736 236.688 32.8093 235.588 33.1765C235.376 33.2471 235.179 33.353 234.981 33.4377C234.784 33.5224 234.607 33.6494 234.423 33.7553L234.141 33.9106V33.6C234.135 33.0532 233.932 32.5269 233.569 32.1177C233.198 31.7205 232.742 31.4117 232.235 31.2141C231.277 30.8146 230.214 30.7354 229.207 30.9882C227.259 31.433 225.607 32.3224 224.047 32.5059C222.824 32.7185 221.565 32.4668 220.518 31.8C220.241 31.6098 220.002 31.3706 219.812 31.0941C219.699 30.9035 219.642 30.7977 219.656 30.7906C219.912 31.1392 220.225 31.4422 220.581 31.6871C221.612 32.282 222.822 32.485 223.991 32.2588C224.803 32.1059 225.598 31.8694 226.362 31.553C227.259 31.1943 228.179 30.8949 229.115 30.6565C229.637 30.5302 230.174 30.4756 230.711 30.4941C231.277 30.524 231.834 30.6531 232.355 30.8753C232.895 31.1059 233.377 31.453 233.767 31.8918C234.184 32.3696 234.419 32.9797 234.431 33.6141L234.148 33.4588L234.734 33.12C234.953 33.0353 235.158 32.9224 235.383 32.8447C236.542 32.4478 237.786 32.3648 238.987 32.6041C240.188 32.8434 241.305 33.3964 242.223 34.2071C243.017 34.9258 243.599 35.8488 243.903 36.8753C244.22 37.9633 244.263 39.1127 244.028 40.2212C243.792 41.3297 243.287 42.3627 242.555 43.2282C242.323 43.4936 242.06 43.7305 241.772 43.9341C241.701 44.0165 241.62 44.09 241.532 44.153Z" fill="#455A64"/>
<path d="M240.614 28.1931C240.151 27.9578 239.657 27.7891 239.146 27.6919C238.562 27.6121 237.968 27.6676 237.409 27.8542C236.686 28.0756 236.057 28.5328 235.624 29.1531L235.447 29.4001L235.341 29.1178C234.973 28.25 234.379 27.4963 233.623 26.9342C232.866 26.3721 231.973 26.0221 231.035 25.9201C229.563 25.8647 228.113 26.2856 226.899 27.1201C225.865 27.7942 224.765 28.3618 223.617 28.8142C222.825 29.1137 221.972 29.2155 221.132 29.1107C220.908 29.0694 220.688 29.0079 220.475 28.9272C220.334 28.8636 220.257 28.8283 220.264 28.8142C220.271 28.8001 220.581 28.906 221.153 28.9625C221.965 29.0132 222.778 28.8805 223.532 28.5742C224.648 28.0875 225.718 27.5017 226.73 26.8236C227.354 26.4357 228.016 26.1117 228.706 25.8566C229.464 25.5801 230.274 25.4764 231.078 25.553C232.079 25.6624 233.032 26.0411 233.835 26.6489C234.638 27.2568 235.261 28.0709 235.638 29.0048H235.362C235.848 28.3415 236.541 27.8594 237.332 27.6354C237.933 27.4612 238.566 27.4298 239.181 27.5436C239.571 27.6176 239.944 27.7611 240.282 27.9672C240.403 28.0263 240.515 28.1023 240.614 28.1931Z" fill="#455A64"/>
<path d="M231.318 52.5742C231.153 52.4363 230.961 52.3349 230.754 52.2765C230.547 52.2181 230.331 52.2041 230.118 52.2354C229.869 52.2884 229.635 52.3931 229.429 52.5427C229.224 52.6923 229.052 52.8834 228.925 53.1036C228.925 53.1036 228.89 53.1389 228.883 53.1601C228.785 53.3213 228.741 53.5088 228.756 53.6965C228.786 53.901 228.867 54.0948 228.99 54.261C229.113 54.4271 229.275 54.5605 229.462 54.6495C229.76 54.8007 230.098 54.8561 230.429 54.8081C230.76 54.7601 231.068 54.611 231.311 54.3812C231.542 54.1374 231.671 53.8148 231.672 53.4791C231.673 53.1434 231.547 52.8198 231.318 52.5742Z" fill="#3A5985"/>
<path d="M231.671 54.7695C231.614 54.7695 231.551 54.5577 231.36 54.2683C231.131 53.8803 230.788 53.5721 230.377 53.3853C229.967 53.1984 229.509 53.142 229.066 53.2236C228.72 53.273 228.508 53.3718 228.487 53.3224C228.466 53.273 228.628 53.1036 229.01 52.9695C229.508 52.8089 230.049 52.8391 230.527 53.0542C231.009 53.2689 231.391 53.6605 231.593 54.1483C231.741 54.5154 231.72 54.7624 231.671 54.7695Z" fill="#263238"/>
<path d="M217.264 55.6448C217.264 55.6448 217.469 55.9977 217.2 56.5342C217.049 56.8552 216.781 57.1073 216.452 57.2401C216.247 57.3137 216.027 57.3386 215.81 57.3129C215.593 57.2871 215.385 57.2115 215.203 57.0919C215.017 56.9789 214.86 56.8246 214.743 56.6409C214.627 56.4573 214.555 56.2492 214.532 56.033C214.511 55.6844 214.613 55.3394 214.821 55.0589C215.189 54.593 215.598 54.5789 215.598 54.6213C215.598 54.6636 215.287 54.7836 215.04 55.2072C214.897 55.4444 214.838 55.7227 214.871 55.9977C214.897 56.1588 214.958 56.3123 215.05 56.4476C215.141 56.5828 215.261 56.6967 215.4 56.7813C215.538 56.8694 215.693 56.9275 215.855 56.9519C216.016 56.9762 216.181 56.9662 216.339 56.9224C216.6 56.8292 216.824 56.6563 216.981 56.4283C217.257 55.9907 217.207 55.6448 217.264 55.6448Z" fill="#3A5985"/>
<path d="M214.885 55.3695C214.92 55.3695 214.885 55.6095 214.553 55.7648C214.39 55.8325 214.211 55.8522 214.037 55.8215C213.863 55.7907 213.702 55.7109 213.572 55.5914C213.442 55.4719 213.349 55.3177 213.304 55.147C213.259 54.9764 213.264 54.7964 213.318 54.6283C213.387 54.4374 213.519 54.2757 213.692 54.1695C213.981 53.993 214.2 54.0636 214.193 54.106C214.186 54.1483 214.024 54.1977 213.847 54.3742C213.76 54.4827 213.707 54.6144 213.695 54.7528C213.683 54.8912 213.712 55.0302 213.778 55.1523C213.844 55.2744 213.945 55.3742 214.068 55.4392C214.191 55.5042 214.33 55.5315 214.468 55.5177C214.708 55.4683 214.835 55.3413 214.885 55.3695Z" fill="#3A5985"/>
<path d="M222.643 118.059C222.643 118.059 240.12 119.075 250.454 119.167C258.452 119.245 262.024 117.12 263.619 111.974C264.96 107.661 262.08 99.3812 262.08 99.3812C256.666 99.3812 253.327 100.158 249.847 101.788L250.772 105.572L222.593 108L222.643 118.059Z" fill="#FFBE9D"/>
<path d="M256.645 109.61C255.887 108.624 255.001 107.743 254.012 106.991C252.95 106.341 251.806 105.838 250.609 105.494C250.986 105.44 251.37 105.474 251.732 105.593C252.62 105.803 253.462 106.174 254.216 106.687C254.972 107.202 255.626 107.853 256.143 108.607C256.539 109.186 256.687 109.588 256.645 109.61Z" fill="#EB996E"/>
<path d="M216.247 101.76C216.247 101.76 210.84 103.059 206.866 105.713L211.102 117.191C212.513 120.96 216.826 122.838 220.278 120.861C225.593 117.819 227.471 108.953 227.471 108.953L233.309 83.6259L223.631 77.5624L216.283 101.76" fill="#FFBE9D"/>
<path d="M223.596 77.5625L223.991 69.233L221.824 60.7624C221.704 60.2966 221.647 59.7107 222.028 59.4283C222.217 59.2834 222.451 59.2084 222.689 59.2161C222.927 59.2238 223.155 59.3138 223.334 59.4707C223.92 60.0777 226.744 67.4825 226.744 67.4825C226.744 67.4825 231.028 64.913 231.791 64.786C232.553 64.6589 233.506 66.9671 233.57 67.1436C233.598 67.6609 233.598 68.1793 233.57 68.6966C233.57 68.6966 236.217 68.7742 236.457 69.1342C236.649 69.8697 236.751 70.6258 236.76 71.386C236.76 71.386 237.883 71.746 238.059 72.593C238.236 73.4401 238.603 74.8377 238.059 75.1483C237.516 75.4589 236.414 76.066 236.414 76.066C236.414 76.066 235.97 80.386 235.85 80.7813C235.73 81.1766 233.252 83.6048 233.252 83.6048L223.596 77.5625Z" fill="#FFBE9D"/>
<path d="M214.588 121.031C214.588 121.031 214.85 121.186 215.4 121.362C216.205 121.615 217.057 121.683 217.892 121.56C219.233 121.369 220.489 120.79 221.506 119.894C222.85 118.675 223.985 117.244 224.866 115.659C225.385 114.727 225.822 113.751 226.172 112.744C226.539 111.635 226.843 110.506 227.083 109.362C227.633 106.984 228.233 104.421 228.868 101.696C230.139 96.2541 231.565 90.1694 233.104 83.6118V83.5624H233.139C233.626 83.0824 234.113 82.5953 234.6 82.0871C234.84 81.8329 235.08 81.5788 235.306 81.3177C235.419 81.1835 235.539 81.0494 235.631 80.9153C235.702 80.7825 235.743 80.6354 235.751 80.4847C235.941 79.073 236.09 77.6118 236.245 76.1365V76.0447L236.33 76.0024L237.678 75.2471C237.777 75.1835 237.932 75.113 237.995 75.0565C238.063 74.9954 238.108 74.9133 238.122 74.8235C238.155 74.5894 238.155 74.3518 238.122 74.1177C238.054 73.6 237.948 73.0881 237.805 72.5859C237.565 72.1468 237.162 71.8197 236.682 71.6753L236.562 71.6329V71.513C236.562 71.1035 236.52 70.68 236.471 70.2635C236.452 70.055 236.421 69.8476 236.379 69.6424C236.363 69.5519 236.334 69.4641 236.294 69.3812C236.294 69.3318 236.294 69.3812 236.252 69.3388C236.214 69.3187 236.173 69.3022 236.132 69.2894C235.283 69.1044 234.417 69.0074 233.548 69H233.365V68.8165C233.365 68.3788 233.365 67.8918 233.365 67.4047C233.336 67.2386 233.278 67.0786 233.195 66.9318C233.125 66.7624 233.04 66.6 232.955 66.4306C232.79 66.1036 232.597 65.7918 232.377 65.4988C232.277 65.3623 232.155 65.243 232.017 65.1459C231.965 65.1026 231.903 65.0755 231.836 65.068C231.769 65.0604 231.702 65.0728 231.642 65.1035C231.301 65.2343 230.968 65.3876 230.647 65.5624C229.334 66.2682 228.05 66.9741 226.793 67.7365L226.61 67.8494L226.532 67.6518C225.868 65.9788 225.205 64.3271 224.555 62.7106C224.231 61.8988 223.913 61.0871 223.588 60.2894C223.538 60.1107 223.439 59.9497 223.302 59.8249C223.164 59.7001 222.995 59.6164 222.812 59.5835C222.643 59.5276 222.46 59.5306 222.294 59.5922C222.127 59.6537 221.986 59.7702 221.894 59.9224C221.806 60.0738 221.769 60.2495 221.788 60.4235C221.788 60.5788 221.887 60.8188 221.93 61.0094C222.042 61.4188 222.148 61.8212 222.254 62.2235C222.466 63.0353 222.671 63.833 222.882 64.6235C223.297 66.2141 223.704 67.7671 224.104 69.2824V69.3318C223.963 72.2306 223.828 75.0071 223.701 77.6612V77.6471L217.271 98.5694L215.457 104.393C215.245 105.049 215.083 105.565 214.97 105.925C214.857 106.285 214.786 106.44 214.786 106.44C214.786 106.44 214.821 106.256 214.92 105.911L215.365 104.365C215.774 103.002 216.36 101.033 217.101 98.52C218.626 93.4659 220.793 86.2518 223.412 77.5553V77.5906C223.534 74.9459 223.659 72.1694 223.786 69.2612V69.3106C223.384 67.793 222.967 66.24 222.551 64.6588L221.915 62.2588C221.81 61.8565 221.704 61.4471 221.591 61.0447C221.53 60.8334 221.481 60.619 221.442 60.4024C221.416 60.1573 221.468 59.9103 221.591 59.6965C221.721 59.4763 221.923 59.307 222.163 59.2165C222.399 59.1472 222.65 59.1393 222.891 59.1936C223.132 59.248 223.355 59.3627 223.539 59.5271C223.716 59.6933 223.847 59.9024 223.92 60.1341L224.887 62.5553C225.544 64.1788 226.2 65.8306 226.871 67.4965L226.61 67.4047C227.873 66.6565 229.144 65.9082 230.485 65.2094C230.824 65.0322 231.173 64.8743 231.53 64.7365C231.641 64.6901 231.763 64.6731 231.882 64.6871C232.003 64.7045 232.119 64.7479 232.221 64.8141C232.391 64.9361 232.541 65.0837 232.666 65.2518C232.902 65.5607 233.108 65.8916 233.28 66.24C233.372 66.4165 233.457 66.5859 233.534 66.7624C233.635 66.9493 233.702 67.1523 233.732 67.3624C233.732 67.8635 233.732 68.3294 233.732 68.7741L233.555 68.5835C234.463 68.5896 235.367 68.6938 236.252 68.8941C236.313 68.9154 236.372 68.9413 236.428 68.9718C236.506 69.014 236.57 69.0777 236.612 69.1553C236.667 69.2699 236.707 69.3908 236.732 69.5153C236.774 69.7412 236.803 69.953 236.831 70.1718C236.873 70.6024 236.901 71.0259 236.923 71.4494L236.795 71.28C237.084 71.3647 237.352 71.5072 237.584 71.699C237.816 71.8907 238.006 72.1276 238.144 72.3953C238.298 72.9317 238.412 73.4792 238.482 74.033C238.532 74.3156 238.532 74.6045 238.482 74.8871C238.452 75.0582 238.362 75.2132 238.228 75.3247C238.113 75.4022 237.992 75.4729 237.868 75.5365L236.527 76.2353L236.619 76.1012C236.457 77.5765 236.308 79.0235 236.111 80.4565L236.068 80.7318C236.052 80.8432 236.006 80.9482 235.934 81.0353C235.83 81.1898 235.715 81.3361 235.588 81.473C235.348 81.7412 235.108 82.0024 234.882 82.2565C234.395 82.7647 233.908 83.2518 233.414 83.7318L233.464 83.6471C231.911 90.1977 230.471 96.2824 229.179 101.725C228.537 104.442 227.922 107.005 227.358 109.376C227.116 110.528 226.805 111.665 226.426 112.779C226.063 113.796 225.614 114.781 225.085 115.722C224.183 117.328 223.021 118.774 221.647 120C220.6 120.901 219.312 121.476 217.941 121.652C217.088 121.766 216.22 121.679 215.407 121.398C215.2 121.322 215 121.23 214.807 121.122L214.588 121.031Z" fill="#EB996E"/>
<path d="M233.576 68.7177C233.576 68.7672 233.336 68.7954 232.962 68.8095C232.487 68.8185 232.014 68.8753 231.551 68.9789C231.103 69.0889 230.69 69.3098 230.351 69.6213C230.096 69.8613 229.983 70.066 229.927 70.0448C229.871 70.0236 229.927 69.7695 230.16 69.4448C230.489 69.0338 230.946 68.7453 231.459 68.626C231.953 68.5042 232.466 68.4802 232.969 68.5554C233.351 68.6048 233.576 68.6683 233.576 68.7177Z" fill="#EB996E"/>
<path d="M231.53 68.7954C231.438 68.7601 231.431 68.5413 231.53 68.3083C231.628 68.0754 231.77 67.913 231.861 67.9483C231.953 67.9836 231.967 68.2024 231.861 68.4354C231.755 68.6683 231.6 68.8307 231.53 68.7954Z" fill="#EB996E"/>
<path d="M236.88 71.3577C236.195 71.5697 235.479 71.6675 234.762 71.6471C234.537 71.6396 234.313 71.6863 234.109 71.7833C233.905 71.8803 233.727 72.0249 233.591 72.2047C233.407 72.4942 233.471 72.7342 233.414 72.7483C233.358 72.7624 233.188 72.5153 233.365 72.0918C233.462 71.8534 233.639 71.6562 233.866 71.5342C234.127 71.3908 234.416 71.3042 234.713 71.28C235.434 71.1697 236.169 71.196 236.88 71.3577Z" fill="#EB996E"/>
<path d="M236.414 73.8989C236.513 73.8989 236.57 74.4212 236.541 75.0636C236.513 75.7059 236.407 76.2142 236.308 76.2142C236.21 76.2142 236.146 75.6848 236.174 75.0424C236.202 74.4 236.308 73.8918 236.414 73.8989Z" fill="#EB996E"/>
<path d="M239.344 92.9083L239.972 90.7483C240.001 90.6494 240.055 90.5597 240.129 90.4881C240.203 90.4164 240.294 90.3652 240.394 90.3396C240.493 90.3139 240.598 90.3147 240.697 90.3418C240.797 90.3689 240.887 90.4214 240.96 90.4942L241.786 91.3342L242.294 89.2942C242.324 89.1763 242.39 89.0705 242.482 88.9911C242.574 88.9116 242.688 88.8624 242.809 88.8501C242.93 88.8378 243.052 88.8629 243.158 88.9222C243.264 88.9814 243.35 89.0718 243.403 89.1812L244.553 91.5953L239.344 92.9083Z" fill="white"/>
<path d="M244.567 92.52C243.777 92.9016 242.939 93.1724 242.075 93.3247C241.24 93.5976 240.37 93.7497 239.492 93.7765C241.117 93.1237 242.825 92.7008 244.567 92.52Z" fill="white"/>
<path d="M202.588 80.4707C202.588 80.4707 202.327 80.7389 201.96 81.3107C201.467 82.1249 201.143 83.0299 201.007 83.9719C200.806 85.3744 200.763 86.7951 200.88 88.2072C200.958 89.8095 201.085 91.5601 201.283 93.3954C201.617 96.5297 202.114 99.6445 202.772 102.727C203.019 103.913 203.245 104.845 203.4 105.551C203.471 105.847 203.534 106.094 203.584 106.306C203.633 106.518 203.64 106.574 203.64 106.574C203.64 106.574 203.605 106.49 203.555 106.32C203.506 106.151 203.428 105.854 203.351 105.565C203.174 104.908 202.934 103.962 202.645 102.777C201.959 99.695 201.447 96.5771 201.113 93.4378C200.915 91.6025 200.795 89.8448 200.725 88.2425C200.618 86.8293 200.67 85.4087 200.88 84.0072C201.032 83.0529 201.378 82.14 201.897 81.3248C202.088 81.0103 202.321 80.723 202.588 80.4707Z" fill="white"/>
<path d="M217.447 70.8565L217.285 70.9413L216.819 71.1671C216.417 71.3577 215.831 71.6401 215.132 72.0283C213.31 73.0443 211.541 74.1516 209.831 75.346C207.812 76.7577 206.026 78.0424 204.72 78.9742L203.174 80.0683L202.744 80.3577C202.696 80.3961 202.644 80.4292 202.588 80.4565C202.629 80.4091 202.676 80.3686 202.73 80.3365L203.139 80.026L204.657 78.8895C205.948 77.9365 207.727 76.6095 209.746 75.226C211.459 74.0265 213.241 72.9281 215.083 71.9365C215.788 71.5624 216.381 71.2942 216.798 71.1177L217.271 70.9201C217.412 70.8707 217.412 70.8495 217.447 70.8565Z" fill="white"/>
<path d="M251.111 75.4518C251.066 75.4273 251.026 75.3964 250.991 75.3601L250.673 75.0848C250.28 74.7527 249.867 74.4439 249.438 74.1601C248.005 73.2464 246.484 72.4779 244.899 71.866C243.318 71.2399 241.704 70.7026 240.064 70.2565C239.428 70.0801 238.92 69.953 238.56 69.8683L238.158 69.7624C238.109 69.7523 238.061 69.7357 238.017 69.713H238.165L238.574 69.7907C238.934 69.8612 239.45 69.9742 240.085 70.1365C241.741 70.5546 243.368 71.0804 244.955 71.7107C246.55 72.3225 248.072 73.1084 249.494 74.0542C250.086 74.4549 250.629 74.924 251.111 75.4518Z" fill="white"/>
<path d="M217.645 129.332C217.549 129.315 217.456 129.284 217.37 129.24C217.124 129.132 216.888 129.005 216.664 128.859C216.283 128.631 215.952 128.331 215.688 127.974C215.424 127.618 215.232 127.214 215.125 126.784C214.931 125.916 215.028 125.008 215.4 124.2C215.508 123.949 215.645 123.712 215.81 123.494C215.923 123.346 216 123.275 216.007 123.282C215.815 123.584 215.643 123.897 215.492 124.221C215.164 125.014 215.087 125.889 215.273 126.727C215.475 127.555 215.979 128.277 216.685 128.753C217.271 129.177 217.659 129.304 217.645 129.332Z" fill="white"/>
<path d="M215.4 121.687C215.55 121.967 215.662 122.266 215.732 122.577C215.842 122.874 215.909 123.185 215.929 123.501C215.769 123.228 215.654 122.93 215.591 122.619C215.475 122.321 215.41 122.006 215.4 121.687Z" fill="white"/>
<path d="M224.943 279.953L246.473 279.847L246.085 205.412L245.88 129.692L216.706 129.318L211.461 139.2C209.315 143.173 207.947 147.519 207.431 152.005C207.078 155.435 209.647 166.588 210.536 169.412L218.562 194.866L224.943 279.953Z" fill="#263238"/>
<path d="M252.198 129.784L275.859 194.28C277.261 198.436 277.726 202.85 277.222 207.206C276.718 211.563 275.257 215.754 272.944 219.48L245.471 273.127L230.026 253.8L253.009 205.8L232.751 172.941L236.16 129.882L245.704 129.727L252.198 129.784Z" fill="#263238"/>
<path d="M243.918 151.391C243.918 151.391 243.918 151.504 243.918 151.722C243.918 151.941 243.953 152.28 243.982 152.697C244.031 153.565 244.094 154.814 244.179 156.431C244.342 159.699 244.567 164.393 244.885 170.188C245.203 175.984 245.471 182.894 245.824 190.588C245.993 194.428 246.177 198.459 246.36 202.638C246.494 204.755 246.438 206.873 246.459 208.991C246.48 211.108 246.459 213.339 246.459 215.555C246.459 233.294 246.516 249.353 246.537 260.993C246.537 266.795 246.537 271.497 246.537 274.765C246.537 276.381 246.537 277.638 246.537 278.513C246.537 278.922 246.537 279.219 246.537 279.487C246.537 279.755 246.537 279.819 246.537 279.819C246.537 279.819 246.537 279.706 246.537 279.487V278.513C246.537 277.638 246.537 276.395 246.494 274.765C246.494 271.497 246.438 266.802 246.396 261C246.346 249.36 246.283 233.301 246.212 215.562C246.212 213.346 246.212 211.158 246.212 208.998C246.212 206.838 246.254 204.706 246.12 202.645C245.944 198.473 245.767 194.442 245.605 190.602C245.28 182.922 244.984 176.012 244.744 170.195C244.504 164.379 244.327 159.706 244.193 156.438C244.137 154.828 244.094 153.572 244.066 152.697C244.066 152.28 244.066 151.991 244.066 151.722C244.066 151.454 243.918 151.391 243.918 151.391Z" fill="#455A64"/>
<path d="M243.374 131.054C243.457 131.281 243.507 131.519 243.522 131.76C243.6 132.212 243.685 132.868 243.783 133.687C243.967 135.318 244.165 137.584 244.278 140.089C244.391 142.595 244.398 144.868 244.362 146.513C244.362 147.332 244.313 148.002 244.278 148.461C244.285 148.699 244.256 148.937 244.193 149.167C244.104 148.285 244.073 147.399 244.101 146.513C244.101 144.868 244.023 142.609 243.911 140.104C243.798 137.598 243.642 135.346 243.522 133.751C243.422 132.855 243.372 131.955 243.374 131.054Z" fill="#455A64"/>
<path d="M238.631 132.508C238.666 132.558 238.264 132.741 238.151 133.313C238.119 133.468 238.128 133.629 238.176 133.78C238.224 133.93 238.31 134.066 238.426 134.174C238.566 134.304 238.74 134.391 238.927 134.425C239.115 134.459 239.309 134.438 239.485 134.365C239.654 134.278 239.795 134.145 239.892 133.981C239.99 133.818 240.039 133.63 240.035 133.44C240.029 133.282 239.982 133.128 239.899 132.994C239.816 132.859 239.7 132.748 239.562 132.671C239.275 132.532 238.955 132.475 238.638 132.508C238.638 132.508 238.708 132.417 238.892 132.36C239.156 132.295 239.435 132.323 239.682 132.438C239.879 132.52 240.05 132.655 240.175 132.828C240.299 133.001 240.373 133.206 240.388 133.419C240.416 133.682 240.361 133.947 240.231 134.177C240.1 134.406 239.901 134.589 239.661 134.7C239.421 134.811 239.152 134.843 238.893 134.793C238.633 134.743 238.396 134.613 238.214 134.421C238.064 134.272 237.958 134.085 237.907 133.879C237.856 133.674 237.862 133.459 237.925 133.257C237.996 132.992 238.155 132.761 238.377 132.6C238.518 132.501 238.624 132.487 238.631 132.508Z" fill="#455A64"/>
<path d="M227.336 131.231C227.44 131.453 227.505 131.692 227.527 131.937C227.641 132.57 227.662 133.217 227.591 133.857C227.489 134.809 227.214 135.735 226.779 136.588C226.253 137.65 225.475 138.566 224.512 139.257C223.55 139.947 222.433 140.391 221.259 140.548C220.319 140.689 219.362 140.653 218.435 140.442C217.808 140.306 217.205 140.081 216.642 139.772C216.43 139.671 216.234 139.538 216.063 139.377C216.844 139.728 217.657 140 218.492 140.188C219.496 140.397 220.532 140.395 221.535 140.183C222.539 139.972 223.487 139.554 224.321 138.957C225.155 138.36 225.856 137.597 226.379 136.715C226.903 135.834 227.239 134.853 227.365 133.835C227.448 132.969 227.438 132.095 227.336 131.231Z" fill="#455A64"/>
<path d="M255.035 137.414C254.575 137.467 254.108 137.412 253.673 137.252C252.607 136.916 251.649 136.302 250.899 135.473C250.142 134.648 249.622 133.633 249.395 132.537C249.284 132.089 249.284 131.622 249.395 131.174C249.459 131.174 249.466 131.689 249.678 132.48C249.964 133.502 250.484 134.442 251.197 135.228C251.91 136.013 252.797 136.622 253.786 137.005C254.52 137.294 255.042 137.344 255.035 137.414Z" fill="#455A64"/>
<path d="M263.443 206.944C263.089 207.347 262.666 207.684 262.193 207.939C261.697 208.253 261.157 208.491 260.591 208.645C259.878 208.834 259.126 208.814 258.424 208.588C257.191 208.123 256.134 207.284 255.403 206.188C255.066 205.777 254.789 205.32 254.577 204.833C254.958 205.197 255.303 205.596 255.607 206.026C256.357 207.02 257.369 207.785 258.53 208.235C259.122 208.394 259.741 208.429 260.347 208.341C260.954 208.252 261.536 208.041 262.059 207.72C262.505 207.435 262.967 207.176 263.443 206.944Z" fill="#455A64"/>
<path d="M258.05 211.059C257.216 210.195 256.471 209.249 255.826 208.235C255.084 207.292 254.436 206.277 253.892 205.207C254.732 206.068 255.48 207.014 256.123 208.031C256.871 208.969 257.517 209.984 258.05 211.059Z" fill="#455A64"/>
<path d="M221.88 153.882C221.781 153.918 221.534 153.515 221.315 152.972C221.096 152.428 221.005 151.969 221.096 151.927C221.188 151.885 221.442 152.294 221.654 152.838C221.866 153.381 221.972 153.882 221.88 153.882Z" fill="#FAFAFA"/>
<path d="M235.546 155.845C235.44 155.845 235.362 155.499 235.362 155.068C235.362 154.638 235.44 154.285 235.546 154.285C235.652 154.285 235.729 154.638 235.729 155.068C235.729 155.499 235.645 155.845 235.546 155.845Z" fill="#FAFAFA"/>
<path d="M229.927 163.271C229.828 163.271 229.715 162.847 229.68 162.304C229.645 161.76 229.68 161.322 229.793 161.315C229.906 161.308 230.012 161.739 230.047 162.282C230.082 162.826 230.026 163.264 229.927 163.271Z" fill="#FAFAFA"/>
<path d="M219.664 168.706C219.579 168.769 219.29 168.508 218.909 168.24C218.527 167.972 218.203 167.767 218.203 167.668C218.203 167.569 218.669 167.626 219.099 167.937C219.53 168.247 219.749 168.706 219.664 168.706Z" fill="#FAFAFA"/>
<path d="M237.756 175.631C237.671 175.574 237.756 175.271 237.996 174.925C238.236 174.579 238.454 174.381 238.539 174.438C238.624 174.494 238.539 174.805 238.299 175.144C238.059 175.482 237.84 175.687 237.756 175.631Z" fill="#FAFAFA"/>
<path d="M226.588 177.586C226.489 177.586 226.405 177 226.405 176.287C226.405 175.574 226.489 174.981 226.588 174.981C226.687 174.981 226.772 175.567 226.772 176.287C226.772 177.007 226.666 177.586 226.588 177.586Z" fill="#FAFAFA"/>
<path d="M222.932 185.506C222.876 185.584 222.509 185.421 222.113 185.132C221.718 184.842 221.407 184.546 221.499 184.461C221.591 184.377 221.93 184.546 222.325 184.835C222.72 185.125 222.996 185.421 222.932 185.506Z" fill="#FAFAFA"/>
<path d="M234.24 188.259C234.283 188.351 234.057 188.541 233.732 188.689C233.407 188.838 233.111 188.873 233.068 188.781C233.026 188.689 233.259 188.499 233.584 188.351C233.908 188.202 234.205 188.167 234.24 188.259Z" fill="#FAFAFA"/>
<path d="M226.588 201.177C226.504 201.219 226.137 200.675 225.777 199.955C225.417 199.235 225.198 198.614 225.289 198.544C225.381 198.473 225.748 199.045 226.101 199.765C226.454 200.485 226.652 201.099 226.588 201.177Z" fill="#FAFAFA"/>
<path d="M239.061 199.977C238.97 199.927 239.132 199.454 239.414 198.911C239.697 198.367 240.014 197.972 240.12 198.021C240.226 198.071 240.05 198.544 239.76 199.087C239.471 199.631 239.146 200.026 239.061 199.977Z" fill="#FAFAFA"/>
<path d="M233.591 210.911C233.485 210.911 233.499 210.339 233.386 209.675C233.273 209.012 233.104 208.482 233.203 208.433C233.301 208.384 233.64 208.885 233.753 209.619C233.866 210.353 233.69 210.932 233.591 210.911Z" fill="#FAFAFA"/>
<path d="M227.732 217.158C227.661 217.228 227.308 216.96 226.948 216.565C226.588 216.169 226.355 215.795 226.433 215.725C226.511 215.654 226.856 215.922 227.216 216.318C227.576 216.713 227.809 217.087 227.732 217.158Z" fill="#FAFAFA"/>
<path d="M241.949 219.529C241.878 219.459 242.139 219.078 242.534 218.675C242.93 218.273 243.297 218.012 243.374 218.082C243.452 218.153 243.184 218.541 242.796 218.937C242.407 219.332 242.026 219.6 241.949 219.529Z" fill="#FAFAFA"/>
<path d="M233.774 228.882C233.675 228.882 233.675 228.325 233.774 227.675C233.873 227.026 234.028 226.518 234.134 226.532C234.24 226.546 234.233 227.082 234.134 227.732C234.035 228.381 233.873 228.896 233.774 228.882Z" fill="#FAFAFA"/>
<path d="M228.275 233.421C228.184 233.471 227.873 233.104 227.569 232.602C227.266 232.101 227.111 231.656 227.195 231.607C227.28 231.558 227.591 231.918 227.901 232.419C228.212 232.92 228.36 233.365 228.275 233.421Z" fill="#FAFAFA"/>
<path d="M241.525 239.146C241.588 239.231 241.228 239.591 240.72 239.951C240.212 240.311 239.767 240.537 239.703 240.452C239.64 240.367 240.007 240.007 240.508 239.647C241.009 239.287 241.468 239.068 241.525 239.146Z" fill="#FAFAFA"/>
<path d="M230.485 246.579C230.386 246.544 230.485 245.979 230.577 245.273C230.668 244.567 230.612 243.988 230.718 243.974C230.824 243.96 231.007 244.553 230.937 245.308C230.866 246.064 230.577 246.621 230.485 246.579Z" fill="#FAFAFA"/>
<path d="M234.897 257.252C234.812 257.315 234.515 257.075 234.226 256.715C233.937 256.355 233.774 256.01 233.852 255.946C233.93 255.882 234.226 256.122 234.515 256.482C234.805 256.842 234.974 257.188 234.897 257.252Z" fill="#FAFAFA"/>
<path d="M230.076 264.409C229.991 264.466 229.603 264.049 229.207 263.471C228.812 262.892 228.565 262.384 228.643 262.327C228.72 262.271 229.116 262.687 229.511 263.266C229.906 263.845 230.16 264.353 230.076 264.409Z" fill="#FAFAFA"/>
<path d="M243.353 255.424C243.262 255.388 243.269 255.127 243.353 254.845C243.438 254.562 243.629 254.351 243.727 254.386C243.826 254.421 243.812 254.682 243.727 254.972C243.643 255.261 243.452 255.466 243.353 255.424Z" fill="#FAFAFA"/>
<path d="M237.494 272.471C237.402 272.421 237.579 271.92 237.72 271.292C237.861 270.664 237.911 270.134 238.016 270.127C238.122 270.12 238.228 270.692 238.08 271.369C237.932 272.047 237.579 272.527 237.494 272.471Z" fill="#FAFAFA"/>
<path d="M241.306 163.384C241.214 163.426 240.988 163.144 240.805 162.748C240.621 162.353 240.544 162 240.635 161.958C240.727 161.915 240.953 162.198 241.136 162.593C241.32 162.988 241.412 163.341 241.306 163.384Z" fill="#FAFAFA"/>
<path d="M231.529 141.402C231.586 141.487 231.092 141.882 230.562 142.447C230.033 143.012 229.673 143.534 229.581 143.485C229.489 143.435 229.729 142.779 230.287 142.2C230.845 141.621 231.459 141.311 231.529 141.402Z" fill="#FAFAFA"/>
<path d="M240.233 141.177C240.127 141.177 239.965 140.774 239.718 140.294C239.471 139.814 239.245 139.419 239.323 139.348C239.4 139.278 239.782 139.588 240.029 140.125C240.276 140.661 240.325 141.12 240.233 141.177Z" fill="#FAFAFA"/>
<path d="M213.056 148.313C212.965 148.271 213.056 147.805 213.275 147.268C213.494 146.732 213.734 146.315 213.833 146.358C213.932 146.4 213.833 146.859 213.614 147.402C213.395 147.946 213.176 148.348 213.056 148.313Z" fill="#FAFAFA"/>
<path d="M213.939 158.972C213.868 159.049 213.466 158.824 213.035 158.464C212.605 158.104 212.33 157.758 212.372 157.673C212.414 157.588 212.845 157.821 213.276 158.181C213.706 158.541 214.003 158.894 213.939 158.972Z" fill="#FAFAFA"/>
<path d="M231.77 132.939C231.678 132.939 231.48 132.713 231.339 132.353C231.198 131.993 231.156 131.647 231.247 131.647C231.339 131.647 231.537 131.873 231.678 132.233C231.819 132.593 231.861 132.904 231.77 132.939Z" fill="#FAFAFA"/>
<path d="M248.845 138.148C248.746 138.148 248.753 137.704 248.845 137.202C248.937 136.701 249.12 136.306 249.219 136.327C249.318 136.348 249.311 136.779 249.219 137.28C249.127 137.781 248.944 138.169 248.845 138.148Z" fill="#FAFAFA"/>
<path d="M252.854 146.217C252.762 146.174 252.889 145.652 253.143 145.038C253.398 144.424 253.673 143.965 253.765 144C253.856 144.035 253.765 144.565 253.482 145.179C253.2 145.793 252.953 146.252 252.854 146.217Z" fill="#FAFAFA"/>
<path d="M249.995 152.725C249.903 152.767 249.565 152.28 249.24 151.638C248.915 150.995 248.732 150.424 248.823 150.381C248.915 150.339 249.247 150.826 249.572 151.468C249.896 152.111 250.087 152.675 249.995 152.725Z" fill="#FAFAFA"/>
<path d="M256.108 159.233C256.017 159.198 256.108 158.788 256.264 158.322C256.419 157.857 256.666 157.504 256.765 157.539C256.864 157.574 256.765 157.984 256.61 158.45C256.454 158.915 256.235 159.268 256.108 159.233Z" fill="#FAFAFA"/>
<path d="M250.645 165.607C250.56 165.664 250.341 165.473 250.165 165.191C249.988 164.908 249.904 164.626 249.995 164.569C250.087 164.513 250.292 164.704 250.475 164.993C250.659 165.282 250.73 165.558 250.645 165.607Z" fill="#FAFAFA"/>
<path d="M251.81 178.765C251.739 178.828 251.294 178.482 250.828 177.974C250.363 177.466 250.045 177.007 250.123 176.936C250.2 176.866 250.638 177.219 251.104 177.727C251.57 178.235 251.887 178.694 251.81 178.765Z" fill="#FAFAFA"/>
<path d="M258.974 171.205C258.897 171.268 258.508 170.915 258.113 170.407C257.718 169.899 257.464 169.447 257.541 169.384C257.619 169.32 258.007 169.68 258.402 170.181C258.798 170.682 259.059 171.148 258.974 171.205Z" fill="#FAFAFA"/>
<path d="M262.906 181.631C262.814 181.588 262.977 181.059 263.266 180.452C263.555 179.845 263.859 179.379 263.972 179.421C264.085 179.464 263.908 180 263.619 180.607C263.33 181.214 262.998 181.68 262.906 181.631Z" fill="#FAFAFA"/>
<path d="M254.548 190.214C254.456 190.264 254.132 189.875 253.68 189.459C253.228 189.042 252.812 188.753 252.854 188.647C252.896 188.541 253.433 188.732 253.927 189.191C254.421 189.65 254.633 190.165 254.548 190.214Z" fill="#FAFAFA"/>
<path d="M255.071 199.059C255.071 199.158 254.718 199.242 254.287 199.242C253.857 199.242 253.511 199.158 253.511 199.059C253.511 198.96 253.857 198.875 254.287 198.875C254.718 198.875 255.071 198.96 255.071 199.059Z" fill="#FAFAFA"/>
<path d="M263.661 196.588C263.57 196.539 263.753 196.094 263.887 195.544C264.021 194.993 264.078 194.513 264.184 194.506C264.29 194.499 264.403 195.014 264.247 195.628C264.092 196.242 263.739 196.645 263.661 196.588Z" fill="#FAFAFA"/>
<path d="M272.196 199.56C272.104 199.595 271.843 199.094 271.617 198.452C271.391 197.809 271.285 197.259 271.377 197.231C271.469 197.202 271.737 197.689 271.963 198.332C272.189 198.974 272.294 199.525 272.196 199.56Z" fill="#FAFAFA"/>
<path d="M270.833 211.701C270.748 211.652 270.967 211.059 271.32 210.374C271.673 209.689 272.026 209.174 272.132 209.224C272.238 209.273 272.005 209.866 271.645 210.544C271.285 211.221 270.925 211.765 270.833 211.701Z" fill="#FAFAFA"/>
<path d="M263.047 218.824C262.955 218.859 262.666 218.372 262.398 217.73C262.129 217.087 261.995 216.537 262.094 216.494C262.193 216.452 262.475 216.946 262.736 217.588C262.998 218.231 263.139 218.824 263.047 218.824Z" fill="#FAFAFA"/>
<path d="M254.421 221.584C254.421 221.682 254.125 221.767 253.765 221.767C253.405 221.767 253.115 221.682 253.115 221.584C253.115 221.485 253.412 221.4 253.765 221.4C254.118 221.4 254.421 221.485 254.421 221.584Z" fill="#FAFAFA"/>
<path d="M259.362 232.941C259.271 232.941 259.073 232.553 258.925 232.017C258.777 231.48 258.748 231.014 258.847 230.993C258.946 230.972 259.137 231.381 259.285 231.918C259.433 232.454 259.461 232.885 259.362 232.941Z" fill="#FAFAFA"/>
<path d="M253.116 229.129C253.031 229.08 253.116 228.748 253.349 228.388C253.581 228.028 253.814 227.781 253.899 227.831C253.984 227.88 253.899 228.219 253.666 228.579C253.433 228.939 253.207 229.186 253.116 229.129Z" fill="#FAFAFA"/>
<path d="M252.988 241.631C252.89 241.631 252.748 241.158 252.678 240.544C252.607 239.93 252.628 239.428 252.727 239.414C252.826 239.4 252.967 239.887 253.038 240.501C253.108 241.115 253.087 241.617 252.988 241.631Z" fill="#FAFAFA"/>
</g>
<defs>
<clipPath id="clip0_231_195">
<rect width="312" height="300" fill="white"/>
</clipPath>
</defs>
</svg>
