<svg width="161" height="48" viewBox="0 0 161 48" fill="none" xmlns="http://www.w3.org/2000/svg">
<path d="M66.8709 36.8619C69.662 36.8619 71.9247 34.5947 71.9247 31.798C71.9247 29.0013 69.662 26.7341 66.8709 26.7341C64.0798 26.7341 61.8171 29.0013 61.8171 31.798C61.8171 34.5947 64.0798 36.8619 66.8709 36.8619Z" fill="#030303"/>
<path d="M77.8936 36.8619C80.6847 36.8619 82.9474 34.5947 82.9474 31.798C82.9474 29.0013 80.6847 26.7341 77.8936 26.7341C75.1025 26.7341 72.8398 29.0013 72.8398 31.798C72.8398 34.5947 75.1025 36.8619 77.8936 36.8619Z" fill="#030303"/>
<path fill-rule="evenodd" clip-rule="evenodd" d="M154.046 0.204834H6.10292C2.84909 0.204834 0.184082 2.88273 0.184082 6.15852V41.875C0.184082 45.148 2.8463 47.8287 6.10292 47.8287H154.046C157.3 47.8287 159.965 45.1508 159.965 41.875V6.15571C159.965 2.88272 157.303 0.204834 154.046 0.204834ZM154.046 1.15641C156.786 1.15641 159.016 3.39921 159.016 6.15571V41.8722C159.016 44.6287 156.786 46.8715 154.046 46.8715H6.10292C3.36256 46.8715 1.13288 44.6287 1.13288 41.8722V6.15571C1.13288 3.39921 3.36256 1.15641 6.10292 1.15641H154.046Z" fill="#90969D"/>
<mask id="path-4-inside-1_217_693" fill="white">
<path fill-rule="evenodd" clip-rule="evenodd" d="M56.3086 12.3986C56.3086 13.3979 56.0156 14.1894 55.4268 14.7845C54.757 15.4891 53.8892 15.84 52.8176 15.84C51.7934 15.84 50.92 15.4835 50.2056 14.7677C49.4856 14.0547 49.1284 13.1649 49.1284 12.1094C49.1284 11.0512 49.4856 10.1642 50.2056 9.45119C50.92 8.73821 51.7934 8.37891 52.8176 8.37891C53.3255 8.37891 53.8138 8.47996 54.2743 8.67645C54.7375 8.87575 55.1087 9.14241 55.3849 9.47364L54.7598 10.1024C54.291 9.5382 53.6436 9.25469 52.8148 9.25469C52.0669 9.25469 51.4223 9.51855 50.8753 10.0491C50.3284 10.5796 50.0577 11.2645 50.0577 12.1094C50.0577 12.9543 50.3312 13.6393 50.8753 14.1698C51.4195 14.7003 52.0669 14.9614 52.8148 14.9614C53.6073 14.9614 54.2687 14.6947 54.7989 14.1642C55.1421 13.8161 55.3403 13.3361 55.3933 12.7186H52.8148V11.8596H56.2556C56.2919 12.0449 56.3086 12.2245 56.3086 12.3986Z"/>
</mask>
<path fill-rule="evenodd" clip-rule="evenodd" d="M56.3086 12.3986C56.3086 13.3979 56.0156 14.1894 55.4268 14.7845C54.757 15.4891 53.8892 15.84 52.8176 15.84C51.7934 15.84 50.92 15.4835 50.2056 14.7677C49.4856 14.0547 49.1284 13.1649 49.1284 12.1094C49.1284 11.0512 49.4856 10.1642 50.2056 9.45119C50.92 8.73821 51.7934 8.37891 52.8176 8.37891C53.3255 8.37891 53.8138 8.47996 54.2743 8.67645C54.7375 8.87575 55.1087 9.14241 55.3849 9.47364L54.7598 10.1024C54.291 9.5382 53.6436 9.25469 52.8148 9.25469C52.0669 9.25469 51.4223 9.51855 50.8753 10.0491C50.3284 10.5796 50.0577 11.2645 50.0577 12.1094C50.0577 12.9543 50.3312 13.6393 50.8753 14.1698C51.4195 14.7003 52.0669 14.9614 52.8148 14.9614C53.6073 14.9614 54.2687 14.6947 54.7989 14.1642C55.1421 13.8161 55.3403 13.3361 55.3933 12.7186H52.8148V11.8596H56.2556C56.2919 12.0449 56.3086 12.2245 56.3086 12.3986Z" fill="#030303"/>
<path d="M55.4268 14.7845L54.7159 14.0812L54.7089 14.0883L54.702 14.0956L55.4268 14.7845ZM50.2056 14.7677L50.9134 14.0612L50.9092 14.0571L50.2056 14.7677ZM50.2056 9.45119L50.9092 10.1617L50.912 10.159L50.2056 9.45119ZM54.2743 8.67645L54.6695 7.75785L54.6668 7.7567L54.2743 8.67645ZM55.3849 9.47364L56.0941 10.1787L56.7363 9.53266L56.1529 8.83312L55.3849 9.47364ZM54.7598 10.1024L53.9907 10.7415L54.6936 11.5874L55.469 10.8074L54.7598 10.1024ZM54.7989 14.1642L55.5062 14.8711L55.5109 14.8663L54.7989 14.1642ZM55.3933 12.7186L56.3896 12.8041L56.4828 11.7186H55.3933V12.7186ZM52.8148 12.7186H51.8148V13.7186H52.8148V12.7186ZM52.8148 11.8596V10.8596H51.8148V11.8596H52.8148ZM56.2556 11.8596L57.2369 11.6674L57.0788 10.8596H56.2556V11.8596ZM55.3086 12.3986C55.3086 13.1885 55.0847 13.7085 54.7159 14.0812L56.1376 15.4879C56.9465 14.6704 57.3086 13.6072 57.3086 12.3986H55.3086ZM54.702 14.0956C54.2415 14.5799 53.6464 14.84 52.8176 14.84V16.84C54.1319 16.84 55.2725 16.3982 56.1516 15.4735L54.702 14.0956ZM52.8176 14.84C52.053 14.84 51.436 14.5849 50.9134 14.0613L49.4978 15.4741C50.404 16.3821 51.5339 16.84 52.8176 16.84V14.84ZM50.9092 14.0571C50.39 13.5429 50.1284 12.914 50.1284 12.1094H48.1284C48.1284 13.4157 48.5812 14.5664 49.5019 15.4782L50.9092 14.0571ZM50.1284 12.1094C50.1284 11.3025 50.3897 10.6762 50.9092 10.1617L49.5019 8.74064C48.5815 9.65215 48.1284 10.7999 48.1284 12.1094H50.1284ZM50.912 10.159C51.4364 9.63564 52.0547 9.37891 52.8176 9.37891V7.37891C51.5321 7.37891 50.4036 7.84077 49.4992 8.74338L50.912 10.159ZM52.8176 9.37891C53.1899 9.37891 53.5448 9.45242 53.8818 9.5962L54.6668 7.7567C54.0828 7.5075 53.461 7.37891 52.8176 7.37891V9.37891ZM53.8791 9.59504C54.2218 9.74251 54.4568 9.92214 54.617 10.1142L56.1529 8.83312C55.7605 8.36268 55.2532 8.00898 54.6695 7.75786L53.8791 9.59504ZM54.6757 8.76861L54.0507 9.39738L55.469 10.8074L56.0941 10.1787L54.6757 8.76861ZM55.529 9.46332C54.8452 8.64045 53.8995 8.25469 52.8148 8.25469V10.2547C53.3877 10.2547 53.7368 10.436 53.9907 10.7415L55.529 9.46332ZM52.8148 8.25469C51.8018 8.25469 50.9089 8.6234 50.1791 9.33127L51.5716 10.7669C51.9357 10.4137 52.332 10.2547 52.8148 10.2547V8.25469ZM50.1791 9.33127C49.4148 10.0726 49.0577 11.0281 49.0577 12.1094H51.0577C51.0577 11.501 51.2419 11.0866 51.5716 10.7669L50.1791 9.33127ZM49.0577 12.1094C49.0577 13.1932 49.4191 14.1466 50.1773 14.8858L51.5734 13.4538C51.2432 13.1319 51.0577 12.7155 51.0577 12.1094H49.0577ZM50.1773 14.8858C50.9081 15.5983 51.806 15.9614 52.8148 15.9614V13.9614C52.3279 13.9614 51.9309 13.8023 51.5734 13.4538L50.1773 14.8858ZM52.8148 15.9614C53.8573 15.9614 54.7779 15.5998 55.5062 14.8711L54.0916 13.4573C53.7595 13.7896 53.3573 13.9614 52.8148 13.9614V15.9614ZM55.5109 14.8663C56.0569 14.3126 56.322 13.5919 56.3896 12.8041L54.397 12.633C54.3586 13.0803 54.2273 13.3196 54.0869 13.462L55.5109 14.8663ZM55.3933 11.7186H52.8148V13.7186H55.3933V11.7186ZM53.8148 12.7186V11.8596H51.8148V12.7186H53.8148ZM52.8148 12.8596H56.2556V10.8596H52.8148V12.8596ZM55.2742 12.0518C55.2981 12.1739 55.3086 12.2892 55.3086 12.3986H57.3086C57.3086 12.1599 57.2856 11.9159 57.2369 11.6674L55.2742 12.0518Z" fill="#030303" mask="url(#path-4-inside-1_217_693)"/>
<path d="M56.3086 12.3986C56.3086 13.3979 56.0156 14.1894 55.4268 14.7845C54.757 15.4891 53.8892 15.84 52.8176 15.84C51.7934 15.84 50.92 15.4835 50.2056 14.7677C49.4856 14.0547 49.1284 13.1649 49.1284 12.1094C49.1284 11.0512 49.4856 10.1642 50.2056 9.45119C50.92 8.73821 51.7934 8.37891 52.8176 8.37891C53.3255 8.37891 53.8138 8.47996 54.2743 8.67645C54.7375 8.87575 55.1087 9.14241 55.3849 9.47364L54.7598 10.1024C54.291 9.5382 53.6436 9.25469 52.8148 9.25469C52.0669 9.25469 51.4223 9.51855 50.8753 10.0491C50.3284 10.5796 50.0577 11.2645 50.0577 12.1094C50.0577 12.9543 50.3312 13.6393 50.8753 14.1698C51.4195 14.7003 52.0669 14.9614 52.8148 14.9614C53.6073 14.9614 54.2687 14.6947 54.7989 14.1642C55.1421 13.8161 55.3403 13.3361 55.3933 12.7186H52.8148V11.8596H56.2556C56.2919 12.0449 56.3086 12.2245 56.3086 12.3986Z" fill="#030303" stroke="#030303" stroke-width="0.2"/>
<mask id="path-7-inside-2_217_693" fill="white">
<path fill-rule="evenodd" clip-rule="evenodd" d="M61.764 9.41485H58.5297V11.6801H61.4431V12.5391H58.5297V14.8043H61.764V15.6829H57.6172V8.53906H61.764V9.41485Z"/>
</mask>
<path fill-rule="evenodd" clip-rule="evenodd" d="M61.764 9.41485H58.5297V11.6801H61.4431V12.5391H58.5297V14.8043H61.764V15.6829H57.6172V8.53906H61.764V9.41485Z" fill="#030303"/>
<path d="M61.764 9.41485V10.4149H62.764V9.41485H61.764ZM58.5297 9.41485V8.41485H57.5297V9.41485H58.5297ZM58.5297 11.6801H57.5297V12.6801H58.5297V11.6801ZM61.4431 11.6801H62.4431V10.6801H61.4431V11.6801ZM61.4431 12.5391V13.5391H62.4431V12.5391H61.4431ZM58.5297 12.5391V11.5391H57.5297V12.5391H58.5297ZM58.5297 14.8043H57.5297V15.8043H58.5297V14.8043ZM61.764 14.8043H62.764V13.8043H61.764V14.8043ZM61.764 15.6829V16.6829H62.764V15.6829H61.764ZM57.6172 15.6829H56.6172V16.6829H57.6172V15.6829ZM57.6172 8.53906V7.53906H56.6172V8.53906H57.6172ZM61.764 8.53906H62.764V7.53906H61.764V8.53906ZM61.764 8.41485H58.5297V10.4149H61.764V8.41485ZM57.5297 9.41485V11.6801H59.5297V9.41485H57.5297ZM58.5297 12.6801H61.4431V10.6801H58.5297V12.6801ZM60.4431 11.6801V12.5391H62.4431V11.6801H60.4431ZM61.4431 11.5391H58.5297V13.5391H61.4431V11.5391ZM57.5297 12.5391V14.8043H59.5297V12.5391H57.5297ZM58.5297 15.8043H61.764V13.8043H58.5297V15.8043ZM60.764 14.8043V15.6829H62.764V14.8043H60.764ZM61.764 14.6829H57.6172V16.6829H61.764V14.6829ZM58.6172 15.6829V8.53906H56.6172V15.6829H58.6172ZM57.6172 9.53906H61.764V7.53906H57.6172V9.53906ZM60.764 8.53906V9.41485H62.764V8.53906H60.764Z" fill="#030303" mask="url(#path-7-inside-2_217_693)"/>
<path d="M61.764 9.41485H58.5297V11.6801H61.4431V12.5391H58.5297V14.8043H61.764V15.6829H57.6172V8.53906H61.764V9.41485Z" fill="#030303" stroke="#030303" stroke-width="0.2"/>
<mask id="path-10-inside-3_217_693" fill="white">
<path fill-rule="evenodd" clip-rule="evenodd" d="M65.6095 15.68H64.697V9.41473H62.7129V8.53613H67.5936V9.41473H65.6095V15.68Z"/>
</mask>
<path fill-rule="evenodd" clip-rule="evenodd" d="M65.6095 15.68H64.697V9.41473H62.7129V8.53613H67.5936V9.41473H65.6095V15.68Z" fill="#030303"/>
<path d="M65.6095 15.68V16.68H66.6095V15.68H65.6095ZM64.697 15.68H63.697V16.68H64.697V15.68ZM64.697 9.41473H65.697V8.41473H64.697V9.41473ZM62.7129 9.41473H61.7129V10.4147H62.7129V9.41473ZM62.7129 8.53613V7.53613H61.7129V8.53613H62.7129ZM67.5936 8.53613H68.5936V7.53613H67.5936V8.53613ZM67.5936 9.41473V10.4147H68.5936V9.41473H67.5936ZM65.6095 9.41473V8.41473H64.6095V9.41473H65.6095ZM65.6095 14.68H64.697V16.68H65.6095V14.68ZM65.697 15.68V9.41473H63.697V15.68H65.697ZM64.697 8.41473H62.7129V10.4147H64.697V8.41473ZM63.7129 9.41473V8.53613H61.7129V9.41473H63.7129ZM62.7129 9.53613H67.5936V7.53613H62.7129V9.53613ZM66.5936 8.53613V9.41473H68.5936V8.53613H66.5936ZM67.5936 8.41473H65.6095V10.4147H67.5936V8.41473ZM64.6095 9.41473V15.68H66.6095V9.41473H64.6095Z" fill="#030303" mask="url(#path-10-inside-3_217_693)"/>
<path d="M65.6095 15.68H64.697V9.41473H62.7129V8.53613H67.5936V9.41473H65.6095V15.68Z" fill="#030303" stroke="#030303" stroke-width="0.2"/>
<mask id="path-13-inside-4_217_693" fill="white">
<path fill-rule="evenodd" clip-rule="evenodd" d="M71.1238 15.68H72.0363V8.53613H71.1238V15.68Z"/>
</mask>
<path fill-rule="evenodd" clip-rule="evenodd" d="M71.1238 15.68H72.0363V8.53613H71.1238V15.68Z" fill="#030303"/>
<path d="M71.1238 15.68H70.1238V16.68H71.1238V15.68ZM72.0363 15.68V16.68H73.0363V15.68H72.0363ZM72.0363 8.53613H73.0363V7.53613H72.0363V8.53613ZM71.1238 8.53613V7.53613H70.1238V8.53613H71.1238ZM71.1238 16.68H72.0363V14.68H71.1238V16.68ZM73.0363 15.68V8.53613H71.0363V15.68H73.0363ZM72.0363 7.53613H71.1238V9.53613H72.0363V7.53613ZM70.1238 8.53613V15.68H72.1238V8.53613H70.1238Z" fill="#030303" mask="url(#path-13-inside-4_217_693)"/>
<path d="M71.1238 15.68H72.0363V8.53613H71.1238V15.68Z" fill="#030303" stroke="#030303" stroke-width="0.2"/>
<mask id="path-16-inside-5_217_693" fill="white">
<path fill-rule="evenodd" clip-rule="evenodd" d="M76.0854 15.68H75.1728V9.41473H73.1887V8.53613H78.0695V9.41473H76.0854V15.68Z"/>
</mask>
<path fill-rule="evenodd" clip-rule="evenodd" d="M76.0854 15.68H75.1728V9.41473H73.1887V8.53613H78.0695V9.41473H76.0854V15.68Z" fill="#030303"/>
<path d="M76.0854 15.68V16.68H77.0854V15.68H76.0854ZM75.1728 15.68H74.1728V16.68H75.1728V15.68ZM75.1728 9.41473H76.1728V8.41473H75.1728V9.41473ZM73.1887 9.41473H72.1887V10.4147H73.1887V9.41473ZM73.1887 8.53613V7.53613H72.1887V8.53613H73.1887ZM78.0695 8.53613H79.0695V7.53613H78.0695V8.53613ZM78.0695 9.41473V10.4147H79.0695V9.41473H78.0695ZM76.0854 9.41473V8.41473H75.0854V9.41473H76.0854ZM76.0854 14.68H75.1728V16.68H76.0854V14.68ZM76.1728 15.68V9.41473H74.1728V15.68H76.1728ZM75.1728 8.41473H73.1887V10.4147H75.1728V8.41473ZM74.1887 9.41473V8.53613H72.1887V9.41473H74.1887ZM73.1887 9.53613H78.0695V7.53613H73.1887V9.53613ZM77.0695 8.53613V9.41473H79.0695V8.53613H77.0695ZM78.0695 8.41473H76.0854V10.4147H78.0695V8.41473ZM75.0854 9.41473V15.68H77.0854V9.41473H75.0854Z" fill="#030303" mask="url(#path-16-inside-5_217_693)"/>
<path d="M76.0854 15.68H75.1728V9.41473H73.1887V8.53613H78.0695V9.41473H76.0854V15.68Z" fill="#030303" stroke="#030303" stroke-width="0.2"/>
<path d="M86.6311 10.0604L86.9126 9.78351L86.6311 14.1587C86.1037 14.6948 85.4619 14.9615 84.7028 14.9615C83.941 14.9615 83.2964 14.6948 82.7717 14.1587C82.2471 13.6225 81.9848 12.9404 81.9848 12.1096C81.9848 11.2787 82.2499 10.5938 82.7745 10.0604C83.2992 9.5271 83.941 9.25763 84.7028 9.25763C85.4619 9.25763 86.1065 9.52429 86.6311 10.0604ZM86.6311 10.0604L86.9134 9.78425L86.6311 10.0604Z" fill="#030303" stroke="#030303"/>
<path d="M82.7717 14.1587C83.2964 14.6948 83.941 14.9615 84.7028 14.9615C85.4619 14.9615 86.1037 14.6948 86.6311 14.1587C87.1557 13.6225 87.4209 12.9404 87.4209 12.1096C87.4209 11.2787 87.1557 10.5938 86.6311 10.0604C86.1065 9.52429 85.4619 9.25763 84.7028 9.25763C83.941 9.25763 83.2992 9.5271 82.7745 10.0604C82.2499 10.5938 81.9848 11.2787 81.9848 12.1096C81.9848 12.9404 82.2471 13.6225 82.7717 14.1587ZM87.3064 14.7566C86.606 15.4808 85.7409 15.8401 84.7028 15.8401C83.6647 15.8401 82.7969 15.4808 82.0992 14.7566C81.4016 14.0352 81.0527 13.1538 81.0527 12.1096C81.0527 11.0653 81.4016 10.1811 82.0992 9.45973C82.7969 8.73833 83.6619 8.37622 84.7 8.37622C85.7325 8.37622 86.5976 8.73832 87.2981 9.46254C87.9985 10.1867 88.3473 11.0682 88.3473 12.1067C88.3529 13.1538 88.0041 14.0352 87.3064 14.7566Z" fill="#030303" stroke="#030303" stroke-width="0.2"/>
<path d="M90.4665 9.03613L90.6631 9.35262H90.5463H90.5072H90.1338V9.03613H90.4665ZM94.2355 14.5912H94.6117V15.18H94.4357L94.0709 14.5912H94.1964H94.2355Z" fill="#030303" stroke="#030303"/>
<path d="M89.6338 15.68V8.53613H90.7444L94.1964 14.0912H94.2355L94.1964 12.7158V8.53613H95.1117V15.68H94.1573L90.5463 9.85262H90.5072L90.5463 11.2309V15.68H89.6338Z" fill="#030303" stroke="#030303" stroke-width="0.2"/>
<path d="M126.026 21.6731H123.818V36.5559H126.026V21.6731Z" fill="#030303"/>
<path fill-rule="evenodd" clip-rule="evenodd" d="M143.71 27.0344L141.179 33.4878H141.101L138.475 27.0344H136.094L140.035 36.0506L137.788 41.0695H140.09L146.163 27.0344H143.71Z" fill="#030303"/>
<path fill-rule="evenodd" clip-rule="evenodd" d="M131.451 26.7087C129.852 26.7087 128.197 27.4161 127.51 28.988L129.469 29.8105C129.888 28.988 130.669 28.7186 131.487 28.7186C132.628 28.7186 133.789 29.4091 133.809 30.633V30.7873C133.407 30.5572 132.553 30.2147 131.506 30.2147C129.391 30.2147 127.242 31.3824 127.242 33.5635C127.242 35.5565 128.975 36.8393 130.918 36.8393C132.399 36.8393 133.22 36.1684 133.733 35.3824H133.809V36.5305H135.941V30.8238C135.943 28.1824 133.982 26.7087 131.451 26.7087Z" fill="#030303"/>
<path fill-rule="evenodd" clip-rule="evenodd" d="M117.746 21.6731H112.455V36.5559H114.662V30.9166H117.746C120.193 30.9166 122.599 29.1342 122.599 26.2935C122.599 23.4556 120.193 21.6731 117.746 21.6731Z" fill="#030303"/>
<path fill-rule="evenodd" clip-rule="evenodd" d="M91.4226 27.8652H91.3472C90.8505 27.2701 89.8961 26.7312 88.699 26.7312C86.1818 26.7312 83.874 28.9572 83.874 31.8147C83.874 34.6526 86.1818 36.8589 88.699 36.8589C89.8989 36.8589 90.8533 36.3228 91.3472 35.7108H91.4226V36.4379C91.4226 38.3747 90.3928 39.4105 88.7352 39.4105C87.3818 39.4105 86.5418 38.4337 86.1986 37.6084L84.2731 38.414C84.8256 39.7558 86.2935 41.4063 88.7352 41.4063C91.3305 41.4063 93.5211 39.8708 93.5211 36.1319V27.04H91.4226V27.8652Z" fill="#030303"/>
<path fill-rule="evenodd" clip-rule="evenodd" d="M95.0474 36.5559H97.2603V21.6731H95.0474V36.5559Z" fill="#030303"/>
<path fill-rule="evenodd" clip-rule="evenodd" d="M107.385 29.9566C106.966 28.8254 105.688 26.7341 103.076 26.7341C100.483 26.7341 98.3291 28.7889 98.3291 31.798C98.3291 34.6359 100.464 36.8619 103.324 36.8619C105.632 36.8619 106.966 35.4415 107.521 34.6162L105.805 33.4654C105.23 34.3103 104.452 34.8661 103.324 34.8661C102.2 34.8661 101.399 34.3468 100.885 33.3306L107.616 30.5292L107.385 29.9566Z" fill="#030303"/>
<path fill-rule="evenodd" clip-rule="evenodd" d="M53.7607 28.2892V30.4366H58.873C58.7196 31.6464 58.3177 32.5278 57.7094 33.1398C56.9643 33.8892 55.8006 34.7117 53.7607 34.7117C50.6129 34.7117 48.1544 32.1601 48.1544 28.9966C48.1544 25.8331 50.6157 23.2815 53.7607 23.2815C55.4574 23.2815 56.6964 23.9524 57.6117 24.8142L59.1186 23.2984C57.8405 22.0717 56.1438 21.1313 53.7607 21.1313C49.452 21.1313 45.8298 24.6626 45.8298 28.9966C45.8298 33.3306 49.452 36.8591 53.7607 36.8591C56.088 36.8591 57.8405 36.0928 59.2135 34.6528C60.6227 33.2324 61.0637 31.2394 61.0637 29.6282C61.0637 29.1313 61.0274 28.671 60.9492 28.2864L53.7607 28.2892Z" fill="#030303"/>
<path fill-rule="evenodd" clip-rule="evenodd" d="M26.5858 24.0112L12.2506 9.61963C12.0859 9.95366 11.9883 10.3635 11.9883 10.8603V37.1677C11.9883 37.6702 12.0887 38.0884 12.259 38.4224L26.5858 24.0112Z" fill="#030303"/>
<path fill-rule="evenodd" clip-rule="evenodd" d="M12.2925 9.52685C12.2981 9.51282 12.3064 9.50158 12.3148 9.48755C12.3064 9.50158 12.3009 9.51562 12.2925 9.52685Z" fill="#030303"/>
<path fill-rule="evenodd" clip-rule="evenodd" d="M27.4146 23.1775L31.8293 18.7367L14.9965 9.1171C14.5193 8.84201 14.07 8.71289 13.6682 8.71289C13.4645 8.71289 13.2775 8.74938 13.1045 8.81394L27.4146 23.1775Z" fill="#030303"/>
<path fill-rule="evenodd" clip-rule="evenodd" d="M38.0553 22.2961L32.8955 19.3459L28.252 24.0168L32.8955 28.6765L38.0553 25.7263C39.7073 24.7859 39.7073 23.2393 38.0553 22.2961Z" fill="#030303"/>
<path fill-rule="evenodd" clip-rule="evenodd" d="M27.4259 24.8533L13.1465 39.2224C13.6572 39.3964 14.2962 39.3122 14.9966 38.9136L31.8406 29.2827L27.4259 24.8533Z" fill="#030303"/>
<path fill-rule="evenodd" clip-rule="evenodd" d="M12.2786 38.4673C12.3455 38.5908 12.4209 38.7031 12.5074 38.7985C12.4209 38.6975 12.34 38.5908 12.2786 38.4673Z" fill="#030303"/>
<path d="M66.8708 28.7297C65.3472 28.7297 64.03 29.9761 64.03 31.7978C64.03 33.5999 65.3444 34.8687 66.8708 34.8687C68.3973 34.8687 69.7117 33.6027 69.7117 31.7978C69.7117 29.9761 68.3973 28.7297 66.8708 28.7297Z" fill="#D9DEE6"/>
<path d="M80.7344 31.7978C80.7344 29.9761 79.42 28.7297 77.8936 28.7297C76.3699 28.7297 75.0527 29.9761 75.0527 31.7978C75.0527 33.5999 76.3671 34.8687 77.8936 34.8687C79.42 34.8687 80.7344 33.5999 80.7344 31.7978Z" fill="#D9DEE6"/>
<path fill-rule="evenodd" clip-rule="evenodd" d="M88.8887 34.8688C87.365 34.8688 86.0869 33.5832 86.0869 31.8204C86.0869 30.0351 87.365 28.7327 88.8915 28.7327C90.3956 28.7327 91.5788 30.0379 91.5788 31.8204C91.576 33.5832 90.3928 34.866 88.8887 34.8688Z" fill="#D9DEE6"/>
<path fill-rule="evenodd" clip-rule="evenodd" d="M117.802 28.845H114.66V23.7446H117.802C119.454 23.7446 120.392 25.1201 120.392 26.2934C120.389 27.4471 119.451 28.845 117.802 28.845Z" fill="#D9DEE6"/>
<path fill-rule="evenodd" clip-rule="evenodd" d="M100.52 31.6463C100.464 29.6898 102.027 28.6934 103.154 28.6934C104.03 28.6934 104.775 29.1369 105.021 29.7684L100.52 31.6463Z" fill="#D9DEE6"/>
<path fill-rule="evenodd" clip-rule="evenodd" d="M131.183 34.8658C130.46 34.8658 129.45 34.5009 129.45 33.6027C129.45 32.4546 130.705 32.0139 131.791 32.0139C132.759 32.0139 133.22 32.2244 133.809 32.5108C133.638 33.889 132.458 34.8658 131.183 34.8658Z" fill="#D9DEE6"/>
</svg>
