<svg width="338" height="240" viewBox="0 0 338 240" fill="none" xmlns="http://www.w3.org/2000/svg">
<g clip-path="url(#clip0_224_5571)">
<path d="M325.247 193.342C321.981 193.396 313.736 193.531 310.579 193.564L305.632 193.585H305.389V193.337L305.367 187.173V186.903H305.638L315.445 186.941C317.889 186.963 322.808 187.011 325.252 187.049H325.382V187.179L325.252 193.342H325.247ZM325.247 193.342L325.117 187.179L325.247 187.309C322.798 187.341 317.889 187.395 315.439 187.417L305.632 187.455L305.902 187.184L305.881 193.348L305.632 193.099L310.493 193.121C313.601 193.153 322.03 193.294 325.241 193.342H325.247Z" fill="#EBEBEB"/>
<path d="M314.309 201.117C311.044 201.171 302.799 201.306 299.641 201.338L294.695 201.36H294.451V201.111L294.43 194.948V194.678H294.7L304.507 194.715C306.951 194.737 311.871 194.786 314.315 194.824H314.444V194.953L314.315 201.117H314.309ZM314.309 201.117L314.179 194.953L314.309 195.083C311.86 195.116 306.951 195.17 304.502 195.191L294.695 195.229L294.965 194.959L294.943 201.122L294.695 200.873L299.555 200.895C302.664 200.927 311.092 201.068 314.304 201.117H314.309Z" fill="#EBEBEB"/>
<path d="M32.4436 193.342C29.1781 193.396 20.9332 193.531 17.7758 193.564L12.8289 193.585H12.5856V193.337L12.5586 187.173V186.903H12.8289L22.6362 186.941C25.08 186.963 29.9998 187.011 32.4436 187.049H32.5733V187.179L32.4436 193.342ZM32.4436 193.342L32.3138 187.179L32.4436 187.309C29.9944 187.341 25.0854 187.395 22.6362 187.417L12.8289 187.455L13.0992 187.184L13.0776 193.348L12.8289 193.099L17.6893 193.121C20.798 193.153 29.2267 193.294 32.4382 193.342H32.4436Z" fill="#EBEBEB"/>
<path d="M21.5008 194.948H1.8916V201.111H21.5008V194.948Z" fill="#EBEBEB"/>
<path d="M336.184 194.948H316.575V201.111H336.184V194.948Z" fill="#EBEBEB"/>
<path d="M161.382 72.086C158.117 72.1401 149.872 72.2752 146.714 72.3077L141.767 72.3293H141.524V72.0806L141.497 65.9172V65.6469H141.767L151.575 65.6848C154.018 65.7064 158.938 65.755 161.382 65.7929H161.512V65.9226L161.382 72.086ZM161.382 72.086L161.252 65.9226L161.382 66.0524C158.933 66.0848 154.024 66.1389 151.575 66.1605L141.767 66.1984L142.038 65.928L142.016 72.0914L141.767 71.8427L146.628 71.8643C149.737 71.8968 158.165 72.0374 161.377 72.086H161.382Z" fill="#EBEBEB"/>
<path d="M150.439 73.6971H130.83V79.8605H150.439V73.6971Z" fill="#EBEBEB"/>
<path d="M172.32 79.8605C169.055 79.9146 160.81 80.0497 157.652 80.0822L152.705 80.1038H152.462V79.8551L152.44 73.6917V73.4214H152.711L162.518 73.4592C164.962 73.4809 169.882 73.5295 172.325 73.5674H172.455V73.6971L172.325 79.8605H172.32ZM172.32 79.8605L172.19 73.6971L172.32 73.8269C169.871 73.8593 164.962 73.9134 162.513 73.935L152.705 73.9728L152.976 73.7025L152.954 79.8659L152.705 79.6172L157.566 79.6388C160.674 79.6713 169.103 79.8118 172.315 79.8605H172.32Z" fill="#EBEBEB"/>
<path d="M237.527 159.179H217.918V165.342H237.527V159.179Z" fill="#EBEBEB"/>
<path d="M324.923 20.6057C321.657 20.6597 313.412 20.7949 310.255 20.8273L305.308 20.849H305.065V20.6003L305.043 14.4369V14.1666H305.313L315.121 14.2044C317.564 14.226 322.484 14.2747 324.928 14.3125H325.058V14.4423L324.928 20.6057H324.923ZM324.923 20.6057L324.793 14.4423L324.923 14.572C322.473 14.6045 317.564 14.6586 315.115 14.6802L305.308 14.718L305.578 14.4477L305.557 20.6111L305.308 20.3624L310.168 20.384C313.277 20.4164 321.706 20.557 324.917 20.6057H324.923Z" fill="#EBEBEB"/>
<path d="M335.859 22.2114H316.25V28.3747H335.859V22.2114Z" fill="#EBEBEB"/>
<path d="M21.1115 20.6111C17.846 20.6652 9.60118 20.8003 6.4438 20.8328L1.49689 20.8544H1.25359V20.6057L1.22656 14.4423V14.172H1.49689L11.3042 14.2098C13.7479 14.2315 18.6678 14.2801 21.1115 14.318H21.2413V14.4477L21.1115 20.6111ZM21.1115 20.6111L20.9818 14.4477L21.1115 14.5775C18.6624 14.6099 13.7533 14.664 11.3042 14.6856L1.49689 14.7235L1.76721 14.4531L1.74558 20.6165L1.49689 20.3678L6.3573 20.3894C9.46601 20.4219 17.8947 20.5624 21.1061 20.6111H21.1115Z" fill="#EBEBEB"/>
<path d="M87.8165 23.4549H42.4238V53.0931H87.8165V23.4549Z" fill="#DBDBDB"/>
<path d="M87.8165 54.8286H42.4238V84.4669H87.8165V54.8286Z" fill="#EBEBEB"/>
<path d="M51.3287 60.527H46.917V64.9387H51.3287V60.527Z" fill="white"/>
<path d="M56.6597 60.527H52.248V64.9387H56.6597V60.527Z" fill="#C7C7C7"/>
<path d="M61.9957 60.527H57.584V64.9387H61.9957V60.527Z" fill="white"/>
<path d="M67.3267 60.527H62.915V64.9387H67.3267V60.527Z" fill="white"/>
<path d="M72.6626 60.527H68.251V64.9387H72.6626V60.527Z" fill="white"/>
<path d="M77.9937 60.527H73.582V64.9387H77.9937V60.527Z" fill="white"/>
<path d="M83.3238 60.527H78.9121V64.9387H83.3238V60.527Z" fill="white"/>
<path d="M51.3287 65.8956H46.917V70.3073H51.3287V65.8956Z" fill="white"/>
<path d="M56.6597 65.8956H52.248V70.3073H56.6597V65.8956Z" fill="white"/>
<path d="M61.9957 65.8956H57.584V70.3073H61.9957V65.8956Z" fill="white"/>
<path d="M67.3267 65.8956H62.915V70.3073H67.3267V65.8956Z" fill="white"/>
<path d="M72.6626 65.8956H68.251V70.3073H72.6626V65.8956Z" fill="#C7C7C7"/>
<path d="M77.9937 65.8956H73.582V70.3073H77.9937V65.8956Z" fill="white"/>
<path d="M83.3238 65.8956H78.9121V70.3073H83.3238V65.8956Z" fill="white"/>
<path d="M51.3287 71.2697H46.917V75.6813H51.3287V71.2697Z" fill="white"/>
<path d="M56.6597 71.2697H52.248V75.6813H56.6597V71.2697Z" fill="white"/>
<path d="M61.9957 71.2697H57.584V75.6813H61.9957V71.2697Z" fill="white"/>
<path d="M67.3267 71.2697H62.915V75.6813H67.3267V71.2697Z" fill="white"/>
<path d="M72.6626 71.2697H68.251V75.6813H72.6626V71.2697Z" fill="white"/>
<path d="M77.9937 71.2697H73.582V75.6813H77.9937V71.2697Z" fill="white"/>
<path d="M83.3238 71.2697H78.9121V75.6813H83.3238V71.2697Z" fill="white"/>
<path d="M51.3287 76.6383H46.917V81.05H51.3287V76.6383Z" fill="white"/>
<path d="M56.6597 76.6383H52.248V81.05H56.6597V76.6383Z" fill="white"/>
<path d="M61.9957 76.6383H57.584V81.05H61.9957V76.6383Z" fill="#C7C7C7"/>
<path d="M67.3267 76.6383H62.915V81.05H67.3267V76.6383Z" fill="white"/>
<path d="M72.6626 76.6383H68.251V81.05H72.6626V76.6383Z" fill="white"/>
<path d="M77.9937 76.6383H73.582V81.05H77.9937V76.6383Z" fill="white"/>
<path d="M83.3238 76.6383H78.9121V81.05H83.3238V76.6383Z" fill="white"/>
<path d="M45.9268 51.6821H44.2021V56.2397H45.9268V51.6821Z" fill="#C7C7C7"/>
<path d="M49.9385 51.6821H48.2139V56.2397H49.9385V51.6821Z" fill="#C7C7C7"/>
<path d="M53.9502 51.6821H52.2256V56.2397H53.9502V51.6821Z" fill="#C7C7C7"/>
<path d="M57.962 51.6821H56.2373V56.2397H57.962V51.6821Z" fill="#C7C7C7"/>
<path d="M61.9727 51.6821H60.248V56.2397H61.9727V51.6821Z" fill="#C7C7C7"/>
<path d="M65.9844 51.6821H64.2598V56.2397H65.9844V51.6821Z" fill="#C7C7C7"/>
<path d="M69.9961 51.6821H68.2715V56.2397H69.9961V51.6821Z" fill="#C7C7C7"/>
<path d="M74.0079 51.6821H72.2832V56.2397H74.0079V51.6821Z" fill="#C7C7C7"/>
<path d="M78.0196 51.6821H76.2949V56.2397H78.0196V51.6821Z" fill="#C7C7C7"/>
<path d="M82.0313 51.6821H80.3066V56.2397H82.0313V51.6821Z" fill="#C7C7C7"/>
<path d="M86.043 51.6821H84.3184V56.2397H86.043V51.6821Z" fill="#C7C7C7"/>
<path d="M65.8503 26.4879C65.8503 26.888 65.5259 27.2124 65.1258 27.2124C64.7258 27.2124 64.4014 26.888 64.4014 26.4879C64.4014 26.0878 64.7258 25.7634 65.1258 25.7634C65.5259 25.7634 65.8503 26.0878 65.8503 26.4879Z" fill="#263238"/>
<path d="M31 127.756V239.103H98.6403V127.756H31ZM37.1417 169.229H92.4985V198.359H37.1417V169.229ZM37.1417 133.163H92.4985V162.293H37.1417V133.163Z" fill="#DBDBDB"/>
<path d="M0.415628 239.103H31L31 127.756H0.415628L0.415628 239.103Z" fill="#EBEBEB"/>
<path d="M79.3451 162.287H92.499V133.163H79.3451V162.287Z" fill="#EBEBEB"/>
<path d="M37.1425 232.08H92.1533V204.307H37.1425V232.08Z" stroke="#EBEBEB" stroke-width="0.5" stroke-miterlimit="10"/>
<path d="M59.1849 216.114H70.1113V212.119H59.1849V216.114Z" fill="#EBEBEB"/>
<path d="M79.3451 198.359H92.499V169.235H79.3451V198.359Z" fill="#EBEBEB"/>
<path d="M53.9668 198.359V171.505H44.7109V198.359H53.9668Z" fill="#A6A6A6"/>
<path d="M53.9668 194.05V188.255H44.7109V194.05H53.9668Z" fill="#DBDBDB"/>
<path d="M53.9668 183.584V180.145H44.7109V183.584H53.9668Z" fill="#DBDBDB"/>
<path d="M52.973 162.287H76.3613V139.813H52.973V162.287Z" fill="#EBEBEB"/>
<path d="M44.0844 162.287H52.9727V139.813H44.0844V162.287Z" fill="#C7C7C7"/>
<path d="M76.3606 151.053H52.9668L71.2352 151.631L76.3606 151.053Z" fill="#C7C7C7"/>
<path d="M52.9668 159.579H76.3606L58.0921 160.157L52.9668 159.579Z" fill="#C7C7C7"/>
<path d="M76.3611 144.771H61.542L74.7121 145.246L76.3611 144.771Z" fill="#C7C7C7"/>
<path d="M52.9668 156.27H67.7859L54.6158 156.74L52.9668 156.27Z" fill="#C7C7C7"/>
<path d="M70.7485 142.273H54.0371L56.8214 142.554L70.7485 142.273Z" fill="#C7C7C7"/>
<path d="M74.0844 153.464H57.373L60.1574 153.745L74.0844 153.464Z" fill="#C7C7C7"/>
<path d="M63.8067 146.911H52.9668L51.0312 147.668L63.8067 146.911Z" fill="#EBEBEB"/>
<path d="M79.3448 146.911H68.5049L66.5693 147.668L79.3448 146.911Z" fill="#EBEBEB"/>
<path d="M65.4346 157.011H76.2745L78.21 157.768L65.4346 157.011Z" fill="#EBEBEB"/>
<path d="M52.9671 154.448H44.2681L42.3271 155.205L52.9671 154.448Z" fill="#C7C7C7"/>
<path d="M49.9343 151.053H43.1816L44.0791 150.437L49.9343 151.053Z" fill="#C7C7C7"/>
<path d="M44.717 169.705H37.1426V198.354H44.717V169.705Z" fill="#EBEBEB"/>
<path d="M40.9263 175.36C41.7968 175.36 42.505 174.652 42.505 173.782C42.505 172.911 41.7968 172.203 40.9263 172.203C40.0559 172.203 39.3477 172.911 39.3477 173.782C39.3477 174.652 40.0559 175.36 40.9263 175.36Z" fill="white"/>
<path d="M40.9263 174.685C41.4237 174.685 41.8292 174.279 41.8292 173.782C41.8292 173.284 41.4237 172.879 40.9263 172.879C40.4289 172.879 40.0234 173.284 40.0234 173.782C40.0234 174.279 40.4289 174.685 40.9263 174.685Z" fill="#A6A6A6"/>
<path d="M44.7109 193.84V186.871H37.1365V193.84H44.7109Z" fill="white"/>
<path d="M82.6157 192.445H53.9668V198.403H82.6157V192.445Z" fill="#C7C7C7"/>
<path d="M59.6222 195.418C59.6222 194.548 58.914 193.84 58.0435 193.84C57.1731 193.84 56.4648 194.548 56.4648 195.418C56.4648 196.289 57.1731 196.997 58.0435 196.997C58.914 196.997 59.6222 196.289 59.6222 195.418Z" fill="white"/>
<path d="M58.9464 195.418C58.9464 194.921 58.5409 194.515 58.0435 194.515C57.5461 194.515 57.1406 194.921 57.1406 195.418C57.1406 195.916 57.5461 196.321 58.0435 196.321C58.5409 196.321 58.9464 195.916 58.9464 195.418Z" fill="#A6A6A6"/>
<path d="M78.1017 192.445H71.1328V198.403H78.1017V192.445Z" fill="white"/>
<path d="M301.372 17.2429H232.802V93.7443H301.372V17.2429Z" fill="#DBDBDB"/>
<path d="M296.857 21.7573H237.321V89.2678H296.857V21.7573Z" fill="#EBEBEB"/>
<path d="M263.689 33.6947H242.701V58.559H263.689V33.6947Z" fill="white"/>
<path d="M253.946 35.3869C253.946 35.8032 253.611 36.1438 253.19 36.1438C252.768 36.1438 252.433 35.8086 252.433 35.3869C252.433 34.9652 252.768 34.63 253.19 34.63C253.611 34.63 253.946 34.9652 253.946 35.3869Z" fill="#455A64"/>
<path d="M246.696 38.6794C248.816 38.5172 250.94 38.5064 253.06 38.4848C255.179 38.5064 257.304 38.5172 259.423 38.6794C257.304 38.8416 255.179 38.8524 253.06 38.8741C250.94 38.8524 248.816 38.8416 246.696 38.6794Z" fill="#EBEBEB"/>
<path d="M246.696 40.642C247.848 40.4906 249.005 40.4528 250.156 40.442C251.308 40.4474 252.465 40.4852 253.617 40.642C252.465 40.7988 251.308 40.8312 250.156 40.8366C249.005 40.8312 247.848 40.7934 246.696 40.642Z" fill="#EBEBEB"/>
<path d="M246.696 42.61C248.172 42.4586 249.643 42.4207 251.119 42.4099C252.595 42.4153 254.065 42.4532 255.541 42.61C254.065 42.7667 252.595 42.7992 251.119 42.8046C249.643 42.7992 248.172 42.7613 246.696 42.61Z" fill="#EBEBEB"/>
<path d="M246.696 44.5725C248.54 44.4212 250.384 44.3833 252.227 44.3725C254.071 44.3779 255.914 44.4157 257.758 44.5725C255.914 44.7293 254.071 44.7618 252.227 44.7672C250.384 44.7618 248.54 44.7239 246.696 44.5725Z" fill="#EBEBEB"/>
<path d="M246.696 46.5405C248.297 46.3891 249.902 46.3513 251.503 46.3405C253.103 46.3459 254.709 46.3837 256.309 46.5405C254.709 46.6973 253.103 46.7297 251.503 46.7351C249.902 46.7297 248.297 46.6919 246.696 46.5405Z" fill="#EBEBEB"/>
<path d="M246.696 48.503C248.745 48.3408 250.8 48.33 252.849 48.3083C254.898 48.33 256.952 48.3408 259.001 48.503C256.952 48.6652 254.898 48.676 252.849 48.6976C250.8 48.676 248.745 48.6652 246.696 48.503Z" fill="#EBEBEB"/>
<path d="M246.696 50.471C248.021 50.3196 249.345 50.2817 250.67 50.2709C251.995 50.2763 253.319 50.3142 254.644 50.471C253.319 50.6278 251.995 50.6602 250.67 50.6656C249.345 50.6602 248.021 50.6224 246.696 50.471Z" fill="#EBEBEB"/>
<path d="M246.696 52.4335C248.816 52.2713 250.94 52.2605 253.06 52.2389C255.179 52.2605 257.304 52.2713 259.423 52.4335C257.304 52.5957 255.179 52.6065 253.06 52.6282C250.94 52.6065 248.816 52.5957 246.696 52.4335Z" fill="#EBEBEB"/>
<path d="M246.696 54.4015C248.816 54.2393 250.94 54.2285 253.06 54.2068C255.179 54.2285 257.304 54.2393 259.423 54.4015C257.304 54.5637 255.179 54.5745 253.06 54.5961C250.94 54.5745 248.816 54.5637 246.696 54.4015Z" fill="#EBEBEB"/>
<path d="M291.711 49.2004H266.879V78.6224H291.711V49.2004Z" fill="white"/>
<path d="M280.049 53.1688C280.049 53.5851 279.714 53.9257 279.292 53.9257C278.87 53.9257 278.535 53.5905 278.535 53.1688C278.535 52.7471 278.87 52.4119 279.292 52.4119C279.714 52.4119 280.049 52.7471 280.049 53.1688Z" fill="#455A64"/>
<path d="M270.355 56.5424C271.275 56.3911 272.194 56.3532 273.107 56.3424C274.026 56.3478 274.946 56.3857 275.859 56.5424C274.94 56.6992 274.021 56.7317 273.107 56.7425C272.188 56.7371 271.269 56.6992 270.355 56.5424Z" fill="#EBEBEB"/>
<path d="M270.355 58.7591C271.545 58.6077 272.734 58.5699 273.918 58.5591C275.108 58.5645 276.297 58.6023 277.481 58.7591C276.292 58.9159 275.102 58.9483 273.918 58.9592C272.729 58.9538 271.539 58.9159 270.355 58.7591Z" fill="#EBEBEB"/>
<path d="M270.355 60.9812C271.458 60.8298 272.556 60.7919 273.659 60.7811C274.762 60.7865 275.859 60.8244 276.962 60.9812C275.859 61.138 274.762 61.1704 273.659 61.1812C272.556 61.1758 271.458 61.138 270.355 60.9812Z" fill="#EBEBEB"/>
<path d="M270.355 63.1978C271.458 63.0464 272.556 63.0086 273.659 62.9977C274.762 63.0031 275.859 63.041 276.962 63.1978C275.859 63.3546 274.762 63.387 273.659 63.3978C272.556 63.3924 271.458 63.3546 270.355 63.1978Z" fill="#EBEBEB"/>
<path d="M270.355 65.4145C271.312 65.2631 272.269 65.2252 273.226 65.2144C274.183 65.2198 275.14 65.2577 276.097 65.4145C275.14 65.5712 274.183 65.6037 273.226 65.6145C272.269 65.6091 271.312 65.5712 270.355 65.4145Z" fill="#EBEBEB"/>
<path d="M270.355 67.6365C271.577 67.4851 272.805 67.4473 274.026 67.4365C275.248 67.4419 276.476 67.4797 277.697 67.6365C276.476 67.7933 275.248 67.8257 274.026 67.8365C272.805 67.8311 271.577 67.7933 270.355 67.6365Z" fill="#EBEBEB"/>
<path d="M270.355 69.8532C271.366 69.7018 272.377 69.664 273.389 69.6531C274.4 69.6585 275.411 69.6964 276.422 69.8532C275.411 70.01 274.4 70.0424 273.389 70.0532C272.377 70.0478 271.366 70.01 270.355 69.8532Z" fill="#EBEBEB"/>
<path d="M270.355 72.0698C271.621 71.9184 272.891 71.8806 274.156 71.8752C275.421 71.8806 276.692 71.9184 277.957 72.0698C276.692 72.2266 275.421 72.259 274.156 72.2699C272.891 72.2645 271.621 72.2266 270.355 72.0698Z" fill="#EBEBEB"/>
<path d="M270.355 74.2918C271.621 74.1405 272.891 74.1026 274.156 74.0918C275.421 74.0972 276.692 74.1351 277.957 74.2918C276.692 74.4486 275.421 74.4811 274.156 74.4865C272.891 74.4811 271.621 74.4432 270.355 74.2918Z" fill="#EBEBEB"/>
<path d="M281.206 56.5424C282.406 56.3911 283.612 56.3532 284.812 56.3424C286.012 56.3478 287.218 56.3857 288.418 56.5424C287.218 56.6992 286.012 56.7317 284.812 56.7425C283.612 56.7371 282.406 56.6992 281.206 56.5424Z" fill="#EBEBEB"/>
<path d="M281.206 58.7591C281.995 58.6077 282.785 58.5699 283.58 58.5591C284.369 58.5645 285.158 58.6023 285.953 58.7591C285.164 58.9159 284.374 58.9483 283.58 58.9592C282.79 58.9538 282.001 58.9159 281.206 58.7591Z" fill="#EBEBEB"/>
<path d="M281.206 60.9812C282.336 60.8298 283.471 60.7919 284.601 60.7811C285.731 60.7865 286.867 60.8244 287.997 60.9812C286.867 61.138 285.731 61.1704 284.601 61.1812C283.471 61.1758 282.336 61.138 281.206 60.9812Z" fill="#EBEBEB"/>
<path d="M281.206 63.1978C282.309 63.0464 283.406 63.0086 284.509 62.9977C285.612 63.0031 286.71 63.041 287.813 63.1978C286.71 63.3546 285.612 63.387 284.509 63.3978C283.406 63.3924 282.309 63.3546 281.206 63.1978Z" fill="#EBEBEB"/>
<path d="M281.206 65.4145C282.406 65.2631 283.612 65.2252 284.812 65.2144C286.012 65.2198 287.218 65.2577 288.418 65.4145C287.218 65.5712 286.012 65.6037 284.812 65.6145C283.612 65.6091 282.406 65.5712 281.206 65.4145Z" fill="#EBEBEB"/>
<path d="M281.206 67.6365C282.163 67.4851 283.12 67.4473 284.077 67.4365C285.034 67.4419 285.991 67.4797 286.948 67.6365C285.991 67.7933 285.034 67.8257 284.077 67.8365C283.12 67.8311 282.163 67.7933 281.206 67.6365Z" fill="#EBEBEB"/>
<path d="M281.206 69.8532C282.336 69.7018 283.471 69.664 284.601 69.6531C285.731 69.6585 286.867 69.6964 287.997 69.8532C286.867 70.01 285.731 70.0424 284.601 70.0532C283.471 70.0478 282.336 70.01 281.206 69.8532Z" fill="#EBEBEB"/>
<path d="M281.206 72.0698C282.082 71.9184 282.958 71.8806 283.834 71.8752C284.709 71.8806 285.585 71.9184 286.461 72.0698C285.585 72.2266 284.709 72.259 283.834 72.2699C282.958 72.2645 282.082 72.2266 281.206 72.0698Z" fill="#EBEBEB"/>
<path d="M281.206 74.2918C282.044 74.1405 282.887 74.1026 283.725 74.0918C284.563 74.0972 285.407 74.1351 286.245 74.2918C285.407 74.4486 284.563 74.4811 283.725 74.4865C282.887 74.4811 282.044 74.4432 281.206 74.2918Z" fill="#EBEBEB"/>
<path d="M274.383 26.861H261.759V39.4851H274.383V26.861Z" fill="#C7C7C7"/>
<path d="M268.825 28.1423C268.825 28.5586 268.49 28.8992 268.068 28.8992C267.647 28.8992 267.312 28.564 267.312 28.1423C267.312 27.7206 267.647 27.3854 268.068 27.3854C268.49 27.3854 268.825 27.7206 268.825 28.1423Z" fill="#455A64"/>
<path d="M296.798 21.7573H295.095V89.3381H296.798V21.7573Z" fill="#C7C7C7"/>
<path d="M299.102 191.92L297.745 193.294L297.696 192.791V192.785L298.567 191.92H299.102Z" fill="#DBDBDB"/>
<path d="M304.26 191.92L299.632 196.581L298.139 198.062L298.112 197.754V197.743L298.102 197.57L299.356 196.305L303.762 191.92H304.26Z" fill="#DBDBDB"/>
<path d="M309.428 191.92L302.222 199.176L298.551 202.825L298.545 202.749L298.513 202.349L301.946 198.889L308.958 191.92H309.428Z" fill="#DBDBDB"/>
<path d="M314.592 191.92L304.817 201.765L298.956 207.583L298.913 207.134L304.53 201.484L314.148 191.92H314.592Z" fill="#DBDBDB"/>
<path d="M319.733 191.92C319.035 192.639 318.332 193.353 317.63 194.067L307.401 204.361L299.356 212.357L299.323 211.93L307.125 204.074L317.408 193.856C318.057 193.207 318.711 192.564 319.37 191.926H319.733V191.92Z" fill="#DBDBDB"/>
<path d="M324.875 191.92C323.323 193.504 321.772 195.078 320.215 196.651L309.996 206.945L299.762 217.109L299.729 216.714L309.715 206.669L320.009 196.44C321.534 194.932 323.064 193.429 324.599 191.926H324.886L324.875 191.92Z" fill="#DBDBDB"/>
<path d="M329.989 191.92C327.61 194.375 325.209 196.808 322.804 199.246L312.585 209.529L302.291 219.758C301.589 220.461 300.875 221.158 300.161 221.856L300.129 221.526C300.772 220.861 301.426 220.207 302.075 219.547L312.304 209.253L322.587 199.035C324.993 196.656 327.415 194.283 329.832 191.926H329.983L329.989 191.92Z" fill="#DBDBDB"/>
<path d="M335.028 191.98V192.012C331.833 195.305 328.627 198.576 325.399 201.836L315.17 212.13L304.887 222.348C303.449 223.764 302.006 225.181 300.568 226.597L300.546 226.338C301.914 224.938 303.292 223.537 304.676 222.137L314.895 211.843L325.189 201.625C328.449 198.397 331.73 195.186 335.028 191.98Z" fill="#DBDBDB"/>
<path d="M334.557 197.554V197.57L334.541 197.743C332.357 199.981 330.173 202.214 327.983 204.425L317.765 214.709L307.471 224.938C305.314 227.073 303.146 229.209 300.962 231.328V231.306L300.945 231.15C303.043 228.998 305.146 226.857 307.26 224.716L317.478 214.433L327.772 204.204C330.027 201.982 332.287 199.76 334.557 197.548V197.554Z" fill="#DBDBDB"/>
<path d="M334.087 203.139L334.055 203.485C332.898 204.663 331.747 205.836 330.584 207.015L320.355 217.309L310.072 227.527C307.271 230.295 304.455 233.058 301.632 235.799H301.535C304.287 232.95 307.066 230.128 309.85 227.311L320.079 217.017L330.362 206.799C331.606 205.572 332.844 204.355 334.087 203.139Z" fill="#DBDBDB"/>
<path d="M333.611 208.74L333.573 209.189C333.438 209.324 333.303 209.464 333.168 209.599L322.949 219.893L312.656 230.112C310.731 232.02 308.801 233.907 306.871 235.799H306.644C308.574 233.831 310.504 231.858 312.439 229.895L322.657 219.612L332.951 209.383C333.173 209.172 333.384 208.951 333.606 208.734L333.611 208.74Z" fill="#DBDBDB"/>
<path d="M333.125 214.379L333.087 214.876L325.534 222.478L315.241 232.707C314.197 233.745 313.154 234.772 312.099 235.799H311.77C312.851 234.691 313.938 233.593 315.03 232.49L325.259 222.197L333.13 214.373L333.125 214.379Z" fill="#DBDBDB"/>
<path d="M332.655 220.012L332.606 220.558L328.119 225.073L317.836 235.291C317.663 235.459 317.495 235.632 317.322 235.799H316.911C317.149 235.561 317.387 235.318 317.625 235.08L327.843 224.786L332.655 220.007V220.012Z" fill="#DBDBDB"/>
<path d="M332.168 225.651L332.124 226.246L330.713 227.662L322.517 235.805H322.068L330.432 227.387L332.168 225.651Z" fill="#DBDBDB"/>
<path d="M331.697 231.312V231.333L331.649 231.901L327.723 235.805H327.231L331.697 231.312Z" fill="#DBDBDB"/>
<path d="M334.964 192.785L334.915 193.299L333.553 191.92H334.093L334.964 192.785Z" fill="#DBDBDB"/>
<path d="M334.558 197.57L334.515 198.062L333.023 196.581L328.39 191.92H328.898L333.304 196.305L334.558 197.57Z" fill="#DBDBDB"/>
<path d="M334.147 202.349L334.114 202.749L334.109 202.831L330.432 199.176L323.226 191.92H323.696L330.714 198.889L334.147 202.349Z" fill="#DBDBDB"/>
<path d="M333.747 207.145L333.704 207.594L327.843 201.765L318.068 191.92H318.501L328.119 201.484L333.747 207.145Z" fill="#DBDBDB"/>
<path d="M333.342 211.935L333.304 212.357L325.259 204.361L315.03 194.067C314.327 193.353 313.624 192.645 312.927 191.92H313.284C313.938 192.564 314.597 193.202 315.246 193.85L325.54 204.069L333.347 211.93L333.342 211.935Z" fill="#DBDBDB"/>
<path d="M332.931 216.714L332.898 217.109L322.664 206.945L312.446 196.651C310.888 195.078 309.337 193.504 307.785 191.92H308.072C309.596 193.423 311.132 194.926 312.662 196.435L322.956 206.664L332.941 216.709L332.931 216.714Z" fill="#DBDBDB"/>
<path d="M332.525 221.526L332.493 221.867C331.779 221.164 331.071 220.466 330.357 219.764L320.074 209.535L309.845 199.251C307.45 196.813 305.05 194.38 302.671 191.926H302.822C305.244 194.283 307.661 196.656 310.067 199.035L320.35 209.253L330.579 219.547C331.228 220.201 331.877 220.861 332.525 221.526Z" fill="#DBDBDB"/>
<path d="M332.114 226.332L332.098 226.592C330.649 225.192 329.211 223.77 327.773 222.342L317.479 212.124L307.261 201.83C304.033 198.57 300.827 195.294 297.632 192.007V191.974C300.93 195.18 304.212 198.392 307.472 201.619L317.766 211.838L327.984 222.132C329.368 223.532 330.746 224.932 332.114 226.332Z" fill="#DBDBDB"/>
<path d="M331.715 231.15L331.698 231.333C329.514 229.214 327.346 227.079 325.189 224.943L314.895 214.714L304.677 204.431C302.487 202.214 300.292 199.987 298.119 197.754L298.103 197.554C300.373 199.76 302.633 201.982 304.888 204.209L315.171 214.438L325.4 224.721C327.514 226.857 329.617 229.003 331.715 231.155V231.15Z" fill="#DBDBDB"/>
<path d="M331.125 235.805H331.027C328.205 233.058 325.388 230.301 322.588 227.533L312.305 217.314L302.076 207.021C300.913 205.842 299.756 204.669 298.605 203.49L298.572 203.144C299.816 204.361 301.054 205.582 302.292 206.804L312.586 217.023L322.804 227.316C325.588 230.133 328.373 232.955 331.125 235.805Z" fill="#DBDBDB"/>
<path d="M326.015 235.805H325.788C323.853 233.912 321.928 232.025 320.003 230.117L309.709 219.899L299.491 209.605C299.356 209.47 299.221 209.329 299.086 209.194L299.048 208.751C299.27 208.956 299.48 209.178 299.702 209.394L309.996 219.623L320.214 229.906C322.15 231.869 324.08 233.837 326.01 235.81L326.015 235.805Z" fill="#DBDBDB"/>
<path d="M320.88 235.805H320.555C319.501 234.777 318.452 233.75 317.409 232.712L307.126 222.483L299.573 214.887L299.535 214.379L307.407 222.202L317.636 232.496C318.717 233.593 319.809 234.696 320.885 235.805H320.88Z" fill="#DBDBDB"/>
<path d="M315.749 235.805H315.338C315.165 235.637 314.997 235.464 314.824 235.296L304.53 225.078L300.054 220.569L300.005 220.018L304.817 224.797L315.035 235.091C315.273 235.329 315.511 235.572 315.749 235.81V235.805Z" fill="#DBDBDB"/>
<path d="M310.592 235.805H310.143L301.947 227.662L300.535 226.246V226.241L300.481 225.662L302.222 227.387L310.592 235.805Z" fill="#DBDBDB"/>
<path d="M305.422 235.805H304.936L301.011 231.901L300.962 231.312L305.422 235.805Z" fill="#DBDBDB"/>
<path d="M298.014 191.986L297.228 192.058L301.221 235.852L302.007 235.781L298.014 191.986Z" fill="#DBDBDB"/>
<path d="M334.723 191.952L330.691 235.743L331.477 235.816L335.509 192.025L334.723 191.952Z" fill="#DBDBDB"/>
<path d="M337.277 187.13H295.317V194.234H337.277V187.13Z" fill="#DBDBDB"/>
<path d="M332.946 231.998H299.643V239.102H332.946V231.998Z" fill="#DBDBDB"/>
<path d="M180.365 197.116C180.365 197.116 168.925 194.521 162.654 188.747C156.382 182.967 152.879 172.619 152.879 172.619C152.879 172.619 159.615 173.852 165.708 175.987C166.73 177.085 168.682 179.34 169.59 181.475C169.59 181.475 169.785 179.221 169.623 177.55C171.255 178.301 172.672 179.134 173.699 180.021C178.9 184.568 180.365 197.111 180.365 197.111V197.116Z" fill="#3A5985"/>
<path d="M160.026 177.653C158.469 176.571 156.88 175.533 155.328 174.441C155.236 174.376 155.323 174.23 155.42 174.29C158.367 176.052 161.275 177.934 164.087 179.902C165.065 180.588 166.028 181.302 166.979 182.032C166.914 181.918 166.849 181.805 166.779 181.691C166.438 181.118 166.076 180.551 165.714 179.988C164.984 178.858 164.195 177.745 163.286 176.744C163.254 176.707 163.308 176.653 163.341 176.69C164.233 177.718 165.119 178.734 165.936 179.826C166.325 180.345 166.682 180.88 167.022 181.432C167.201 181.718 167.374 182.005 167.536 182.297C167.59 182.394 167.649 182.492 167.709 182.594C169.19 183.757 170.628 184.968 172.002 186.249C172.851 187.038 173.667 187.86 174.456 188.704C174.013 187.319 173.629 185.919 173.115 184.557C173.099 184.508 173.175 184.492 173.191 184.541C173.688 185.968 174.235 187.406 174.618 188.877C175.494 189.823 176.332 190.807 177.122 191.823C177.111 191.764 177.095 191.699 177.078 191.639C176.949 191.099 176.813 190.563 176.667 190.028C176.386 188.995 176.084 187.963 175.738 186.952C175.024 184.87 174.094 182.838 172.667 181.145C172.634 181.107 172.688 181.053 172.721 181.091C174.954 183.735 176.267 186.909 177.1 190.239C177.224 190.726 177.338 191.218 177.451 191.704C177.511 191.964 177.581 192.229 177.624 192.493C177.97 192.958 178.311 193.434 178.635 193.915C180.62 196.873 182.171 200.1 183.474 203.409C184.945 207.134 186.086 210.978 187.14 214.838C187.161 214.914 187.048 214.941 187.021 214.865C184.783 208.172 182.501 201.382 178.668 195.397C177.857 194.132 176.986 192.915 176.057 191.742C174.175 191.634 172.277 191.228 170.493 190.634C168.52 189.979 166.66 189.066 164.919 187.941C163.914 187.292 162.995 186.536 162.059 185.784C162.016 185.752 162.059 185.687 162.108 185.725C163.654 187.033 165.514 188.06 167.352 188.898C169.196 189.742 171.142 190.401 173.121 190.834C173.964 191.017 174.824 191.153 175.678 191.272C174.618 189.969 173.494 188.725 172.304 187.536C171.921 187.152 171.521 186.779 171.12 186.411C169.807 185.454 168.352 184.692 166.893 183.989C165.017 183.081 163.173 182.124 161.319 181.178C160.27 180.648 159.232 180.102 158.177 179.583C158.134 179.561 158.177 179.496 158.221 179.518C160.102 180.426 162.011 181.275 163.908 182.145C165.692 182.962 167.503 183.784 169.217 184.746C169.293 184.789 169.358 184.833 169.434 184.876C167.882 183.524 166.282 182.243 164.638 180.999C163.119 179.853 161.583 178.734 160.021 177.653H160.026Z" fill="#263238"/>
<path d="M160.676 183.551C161.606 183.957 162.552 184.319 163.476 184.751C164.422 185.195 165.32 185.714 166.217 186.244C166.255 186.265 166.217 186.325 166.179 186.303C165.266 185.865 164.341 185.46 163.438 185.005C162.514 184.541 161.6 184.043 160.649 183.627C160.605 183.605 160.627 183.53 160.67 183.551H160.676Z" fill="#263238"/>
<path d="M217.529 139.467C217.529 139.467 214.317 143.143 214.112 148.966C214.074 149.993 214.236 151.42 214.355 153.102C210.09 155.378 206.889 159.482 206.889 159.482C209.311 158.027 212.636 157.438 214.431 157.676C214.371 158.784 214.242 159.93 213.993 161.093C213.198 161.049 211.668 161.152 209.143 162.05C209.143 162.05 211.625 161.985 213.517 162.92C211.479 169.408 205.418 176.074 188.68 178.902C188.68 178.902 185.452 167.537 191.643 155.346C196.66 145.479 217.529 139.456 217.529 139.456V139.467Z" fill="#3A5985"/>
<path d="M182.885 206.669C183.177 203.896 183.539 201.133 183.966 198.381C184.82 192.872 185.934 187.39 187.34 181.994C188.005 179.448 188.799 176.955 189.756 174.528C189.691 174.09 189.702 173.63 189.697 173.187C189.686 172.652 189.681 172.116 189.691 171.581C189.702 170.511 189.756 169.44 189.843 168.37C190.021 166.261 190.346 164.147 190.87 162.093C191.178 160.898 191.53 159.725 191.881 158.546C191.897 158.498 191.967 158.519 191.957 158.568C191.367 160.606 191.027 162.731 190.719 164.834C190.416 166.915 190.232 169.013 190.156 171.116C190.135 171.689 190.124 172.268 190.124 172.841C190.124 173.084 190.135 173.333 190.145 173.582C190.967 171.592 191.897 169.64 192.968 167.743C194.654 164.742 196.595 161.893 198.698 159.173C198.677 158.865 198.774 158.535 198.834 158.238C198.915 157.865 198.996 157.492 199.077 157.119C199.25 156.357 199.439 155.594 199.65 154.837C200.066 153.318 200.618 151.853 201.088 150.355C201.104 150.307 201.175 150.328 201.164 150.377C200.721 151.858 200.429 153.394 200.088 154.902C199.92 155.648 199.758 156.394 199.591 157.141C199.509 157.514 199.428 157.887 199.353 158.26C199.347 158.287 199.342 158.314 199.336 158.341C200.012 157.487 200.704 156.643 201.407 155.816C204.602 152.069 208.106 148.609 211.636 145.176C212.069 144.754 212.512 144.343 212.955 143.927C212.993 143.895 213.042 143.949 213.009 143.981C209.641 147.495 206.322 151.053 203.175 154.778C202.429 155.665 201.694 156.557 200.969 157.465C201.348 157.205 201.732 156.957 202.11 156.708C203.083 156.07 204.073 155.448 205.084 154.881C206.1 154.313 207.122 153.756 208.165 153.237C209.241 152.707 210.387 152.275 211.42 151.669C211.463 151.642 211.501 151.718 211.458 151.739C210.387 152.177 209.392 152.842 208.403 153.432C207.387 154.037 206.365 154.643 205.365 155.281C204.381 155.902 203.391 156.519 202.413 157.157C201.596 157.687 200.796 158.265 199.953 158.752C198.023 161.255 196.206 163.845 194.59 166.559C193.568 168.267 192.649 170.024 191.816 171.814C192.016 171.727 192.216 171.641 192.416 171.554C192.924 171.327 193.438 171.1 193.946 170.873C194.93 170.435 195.92 170.008 196.909 169.581C198.785 168.764 200.693 168.013 202.532 167.121C203.564 166.618 204.581 166.088 205.538 165.45C205.581 165.423 205.613 165.488 205.576 165.521C202.142 167.889 198.298 169.554 194.498 171.235L192.849 171.965C192.395 172.165 191.94 172.387 191.475 172.565C190.356 175.074 189.41 177.658 188.642 180.323C187.118 185.638 185.955 191.071 184.999 196.516C184.036 201.982 183.393 207.486 182.885 213.011C182.82 213.703 182.76 214.39 182.679 215.076C182.647 215.352 182.241 215.352 182.241 215.065C182.274 212.259 182.56 209.448 182.852 206.658L182.885 206.669Z" fill="#263238"/>
<path d="M193.065 160.444C193.373 158.741 193.827 157.076 194.281 155.41C194.292 155.362 194.368 155.383 194.357 155.432C193.935 157.065 193.632 158.735 193.324 160.395C193.011 162.087 192.735 163.785 192.497 165.488C192.497 165.515 192.448 165.515 192.448 165.488C192.556 163.796 192.762 162.114 193.065 160.444Z" fill="#263238"/>
<path d="M200.283 165.061C201.418 164.255 202.689 163.65 203.922 163.012C204.533 162.698 205.149 162.396 205.765 162.098C206.403 161.79 207.063 161.531 207.695 161.217C207.739 161.195 207.776 161.26 207.733 161.287C207.122 161.595 206.538 161.968 205.938 162.293C205.316 162.633 204.7 162.974 204.078 163.309C202.857 163.969 201.651 164.693 200.364 165.229C200.251 165.277 200.175 165.137 200.272 165.066L200.283 165.061Z" fill="#263238"/>
<path opacity="0.1" d="M180.16 177.301C180.16 177.301 169.574 174.771 164.714 167.672C160.07 160.893 158.572 149.328 158.453 148.312C158.642 149.242 160.827 159.346 168.033 164.055C173.548 167.662 178.884 170.624 180.16 177.301Z" fill="#263238"/>
<path d="M170.386 159.011C172.246 160.806 173.646 162.915 174.289 165.439C174.295 165.461 174.262 165.472 174.257 165.45C173.462 163.098 172.148 160.785 170.337 159.071C170.299 159.038 170.353 158.979 170.391 159.011H170.386Z" fill="#263238"/>
<path d="M180.16 177.301C180.16 177.301 169.574 174.771 164.714 167.672C160.07 160.893 158.572 149.328 158.453 148.312C158.442 148.263 158.442 148.242 158.442 148.242C158.442 148.242 163.519 155.459 168.855 157.297C174.191 159.136 181.69 165.504 180.16 177.301Z" fill="#3A5985"/>
<path d="M160.313 152.221C161.297 154.145 162.324 156.059 163.584 157.816C164.811 159.53 166.292 160.99 167.936 162.298C169.374 163.439 170.893 164.477 172.348 165.596C172.337 165.58 172.326 165.558 172.315 165.542C172.039 165.137 171.748 164.742 171.45 164.358C170.845 163.585 170.18 162.855 169.515 162.131C168.201 160.703 166.855 159.303 165.676 157.757C165.022 156.903 164.449 155.989 163.978 155.021C163.957 154.978 164.032 154.951 164.054 154.994C165.773 158.573 169.201 160.86 171.645 163.882C171.991 164.315 172.321 164.758 172.623 165.218C172.834 165.548 173.094 165.91 173.234 166.294C174.564 167.386 175.797 168.575 176.846 169.943C176.759 169.246 176.608 168.554 176.419 167.889C176.154 166.942 175.813 166.05 175.294 165.207C175.267 165.164 175.332 165.12 175.359 165.164C175.856 166.002 176.305 166.899 176.592 167.829C176.824 168.586 176.938 169.338 176.976 170.116H176.981C177.511 170.83 177.976 171.581 178.414 172.349C178.37 172.122 178.327 171.895 178.284 171.673C178.073 170.619 177.841 169.565 177.57 168.527C177.013 166.418 176.267 164.374 175.024 162.563C174.997 162.52 175.062 162.477 175.089 162.52C176.316 164.304 177.24 166.299 177.911 168.354C178.246 169.392 178.516 170.451 178.754 171.516C178.868 172.035 178.976 172.56 179.073 173.084C179.127 173.355 179.181 173.63 179.23 173.911C180.311 176.198 181.074 178.653 181.674 181.086C182.755 185.47 183.425 189.985 183.934 194.472C184.464 199.181 184.739 203.944 184.664 208.686C184.653 209.28 184.62 209.875 184.588 210.47C184.577 210.621 184.35 210.643 184.345 210.486C184.242 208.14 184.182 205.788 184.042 203.441C183.901 201.09 183.701 198.749 183.447 196.408C182.955 191.818 182.241 187.233 181.241 182.724C180.382 178.853 179.268 174.96 177.154 171.565C176.094 169.867 174.824 168.359 173.337 167.024C171.85 165.694 170.228 164.526 168.666 163.288C167.109 162.06 165.611 160.725 164.379 159.168C163.049 157.487 162 155.6 161.01 153.702C160.762 153.221 160.502 152.745 160.253 152.269C160.232 152.226 160.297 152.183 160.318 152.226L160.313 152.221Z" fill="#263238"/>
<path d="M162.14 153.772C162.821 155.205 163.638 156.567 164.497 157.897C164.519 157.93 164.47 157.962 164.449 157.93C163.524 156.627 162.756 155.232 162.064 153.799C162.043 153.756 162.118 153.729 162.14 153.772Z" fill="#263238"/>
<path d="M219.006 172.619C219.006 172.619 219.174 187.66 210.177 192.007C201.181 196.354 196.358 192.731 190.249 194.186C190.249 194.186 190.254 194.186 190.26 194.18C190.498 193.823 194.861 187.552 201.797 185.827C208.934 184.049 216.843 178.891 219.006 172.625V172.619Z" fill="#3A5985"/>
<path opacity="0.1" d="M219.006 172.619C219.006 172.619 219.174 187.66 210.177 192.007C201.181 196.354 196.358 192.731 190.249 194.186C190.249 194.186 190.254 194.186 190.26 194.18C190.514 194.056 194.974 191.823 200.489 191.163C206.16 190.482 216.995 186.784 219.006 172.619Z" fill="black"/>
<path d="M189.654 194.456C190.724 193.488 191.93 192.656 193.233 192.034C193.428 191.942 193.622 191.866 193.822 191.785C193.92 191.666 194.017 191.553 194.125 191.439C194.395 191.158 194.677 190.888 194.974 190.634C195.542 190.147 196.142 189.704 196.785 189.331C198.277 188.455 199.91 187.844 201.429 187.027C201.472 187.006 201.51 187.071 201.467 187.098C200.716 187.487 199.986 187.92 199.25 188.347C198.537 188.763 197.807 189.158 197.115 189.606C196.493 190.006 195.893 190.455 195.336 190.942C195.179 191.082 195.028 191.228 194.877 191.385C195.866 191.044 196.888 190.785 197.915 190.58C199.564 190.244 201.229 190.012 202.873 189.66C203.678 189.487 204.478 189.271 205.257 189.017C206.003 188.417 206.749 187.817 207.457 187.168C208.312 186.379 209.096 185.524 209.782 184.589C209.809 184.551 209.88 184.589 209.847 184.632C208.739 186.065 207.549 187.509 206.16 188.703C206.549 188.557 206.933 188.401 207.311 188.228C210.366 186.838 213.086 184.632 214.978 181.853C215.005 181.81 215.075 181.853 215.043 181.897C213.394 184.281 211.307 186.319 208.841 187.849C207.603 188.617 206.3 189.244 204.922 189.704C203.338 190.234 201.694 190.547 200.056 190.855C198.45 191.158 196.839 191.461 195.287 191.991C193.855 192.477 192.503 193.185 191.292 194.094C188.978 195.829 187.189 198.203 185.902 200.776C184.199 204.193 183.388 208.01 182.934 211.773C182.912 211.935 182.663 211.935 182.674 211.767C183.096 205.442 184.788 198.862 189.659 194.472L189.654 194.456Z" fill="#263238"/>
<path d="M200.093 189.547C200.542 188.828 201.218 188.293 201.942 187.871C202.791 187.379 203.553 186.849 204.143 186.049C204.175 186.011 204.24 186.049 204.208 186.092C203.667 186.79 203.013 187.363 202.267 187.833C201.483 188.325 200.688 188.806 200.153 189.585C200.131 189.617 200.072 189.585 200.099 189.552L200.093 189.547Z" fill="#263238"/>
<path d="M195.32 205.555L194.914 213.827L193.66 239.103H174.786L173.531 213.827L173.126 205.555H195.32Z" fill="#37474F"/>
<path d="M195.32 205.555L195.028 211.459L173.456 212.243L173.126 205.555H195.32Z" fill="#263238"/>
<path d="M196.644 202.106H171.802V210H196.644V202.106Z" fill="#37474F"/>
<path d="M270.642 154.621L268.837 165.445L256.612 239.065H254.645L263.533 165.445L264.847 154.621H270.642Z" fill="#455A64"/>
<path opacity="0.1" d="M264.847 154.621H270.643L268.837 165.445H263.533L264.847 154.621Z" fill="black"/>
<path d="M309.033 239.065H307.06L294.836 165.445L293.03 154.621H298.831L300.145 165.445L309.033 239.065Z" fill="#455A64"/>
<path opacity="0.1" d="M298.831 154.621L300.145 165.445H294.836L293.03 154.621H298.831Z" fill="black"/>
<path d="M332.557 239.065H330.583L318.359 165.445L316.554 154.621H322.355L323.669 165.445L332.557 239.065Z" fill="#455A64"/>
<path opacity="0.1" d="M323.669 165.445H318.359L316.554 154.621H322.355L323.669 165.445Z" fill="black"/>
<path d="M329.432 159.703H252.995V150.269H286.531L297.798 84.6939H326.015L329.432 159.703Z" fill="#455A64"/>
<path opacity="0.1" d="M329.432 159.703H324.55L321.365 84.6939H326.015L329.432 159.703Z" fill="black"/>
<path d="M196.914 216.936C198.444 217.833 245.616 227.689 247.648 226.933C248.422 226.646 250.26 219.861 252.244 211.6C252.671 209.816 253.104 207.972 253.536 206.096C256.331 193.921 259.013 180.934 259.013 180.934L227.482 174.247L222.871 199.592L221.854 205.155C221.854 205.155 202.11 209.459 199.963 210.529C197.828 211.605 195.379 216.038 196.914 216.936Z" fill="#EB9481"/>
<path d="M251.482 214.752C249.8 221.526 248.324 226.684 247.649 226.932C245.616 227.695 198.444 217.828 196.914 216.931C195.384 216.033 197.833 211.605 199.964 210.524C201.288 209.864 209.311 207.972 215.264 206.62C210.063 207.864 200.364 211.389 220.427 212.838C237.014 214.043 247.962 214.59 251.482 214.746V214.752Z" fill="#263238"/>
<path d="M239.485 239.535C241.193 240.011 289.316 237.524 291.09 236.269C291.765 235.799 290.63 225.24 290.127 223.38C288.419 217.087 279.574 189.368 279.574 189.368L247.378 190.936L260.603 221.786C260.603 221.786 242.604 230.977 240.804 232.561C239.015 234.145 237.776 239.059 239.485 239.535Z" fill="#EB9481"/>
<path d="M291.089 236.269C289.316 237.529 241.199 240.011 239.479 239.54C237.771 239.059 239.004 234.15 240.798 232.566C241.642 231.825 245.989 229.447 250.4 227.106C244.87 230.22 236.111 237.162 290.592 224.781C291.089 230.29 291.457 236.015 291.095 236.264L291.089 236.269Z" fill="#263238"/>
<path d="M314.138 145.884C304.546 156.567 272.319 148.128 270.394 152.383C268.696 156.129 290.69 216.352 290.69 216.352L255.499 220.147C255.499 220.147 225.12 153.642 235.982 134.428C241.848 124.047 267.691 128.189 283.288 126.286C287.992 125.713 290.203 116.013 290.203 116.013H318.073C318.073 116.013 325.107 133.676 314.143 145.89L314.138 145.884Z" fill="#263238"/>
<path d="M245.762 128.47L275.313 151.085C285.126 150.88 306.606 154.275 314.137 145.884C325.102 133.671 318.073 116.013 318.073 116.013H290.203C290.203 116.013 287.992 125.713 283.288 126.286C272.34 127.616 256.358 125.978 245.762 128.47Z" fill="#37474F"/>
<path d="M254.153 212.292C255.126 211.989 264.247 210.973 266.263 210.751C270.291 210.318 282.975 209.129 285.272 209.134C285.332 209.134 285.343 209.232 285.283 209.243C283.288 209.659 275.195 210.605 273.184 210.81C269.15 211.227 255.294 212.568 254.174 212.459C254.077 212.449 254.061 212.319 254.158 212.286L254.153 212.292Z" fill="#37474F"/>
<path d="M266.128 148.852C268.394 147.728 285.543 148.285 297.848 147.133C301.86 146.76 305.882 145.9 308.942 143.273C311.699 140.905 313.473 137.629 314.419 134.25C315.603 130.043 315.479 125.659 315.279 121.35C315.23 120.29 315.154 119.23 315.089 118.171C315.089 118.111 315.197 118.095 315.203 118.16C316.138 125.875 316.857 134.493 311.835 141.181C309.629 144.122 306.526 146.1 302.865 147.063C295.442 149.015 267.534 148.533 266.55 149.285C265.377 150.182 283.418 205.107 283.775 206.155C283.84 206.35 283.499 206.485 283.413 206.291C281.634 202.074 264.155 149.826 266.123 148.847L266.128 148.852Z" fill="#37474F"/>
<path d="M234.716 136.282C236.376 132.071 240.161 129.449 245.729 128.443C245.821 128.427 245.816 128.562 245.729 128.589C240.869 130.011 237.398 131.963 235.49 136.066C234.597 137.98 234.138 140.672 233.905 144.278C232.754 162.26 248.443 203.085 248.762 203.798C248.789 203.863 248.703 203.912 248.665 203.852C246.454 200.127 227.872 153.675 234.722 136.288L234.716 136.282Z" fill="#37474F"/>
<path d="M221.995 197.976L248.644 203.641C248.644 203.641 227.623 140.899 237.495 132.806C240.231 130.562 246.2 129.778 253.288 132.838C263.874 137.412 276.13 146.733 287.684 150.145C298.502 153.34 311.348 150.399 315.77 145.533C325.059 135.309 318.073 115.992 318.073 115.992L285.51 115.684C285.51 115.684 286.083 116.149 284.256 117.771C284.256 117.771 255.975 114.073 246.189 120.052C228.537 130.838 222.006 197.97 222.006 197.97L221.995 197.976Z" fill="#263238"/>
<path d="M301.514 118.241C301.541 118.165 301.643 118.187 301.649 118.263C301.703 119.712 301.638 121.133 301.978 122.561C302.303 123.918 302.919 125.134 303.909 126.129C306.012 128.254 309.023 128.978 311.775 129.843C311.921 129.886 311.894 130.146 311.732 130.119C308.677 129.649 305.46 128.875 303.227 126.583C302.2 125.529 301.514 124.183 301.249 122.739C300.984 121.29 301.027 119.641 301.508 118.241H301.514Z" fill="#37474F"/>
<path d="M238.149 131.611C242.247 129.038 248.648 130.995 251.714 132.168C251.779 132.195 251.746 132.298 251.681 132.271C248.859 131.254 241.842 129.719 238.09 132.379C229.418 138.521 241.025 180.529 248.632 203.647C248.751 204.009 248.465 203.912 248.302 203.566C247.048 200.825 237.241 171.614 234.678 152.285C234.283 149.312 232.234 135.32 238.138 131.611H238.149Z" fill="#37474F"/>
<path d="M225.033 190.893C225.839 190.871 232.743 192.396 234.268 192.737C237.311 193.423 244.361 195.251 246.01 195.878C246.054 195.894 246.027 195.986 245.978 195.981C244.399 195.829 240.723 195.024 239.204 194.672C236.165 193.964 225.747 191.466 224.985 191.061C224.92 191.023 224.952 190.898 225.033 190.893Z" fill="#37474F"/>
<path d="M239.458 130.519C242.215 129.011 245.497 128.767 248.557 129.14C251.801 129.54 254.888 130.692 257.856 132.049C264.09 134.898 270.026 138.38 276.27 141.218C282.477 144.035 289.1 146.241 295.939 146.452C301.783 146.63 309.185 145.603 312.942 140.343C318.733 132.238 315.359 118.273 315.294 117.371C315.294 117.3 315.381 117.306 315.402 117.371C319.895 134.541 314.116 141.208 310.212 144.014C307.114 146.241 302.665 146.803 299.724 147.052C292.922 147.625 286.099 145.96 279.795 143.451C273.335 140.878 267.274 137.412 261.078 134.244C255.142 131.206 248.524 128.075 241.745 129.816C240.977 130.011 240.22 130.281 239.49 130.589C239.452 130.606 239.431 130.541 239.463 130.524L239.458 130.519Z" fill="#37474F"/>
<path d="M307.034 92.7225L304.569 92.6143C304.498 91.9223 304.341 91.2573 304.098 90.668C303.114 88.2459 301.141 86.3158 299.6 84.3641C299.6 84.3533 299.584 84.3641 299.589 84.3803C301.022 86.2888 302.384 88.6568 303.147 91.0519C303.309 91.5601 303.395 92.0683 303.433 92.5657L301.898 92.5008C301.811 90.987 301.444 89.5327 300.681 88.2135C300.66 88.1756 300.6 88.2243 300.616 88.2675C301.233 89.5921 301.373 91.0194 301.341 92.4792L288.003 91.9007C287.798 90.6788 287.673 89.4245 287.668 88.1432C287.668 87.9972 287.468 88.0188 287.473 88.1594C287.473 89.4191 287.522 90.6626 287.662 91.8899L286.549 91.8358C286.408 89.7381 286.451 87.6458 286.852 85.3805C286.868 85.3102 286.765 85.2886 286.754 85.3589C286.3 87.4349 285.986 89.6408 285.981 91.8088L276.747 91.4141C277.331 90.0517 277.752 88.5919 278.098 87.1917C278.131 87.0727 277.963 87.0349 277.931 87.1538C277.515 88.7055 276.898 90.0625 276.212 91.3817L274.844 91.3276C275.93 88.9325 276.752 86.4347 276.974 83.8288C276.979 83.7207 276.823 83.7099 276.806 83.818C276.433 86.6294 275.055 88.9542 273.692 91.2681L270.216 91.1222C271.454 88.9542 273.573 86.9862 273.903 84.4289C274.26 81.5581 271.719 80.1849 270.978 77.7682C269.735 73.7187 271.767 70.7182 274.303 67.95C276.633 65.3928 276.428 62.4625 277.033 59.2024C277.471 56.8019 278.169 54.1419 279.428 52.055C283.299 45.6051 290.068 46.5188 290.074 46.6107C291.712 46.654 293.193 47.1243 294.491 47.984C294.496 47.984 294.507 47.984 294.512 47.9948C294.604 48.0488 294.685 48.1137 294.777 48.184C296.172 49.1842 297.351 50.6494 298.27 52.5362L298.281 52.5578C298.546 53.0931 298.784 53.6662 299.005 54.2717C299.384 55.3314 299.449 56.7965 299.757 58.4833C299.757 58.5158 299.762 58.5536 299.773 58.5806C300.227 60.9541 301.195 63.7168 304.266 66.2092C307.926 69.1611 306.877 73.9134 303.849 78.6711C302.568 80.6877 302.514 81.9906 303.006 83.1044C303.006 83.1044 303.006 83.1098 303.006 83.1206C303.076 83.272 303.147 83.4017 303.228 83.5477C303.941 84.775 305.239 85.8454 306.126 87.5268C306.947 89.0731 307.126 90.8843 307.045 92.7062L307.034 92.7225Z" fill="#263238"/>
<path d="M284.424 47.5893C281.623 49.0707 279.466 51.5576 278.428 54.8069C277.633 57.2885 277.547 59.9863 276.498 62.3868C275.508 64.6521 273.767 66.3605 272.373 68.3177C270.524 70.902 269.345 74.0756 270.87 77.0383C271.816 78.8765 273.913 80.7039 273.805 83.0395C273.676 85.7697 271.308 88.3973 270.037 90.6518C269.978 90.7599 270.129 90.8789 270.199 90.7761C271.929 88.2297 274.951 84.8831 273.93 81.5365C273.459 80.001 272.443 78.8333 271.637 77.5303C270.069 74.9947 270.399 72.2806 271.94 69.6855C274.027 66.1659 276.795 63.906 277.72 59.6727C278.249 57.2506 278.476 54.7637 279.698 52.5686C280.855 50.4872 282.521 48.8544 284.494 47.7623C284.575 47.7136 284.51 47.5569 284.424 47.6055V47.5893Z" fill="#263238"/>
<path d="M305.033 86.8781C304.027 85.4454 302.784 84.3965 303.33 82.2231C303.708 80.7147 304.73 79.4226 305.433 78.0818C307.185 74.7406 308.185 70.5398 306.471 67.1121C305.503 65.182 303.854 64.7116 302.459 63.3005C300.772 61.5921 300.151 58.9483 299.605 56.5154C298.788 52.866 297.756 48.7139 294.068 47.8867C294.036 47.8813 294.025 47.9353 294.058 47.9461C298.756 49.3086 298.729 55.4773 300.08 59.743C300.54 61.192 301.194 62.5868 302.211 63.6141C303.822 65.2468 305.773 65.7875 306.606 68.3231C307.385 70.6965 307.049 73.3349 306.184 75.7192C305.433 77.7898 304.043 79.5199 303.33 81.5798C302.903 82.8124 302.8 84.0884 303.395 85.2075C303.865 86.0833 304.66 86.6672 305.157 87.5161C305.828 88.6568 306.087 89.9868 306.049 91.3763C306.049 91.5168 306.238 91.4952 306.244 91.3546C306.309 89.6678 305.946 88.1648 305.033 86.8727V86.8781Z" fill="#263238"/>
<path d="M294.155 78.4061C292.565 85.0074 282.396 113.51 267.593 116.008C262.57 116.857 254.001 99.1345 259.051 77.3302C259.202 76.6869 273.902 76.8491 274.616 80.4444C274.692 80.8282 274.356 90.8194 273.94 90.6572C273.427 90.4517 280.26 83.1151 288.889 76.0597C292.971 72.7239 295.101 74.4702 294.155 78.4115V78.4061Z" fill="#EB9481"/>
<path d="M294.155 78.4061C292.566 85.0074 282.396 113.51 267.593 116.008C262.571 116.857 254.088 100.481 257.51 81.1202L275.281 83.6396C275.357 84.0234 274.762 89.2731 274.762 89.2731C274.762 89.2731 280.261 83.1151 288.889 76.0597C292.971 72.7239 295.101 74.4702 294.155 78.4115V78.4061Z" fill="#3A5985"/>
<path d="M274.741 89.3218C274.422 94.4309 273.995 99.5346 273.438 104.622C273.281 106.039 273.141 107.46 272.989 108.877C272.989 108.926 273.065 108.931 273.076 108.888C273.627 106.385 274.027 103.854 274.314 101.308C274.595 98.7885 274.827 96.2313 274.86 93.6956C274.882 92.2359 274.876 90.7761 274.838 89.3218C274.838 89.2569 274.746 89.2623 274.741 89.3218Z" fill="#263238"/>
<path d="M258.575 80.147C258.575 80.147 259.235 73.1402 262.03 68.6204C263.96 65.4955 266.544 60.6026 277.509 60.8297C280.109 60.8838 285.153 63.8357 284.04 65.6631C282.98 67.404 278.622 64.1114 274.984 64.717C274.984 64.717 279.309 67.5121 279.158 70.1126C279.087 71.275 278.822 74.4486 278.266 76.8869C278.266 76.8869 277.703 76.9085 276.984 76.8328C276.984 76.8328 276.763 79.2658 273.881 81.6176L258.575 80.1416V80.147Z" fill="#EB9481"/>
<path d="M264.35 65.9334C266.188 65.3657 270.107 64.225 273.638 64.4088C277.558 64.6142 285.056 66.0632 284.878 68.9556C284.748 71.075 281.834 70.7776 281.834 70.7776C281.834 70.7776 284.808 72.0319 284.267 73.9188C283.775 75.6434 281.537 75.2704 281.537 75.2704C281.537 75.2704 283.207 76.3409 282.418 77.9087C281.466 79.7956 277.039 76.795 274.422 77.8709C273.833 78.1142 264.35 65.9334 264.35 65.9334Z" fill="#EB9481"/>
<path d="M272.729 68.5177C274.546 68.269 278.822 68.7556 281.796 70.7019C281.861 70.7452 281.866 70.8209 281.796 70.7938C278.065 69.3449 274.329 68.7232 272.729 68.5556C272.707 68.5556 272.713 68.5231 272.729 68.5177Z" fill="#263238"/>
<path d="M273.34 64.106C275.157 63.8573 279.434 64.3439 282.407 66.2903C282.472 66.3335 282.477 66.4092 282.407 66.3822C278.677 64.9332 274.941 64.3115 273.34 64.1439C273.319 64.1439 273.324 64.1114 273.34 64.106Z" fill="#263238"/>
<path d="M272.637 72.4807C274.227 72.4266 278.611 73.1294 281.558 75.2055C281.623 75.2542 281.623 75.3245 281.558 75.2974C277.725 73.6268 274.227 72.7834 272.637 72.5185C272.616 72.5185 272.621 72.4807 272.637 72.4807Z" fill="#263238"/>
<path d="M276.941 77.6709C276.671 77.4708 274.433 77.0059 272.362 77.6925C272.313 77.7087 272.324 77.7844 272.378 77.7844C273.67 77.7141 274.741 77.7087 274.762 77.7087C273.741 80.0119 271.221 81.5581 270.113 82.1096C270.043 82.142 270.097 82.2501 270.167 82.2285C272.33 81.6392 274.433 79.9578 274.93 77.7141C275.222 77.7303 276.747 77.7898 276.925 77.7303C276.952 77.7195 276.963 77.6817 276.941 77.6655V77.6709Z" fill="#263238"/>
<path opacity="0.1" d="M294.155 78.4061C292.566 85.0074 282.396 113.51 267.593 116.008C266.788 116.143 265.89 115.835 264.966 115.138L293.35 74.4756C294.318 74.9568 294.637 76.3949 294.155 78.4061Z" fill="black"/>
<path d="M281.277 118.484L282.412 104.687C282.412 104.687 278.309 100.259 280.563 94.7229C281.704 91.9169 287.073 80.0227 291.381 75.1947C294.998 71.1399 300.481 73.7891 302.659 76.4707C308.915 84.1695 312.213 93.6794 319.409 116.911L281.277 118.49V118.484Z" fill="#3A5985"/>
<path d="M292.522 102.205C290.97 102.341 289.403 102.557 287.862 103.038C287.094 103.276 286.337 103.568 285.58 103.887C285.202 104.044 284.823 104.184 284.445 104.319C284.056 104.46 283.639 104.584 283.239 104.579C283.201 104.579 283.196 104.66 283.234 104.665C283.618 104.709 283.985 104.746 284.369 104.709C284.737 104.676 285.11 104.579 285.472 104.471C286.251 104.238 287.024 103.952 287.802 103.708C289.37 103.216 290.938 102.724 292.522 102.4C292.592 102.384 292.592 102.2 292.522 102.205Z" fill="#263238"/>
<path d="M296.166 104.541C294.917 104.26 293.642 104.065 292.371 104C291.733 103.968 291.095 103.995 290.452 104.044C290.144 104.065 289.841 104.098 289.533 104.141C289.197 104.184 288.857 104.292 288.522 104.33C288.489 104.33 288.478 104.417 288.516 104.417C288.835 104.4 289.154 104.46 289.468 104.471C289.787 104.482 290.106 104.487 290.425 104.498C291.063 104.519 291.701 104.546 292.339 104.557C293.614 104.579 294.89 104.617 296.161 104.709C296.231 104.709 296.237 104.563 296.172 104.546L296.166 104.541Z" fill="#263238"/>
<path d="M304.216 80.0498C311.023 94.5229 315.948 121.247 311.85 124.95C307.287 129.076 297.842 108.823 298.209 107.963C298.485 107.315 298.572 92.3224 298.155 80.958C297.739 69.6045 302.535 76.4707 304.221 80.0498H304.216Z" fill="#DD6A57"/>
<path d="M298.101 107.947C298.166 106.32 297.923 86.2996 297.923 79.8659C297.923 74.0918 299.615 72.3185 302.762 77.0059C308.552 85.6346 315.315 108.585 314.926 118.895C314.548 128.821 308.898 126.875 304.275 120.609C300.491 115.478 298.107 107.947 298.107 107.947H298.101Z" fill="#3A5985"/>
<path d="M298.177 110.602C297.62 102.935 297.436 95.204 297.615 87.5161C298.171 95.1824 298.355 102.919 298.177 110.602Z" fill="#263238"/>
<path d="M297.647 91.9872C297.22 91.0573 296.944 90.0571 296.944 89.0353C297.312 89.9922 297.577 90.96 297.647 91.9872Z" fill="#263238"/>
<path d="M310.699 124.761C306.709 126.643 300.394 123.826 283.829 118.225C281.536 117.452 282.655 99.7995 285.142 100.502C288.278 101.389 300.264 105.498 301.102 105.909C308.174 109.38 313.407 123.485 310.699 124.761Z" fill="#EB9481"/>
<path d="M287.873 101.276C287.873 101.276 282.299 98.5182 278.692 97.4099C273.865 95.9231 269.085 96.6314 267.096 97.0422C262.949 97.9127 253.531 102.876 254.488 105.839C255.353 108.52 264.728 102.957 264.728 102.957C264.728 102.957 254.234 107.05 255.872 110.088C257.51 113.126 268.02 106.049 268.02 106.049C268.02 106.049 257.332 110.499 259.516 113.364C261.165 115.532 271.048 109.656 271.048 109.656C271.048 109.656 261.889 113.543 263.49 115.846C265.257 118.387 274.719 113.537 274.719 113.537C279.774 118.701 284.267 119.587 287.516 119.484L290.917 120.658L289.062 101.735L287.867 101.276H287.873Z" fill="#EB9481"/>
<path d="M268.269 101.313C267.02 101.751 265.749 102.184 264.544 102.73C263.338 103.276 262.149 103.865 260.997 104.519C258.175 106.13 256.661 107.579 256.764 107.498C259.207 105.622 263.5 103.6 264.706 103.054C265.911 102.508 267.085 101.903 268.29 101.357C268.323 101.34 268.296 101.303 268.269 101.313Z" fill="#263238"/>
<path d="M270.323 105.633C268.749 106.26 267.165 106.823 265.624 107.52C264.089 108.212 262.689 109.007 261.202 109.801C261.088 109.861 261.159 109.904 261.278 109.845C262.791 109.109 264.251 108.542 265.776 107.823C267.295 107.109 268.798 106.325 270.339 105.666C270.361 105.655 270.344 105.622 270.323 105.628V105.633Z" fill="#263238"/>
<path d="M272.751 109.028C270.302 109.861 268.004 111.148 265.787 112.461C265.679 112.526 265.776 112.57 265.89 112.51C268.182 111.326 269.977 110.38 272.783 109.115C272.826 109.093 272.805 109.012 272.756 109.028H272.751Z" fill="#263238"/>
<path d="M289.121 99.0967L291.987 124.583C291.987 124.583 309.309 127.837 312.623 125.356C314.991 123.583 309.282 109.747 301.648 105.52L289.127 99.0967H289.121Z" fill="#3A5985"/>
<path d="M308.877 113.7C308.369 112.056 306.023 108.012 301.649 105.503C301.611 105.482 301.568 105.536 301.605 105.563C304.682 107.747 308.196 112.186 308.818 113.727C308.834 113.764 308.893 113.737 308.883 113.7H308.877Z" fill="#263238"/>
<path d="M296.804 122.182C296.674 119.706 296.41 117.241 296.145 114.775C295.874 112.31 295.609 109.839 295.28 107.379C295.09 105.99 294.912 104.6 294.679 103.216C294.674 103.179 294.609 103.184 294.615 103.216C294.744 105.687 294.998 108.158 295.247 110.618C295.501 113.089 295.777 115.554 296.08 118.019C296.253 119.409 296.447 120.798 296.68 122.182C296.691 122.253 296.81 122.247 296.804 122.177V122.182Z" fill="#263238"/>
<path d="M288.959 98.7291C289.873 99.0372 299.848 104.022 302.638 106.131C302.67 106.152 302.4 106.185 302.367 106.158C301.091 105.082 290.116 99.7996 289.289 99.2643C289.284 99.34 289.467 101.719 289.451 101.795C289.44 101.843 289.365 101.865 289.343 101.805C289.294 101.665 288.84 98.6804 288.959 98.7183V98.7291Z" fill="#263238"/>
<path d="M291.987 124.583C297.518 125.556 303.146 126.491 308.774 126.134C313.386 125.799 314.153 124.161 314.526 119.82C314.921 110.834 312.829 101.832 310.401 93.2198C311.904 97.4855 313.045 101.876 313.899 106.325C314.618 110.499 317.084 124.031 312.185 125.897C310.007 126.735 307.671 126.707 305.389 126.632C300.853 126.394 296.377 125.621 291.981 124.588L291.987 124.583Z" fill="#263238"/>
<path d="M298.496 74.4811C298.534 75.2542 293.409 80.9634 290.062 81.7528C288.97 82.0069 290.327 76.0868 290.327 76.0868L290.105 75.6813L287.002 69.9829L292.846 63.3492L293.706 62.4463C293.706 62.4463 294.452 64.0628 295.36 66.0848C295.404 66.1768 295.447 66.2741 295.49 66.3714C295.544 66.4849 295.598 66.593 295.642 66.6958C295.782 66.9985 295.923 67.3013 296.058 67.6095C296.161 67.8419 296.263 68.0744 296.361 68.3231C296.469 68.5718 296.566 68.8151 296.669 69.0638C297.664 71.5346 298.474 74.1621 298.496 74.4865V74.4811Z" fill="#EB9481"/>
<path d="M295.36 66.0794C295.004 71.4264 291.695 74.5081 290.105 75.6813L287.002 69.9829L292.846 63.3492L293.706 62.4463C293.706 62.4463 294.452 64.0628 295.36 66.0848V66.0794Z" fill="#263238"/>
<path d="M275.795 61.2353C276.109 72.6213 282.964 73.7188 285.419 73.6485C287.646 73.5836 295.231 73.0862 296.096 61.7272C296.962 50.3683 291.571 46.9135 286.462 46.7892C281.358 46.6648 275.482 49.8438 275.795 61.2298V61.2353Z" fill="#EB9481"/>
<path d="M276.936 59.3646C277.201 59.3213 277.438 59.2348 277.698 59.1645C277.99 59.0834 278.228 59.051 278.433 58.8131C278.541 58.6833 278.52 58.4401 278.406 58.3211C278.141 58.0454 277.757 58.0562 277.406 58.1373C277.022 58.2238 276.746 58.3914 276.509 58.705C276.276 59.0077 276.584 59.4294 276.936 59.37V59.3646Z" fill="#263238"/>
<path d="M284.759 59.2835C284.488 59.2672 284.245 59.2024 283.98 59.1591C283.683 59.1105 283.439 59.0996 283.212 58.8834C283.088 58.7644 283.088 58.5211 283.191 58.3914C283.429 58.0886 283.807 58.0616 284.169 58.1103C284.559 58.1589 284.851 58.2995 285.121 58.586C285.386 58.8618 285.115 59.3159 284.759 59.2889V59.2835Z" fill="#263238"/>
<path d="M283.093 61.7326C283.093 61.7002 283.153 61.765 283.153 61.7975C283.153 62.5706 283.272 63.4627 283.98 63.7006C284.002 63.706 284.002 63.7492 283.975 63.7438C283.115 63.6465 282.958 62.4625 283.088 61.7272L283.093 61.7326Z" fill="#263238"/>
<path d="M283.764 60.9054C285.007 60.7756 285.17 63.2788 284.018 63.3924C282.883 63.5059 282.72 61.0081 283.764 60.9054Z" fill="#263238"/>
<path d="M284.262 61.0081C284.489 61.1379 284.721 61.3704 284.986 61.3812C285.294 61.392 285.505 61.1163 285.689 60.8514C285.711 60.8243 285.732 60.846 285.732 60.8784C285.77 61.3542 285.619 61.8624 285.11 61.9651C284.645 62.0624 284.283 61.6569 284.132 61.1866C284.105 61.1001 284.175 60.9595 284.262 61.0136V61.0081Z" fill="#263238"/>
<path d="M278.779 61.8515C278.773 61.8245 278.719 61.8948 278.725 61.9218C278.806 62.6949 278.768 63.5924 278.087 63.9006C278.065 63.9114 278.07 63.9492 278.097 63.9438C278.941 63.76 278.979 62.5706 278.779 61.8515Z" fill="#263238"/>
<path d="M278.027 61.0946C276.778 61.0946 276.859 63.5924 278.022 63.5978C279.163 63.5978 279.076 61.1 278.027 61.0946Z" fill="#263238"/>
<path d="M277.514 61.2785C277.319 61.419 277.136 61.6677 276.898 61.6893C276.622 61.7164 276.411 61.4515 276.227 61.1974C276.206 61.1703 276.189 61.1974 276.189 61.2244C276.189 61.7056 276.368 62.1975 276.827 62.2732C277.249 62.3435 277.541 61.9218 277.644 61.4406C277.66 61.3541 277.59 61.219 277.514 61.273V61.2785Z" fill="#263238"/>
<path d="M284.223 67.7122C284.088 67.9338 283.969 68.2204 283.704 68.3123C283.45 68.3988 283.11 68.3609 282.85 68.3285C282.823 68.3285 282.807 68.3555 282.828 68.3772C283.099 68.615 283.553 68.6907 283.888 68.5393C284.212 68.3934 284.304 68.0582 284.31 67.723C284.31 67.6743 284.25 67.6743 284.229 67.7068L284.223 67.7122Z" fill="#263238"/>
<path d="M280.504 65.582C280.504 65.582 280.569 66.7498 280.671 67.2851C280.682 67.3337 280.817 67.3337 281.001 67.3067C281.012 67.3067 281.017 67.3067 281.023 67.3067C282.001 67.2688 282.888 66.7552 283.315 65.8686C283.342 65.8091 283.261 65.7658 283.223 65.8091C282.618 66.4687 281.861 66.7552 281.028 66.9336C280.963 66.7931 280.985 64.9278 280.898 64.9386C280.601 64.9711 280.06 65.2847 279.736 65.4523C279.531 63.0248 279.714 60.581 279.471 58.1698C279.46 58.0833 279.336 58.0833 279.325 58.1643C278.952 60.7108 279.125 63.5113 279.277 66.0199C279.293 66.3335 280.32 65.7172 280.515 65.582H280.504Z" fill="#263238"/>
<path d="M295.945 63.2032C293.296 62.3544 292.842 59.7539 292.842 59.7539C289.565 58.8348 287.57 56.6397 287.365 56.4127C287.473 56.6343 288.235 58.2455 288.657 59.0564C281.31 58.6563 278.374 53.4607 278.374 53.4607C276.352 56.0829 276.082 57.6291 275.844 58.4131C275.844 58.4131 275.217 54.023 277.093 50.7791C279.391 46.8108 283.256 47 283.256 47C283.256 47 288.609 44.6103 293.55 48.7517C298.87 53.2174 295.945 63.2032 295.945 63.2032Z" fill="#263238"/>
<path d="M283.05 58.5807C284.278 59.0727 285.602 59.343 286.905 59.4511C286.916 59.4511 286.916 59.4349 286.905 59.4349C284.808 59.1267 282.856 58.305 281.228 56.9425C280.536 56.364 279.926 55.7099 279.396 54.9854C278.844 54.2231 278.287 53.304 278.087 52.3741C278.071 52.3038 277.963 52.3254 277.979 52.3957C278.19 53.3743 278.396 54.2771 278.92 55.1476C279.412 55.9748 280.066 56.7209 280.823 57.3102C281.499 57.84 282.256 58.2563 283.056 58.5807" fill="#263238"/>
<path d="M294.982 66.1172C294.804 66.2091 294.636 66.274 294.474 66.3119C294.285 66.3713 294.107 66.3876 293.944 66.3876C293.685 66.3876 293.458 66.3389 293.269 66.2524C293.09 66.1821 292.933 66.0794 292.804 65.9713C292.468 65.6955 292.301 65.3874 292.301 65.3874L292.582 62.2949C292.582 62.2949 294.653 58.4779 296.35 59.1807C298.059 59.8782 296.788 65.2089 294.988 66.128L294.982 66.1172Z" fill="#EB9481"/>
<path d="M295.945 60.6891C295.977 60.6837 295.988 60.727 295.961 60.7378C294.701 61.4244 294.15 62.7274 293.809 64.0519C294.145 63.5167 294.647 63.1923 295.356 63.5816C295.393 63.6032 295.366 63.6573 295.329 63.6573C294.777 63.6032 294.393 63.7438 294.08 64.2141C293.858 64.5493 293.723 64.9602 293.577 65.3333C293.528 65.4576 293.307 65.4198 293.339 65.2792C293.339 65.2684 293.339 65.2576 293.344 65.2468C293.117 63.5708 294.155 61.0622 295.945 60.6891Z" fill="#263238"/>
<path d="M294.771 65.6577C294.744 65.9496 294.49 66.1659 294.198 66.1389C293.906 66.1118 293.69 65.8577 293.717 65.5658C293.744 65.2738 293.998 65.063 294.29 65.0846C294.582 65.1116 294.798 65.3657 294.771 65.6577Z" fill="white"/>
<path d="M295.755 64.744C295.739 64.9495 295.555 65.1008 295.35 65.0846C295.144 65.0684 294.993 64.8846 295.009 64.6791C295.025 64.4737 295.209 64.3223 295.414 64.3385C295.62 64.3548 295.771 64.5386 295.755 64.744Z" fill="white"/>
<path d="M275.779 60.5324C275.903 65.3171 277.563 70.8858 282.293 72.9457C282.931 73.2646 283.618 73.4484 284.305 73.6485C278.038 72.9456 275.233 66.1768 275.779 60.5324Z" fill="#263238"/>
<path d="M67.0459 154.621L68.8517 165.445L81.0757 239.065H83.049L74.1554 165.445L72.8416 154.621H67.0459Z" fill="#455A64"/>
<path opacity="0.1" d="M72.8416 154.621H67.0459L68.8517 165.445H74.1554L72.8416 154.621Z" fill="black"/>
<path d="M28.6543 239.065H30.6277L42.8517 165.445L44.6574 154.621H38.8617L37.5479 165.445L28.6543 239.065Z" fill="#455A64"/>
<path opacity="0.1" d="M38.8616 154.621L37.5479 165.445H42.8516L44.6574 154.621H38.8616Z" fill="black"/>
<path d="M5.13086 239.065H7.10422L19.3282 165.445L21.134 154.621H15.3383L14.0245 165.445L5.13086 239.065Z" fill="#455A64"/>
<path opacity="0.1" d="M14.0244 165.445H19.3282L21.1339 154.621H15.3382L14.0244 165.445Z" fill="black"/>
<path d="M8.26074 159.703H84.6919V150.269H51.161L39.8886 84.6939H11.6722L8.26074 159.703Z" fill="#455A64"/>
<path opacity="0.1" d="M8.26074 159.703H13.1428L16.3218 84.6939H11.6722L8.26074 159.703Z" fill="black"/>
<path d="M96.4679 238.448C94.7595 238.665 47.8314 228.949 46.3176 227.479C46.1338 227.316 46.9231 223.056 48.0963 217.239L48.1179 217.125C48.8478 213.438 61.5422 183.421 61.5422 183.421L91.9968 190.947L79.0916 218.834C79.0916 218.834 84.8981 222.77 89.8883 226.522C89.8883 226.527 89.8991 226.532 89.8991 226.538C92.9808 228.841 95.6407 230.912 96.2084 231.593C97.6898 233.366 98.1656 238.254 96.4625 238.454L96.4679 238.448Z" fill="#AD6359"/>
<path d="M96.4678 238.443C94.7648 238.659 47.8366 228.944 46.3174 227.479C46.1336 227.311 46.9284 223.056 48.1016 217.233L48.1232 217.125C48.3935 215.752 50.3344 210.713 52.6538 204.934C57.6656 206.123 75.6259 210.405 82.1569 212.216L79.1022 218.823C79.1022 218.823 84.9088 222.759 89.8989 226.511C89.8989 226.516 89.9043 226.516 89.9043 226.522C92.986 228.825 95.646 230.901 96.2137 231.577C97.6951 233.355 98.1762 238.243 96.4678 238.438V238.443Z" fill="#EBEBEB"/>
<path d="M96.6298 238.665C94.8727 238.87 47.9122 229.03 46.3551 227.522C45.7604 226.954 46.5768 219.564 48.8961 211.692L79.1669 218.071C79.1669 218.071 94.8781 229.766 96.4027 231.604C97.922 233.437 98.3815 238.459 96.6298 238.665Z" fill="#3A5985"/>
<path d="M96.3484 236.643C88.5145 234.799 56.7515 228.106 48.8689 226.878C48.804 226.868 48.7932 226.911 48.858 226.927C56.5785 228.922 88.3955 235.361 96.3214 236.772C96.489 236.805 96.516 236.68 96.3484 236.643Z" fill="#263238"/>
<path d="M81.4695 219.38C78.3283 218.677 74.4411 219.023 71.9433 221.191C71.846 221.277 71.9649 221.413 72.073 221.38C75.2304 220.51 78.1661 219.98 81.4424 219.78C81.6749 219.764 81.6965 219.428 81.4695 219.38Z" fill="#263238"/>
<path d="M83.7029 220.834C80.5617 220.131 76.6745 220.477 74.1767 222.645C74.0793 222.732 74.1983 222.867 74.3064 222.834C77.4638 221.964 80.3995 221.434 83.6758 221.234C83.9083 221.218 83.9299 220.883 83.7029 220.834Z" fill="#263238"/>
<path d="M85.9353 222.294C82.7941 221.591 78.9069 221.937 76.4091 224.105C76.3118 224.191 76.4307 224.327 76.5388 224.294C79.6962 223.424 82.6319 222.894 85.9082 222.694C86.1407 222.678 86.1623 222.342 85.9353 222.294Z" fill="#263238"/>
<path d="M88.1736 223.754C85.0324 223.051 81.1452 223.397 78.6474 225.565C78.5501 225.651 78.669 225.786 78.7771 225.754C81.9345 224.883 84.8702 224.354 88.1465 224.154C88.379 224.137 88.4006 223.802 88.1736 223.754Z" fill="#263238"/>
<path opacity="0.1" d="M96.6303 238.665C96.0842 238.724 91.1481 237.821 84.5576 236.486L88.7963 225.365C92.3754 228.127 95.7382 230.804 96.4086 231.609C97.9224 233.436 98.3874 238.459 96.6303 238.67V238.665Z" fill="black"/>
<path d="M80.3072 219.574L47.982 211.94C47.982 211.94 75.1224 152.188 72.7544 149.042C71.5704 147.468 41.4726 147.003 31.8978 138.883C19.4629 128.335 27.8051 112.213 27.8051 112.213L61.4171 111.213C61.4171 111.213 61.0116 118.241 62.3253 119.301C63.1904 120.009 103.241 123.377 107.637 136.893C113.033 153.464 80.3072 219.569 80.3072 219.569V219.574Z" fill="#263238"/>
<path d="M78.5017 146.257C77.8259 145.679 76.8095 145.609 75.9661 145.468C71.1165 144.657 66.2615 143.835 61.4119 143.024C56.8704 142.262 52.3074 141.586 47.7876 140.71C44.0463 139.986 40.2401 139.013 37.0017 136.98C33.7632 134.947 31.5195 131.892 30.3896 128.324C29.2596 124.756 29.1785 120.923 29.5353 117.23C29.6219 116.327 29.7895 115.424 29.9571 114.532C29.9679 114.462 29.8597 114.44 29.8489 114.511C28.6162 121.404 28.5081 129.405 33.6713 134.898C36.1853 137.575 39.6454 139.148 43.1704 140.17C47.1496 141.321 51.3126 141.862 55.3945 142.548C60.2441 143.359 65.0991 144.176 69.9541 144.981C72.2897 145.371 74.6577 145.673 76.9771 146.16C77.4204 146.252 77.9232 146.382 78.2422 146.717C78.6801 147.182 78.5612 147.841 78.4476 148.398C78.2152 149.544 77.907 150.674 77.5772 151.794C74.928 160.844 55.881 203.296 55.3566 204.29C55.3026 204.393 55.4647 204.474 55.5242 204.371C59.9737 196.435 74.1008 163.812 77.0365 155.248C77.788 153.064 78.4801 150.847 78.945 148.587C79.1126 147.771 79.2099 146.852 78.5017 146.246V146.257Z" fill="#37474F"/>
<path d="M81.7998 211.735C80.9186 211.324 72.4304 209.302 70.5598 208.864C66.8131 207.983 54.9891 205.404 52.8212 205.155C52.7617 205.15 52.7455 205.242 52.7995 205.263C54.6323 205.901 62.1581 207.734 64.0288 208.167C67.7863 209.026 80.6969 211.897 81.7674 211.913C81.8593 211.913 81.8917 211.784 81.8052 211.746L81.7998 211.735Z" fill="#37474F"/>
<path d="M143.892 239.173C142.265 239.724 94.3421 239.546 92.5633 238.41C92.3525 238.286 92.2768 233.956 92.266 228.019V227.9C92.2498 224.143 91.0928 192.028 91.0928 192.028L121.088 191.78L122.958 223.402C122.958 223.402 129.43 226.1 135.069 228.787C135.074 228.792 135.085 228.792 135.085 228.803C138.562 230.447 141.584 231.95 142.276 232.501C144.082 233.945 145.52 238.638 143.892 239.173Z" fill="#AD6359"/>
<path d="M143.892 239.167C142.26 239.713 94.3368 239.54 92.5635 238.405C92.3527 238.286 92.277 233.95 92.2661 228.019V227.9C92.2661 227.641 92.2661 227.37 92.2553 227.106C92.2553 226.911 92.2553 226.722 92.2445 226.527C92.2445 226.246 92.2337 225.959 92.2229 225.667C92.158 223.17 92.0337 219.115 91.8877 214.676L122.44 214.476L122.964 223.397C122.964 223.397 129.436 226.1 135.075 228.782C135.08 228.787 135.091 228.787 135.091 228.792C138.567 230.436 141.589 231.939 142.281 232.49C144.082 233.939 145.531 238.627 143.898 239.162L143.892 239.167Z" fill="#EBEBEB"/>
<path d="M144.092 239.351C142.411 239.903 94.4287 239.611 92.6067 238.443C91.9147 238.005 91.2389 230.604 91.9471 222.424L122.883 222.651C122.883 222.651 140.605 230.982 142.471 232.48C144.325 233.977 145.774 238.805 144.098 239.357L144.092 239.351Z" fill="#3A5985"/>
<path d="M143.417 237.427C135.378 237.178 102.912 236.945 94.9481 237.313C94.8832 237.313 94.8832 237.362 94.9481 237.362C102.912 237.778 135.378 237.751 143.417 237.556C143.585 237.556 143.585 237.432 143.417 237.427Z" fill="#263238"/>
<path d="M125.398 223.472C122.181 223.408 118.44 224.521 116.423 227.143C116.347 227.246 116.488 227.354 116.585 227.306C119.505 225.824 122.278 224.721 125.452 223.867C125.673 223.808 125.63 223.478 125.398 223.472Z" fill="#263238"/>
<path d="M127.879 224.456C124.662 224.392 120.921 225.505 118.904 228.127C118.829 228.23 118.969 228.338 119.067 228.29C121.986 226.808 124.76 225.705 127.933 224.857C128.155 224.797 128.112 224.462 127.879 224.462V224.456Z" fill="#263238"/>
<path d="M130.355 225.44C127.138 225.376 123.397 226.489 121.38 229.111C121.304 229.214 121.445 229.322 121.542 229.274C124.462 227.792 127.235 226.689 130.409 225.84C130.63 225.781 130.587 225.446 130.355 225.446V225.44Z" fill="#263238"/>
<path d="M132.836 226.424C129.619 226.36 125.878 227.473 123.861 230.095C123.786 230.198 123.926 230.306 124.024 230.258C126.943 228.776 129.717 227.673 132.89 226.819C133.112 226.76 133.069 226.43 132.836 226.424Z" fill="#263238"/>
<path d="M125.959 222.424L90.8118 222.11C90.8118 222.11 91.2335 166.472 88.5789 163.082C85.0431 158.562 35.5902 158.665 24.9773 143.922C15.4511 130.681 23.4905 111.942 23.4905 111.942L60.9465 110.829C60.9465 110.829 59.7787 116.776 57.4755 122.626C57.4755 122.626 102.592 130.952 115.233 144.792C123.764 154.135 125.954 222.424 125.954 222.424H125.959Z" fill="#263238"/>
<path d="M64.0614 120.058C62.9801 120.247 61.9097 120.685 60.8878 121.074C59.812 121.485 58.7523 121.95 57.7196 122.453C55.6706 123.453 53.7189 124.594 51.7942 125.805C51.7347 125.843 51.7942 125.924 51.8536 125.897C53.8811 124.842 55.9734 123.896 58.0711 122.993C59.0821 122.561 60.0877 122.123 61.0987 121.69C62.1151 121.252 63.1964 120.879 64.1587 120.339C64.2831 120.268 64.2182 120.031 64.0668 120.058H64.0614Z" fill="#37474F"/>
<path d="M61.8171 110.813C61.39 112.521 61.0115 114.246 60.5249 115.938C60.3033 116.716 60.0816 117.506 59.7842 118.263C59.5356 118.901 59.1625 119.625 58.4218 119.766C57.573 119.928 57.3297 119.203 57.4 118.501C57.4757 117.717 57.6757 116.933 57.8325 116.165C58.0109 115.278 58.1893 114.392 58.3515 113.5C58.4326 113.056 58.5137 112.607 58.5894 112.164C58.611 112.051 58.6921 111.196 58.7516 110.953C58.757 110.975 58.7732 110.991 58.8003 110.991H58.8273C58.8273 110.991 58.876 110.969 58.8814 110.942C58.8922 110.877 58.8868 110.861 58.8381 110.813C58.8165 110.791 58.7841 110.791 58.7624 110.807C58.6002 110.894 58.5894 111.121 58.5354 111.283C58.3948 111.715 58.2542 112.148 58.1299 112.586C57.892 113.402 57.6649 114.219 57.4541 115.046C57.2486 115.868 57.0432 116.695 56.8431 117.517C56.6917 118.133 56.5133 118.782 56.6755 119.414C56.8594 120.106 57.4108 120.452 58.0163 120.506C57.9893 120.56 57.9515 120.614 57.9244 120.674C57.8487 120.842 57.7947 121.02 57.7298 121.193C57.6649 121.371 57.6054 121.544 57.5568 121.728C57.5352 121.815 57.5189 121.901 57.5081 121.993C57.4973 122.09 57.5189 122.188 57.5081 122.29C57.4865 122.442 57.6974 122.539 57.773 122.388C57.8163 122.301 57.8812 122.231 57.9352 122.15C57.9893 122.063 58.0271 121.961 58.0596 121.863C58.1191 121.69 58.1677 121.523 58.211 121.344C58.2542 121.171 58.3083 120.998 58.3407 120.825C58.3623 120.723 58.3623 120.614 58.3732 120.512C58.7192 120.479 59.0652 120.355 59.3571 120.139C59.8653 119.755 60.1627 119.166 60.379 118.576C60.6385 117.863 60.8385 117.127 61.0385 116.397C61.5359 114.592 61.9576 112.753 62.1307 110.888C62.1469 110.688 61.8711 110.618 61.8225 110.823L61.8171 110.813Z" fill="#37474F"/>
<path d="M39.5423 114.997C39.3855 115.846 39.2882 116.7 39.0936 117.544C38.9044 118.365 38.6773 119.187 38.407 119.993C38.1475 120.76 37.8285 121.528 37.3635 122.199C36.9148 122.842 36.3201 123.404 35.7037 123.891C34.4981 124.848 33.1357 125.61 31.6867 126.129C30.9569 126.389 30.2108 126.616 29.4539 126.783C29.0592 126.87 28.6591 126.94 28.259 126.994C27.9238 127.037 27.594 127.048 27.2967 127.216C27.1669 127.286 27.1886 127.486 27.3129 127.551C27.8265 127.8 28.5456 127.664 29.0862 127.605C29.7242 127.54 30.3622 127.432 30.9839 127.27C32.2382 126.951 33.4547 126.421 34.5684 125.756C35.6605 125.107 36.758 124.296 37.5636 123.301C38.4016 122.274 38.8665 121.069 39.1639 119.787C39.5207 118.257 39.7694 116.592 39.6883 115.013C39.6883 114.921 39.5423 114.905 39.5261 115.003L39.5423 114.997Z" fill="#37474F"/>
<path d="M93.9155 165.337C93.8236 164.326 93.629 163.309 93.256 162.358C92.4774 160.363 90.8176 159.357 88.8118 158.849C86.4438 158.249 84.0001 157.892 81.5888 157.503C79.1289 157.103 76.6581 156.746 74.1928 156.405C69.1918 155.708 64.18 155.064 59.2006 154.226C54.2429 153.394 49.3068 152.367 44.495 150.912C40.0726 149.577 35.5311 147.923 31.9899 144.852C24.3668 138.245 24.091 127.173 25.021 117.906C25.1507 116.597 25.3129 115.295 25.4697 113.986C25.4805 113.916 25.3724 113.894 25.367 113.965C24.7614 119.182 24.064 124.431 24.583 129.687C25.0047 133.979 26.2644 138.294 28.7514 141.862C31.3303 145.565 35.1527 147.955 39.2778 149.626C43.7868 151.448 48.5553 152.675 53.3076 153.67C63.1906 155.74 73.2737 156.616 83.2216 158.319C84.4488 158.53 85.6707 158.752 86.8925 158.99C88.0117 159.206 89.1579 159.411 90.2067 159.876C92.4666 160.887 93.11 163.082 93.3695 165.358C94.3156 173.663 95.7213 211.459 95.7105 212.784C95.7105 212.903 95.8889 212.892 95.8943 212.773C96.1646 198.797 94.8617 176.009 93.9155 165.331V165.337Z" fill="#37474F"/>
<path d="M90.7099 182.086C90.6612 178.431 90.5531 180.037 90.472 176.388C90.3963 172.944 90.472 169.435 89.8016 166.034C89.5312 164.661 89.2825 162.85 87.812 162.217C87.0551 161.893 86.2171 161.72 85.4223 161.509C84.5573 161.282 83.6869 161.06 82.811 160.871C78.7724 160.001 74.6905 159.455 70.5978 158.903C70.5221 158.892 70.4897 159 70.5708 159.017C74.0309 159.682 77.491 160.363 80.9242 161.141C82.6434 161.531 84.3573 161.941 86.0549 162.406C86.7523 162.596 87.6985 162.731 88.1904 163.309C88.6986 163.909 88.85 164.883 89.023 165.618C89.8124 168.954 89.7529 172.435 89.8448 175.836C89.9367 179.367 90.0232 177.636 90.126 181.167C90.2395 185.124 90.3422 189.098 90.6179 193.05C90.6234 193.153 90.7855 193.153 90.7855 193.05C90.8612 189.396 90.7639 185.741 90.7099 182.086Z" fill="#37474F"/>
<path d="M122.618 215.255C121.667 215.049 112.946 214.919 111.022 214.898C107.172 214.855 95.0671 214.909 92.8991 215.141C92.8396 215.146 92.8396 215.244 92.8991 215.249C94.8292 215.471 102.571 215.622 104.491 215.633C108.345 215.655 121.57 215.644 122.618 215.428C122.71 215.406 122.71 215.276 122.618 215.255Z" fill="#37474F"/>
<path d="M57.7078 122.723C64.6065 123.48 71.4673 125.031 78.1389 126.918C84.8699 128.821 91.4766 131.189 97.8562 134.055C101.441 135.666 104.906 137.466 108.35 139.359C108.42 139.396 108.35 139.494 108.285 139.461C102.111 136.245 95.6504 133.471 89.114 131.092C82.5992 128.719 75.9276 126.767 69.1479 125.296C65.331 124.464 61.487 123.82 57.6376 123.177C57.3834 123.134 57.4537 122.696 57.7078 122.723Z" fill="#37474F"/>
<path d="M19.4739 123.01C19.582 123.128 63.5041 119.912 63.5041 119.912L63.1905 117.1C63.1905 117.1 65.2828 114.911 63.6663 109.11C60.2494 96.8314 53.4265 72.3347 51.1287 69.6423C48.3336 66.3714 43.4786 65.3604 39.9049 67.4635C32.4061 71.8752 21.3175 103.735 18.3872 111.267C16.9437 114.981 19.6901 117.338 20.1281 119.084C20.1281 119.084 19.3333 122.864 19.4685 123.015L19.4739 123.01Z" fill="#3A5985"/>
<path d="M61.3743 116.911C43.1004 117.679 23.2425 119.09 21.6476 119.171C21.5719 119.171 21.5719 119.295 21.6476 119.29C40.8081 119.025 59.7956 117.306 61.3743 117.084C61.4824 117.068 61.4878 116.906 61.3743 116.911Z" fill="#263238"/>
<path d="M48.7761 77.579C46.0891 77.1033 43.0993 71.0318 42.7425 67.3013C42.7208 67.0472 43.9751 64.9982 45.3862 62.4355C46.235 60.8785 47.1433 59.1268 47.857 57.467L57.1831 64.4738C57.1831 64.4738 54.6637 67.5122 53.4364 70.4155C53.3337 70.6588 53.2634 70.8966 53.2148 71.1291C53.204 71.1616 53.1986 71.2048 53.1823 71.2481C52.8363 72.6321 51.3766 78.0332 48.7761 77.579Z" fill="#FFC4C0"/>
<path d="M53.2153 71.1291C53.2044 71.1616 53.199 71.1994 53.1828 71.2427C52.8368 71.1561 52.4746 71.0156 52.0853 70.848C46.1166 68.1177 47.8737 60.1324 48.49 57.9427L50.8202 59.6944L57.1836 64.4792C57.1836 64.4792 54.6588 67.5176 53.4369 70.4209C53.3342 70.6642 53.2585 70.8966 53.2098 71.1291H53.2153Z" fill="#263238"/>
<path d="M64.3848 46.0539C64.3848 46.0539 67.5367 48.303 67.3583 51.9902C67.1799 55.6774 65.5147 59.2024 65.1687 59.3105C64.8227 59.4187 64.3848 46.0539 64.3848 46.0539Z" fill="#263238"/>
<path d="M47.9602 46.8973C46.1328 50.6819 46.4572 62.4788 48.8901 65.474C52.4152 69.8153 59.0651 71.2048 62.974 66.7715C66.7639 62.4734 66.0719 47.1028 63.2713 44.2914C59.1516 40.1501 50.6526 41.3071 47.9548 46.8973H47.9602Z" fill="#FFC4C0"/>
<path d="M58.1083 56.0882C58.1029 56.0558 58.0489 56.1261 58.0489 56.1585C58.0921 56.9533 58.0056 57.8724 57.292 58.1481C57.2703 58.1589 57.2703 58.1968 57.2974 58.1914C58.1732 58.0508 58.2705 56.8289 58.1029 56.0828L58.1083 56.0882Z" fill="#263238"/>
<path d="M57.3781 55.2773C56.0968 55.207 56.0536 57.7751 57.243 57.84C58.4108 57.8994 58.454 55.3368 57.3781 55.2773Z" fill="#263238"/>
<path d="M62.7087 56.2775C62.7141 56.2451 62.7682 56.3154 62.7682 56.3478C62.7304 57.1426 62.8223 58.0562 63.5359 58.332C63.5575 58.3428 63.5575 58.3806 63.5305 58.3752C62.6547 58.2347 62.5465 57.0182 62.7087 56.2721V56.2775Z" fill="#263238"/>
<path d="M63.4277 55.4611C64.709 55.3854 64.7685 57.9535 63.5791 58.0238C62.4113 58.0941 62.3518 55.526 63.4277 55.4611Z" fill="#263238"/>
<path d="M56.3618 53.6121C56.7132 53.5418 57.0268 53.4121 57.3728 53.3094C57.7567 53.1904 58.0757 53.1309 58.3406 52.8011C58.4812 52.6227 58.4433 52.2929 58.2811 52.1416C57.9135 51.7847 57.4053 51.8172 56.9349 51.9415C56.4267 52.0767 56.0645 52.3146 55.7563 52.7471C55.4589 53.1634 55.8969 53.7094 56.3618 53.6175V53.6121Z" fill="#263238"/>
<path d="M64.3963 53.2931C64.0394 53.2283 63.7259 53.1093 63.3799 53.012C62.9906 52.8985 62.6716 52.8498 62.4013 52.5254C62.2553 52.3524 62.2878 52.0226 62.4445 51.8658C62.8068 51.4982 63.315 51.5198 63.7907 51.6334C64.3044 51.7577 64.6666 51.9848 64.9856 52.4065C65.2937 52.812 64.8666 53.3742 64.4017 53.2877L64.3963 53.2931Z" fill="#263238"/>
<path d="M56.6858 62.987C56.8642 63.187 57.0318 63.4573 57.3184 63.5006C57.5941 63.5438 57.9239 63.4411 58.1834 63.36C58.2104 63.3546 58.2321 63.3816 58.2158 63.4033C57.9888 63.6952 57.54 63.852 57.1778 63.7655C56.821 63.679 56.6696 63.3546 56.6047 63.0194C56.5939 62.9707 56.6588 62.9599 56.6858 62.987Z" fill="#263238"/>
<path d="M57.6863 60.6675C58.081 61.3866 58.7081 61.8083 59.4056 61.9975C59.7137 62.084 60.0489 62.1165 60.3733 62.1111C60.4382 62.1111 60.5031 62.1111 60.5625 62.1003C60.622 62.1003 60.6761 62.0949 60.7355 62.084C60.8275 62.0786 60.8869 62.0029 60.9086 61.9164C60.9086 61.884 60.9086 61.857 60.9086 61.8299V61.7542C60.9734 61.1433 60.9788 60.2134 60.9788 60.2134C61.1951 60.3432 62.298 60.9325 62.298 60.6135C62.325 57.9589 62.3575 55.0124 61.8222 52.3686C61.8114 52.2821 61.6763 52.2929 61.6763 52.3794C61.5465 54.9259 61.8709 57.4777 61.7844 60.0404C61.433 59.8782 60.8545 59.5808 60.5355 59.5646C60.449 59.5808 60.5571 61.365 60.5085 61.6407C60.5085 61.6407 60.5085 61.6515 60.5031 61.6677C59.4704 61.7272 58.7189 61.365 57.7674 60.6027C57.7133 60.554 57.643 60.6027 57.6863 60.6675Z" fill="#263238"/>
<path d="M60.0221 61.7759C60.0221 61.7759 59.4382 62.4517 58.6975 62.6517C58.4218 62.7274 58.1352 62.7437 57.8379 62.6409C57.2324 62.4301 57.254 61.8624 57.4054 61.3866C57.5243 60.992 57.7352 60.6622 57.7352 60.6622C57.7352 60.6622 58.5786 61.5759 60.0221 61.7759Z" fill="#263238"/>
<path d="M58.6975 62.6518C58.4218 62.7275 58.1352 62.7437 57.8379 62.641C57.2324 62.4301 57.254 61.8624 57.4054 61.3867C58.065 61.5056 58.6921 62.003 58.6975 62.6518Z" fill="#FF9ABB"/>
<path d="M47.9548 57.5048C49.2361 57.9265 50.804 54.0879 51.2527 52.6065C51.6528 51.3036 52.1718 47.146 52.2367 46.8649C52.307 46.5837 57.7729 50.6764 61.0438 49.7952C64.3147 48.9193 66.5476 46.0485 66.6233 44.6915C66.699 43.3345 62.7414 39.7878 59.2543 39.5337C55.7671 39.2796 50.9445 43.6102 50.9445 43.6102C50.9445 43.6102 52.5935 41.7287 52.5394 41.5719C52.4908 41.4152 50.2147 42.264 49.7659 43.8589C49.7659 43.8589 50.2579 41.8531 50.0849 41.8098C49.9173 41.7666 48.1224 43.4588 48.49 44.7726C48.49 44.7726 46.4247 46.481 46.1923 48.4057C45.9598 50.325 46.4409 57.002 47.9439 57.4994L47.9548 57.5048Z" fill="#263238"/>
<path d="M63.3683 49.168C62.3681 49.6006 61.3679 50.0763 60.2758 50.1953C59.0917 50.325 57.8753 50.0006 56.7886 49.5573C55.6749 49.1032 54.6693 48.4544 53.7556 47.6705C52.9608 46.9838 52.258 46.162 51.4038 45.5457C51.1929 45.3943 50.9334 45.6971 51.0631 45.9025C52.3391 47.9083 54.6314 49.6114 56.8589 50.3737C59.2053 51.1738 61.4381 50.6981 63.3845 49.1951C63.3953 49.1843 63.3845 49.1626 63.3737 49.168H63.3683Z" fill="#263238"/>
<path d="M49.9553 56.6506C49.9553 56.6506 48.1496 52.4389 46.2897 53.012C44.4299 53.5797 45.2571 59.3106 47.0629 60.4513C48.8686 61.5867 49.9553 59.9323 49.9553 59.9323V56.6506Z" fill="#FFC4C0"/>
<path d="M46.5655 54.6448C46.5331 54.634 46.5169 54.6772 46.5439 54.6934C47.8036 55.5368 48.2578 56.9587 48.4903 58.3861C48.1875 57.7913 47.6901 57.3967 46.9062 57.7427C46.8629 57.7589 46.8899 57.8238 46.9278 57.8238C47.5171 57.8238 47.9009 58.0022 48.1875 58.532C48.3875 58.9051 48.4903 59.3484 48.6092 59.7593C48.647 59.8945 48.8849 59.8782 48.8633 59.7269C48.8633 59.716 48.8633 59.7052 48.8633 59.6944C49.2634 57.9535 48.4092 55.2179 46.5655 54.6502V54.6448Z" fill="#263238"/>
<path d="M52.7989 72.8538L49.8578 77.352L44.0134 64.344L42.1914 66.8093L47.3275 81.223L49.7983 77.9899L51.2689 81.104L53.1071 75.4651L52.7989 72.8538Z" fill="#EBEBEB"/>
<path d="M42.1914 66.8093C43.8025 71.7616 45.5164 76.6761 47.2681 81.5744L47.4573 81.3257L49.9172 78.0818L49.6577 78.0548L51.1553 81.1527L51.2851 81.4176C51.9122 79.4442 52.5069 77.4547 53.1017 75.4651C52.4475 77.3303 51.7825 79.1955 51.1499 81.0662L51.3662 81.0554L49.9335 77.925L49.8307 77.6979L49.674 77.898L47.187 81.1202L47.4843 81.1689C45.7759 76.3625 44.035 71.567 42.1914 66.8147V66.8093Z" fill="#263238"/>
<path d="M38.1209 75.9354C41.2188 88.7379 50.572 110.856 54.3025 113.721C57.6058 116.257 74.0577 113.316 81.351 112.143C84.0813 111.705 80.832 93.1226 77.9233 93.6524C74.4361 94.285 62.969 95.1933 62.2716 94.5769C61.5039 93.8957 52.2804 80.4985 45.5656 72.4861C39.4833 65.2252 36.9531 71.0966 38.1209 75.9354Z" fill="#FFC4C0"/>
<path d="M88.1094 92.6576C93.7537 92.9712 95.154 93.9227 100.058 91.6574C103.275 90.1706 105.605 91.5871 103.361 94.512C99.69 99.2967 92.321 100.416 89.6556 100.07L88.1094 92.6522V92.6576Z" fill="#FFC4C0"/>
<path d="M72.4791 95.0743C72.4791 95.0743 79.3291 92.863 85.3735 92.6035C89.5581 92.4251 98.7005 93.0469 105.502 103.53C107.118 106.017 107.654 110.704 103.539 107.601C100.62 105.395 99.4357 103.119 97.5002 102.146C97.5002 102.146 97.4732 108.19 94.9213 109.71C93.7806 110.391 90.6232 112.17 87.9632 113.208C87.9632 113.208 87.5848 112.689 87.1901 111.964C87.1901 111.964 84.6707 113.159 80.605 111.948L72.4629 95.0797L72.4791 95.0743Z" fill="#FFC4C0"/>
<path d="M89.3903 93.0685C91.1042 94.4417 94.6886 97.4045 96.7701 100.854C99.0895 104.682 102.523 112.678 99.6788 114.359C97.5919 115.592 96.0132 112.656 96.0132 112.656C96.0132 112.656 96.7377 116.262 94.6076 116.965C92.672 117.603 91.5853 115.257 91.5853 115.257C91.5853 115.257 91.6448 117.517 89.6606 117.776C87.271 118.084 87.5359 113.294 84.8435 111.515C84.2379 111.115 89.3849 93.0685 89.3849 93.0685H89.3903Z" fill="#FFC4C0"/>
<path d="M92.3203 102.627C93.7206 104.179 95.9967 108.526 96.0615 112.575C96.0615 112.667 95.9967 112.716 95.9751 112.634C94.9532 108.19 93.1475 104.271 92.2824 102.649C92.2716 102.627 92.3041 102.611 92.3203 102.627Z" fill="#263238"/>
<path d="M88.5249 105.076C89.5954 106.541 91.7363 111.121 91.6661 115.23C91.6661 115.322 91.5904 115.365 91.5742 115.284C90.6983 110.596 89.2494 106.763 88.4817 105.098C88.4708 105.076 88.5033 105.06 88.5195 105.076H88.5249Z" fill="#263238"/>
<path d="M79.6908 115.57L76.1334 92.5279L62.6821 93.9119C57.9136 87.5161 48.3712 74.7298 44.4082 70.7993C39.7587 66.193 36.2553 69.1179 37.5907 75.6543C40.6399 90.5978 51.1122 112.975 54.1507 115.278C58.5029 118.582 79.6962 115.57 79.6962 115.57H79.6908Z" fill="#3A5985"/>
<path d="M74.3217 114.613C73.8243 113.121 72.8079 106.714 72.57 105.114C72.3376 103.546 71.6077 97.0639 71.3698 95.4204C71.359 95.3284 71.4833 95.2852 71.4942 95.3771C71.7537 96.999 74.4299 113.008 74.4028 114.597C74.4028 114.651 74.338 114.662 74.3217 114.613Z" fill="#263238"/>
<path d="M63.3952 116.825C61.5083 116.879 59.6107 116.814 57.7292 116.576C56.5614 116.408 55.3287 116.214 54.2853 115.586C53.6798 115.17 53.2202 114.586 52.7769 114.019C48.5166 107.774 45.9107 100.492 43.1426 93.5011C41.8234 89.9598 40.5529 86.4024 39.4121 82.7963C40.6448 85.9482 42.2883 90.2626 43.5372 93.3443C46.4243 100.275 49.0086 107.455 53.0905 113.786C53.6473 114.532 54.2042 115.305 55.0692 115.63C55.918 115.992 56.848 116.176 57.7671 116.338C59.6215 116.646 61.5137 116.765 63.3952 116.819V116.825Z" fill="#263238"/>
<path d="M40.634 86.3483C40.1204 85.6996 39.6284 85.0021 39.4014 84.202C39.7852 84.921 40.2826 85.6131 40.634 86.3483Z" fill="#263238"/>
<path d="M52.2148 80.3417C55.8534 84.575 58.9297 89.2786 62.5412 93.5335C62.5953 93.6038 62.6818 93.6632 62.7304 93.7173C63.3305 93.7443 64.028 93.6632 64.6821 93.6146L68.4937 93.2469L76.1276 92.5008H76.1493V92.5171L76.2195 93.1496L76.1114 92.5225L76.133 92.5387C72.0187 93.1388 67.899 93.7011 63.7522 94.0633C63.363 94.085 63.0061 94.1444 62.6061 94.0849C62.4493 94.0147 62.3628 93.9065 62.2546 93.8038C58.6593 89.5922 55.5723 84.7318 52.2148 80.3363V80.3417Z" fill="#263238"/>
<path d="M53.1396 80.6121C53.5722 81.3149 53.9831 82.0718 54.1128 82.8936C53.8155 82.1313 53.4046 81.3852 53.1396 80.6121Z" fill="#263238"/>
<path d="M0.411133 239.103C108.319 238.773 229.364 238.767 337.277 239.103C229.37 239.438 108.324 239.432 0.411133 239.103Z" fill="#263238"/>
<path d="M187.731 45.7495C195.148 35.3167 192.703 20.8465 182.27 13.4296C171.837 6.01262 157.367 8.45747 149.95 18.8903C142.533 29.3231 144.978 43.7932 155.411 51.2102C165.844 58.6271 180.314 56.1823 187.731 45.7495Z" fill="#3A5985"/>
<path opacity="0.1" d="M191.963 34.1979C192.717 22.0088 183.447 11.5164 171.258 10.7623C159.069 10.0083 148.576 19.2782 147.822 31.4672C147.068 43.6563 156.338 54.1488 168.527 54.9028C180.716 55.6569 191.209 46.387 191.963 34.1979Z" fill="black"/>
<path d="M190.482 35.3609C191.875 24.004 183.797 13.6685 172.44 12.2761C161.083 10.8837 150.748 18.9615 149.355 30.3184C147.963 41.6754 156.041 52.0108 167.398 53.4033C178.755 54.7957 189.09 46.7179 190.482 35.3609Z" fill="white"/>
<path opacity="0.5" d="M190.156 28.4397C180.722 34.1543 165.216 43.5345 156.549 48.6707C154.116 46.6162 152.165 44.0157 150.889 41.0584L179.548 14.4964C184.885 17.3078 188.842 22.379 190.15 28.4397H190.156Z" fill="#EBEBEB"/>
<path opacity="0.5" d="M190.609 33.5596C190.528 35.9276 190.053 38.1929 189.242 40.2906L163.404 52.5092C162.269 52.1362 161.177 51.6658 160.139 51.109C167.946 46.6 182.208 38.3929 190.609 33.5596Z" fill="#EBEBEB"/>
<path d="M170.103 13.6205H169.703V16.7617H170.103V13.6205Z" fill="#263238"/>
<path d="M160.468 16.0887L160.121 16.2888L161.692 19.0091L162.038 18.809L160.468 16.0887Z" fill="#263238"/>
<path d="M153.359 23.0528L153.159 23.3993L155.88 24.9699L156.08 24.6234L153.359 23.0528Z" fill="#263238"/>
<path d="M153.835 32.6351H150.694V33.0351H153.835V32.6351Z" fill="#263238"/>
<path d="M155.889 40.7001L153.169 42.2707L153.369 42.6172L156.089 41.0466L155.889 40.7001Z" fill="#263238"/>
<path d="M161.691 46.654L160.122 49.3752L160.469 49.575L162.038 46.8539L161.691 46.654Z" fill="#263238"/>
<path d="M170.103 48.9086H169.703V52.0497H170.103V48.9086Z" fill="#263238"/>
<path d="M178.117 46.6576L177.771 46.8577L179.341 49.578L179.688 49.3779L178.117 46.6576Z" fill="#263238"/>
<path d="M183.919 40.688L183.719 41.0344L186.439 42.605L186.639 42.2585L183.919 40.688Z" fill="#263238"/>
<path d="M189.118 32.6351H185.977V33.0351H189.118V32.6351Z" fill="#263238"/>
<path d="M186.44 23.0442L183.72 24.6147L183.92 24.9612L186.64 23.3906L186.44 23.0442Z" fill="#263238"/>
<path d="M179.345 16.0967L177.775 18.8179L178.122 19.0177L179.691 16.2966L179.345 16.0967Z" fill="#263238"/>
<path d="M170.206 15.0425L170.887 34.2354L168.925 34.2084L169.671 15.037L170.206 15.0425Z" fill="#455A64"/>
<path d="M182.16 26.1419L169.249 34.3814L168.309 32.6567L181.906 25.6716L182.16 26.1419Z" fill="#263238"/>
<path d="M170.579 32.8351C170.579 33.2082 170.276 33.5055 169.909 33.5055C169.541 33.5055 169.238 33.2028 169.238 32.8351C169.238 32.4675 169.541 32.1647 169.909 32.1647C170.276 32.1647 170.579 32.4675 170.579 32.8351Z" fill="#3A5985"/>
<path d="M157.496 115.554H56.4922V118.679H157.496V115.554Z" fill="#455A64"/>
<path d="M154.846 189.331H59.1357V192.456H154.846V189.331Z" fill="#455A64"/>
<path d="M151.846 118.684H62.1367V125.199H151.846V118.684Z" fill="#37474F"/>
<path d="M52.7885 239.065H50.4854L66.7047 125.199H73.0844L52.7885 239.065Z" fill="#455A64"/>
<path d="M161.199 239.065H163.502L147.283 125.199H140.903L161.199 239.065Z" fill="#455A64"/>
<path d="M180.192 118.684L281.195 118.684V115.559L180.192 115.559V118.684Z" fill="#455A64"/>
<path d="M182.841 192.456H278.552V189.331H182.841V192.456Z" fill="#455A64"/>
<path d="M185.842 125.194L275.552 125.194V118.679L185.842 118.679V125.194Z" fill="#37474F"/>
<path d="M284.904 239.065H287.207L270.988 125.199H264.608L284.904 239.065Z" fill="#455A64"/>
<path d="M176.489 239.065H174.186L190.405 125.199H196.785L176.489 239.065Z" fill="#455A64"/>
<path d="M140.325 115.554H110.113V113.613L136.016 112.283L127.203 80.6607H123.494V77.3898H129.69L140.325 115.554Z" fill="#DBDBDB"/>
<path d="M126.733 77.3898L125.565 80.6661H123.5V77.3898H126.733Z" fill="#C7C7C7"/>
<path d="M124.833 44.4914L121.514 43.8893L110.071 106.981L113.39 107.583L124.833 44.4914Z" fill="#C7C7C7"/>
<path d="M128.301 60.2513L122.176 94.0255L113.385 107.585L124.83 44.4915L128.301 60.2513Z" fill="#DBDBDB"/>
<path d="M103.874 115.554V112.121L73.6631 113.613V115.554H103.874Z" fill="#DBDBDB"/>
<path d="M197.363 115.554H227.58V113.613L201.672 112.283L210.485 80.6607H214.194V77.3898H208.003L197.363 115.554Z" fill="#DBDBDB"/>
<path d="M210.955 77.3898L212.123 80.6661H214.194V77.3898H210.955Z" fill="#C7C7C7"/>
<path d="M224.305 107.591L227.624 106.989L216.181 43.8973L212.862 44.4994L224.305 107.591Z" fill="#C7C7C7"/>
<path d="M209.393 60.2513L215.518 94.0255L224.304 107.585L212.864 44.4915L209.393 60.2513Z" fill="#DBDBDB"/>
<path d="M233.813 115.554V112.121L264.025 113.613V115.554H233.813Z" fill="#DBDBDB"/>
<path d="M197.006 115.592H216.221V111.196H197.006V115.592Z" fill="#263238"/>
<path d="M186.528 115.592H197.006V111.196H186.528V115.592Z" fill="#263238"/>
<path d="M197.006 115.138H216.221V111.656H197.006V115.138Z" fill="white"/>
<path d="M214.977 114.419C213.479 114.435 211.982 114.451 210.484 114.456L205.991 114.467L201.499 114.456C200.001 114.451 198.503 114.435 197.006 114.419C198.503 114.402 200.001 114.386 201.499 114.381L205.991 114.37L210.484 114.381C211.982 114.386 213.479 114.402 214.977 114.419Z" fill="#DBDBDB"/>
<path d="M214.977 113.737C213.479 113.754 211.982 113.77 210.484 113.775L205.991 113.786L201.499 113.775C200.001 113.77 198.503 113.754 197.006 113.737C198.503 113.721 200.001 113.705 201.499 113.7L205.991 113.689L210.484 113.7C211.982 113.705 213.479 113.721 214.977 113.737Z" fill="#DBDBDB"/>
<path d="M214.977 113.051C213.479 113.067 211.982 113.083 210.484 113.089L205.991 113.1L201.499 113.089C200.001 113.083 198.503 113.067 197.006 113.051C198.503 113.035 200.001 113.018 201.499 113.013L205.991 113.002L210.484 113.013C211.982 113.018 213.479 113.035 214.977 113.051Z" fill="#DBDBDB"/>
<path d="M214.977 112.37C213.479 112.386 211.982 112.402 210.484 112.407L205.991 112.418L201.499 112.407C200.001 112.402 198.503 112.386 197.006 112.37C198.503 112.353 200.001 112.337 201.499 112.332L205.991 112.321L210.484 112.332C211.982 112.337 213.479 112.353 214.977 112.37Z" fill="#DBDBDB"/>
<path d="M212.961 112.791V115.722L211.215 114.262L209.468 115.722V112.791C209.468 112.543 209.268 112.343 209.02 112.343H212.518C212.766 112.343 212.966 112.543 212.966 112.791H212.961Z" fill="#3A5985"/>
<path d="M216.318 108.05H184.366V111.202H216.318V108.05Z" fill="#37474F"/>
<path d="M212.928 108.05H209.949V111.202H212.928V108.05Z" fill="#455A64"/>
<path d="M207.998 108.05H206.841V111.202H207.998V108.05Z" fill="#455A64"/>
<path d="M200.51 108.05H220.395V103.184H200.51V108.05Z" fill="#3A5985"/>
<path d="M185.328 108.05H200.515V103.184H185.328V108.05Z" fill="#3A5985"/>
<path opacity="0.2" d="M185.328 108.05H200.515V103.184H185.328V108.05Z" fill="black"/>
<path d="M201.169 107.542H220.399V103.687H201.169V107.542Z" fill="white"/>
<path d="M219.151 106.747C217.653 106.774 216.156 106.796 214.653 106.806L210.155 106.823L205.656 106.806C204.159 106.796 202.661 106.779 201.158 106.747C202.656 106.72 204.153 106.698 205.656 106.687L210.155 106.671L214.653 106.687C216.15 106.698 217.648 106.714 219.151 106.747Z" fill="#DBDBDB"/>
<path d="M219.151 105.99C217.653 106.017 216.156 106.039 214.653 106.049L210.155 106.066L205.656 106.049C204.159 106.039 202.661 106.022 201.158 105.99C202.656 105.963 204.153 105.941 205.656 105.931L210.155 105.914L214.653 105.931C216.15 105.941 217.648 105.958 219.151 105.99Z" fill="#DBDBDB"/>
<path d="M219.151 105.233C217.653 105.26 216.156 105.282 214.653 105.293L210.155 105.309L205.656 105.293C204.159 105.282 202.661 105.265 201.158 105.233C202.656 105.206 204.153 105.184 205.656 105.174L210.155 105.157L214.653 105.174C216.15 105.184 217.648 105.201 219.151 105.233Z" fill="#DBDBDB"/>
<path d="M219.151 104.476C217.653 104.503 216.156 104.525 214.653 104.536L210.155 104.552L205.656 104.536C204.159 104.525 202.661 104.503 201.158 104.476C202.656 104.449 204.153 104.427 205.656 104.417L210.155 104.4L214.653 104.417C216.15 104.427 217.648 104.444 219.151 104.476Z" fill="#DBDBDB"/>
<path d="M204.813 98.3128H187.361V103.179H204.813V98.3128Z" fill="#455A64"/>
<path d="M214.701 98.3128H204.808V103.179H214.701V98.3128Z" fill="#455A64"/>
<path d="M204.813 98.8156H187.361V102.67H204.813V98.8156Z" fill="white"/>
<path d="M188.491 99.6104C189.854 99.5833 191.211 99.5617 192.573 99.5509L196.655 99.5347L200.737 99.5509C202.099 99.5617 203.456 99.5779 204.819 99.6104C203.456 99.6374 202.099 99.659 200.737 99.6698L196.655 99.686L192.573 99.6698C191.211 99.659 189.854 99.6428 188.491 99.6104Z" fill="#DBDBDB"/>
<path d="M188.491 100.367C189.854 100.34 191.211 100.319 192.573 100.308L196.655 100.292L200.737 100.308C202.099 100.319 203.456 100.335 204.819 100.367C203.456 100.394 202.099 100.416 200.737 100.427L196.655 100.443L192.573 100.427C191.211 100.416 189.854 100.4 188.491 100.367Z" fill="#DBDBDB"/>
<path d="M188.491 101.124C189.854 101.097 191.211 101.075 192.573 101.065L196.655 101.048L200.737 101.065C202.099 101.075 203.456 101.092 204.819 101.124C203.456 101.151 202.099 101.173 200.737 101.184L196.655 101.2L192.573 101.184C191.211 101.173 189.854 101.157 188.491 101.124Z" fill="#DBDBDB"/>
<path d="M188.491 101.881C189.854 101.854 191.211 101.832 192.573 101.822L196.655 101.805L200.737 101.822C202.099 101.832 203.456 101.854 204.819 101.881C203.456 101.908 202.099 101.93 200.737 101.941L196.655 101.957L192.573 101.941C191.211 101.93 189.854 101.913 188.491 101.881Z" fill="#DBDBDB"/>
<path d="M190.946 100.059V104.417L192.692 102.957L194.438 104.417V100.059C194.438 99.8104 194.638 99.6104 194.887 99.6104H191.389C191.14 99.6104 190.94 99.8104 190.94 100.059H190.946Z" fill="#263238"/>
<path d="M107.34 57.6237H81.9296H73.382V61.8462H68.8838L73.382 66.3443V77.4492H107.34V74.6973V57.6237Z" fill="white"/>
<path d="M107.34 57.6237C107.329 57.5534 72.8145 57.9752 73.5174 57.6237L73.5552 61.8462V62.0192H73.3768L68.8786 62.0462L69.0192 61.7056L73.539 66.1822L73.6039 66.247V66.3444L73.6309 77.4546L73.3714 77.1951C81.8325 77.1843 98.8737 77.2168 107.329 77.2384L107.119 77.4492C107.14 72.5077 107.265 62.5598 107.329 57.6183L107.34 57.6237ZM107.34 57.6237C107.405 62.6734 107.529 72.6104 107.556 77.6655C98.9764 77.6871 81.9569 77.7196 73.3822 77.7142H73.1227V77.4546L73.1497 66.3444L73.2146 66.5066L68.7381 61.9867L68.3975 61.6407H68.884L73.3822 61.6678L73.2038 61.8462L73.2417 57.6237V57.4832C73.3282 57.4399 107.232 57.6508 107.34 57.6237Z" fill="#263238"/>
<path d="M96.0625 67.5338C96.0625 68.3664 96.7383 69.0368 97.5655 69.0368C98.3927 69.0368 99.0685 68.3609 99.0685 67.5338C99.0685 66.7066 98.3927 66.0308 97.5655 66.0308C96.7383 66.0308 96.0625 66.7066 96.0625 67.5338Z" fill="#263238"/>
<path d="M88.5527 67.5338C88.5527 68.3664 89.2286 69.0368 90.0557 69.0368C90.8829 69.0368 91.5587 68.3609 91.5587 67.5338C91.5587 66.7066 90.8829 66.0308 90.0557 66.0308C89.2286 66.0308 88.5527 66.7066 88.5527 67.5338Z" fill="#263238"/>
<path d="M81.0381 67.5338C81.0381 68.3664 81.7139 69.0368 82.5411 69.0368C83.3683 69.0368 84.0441 68.3609 84.0441 67.5338C84.0441 66.7066 83.3683 66.0308 82.5411 66.0308C81.7139 66.0308 81.0381 66.7066 81.0381 67.5338Z" fill="#263238"/>
</g>
<defs>
<clipPath id="clip0_224_5571">
<rect width="337.363" height="240" fill="white"/>
</clipPath>
</defs>
</svg>
