<svg width="420" height="420" viewBox="0 0 420 420" fill="none" xmlns="http://www.w3.org/2000/svg">
<path d="M225.12 296.277C234.245 296.277 241.643 288.879 241.643 279.754C241.643 270.628 234.245 263.231 225.12 263.231C215.995 263.231 208.597 270.628 208.597 279.754C208.597 288.879 215.995 296.277 225.12 296.277Z" fill="#EBEBEB"/>
<path d="M231.134 269.951C231.174 270.744 230.959 271.53 230.521 272.193C230.077 272.875 229.455 273.424 228.724 273.781C227.971 274.16 227.101 274.233 226.296 273.983C225.53 273.745 224.875 273.242 224.448 272.563C225.038 272.987 225.715 273.274 226.43 273.403C226.766 273.466 227.111 273.466 227.447 273.403C227.781 273.355 228.105 273.249 228.404 273.092C228.564 273.017 228.715 272.933 228.866 272.849C229.018 272.765 229.169 272.655 229.303 272.546C229.582 272.332 229.838 272.09 230.068 271.824C230.539 271.273 230.901 270.637 231.134 269.951Z" fill="#C7C7C7"/>
<path d="M225.187 270.9C225.116 270.35 225.238 269.792 225.532 269.321C225.831 268.834 226.262 268.441 226.775 268.187C227.313 267.92 227.934 267.875 228.505 268.061C229.036 268.244 229.478 268.622 229.74 269.119C229.322 268.861 228.856 268.686 228.371 268.607C227.932 268.558 227.489 268.637 227.094 268.834C226.226 269.265 225.548 270.001 225.187 270.9Z" fill="#C7C7C7"/>
<path d="M225.12 287.515C225.323 288.019 225.338 288.58 225.162 289.094C224.982 289.625 224.649 290.09 224.204 290.43C223.976 290.608 223.714 290.739 223.434 290.814C223.154 290.889 222.862 290.907 222.575 290.867C222.035 290.796 221.541 290.526 221.189 290.111C221.643 290.261 222.122 290.327 222.6 290.304C223.025 290.274 223.431 290.119 223.768 289.859C224.11 289.587 224.396 289.25 224.608 288.868C224.857 288.451 225.031 287.993 225.12 287.515Z" fill="#C7C7C7"/>
<path d="M221.693 289.397C221.602 289.229 221.546 289.044 221.527 288.854C221.508 288.663 221.527 288.471 221.584 288.288C221.694 287.903 221.927 287.564 222.247 287.322C222.413 287.192 222.603 287.098 222.807 287.046C223.011 286.994 223.224 286.985 223.432 287.02C223.62 287.054 223.8 287.126 223.96 287.232C224.12 287.337 224.258 287.473 224.364 287.633C224.046 287.57 223.72 287.556 223.398 287.591C223.137 287.624 222.89 287.729 222.684 287.893C222.2 288.274 221.852 288.802 221.693 289.397Z" fill="#C7C7C7"/>
<path d="M219.164 272.656C219.31 272.791 219.427 272.955 219.507 273.137C219.588 273.319 219.632 273.515 219.635 273.714C219.638 273.93 219.598 274.145 219.517 274.345C219.436 274.546 219.316 274.728 219.164 274.882C219.009 275.04 218.818 275.16 218.608 275.231C218.398 275.303 218.174 275.324 217.955 275.293C217.56 275.256 217.191 275.081 216.913 274.798C217.259 274.808 217.605 274.785 217.946 274.731C218.212 274.688 218.458 274.565 218.652 274.378C218.85 274.176 218.995 273.928 219.072 273.655C219.157 273.329 219.188 272.992 219.164 272.656Z" fill="#C7C7C7"/>
<path d="M217.115 274.26C216.995 274.178 216.895 274.069 216.824 273.943C216.752 273.816 216.711 273.675 216.703 273.529C216.697 273.374 216.723 273.22 216.779 273.075C216.835 272.931 216.921 272.799 217.031 272.689C217.146 272.572 217.288 272.485 217.445 272.435C217.601 272.385 217.768 272.375 217.929 272.404C218.071 272.423 218.208 272.471 218.33 272.545C218.453 272.618 218.56 272.716 218.643 272.832C218.408 272.86 218.175 272.905 217.946 272.967C217.792 273.005 217.653 273.087 217.543 273.202C217.422 273.32 217.327 273.464 217.266 273.622C217.187 273.827 217.136 274.042 217.115 274.26Z" fill="#C7C7C7"/>
<path d="M230.647 290.069C230.552 290.244 230.421 290.398 230.263 290.521C230.106 290.644 229.925 290.733 229.732 290.783C229.524 290.846 229.306 290.866 229.091 290.841C228.876 290.817 228.668 290.748 228.48 290.64C228.288 290.529 228.125 290.374 228.003 290.189C227.88 290.004 227.802 289.794 227.774 289.573C227.722 289.18 227.805 288.78 228.01 288.439C228.079 288.778 228.186 289.108 228.329 289.422C228.428 289.673 228.609 289.882 228.841 290.019C229.082 290.165 229.357 290.247 229.639 290.254C229.983 290.25 230.324 290.188 230.647 290.069Z" fill="#C7C7C7"/>
<path d="M228.589 288.481C228.638 288.345 228.719 288.221 228.823 288.121C228.928 288.02 229.055 287.945 229.194 287.902C229.346 287.852 229.507 287.835 229.667 287.852C229.826 287.87 229.98 287.921 230.118 288.003C230.265 288.09 230.388 288.212 230.476 288.359C230.564 288.506 230.614 288.672 230.622 288.843C230.637 288.985 230.623 289.129 230.581 289.266C230.539 289.403 230.47 289.531 230.378 289.641C230.289 289.42 230.188 289.204 230.076 288.994C229.998 288.855 229.885 288.739 229.748 288.658C229.602 288.576 229.443 288.519 229.278 288.49C229.05 288.455 228.818 288.452 228.589 288.481Z" fill="#C7C7C7"/>
<path d="M236.309 278.443C236.342 278.845 236.215 279.243 235.956 279.552C235.668 279.878 235.264 280.08 234.83 280.115C234.608 280.127 234.386 280.089 234.181 280.003C233.976 279.917 233.793 279.786 233.646 279.619C233.381 279.325 233.224 278.948 233.201 278.553C233.458 278.791 233.74 279.002 234.041 279.183C234.267 279.331 234.535 279.404 234.805 279.393C235.086 279.373 235.357 279.284 235.595 279.132C235.868 278.942 236.109 278.71 236.309 278.443Z" fill="#C7C7C7"/>
<path d="M233.713 278.284C233.672 278.14 233.667 277.988 233.698 277.842C233.729 277.696 233.794 277.559 233.89 277.444C233.99 277.315 234.117 277.21 234.262 277.136C234.407 277.062 234.567 277.021 234.73 277.016C234.89 277.009 235.05 277.04 235.196 277.108C235.342 277.175 235.47 277.276 235.57 277.402C235.661 277.51 235.73 277.636 235.772 277.772C235.814 277.907 235.828 278.05 235.813 278.192C235.619 278.054 235.414 277.933 235.2 277.83C235.06 277.758 234.903 277.726 234.746 277.738C234.577 277.746 234.411 277.789 234.259 277.864C234.06 277.98 233.877 278.121 233.713 278.284Z" fill="#C7C7C7"/>
<path d="M214.418 282.189C214.436 282.387 214.414 282.586 214.354 282.776C214.293 282.965 214.195 283.14 214.066 283.29C213.925 283.455 213.754 283.59 213.56 283.686C213.367 283.783 213.156 283.84 212.94 283.853C212.718 283.867 212.495 283.83 212.29 283.744C212.084 283.658 211.901 283.525 211.756 283.357C211.493 283.064 211.336 282.691 211.31 282.299C211.57 282.535 211.851 282.746 212.15 282.929C212.377 283.075 212.645 283.146 212.915 283.13C213.195 283.114 213.466 283.027 213.704 282.878C213.978 282.688 214.219 282.456 214.418 282.189Z" fill="#C7C7C7"/>
<path d="M211.823 282.022C211.783 281.878 211.779 281.727 211.81 281.581C211.84 281.434 211.905 281.298 211.999 281.182C212.101 281.055 212.228 280.951 212.373 280.877C212.518 280.803 212.677 280.761 212.839 280.753C212.999 280.746 213.158 280.777 213.304 280.843C213.45 280.908 213.578 281.007 213.679 281.131C213.77 281.24 213.839 281.366 213.881 281.502C213.922 281.637 213.937 281.78 213.923 281.921C213.727 281.789 213.522 281.671 213.31 281.568C213.171 281.493 213.014 281.458 212.856 281.467C212.69 281.479 212.527 281.521 212.377 281.593C212.173 281.71 211.987 281.854 211.823 282.022Z" fill="#C7C7C7"/>
<g opacity="0.4">
<path d="M40.6728 218.333C40.6457 224.709 41.8641 231.03 44.2596 236.939C46.6872 242.76 50.526 247.918 55.4988 251.16C56.7116 251.964 57.9935 252.658 59.3292 253.235C60.642 253.777 62.0033 254.193 63.3948 254.478C66.1067 255.037 68.9001 255.077 71.6268 254.596C77.0364 253.663 82.026 250.984 86.4444 247.456C86.7132 247.229 87.0156 247.002 87.2844 246.792L87.906 246.196C88.3092 245.776 88.746 245.356 89.0988 244.91C89.9052 243.992 90.6382 243.012 91.2912 241.979C92.7204 239.745 93.9435 237.386 94.9452 234.931C97.1249 229.514 98.9131 223.947 100.296 218.274C103.295 206.514 105.68 194.057 108.52 181.406C109.225 178.237 109.978 175.056 110.779 171.864C111.552 168.664 112.409 165.455 113.299 162.221C115.11 155.495 117.435 148.918 120.254 142.548C121.027 140.868 121.876 139.188 122.884 137.449C123.379 136.609 123.942 135.71 124.564 134.854C125.185 133.997 125.79 133.174 126.454 132.426C128.995 129.47 131.938 126.886 135.198 124.748C141.364 120.607 147.697 118.028 153.779 115.408C159.86 112.787 165.858 110.368 171.528 107.47C177.141 104.653 182.419 101.213 187.261 97.2133C191.946 93.2877 195.941 88.6058 199.08 83.3616C202.171 78.162 204.422 72.4921 205.069 66.9733C205.422 64.3418 205.385 61.6728 204.96 59.0521C204.555 56.7089 203.699 54.4666 202.44 52.4497C201.313 50.6668 199.83 49.1357 198.084 47.952C196.338 46.7683 194.366 45.9574 192.293 45.5701C190.176 45.1566 188.009 45.0716 185.867 45.3181C183.567 45.6028 181.31 46.167 179.147 46.9981C178.584 47.2081 178.03 47.4433 177.467 47.6785L175.484 48.5185C174.174 49.1065 172.872 49.7197 171.604 50.3749C169.084 51.6769 166.564 53.0797 164.119 54.6505C159.222 57.7501 154.409 61.5049 149.05 65.5705C143.43 69.8945 137.501 73.7998 131.309 77.2549C124.854 80.7035 118.084 83.5249 111.09 85.68C110.25 85.9657 109.36 86.1925 108.494 86.4445L106.168 87.108C104.882 87.486 103.58 87.8976 102.287 88.3428C99.708 89.25 97.1544 90.2832 94.668 91.4341C84.7308 96.0708 76.0452 102.572 69.8628 111.023C66.6651 115.332 64.0209 120.025 61.992 124.992C60.9006 127.59 59.9775 130.256 59.2284 132.972C58.4228 135.786 57.7667 138.64 57.2628 141.523C56.7588 144.455 56.364 147.462 56.1204 150.52C55.9944 151.956 55.902 153.829 55.7844 155.56C55.6668 157.29 55.4904 159.012 55.2888 160.726C54.4858 167.502 53.2087 174.213 51.4668 180.81C49.7868 187.337 47.7036 193.654 45.5868 199.861C44.52 202.969 43.4532 206.052 42.504 209.101C41.4818 212.082 40.8659 215.187 40.6728 218.333ZM38.1528 218.333C38.1617 216.615 38.3361 214.902 38.6736 213.217C38.9676 211.537 39.354 209.95 39.732 208.354C40.488 205.153 41.3028 201.995 41.9748 198.82C42.6468 195.644 43.2432 192.478 43.6548 189.294C44.0664 186.11 44.3352 182.918 44.4948 179.735C44.7223 173.424 44.3171 167.107 43.2852 160.877C43.05 159.331 42.7476 157.802 42.4452 156.282C42.1428 154.762 41.7816 153.35 41.4288 151.544C40.7109 148.065 40.1865 144.548 39.858 141.011C39.1452 133.658 39.4875 126.242 40.8744 118.986C42.3504 111.402 45.1118 104.127 49.0392 97.4736C53.0628 90.8006 58.0984 84.793 63.966 79.6656C69.7183 74.6286 76.1236 70.3904 83.0088 67.0657C86.3964 65.4052 89.8868 63.963 93.4584 62.7481C95.2392 62.1181 97.0536 61.5721 98.9016 61.0681L103.387 59.8669C108.895 58.3647 114.265 56.3976 119.44 53.9869C124.809 51.4246 129.993 48.4915 134.954 45.2089C140.288 41.8489 146.059 37.9261 152.46 34.5241C155.671 32.7967 158.971 31.2405 162.347 29.8621C164.027 29.1649 165.707 28.5349 167.471 27.9301L170.058 27.0901C171.041 26.7961 172.032 26.5105 173.032 26.2501C177.13 25.2087 181.355 24.7533 185.581 24.8977C189.969 25.0368 194.298 25.9408 198.374 27.5689C202.535 29.2426 206.315 31.7398 209.488 34.9105C212.62 38.0377 215.049 41.798 216.611 45.9397C218.078 49.8563 218.799 54.0132 218.736 58.1953C218.692 62.0907 218.081 65.9589 216.922 69.6781C214.674 76.54 211.249 82.9582 206.8 88.6452C204.688 91.4191 202.389 94.046 199.92 96.5077C197.465 98.925 194.87 101.197 192.15 103.312C181.322 111.712 169.025 117.289 157.912 123.782C152.368 126.991 147.084 130.502 143.077 134.551C141.2 136.441 139.604 138.591 138.34 140.935C138.054 141.495 137.794 142.055 137.558 142.615C137.332 143.161 137.122 143.716 136.912 144.295C136.5 145.505 136.122 146.815 135.778 148.21C135.097 150.973 134.568 153.955 134.098 156.996C133.627 160.037 133.207 163.153 132.779 166.295L131.536 175.82C131.116 179.021 130.696 182.246 130.192 185.489C128.209 198.425 125.689 211.621 120.952 224.759C118.566 231.587 115.38 238.109 111.46 244.188C110.393 245.75 109.284 247.296 108.049 248.808C106.812 250.357 105.471 251.819 104.034 253.184C102.553 254.614 100.964 255.925 99.2796 257.107C98.4201 257.715 97.5284 258.276 96.6084 258.787L95.1972 259.543C94.7436 259.778 94.3572 259.946 93.912 260.148C90.5018 261.732 86.9308 262.943 83.2608 263.76C79.5269 264.585 75.6935 264.868 71.8788 264.6C68.0856 264.33 64.368 263.403 60.8916 261.862C59.1936 261.108 57.5684 260.199 56.0364 259.148C54.5452 258.129 53.1405 256.988 51.8364 255.738C46.9035 250.823 43.2644 244.762 41.244 238.098C39.2543 231.719 38.2128 225.082 38.1528 218.4V218.333Z" fill="#EBEBEB"/>
<path d="M146.429 246.431C149.904 239.8 152.488 232.739 154.115 225.431C155.87 218.148 156.987 210.714 158.079 203.196C158.659 199.441 159.18 195.636 159.869 191.831C160.512 187.917 161.381 184.044 162.473 180.231C163.63 176.12 165.295 172.17 167.429 168.471C169.897 164.253 173.285 160.647 177.341 157.92C178.424 157.206 179.592 156.61 180.701 155.971C181.809 155.333 183.103 154.93 184.329 154.451C185.556 153.972 186.849 153.695 188.076 153.376C189.302 153.057 190.596 152.914 191.847 152.704C196.672 152.063 201.565 152.128 206.371 152.897C211.085 153.648 215.689 154.974 220.08 156.845C224.193 158.623 228.152 160.739 231.915 163.17C238.75 167.697 245.246 172.713 251.353 178.181L259.955 185.741C261.357 186.976 262.777 188.152 264.155 189.336L266.246 191.092L268.338 192.772C271.056 194.948 273.882 196.987 276.805 198.879C279.568 200.685 282.479 202.253 285.507 203.566C288.726 204.88 292.054 205.909 295.453 206.64C298.998 207.48 302.694 208.102 306.482 208.656C314.042 209.773 321.938 210.479 329.927 211.403L335.933 212.151C337.957 212.445 339.965 212.747 341.997 213.117C346.123 213.807 350.189 214.812 354.161 216.124C358.316 217.467 362.229 219.466 365.753 222.046C369.314 224.717 372.221 228.164 374.253 232.126C375.224 234.039 376.006 236.042 376.589 238.107L377.345 241.156C377.555 242.164 377.689 243.138 377.865 244.138C378.458 248.132 378.686 252.173 378.546 256.209C378.343 260.272 377.747 264.306 376.765 268.254C376.496 269.237 376.295 270.245 375.975 271.211L375.035 274.126C374.312 276.033 373.581 277.948 372.716 279.796C369.25 287.246 364.695 294.139 359.201 300.25C356.496 303.334 353.613 306.256 350.565 309.003C347.558 311.8 344.349 314.345 341.09 316.823C339.41 318.016 337.797 319.267 336.092 320.393L333.572 322.123L330.993 323.803C327.527 325.976 323.988 328.02 320.376 329.935C318.57 330.885 316.747 331.8 314.924 332.724C313.101 333.648 311.237 334.471 309.38 335.303C307.524 336.135 305.659 336.983 303.769 337.731C301.879 338.478 300.006 339.276 298.091 339.973L287.171 344.056C285.39 344.719 283.643 345.433 281.887 346.122L279.249 347.164L276.637 348.247C262.775 353.975 249.276 360.545 236.216 367.92C229.656 371.625 223.154 375.48 216.098 379.378C212.579 381.352 208.849 383.267 204.767 385.09C200.441 387.039 195.941 388.575 191.327 389.676C186.373 390.832 181.291 391.343 176.207 391.197C171.371 391.048 166.564 390.386 161.868 389.223C159.583 388.727 157.458 388.063 155.299 387.433C154.232 387.097 153.207 386.728 152.166 386.383C151.124 386.039 150.099 385.686 149.024 385.241L145.849 383.964L144.27 383.309L142.699 382.545C140.575 381.559 138.508 380.454 136.508 379.235C135.5 378.613 134.492 378.009 133.493 377.362L130.586 375.22L129.158 374.136C128.679 373.767 128.243 373.338 127.781 372.935L125.093 370.482C124.253 369.642 123.413 368.668 122.623 367.769L121.413 366.391C121.027 365.921 120.683 365.417 120.313 364.921C119.599 363.93 118.877 362.947 118.188 361.948C117.499 360.948 116.97 359.848 116.382 358.789C114.169 354.643 112.598 350.185 111.72 345.568L111.375 343.888C111.283 343.325 111.224 342.771 111.157 342.208C111.023 341.099 110.88 339.99 110.787 338.848C110.664 336.68 110.65 334.507 110.745 332.338C110.935 328.161 111.48 324.007 112.375 319.923C113.253 315.994 114.353 312.118 115.668 308.314C118.261 300.944 121.311 293.742 124.799 286.751C125.639 285.029 126.479 283.282 127.386 281.585C128.293 279.888 129.066 278.158 130.015 276.469C130.964 274.781 131.813 273.109 132.72 271.429L135.433 266.389L146.429 246.431ZM148.663 247.573C145.068 254.226 141.725 261.013 138.751 267.943L137.642 270.539L136.601 273.16C135.887 274.899 135.257 276.671 134.618 278.435C133.316 281.955 132.191 285.533 131.149 289.12C129.074 296.203 127.645 303.459 126.882 310.8C126.511 314.352 126.351 317.923 126.403 321.493C126.478 324.91 126.829 328.314 127.453 331.674C127.68 333.354 128.192 334.875 128.562 336.437L129.326 338.68C129.461 339.049 129.57 339.419 129.704 339.78L130.183 340.839C131.322 343.556 132.834 346.1 134.677 348.399C135.139 348.953 135.601 349.491 136.029 350.079L137.541 351.591C137.793 351.843 138.029 352.111 138.289 352.347L139.129 353.027C139.692 353.472 140.213 353.951 140.809 354.388L142.615 355.631C142.917 355.841 143.195 356.068 143.514 356.253L144.497 356.815L146.437 357.949L148.529 358.949C151.427 360.323 154.423 361.483 157.491 362.418C158.247 362.687 159.096 362.914 159.936 363.141C160.776 363.367 161.616 363.619 162.456 363.821C164.094 364.182 165.74 364.619 167.319 364.863C170.296 365.446 173.324 365.727 176.358 365.703C179.13 365.661 181.888 365.292 184.573 364.602C190.008 363.216 196.073 360.259 202.65 356.74C205.934 355.001 209.286 353.153 212.73 351.28C216.174 349.407 219.693 347.584 223.23 345.753C237.583 338.434 252.434 332.138 267.674 326.911L270.48 325.92L273.344 324.979C275.251 324.358 277.158 323.711 279.073 323.123L290.287 319.704C293.857 318.604 297.393 317.436 300.913 316.235L306.146 314.345C307.877 313.681 309.607 313.026 311.329 312.346C314.731 310.935 318.167 309.549 321.476 307.969L323.996 306.81L326.457 305.592C328.137 304.803 329.691 303.912 331.313 303.072C337.671 299.625 343.68 295.568 349.255 290.959C351.976 288.669 354.533 286.19 356.907 283.542C359.271 280.948 361.383 278.135 363.216 275.142C366.926 269.203 369.275 262.516 370.095 255.562C370.461 252.062 370.444 248.533 370.045 245.037C369.919 244.197 369.835 243.273 369.684 242.416L369.163 239.896C368.728 238.293 368.143 236.735 367.416 235.242C365.967 232.288 363.808 229.74 361.133 227.825C358.276 225.844 355.091 224.385 351.725 223.516C348.146 222.578 344.492 221.96 340.805 221.668C337.058 221.357 333.245 221.248 329.381 221.281C321.669 221.323 313.807 221.802 305.701 221.97C301.635 222.029 297.503 221.97 293.252 221.718C288.842 221.471 284.461 220.847 280.157 219.853C270.992 217.611 263.096 213.503 255.948 208.933C241.752 199.744 230.571 188.773 219.215 180.701C213.561 176.677 207.967 173.469 202.205 171.705C199.308 170.816 196.311 170.297 193.284 170.159C190.534 169.915 187.765 170.32 185.2 171.341C182.636 172.363 180.346 173.972 178.517 176.039C176.234 178.512 174.278 181.267 172.695 184.237C170.979 187.415 169.444 190.688 168.101 194.04C166.748 197.493 165.463 201.029 164.295 204.607C161.893 211.764 159.785 219.081 157.374 226.313C155.089 233.635 152.18 240.748 148.68 247.573H148.663Z" fill="#EBEBEB"/>
<path d="M380.285 75.4993C379.229 77.7608 378.02 79.9472 376.664 82.0429C376.043 83.0509 375.388 84.0001 374.732 84.9577C374.077 85.9153 373.388 86.8141 372.7 87.6961C371.339 89.4937 369.911 91.1485 368.5 92.8033C362.737 99.3133 356.462 104.899 350.314 110.443L348.138 112.417L347.18 113.257L346.248 114.24C345.618 114.87 345.064 115.593 344.476 116.281C343.888 116.97 343.367 117.76 342.796 118.533C342.224 119.305 341.737 120.095 341.25 120.935C340.763 121.775 340.267 122.615 339.805 123.455C338.906 125.135 337.991 126.958 337.193 128.789C333.833 136.131 331.313 144.018 327.44 151.923C325.412 156.129 322.727 159.985 319.486 163.347C317.712 165.125 315.739 166.692 313.606 168.017C312.519 168.682 311.398 169.288 310.246 169.831C309.666 170.1 309.086 170.386 308.498 170.621L306.718 171.285C304.35 172.103 301.916 172.716 299.443 173.116C298.2 173.343 296.856 173.41 295.537 173.527C294.218 173.645 292.933 173.527 291.614 173.527C290.296 173.527 289.094 173.301 287.759 173.158C287.129 173.083 286.504 172.976 285.886 172.839L284.021 172.461L283.088 172.259L282.19 171.999L280.392 171.461C279.203 171.12 278.036 170.708 276.898 170.226C272.441 168.445 268.227 166.108 264.356 163.271C260.626 160.505 257.184 157.37 254.083 153.913C251.06 150.487 248.392 146.764 246.12 142.8C245.557 141.809 245.02 140.809 244.49 139.818C243.961 138.827 243.516 137.76 243.037 136.735C242.558 135.711 242.122 134.669 241.718 133.611C241.315 132.552 240.878 131.519 240.542 130.427C239.095 126.169 237.994 121.8 237.25 117.365C236.494 113.008 236.09 108.598 236.04 104.177C235.957 99.8578 236.283 95.5405 237.014 91.2829C237.737 87.0786 239.073 83.0032 240.979 79.1869C242.993 75.318 245.867 71.9618 249.379 69.3757C252.957 66.8136 256.868 64.7532 261.005 63.2521C269.263 60.2646 277.806 58.1311 286.499 56.8849C290.791 56.2297 295.058 55.7929 299.284 55.5241C299.693 55.5057 300.101 55.4523 300.502 55.3645L301.484 55.1881C302.156 54.9865 302.795 54.9277 303.458 54.6925L304.433 54.4153C304.76 54.2977 305.088 54.1633 305.416 54.0709C306.071 53.8945 306.76 53.5501 307.423 53.3401C310.454 52.1046 313.405 50.6822 316.26 49.0813L321.241 46.2841L323.904 44.7805L326.76 43.2769C328.658 42.2353 330.784 41.2357 332.968 40.2445C335.339 39.2085 337.775 38.3248 340.259 37.5985C343.061 36.7781 345.941 36.2545 348.852 36.0361C352.03 35.7929 355.226 35.985 358.352 36.6073L359.545 36.8341L360.704 37.1449C361.469 37.3633 362.25 37.5733 363.014 37.8169C364.481 38.3329 365.915 38.9388 367.307 39.6313L369.331 40.6813L371.188 41.8321C372.388 42.6104 373.546 43.4515 374.657 44.3521C374.951 44.5705 375.178 44.7385 375.497 45.0157C375.816 45.2929 376.337 45.7549 376.765 46.1413C377.638 46.9281 378.439 47.7911 379.159 48.7201C379.336 48.9469 379.529 49.1821 379.705 49.4257L380.218 50.2069C380.545 50.7361 380.856 51.2569 381.167 51.7945C381.723 52.8776 382.198 54.0007 382.586 55.1545C382.754 55.7257 382.906 56.2885 383.048 56.8345C383.124 57.1201 383.191 57.4141 383.242 57.6745L383.376 58.5145C383.452 59.0521 383.51 59.5981 383.569 60.1441C383.628 60.6901 383.611 61.1605 383.628 61.6729C383.645 62.1853 383.628 62.6893 383.628 63.1765L383.51 64.5541C383.46 64.9993 383.426 65.4865 383.351 65.9065L383.107 67.2001C382.491 70.0666 381.544 72.8517 380.285 75.4993Z" fill="#EBEBEB"/>
<path d="M103.219 297.654C103.633 300.056 103.805 302.493 103.732 304.928C103.547 309.371 102.785 313.77 101.464 318.016C100.321 322.156 98.8635 326.202 97.104 330.12C95.3159 334.056 93.0596 337.762 90.384 341.158C87.588 344.69 84.3338 347.834 80.7072 350.507C76.6417 353.355 71.9679 355.216 67.0572 355.942C64.454 356.331 61.8116 356.385 59.1948 356.101C56.6671 355.819 54.1972 355.153 51.87 354.127C49.8055 353.2 47.8734 352.002 46.1244 350.566C44.5597 349.257 43.0757 347.854 41.6808 346.366C40.9587 345.586 40.3092 344.743 39.7404 343.846C39.2049 342.904 38.747 341.921 38.3712 340.906C37.6664 338.807 37.1767 336.643 36.9096 334.446C36.2834 329.878 36.2326 325.25 36.7584 320.67C37.2577 316.272 38.6896 312.031 40.9584 308.23C43.1535 304.627 46.05 301.502 49.476 299.04C53.0119 296.641 56.8182 294.668 60.816 293.16C64.7976 291.581 68.6532 290.094 72.3156 288.364C75.978 286.633 79.5228 284.71 83.9832 283.324C85.1738 282.947 86.3972 282.683 87.6372 282.534C89.0828 282.34 90.5494 282.362 91.9884 282.601C93.9191 282.974 95.7197 283.842 97.2132 285.121C97.5843 285.446 97.9376 285.791 98.2716 286.154C98.5824 286.507 98.8932 286.868 99.1872 287.246C99.7027 287.945 100.166 288.681 100.573 289.447C100.951 290.15 101.287 290.873 101.581 291.614C101.833 292.286 102.119 293.026 102.295 293.672L102.589 294.689L102.833 295.672C102.992 296.386 103.102 297.007 103.219 297.654Z" fill="#EBEBEB"/>
</g>
<g opacity="0.4">
<path d="M340.494 156.643C360.242 141.305 380.108 144.287 380.108 144.287C380.108 144.287 380.201 164.38 362.174 181.709C346.962 196.333 332.522 195.502 327.541 189.756C322.56 184.011 323.828 169.579 340.494 156.643Z" fill="#EBEBEB"/>
<path d="M338.302 166.564C350.818 156.837 363.409 158.735 363.409 158.735C363.409 158.735 363.468 171.461 352.044 182.457C342.401 191.697 333.236 191.201 330.086 187.555C326.936 183.91 327.734 174.762 338.302 166.564Z" fill="white"/>
</g>
<path d="M347.365 171.814L345.87 170.621C345.768 170.54 345.683 170.439 345.619 170.325C345.556 170.212 345.516 170.086 345.501 169.957C345.486 169.827 345.497 169.696 345.533 169.571C345.569 169.445 345.629 169.328 345.71 169.226C345.792 169.125 345.893 169.04 346.007 168.978C346.121 168.915 346.247 168.876 346.376 168.862C346.506 168.848 346.637 168.859 346.762 168.896C346.887 168.933 347.003 168.993 347.105 169.075L348.6 170.268C348.701 170.349 348.785 170.449 348.848 170.562C348.91 170.676 348.95 170.801 348.964 170.929C348.978 171.058 348.966 171.189 348.93 171.313C348.893 171.437 348.833 171.553 348.751 171.654C348.671 171.756 348.571 171.841 348.458 171.904C348.345 171.967 348.22 172.008 348.091 172.022C347.962 172.037 347.832 172.026 347.707 171.991C347.583 171.955 347.466 171.895 347.365 171.814Z" fill="#EBEBEB"/>
<path d="M330.506 187.194L329.465 185.589C329.322 185.37 329.271 185.103 329.325 184.846C329.378 184.589 329.531 184.364 329.75 184.22C329.859 184.148 329.982 184.098 330.11 184.074C330.238 184.049 330.371 184.05 330.499 184.076C330.627 184.103 330.748 184.154 330.856 184.228C330.964 184.302 331.057 184.396 331.128 184.506L332.17 186.11C332.312 186.331 332.361 186.599 332.306 186.856C332.251 187.112 332.096 187.337 331.876 187.479C331.656 187.623 331.389 187.673 331.132 187.619C330.875 187.566 330.65 187.413 330.506 187.194Z" fill="#EBEBEB"/>
<path d="M340.351 168.764H339.318C339.188 168.76 339.06 168.73 338.941 168.676C338.823 168.622 338.716 168.546 338.627 168.45C338.538 168.355 338.469 168.243 338.423 168.121C338.377 167.999 338.356 167.87 338.36 167.739C338.365 167.609 338.395 167.481 338.449 167.363C338.502 167.244 338.579 167.137 338.674 167.048C338.77 166.959 338.881 166.89 339.003 166.844C339.125 166.799 339.255 166.777 339.385 166.782H340.41C340.54 166.785 340.668 166.814 340.786 166.867C340.905 166.92 341.012 166.996 341.101 167.09C341.19 167.185 341.259 167.296 341.305 167.418C341.351 167.539 341.372 167.668 341.368 167.798C341.364 167.928 341.335 168.057 341.283 168.176C341.23 168.295 341.154 168.402 341.06 168.492C340.965 168.582 340.854 168.652 340.733 168.699C340.611 168.745 340.481 168.768 340.351 168.764Z" fill="#EBEBEB"/>
<path d="M349.86 181.188V180.163C349.863 180.033 349.892 179.906 349.945 179.787C349.998 179.668 350.074 179.562 350.168 179.473C350.263 179.384 350.374 179.314 350.496 179.268C350.617 179.222 350.747 179.201 350.876 179.206C351.007 179.209 351.135 179.238 351.254 179.291C351.373 179.344 351.48 179.419 351.57 179.514C351.66 179.608 351.73 179.719 351.777 179.841C351.823 179.962 351.846 180.092 351.842 180.222V181.255C351.839 181.385 351.81 181.513 351.757 181.631C351.704 181.75 351.628 181.857 351.534 181.946C351.439 182.035 351.328 182.104 351.207 182.15C351.085 182.196 350.956 182.217 350.826 182.213C350.695 182.21 350.566 182.18 350.447 182.127C350.327 182.074 350.219 181.997 350.129 181.902C350.039 181.807 349.969 181.694 349.923 181.572C349.877 181.449 349.855 181.319 349.86 181.188Z" fill="#EBEBEB"/>
<path d="M327.961 181.49L327.844 180.474C327.814 180.217 327.886 179.96 328.042 179.755C328.199 179.55 328.429 179.413 328.684 179.373C328.946 179.345 329.21 179.422 329.416 179.587C329.622 179.753 329.754 179.993 329.784 180.255L329.893 181.272C329.924 181.528 329.854 181.785 329.696 181.99C329.539 182.194 329.308 182.328 329.053 182.364C328.924 182.379 328.793 182.368 328.668 182.333C328.543 182.297 328.426 182.236 328.325 182.155C328.223 182.074 328.139 181.973 328.076 181.859C328.014 181.745 327.975 181.62 327.961 181.49Z" fill="#EBEBEB"/>
<path d="M344.635 190.445L343.678 190.823C343.556 190.87 343.427 190.893 343.296 190.891C343.166 190.888 343.038 190.86 342.918 190.808C342.799 190.756 342.691 190.68 342.601 190.586C342.51 190.492 342.44 190.381 342.392 190.26C342.345 190.139 342.322 190.009 342.324 189.879C342.327 189.748 342.355 189.62 342.407 189.501C342.459 189.381 342.535 189.273 342.629 189.183C342.723 189.093 342.834 189.022 342.955 188.975L343.913 188.605C344.157 188.509 344.429 188.513 344.67 188.617C344.911 188.721 345.101 188.916 345.198 189.16C345.247 189.281 345.271 189.41 345.269 189.541C345.267 189.672 345.239 189.801 345.186 189.92C345.134 190.04 345.058 190.148 344.963 190.238C344.869 190.328 344.757 190.398 344.635 190.445Z" fill="#EBEBEB"/>
<path d="M341.192 190.539C347.467 189.839 351.986 184.184 351.286 177.909C350.585 171.634 344.93 167.115 338.656 167.816C332.381 168.516 327.862 174.171 328.562 180.446C329.263 186.721 334.917 191.24 341.192 190.539Z" fill="#EBEBEB"/>
<path d="M335.026 172.922C335.056 173.473 335.265 173.998 335.622 174.418C335.978 174.854 336.445 175.185 336.974 175.375C337.52 175.575 338.122 175.557 338.654 175.325C339.161 175.101 339.571 174.705 339.814 174.208C339.444 174.553 339.002 174.811 338.52 174.964C338.294 175.03 338.058 175.055 337.823 175.039C337.587 175.032 337.355 174.987 337.134 174.905L336.798 174.77C336.689 174.712 336.58 174.661 336.479 174.594C336.271 174.468 336.077 174.322 335.899 174.157C335.528 173.808 335.231 173.388 335.026 172.922Z" fill="#C7C7C7"/>
<path d="M339.184 173.124C339.19 172.737 339.062 172.36 338.822 172.057C338.58 171.745 338.254 171.509 337.882 171.377C337.509 171.234 337.096 171.242 336.729 171.399C336.362 171.556 336.071 171.849 335.916 172.217C336.185 172.006 336.493 171.851 336.823 171.763C337.118 171.691 337.428 171.708 337.714 171.813C338.351 172.05 338.876 172.518 339.184 173.124Z" fill="#C7C7C7"/>
<path d="M343.913 180.491C343.809 180.854 343.842 181.242 344.005 181.583C344.162 181.935 344.427 182.229 344.761 182.423C344.931 182.529 345.12 182.6 345.318 182.63C345.516 182.661 345.718 182.65 345.912 182.599C346.28 182.508 346.6 182.284 346.811 181.969C346.509 182.108 346.185 182.194 345.853 182.221C345.557 182.229 345.265 182.151 345.013 181.994C344.747 181.842 344.516 181.636 344.333 181.39C344.139 181.118 343.996 180.814 343.913 180.491Z" fill="#C7C7C7"/>
<path d="M346.408 181.516C346.46 181.395 346.486 181.265 346.486 181.134C346.486 181.002 346.46 180.872 346.408 180.751C346.303 180.494 346.117 180.279 345.878 180.138C345.754 180.062 345.615 180.012 345.471 179.992C345.326 179.971 345.179 179.981 345.038 180.021C344.91 180.059 344.792 180.122 344.689 180.207C344.587 180.292 344.502 180.398 344.442 180.516C344.656 180.446 344.88 180.41 345.106 180.407C345.287 180.416 345.463 180.471 345.618 180.567C345.977 180.789 346.255 181.122 346.408 181.516Z" fill="#C7C7C7"/>
<path d="M347.701 177.509C347.611 177.613 347.543 177.735 347.502 177.866C347.46 177.997 347.445 178.136 347.458 178.273C347.471 178.422 347.515 178.566 347.585 178.697C347.656 178.829 347.753 178.944 347.869 179.038C347.986 179.13 348.122 179.196 348.267 179.229C348.413 179.263 348.564 179.263 348.709 179.231C348.975 179.173 349.213 179.024 349.381 178.811C349.146 178.831 348.91 178.831 348.676 178.811C348.485 178.807 348.301 178.739 348.155 178.618C348.005 178.495 347.889 178.336 347.819 178.156C347.745 177.948 347.705 177.729 347.701 177.509Z" fill="#C7C7C7"/>
<path d="M349.23 178.45C349.308 178.387 349.37 178.306 349.409 178.213C349.449 178.121 349.465 178.021 349.457 177.921C349.453 177.81 349.424 177.701 349.373 177.602C349.323 177.504 349.251 177.417 349.163 177.349C349.075 177.277 348.972 177.226 348.86 177.203C348.749 177.18 348.634 177.184 348.524 177.215C348.429 177.24 348.339 177.284 348.261 177.344C348.183 177.405 348.118 177.481 348.071 177.568C348.234 177.571 348.397 177.585 348.558 177.61C348.665 177.626 348.766 177.67 348.852 177.736C348.944 177.81 349.021 177.901 349.079 178.005C349.148 178.146 349.199 178.296 349.23 178.45Z" fill="#C7C7C7"/>
<path d="M331.75 175.888C331.752 176.027 331.782 176.164 331.838 176.291C331.894 176.418 331.976 176.532 332.077 176.627C332.189 176.731 332.322 176.811 332.466 176.862C332.611 176.912 332.764 176.932 332.917 176.921C333.07 176.914 333.22 176.872 333.354 176.798C333.488 176.723 333.603 176.619 333.69 176.492C333.847 176.27 333.924 176 333.908 175.728C333.755 175.908 333.587 176.074 333.404 176.224C333.257 176.339 333.079 176.409 332.892 176.425C332.697 176.435 332.503 176.395 332.329 176.308C332.115 176.2 331.919 176.058 331.75 175.888Z" fill="#C7C7C7"/>
<path d="M333.522 175.56C333.535 175.461 333.526 175.36 333.494 175.265C333.462 175.17 333.408 175.084 333.337 175.014C333.26 174.935 333.167 174.873 333.064 174.832C332.961 174.792 332.851 174.773 332.741 174.779C332.635 174.785 332.531 174.814 332.438 174.864C332.344 174.914 332.262 174.983 332.198 175.068C332.134 175.153 332.09 175.251 332.067 175.354C332.045 175.458 332.045 175.566 332.069 175.669C332.22 175.551 332.337 175.451 332.455 175.375C332.55 175.32 332.656 175.286 332.766 175.274C332.884 175.27 333.001 175.29 333.11 175.333C333.257 175.389 333.396 175.465 333.522 175.56Z" fill="#C7C7C7"/>
<path d="M338.99 182.893C338.561 183.145 338.067 183.265 337.57 183.236C337.073 183.207 336.595 183.032 336.198 182.733C335.8 182.433 335.5 182.022 335.336 181.552C335.172 181.082 335.15 180.574 335.274 180.092C335.398 179.61 335.662 179.176 336.033 178.843C336.404 178.511 336.865 178.296 337.357 178.226C337.85 178.155 338.353 178.232 338.802 178.447C339.251 178.662 339.626 179.005 339.881 179.433C340.05 179.718 340.162 180.034 340.209 180.363C340.256 180.692 340.238 181.026 340.155 181.348C340.072 181.67 339.927 181.972 339.727 182.237C339.527 182.502 339.277 182.725 338.99 182.893Z" fill="#DBDBDB"/>
<path d="M336.395 179.659C336.084 179.842 335.822 180.096 335.627 180.4C335.433 180.703 335.314 181.048 335.278 181.407C335.163 181 335.153 180.57 335.249 180.158C335.344 179.746 335.541 179.365 335.822 179.049C336.104 178.733 336.46 178.494 336.858 178.352C337.256 178.21 337.684 178.17 338.102 178.237C338.519 178.304 338.913 178.475 339.247 178.734C339.582 178.993 339.845 179.332 340.014 179.719C340.183 180.107 340.252 180.531 340.214 180.952C340.176 181.373 340.032 181.778 339.797 182.129C339.886 181.699 339.85 181.252 339.692 180.842C339.535 180.432 339.263 180.076 338.909 179.816C338.556 179.556 338.134 179.403 337.696 179.375C337.258 179.347 336.821 179.446 336.437 179.659H336.395Z" fill="#C7C7C7"/>
<path d="M334.32 181.524C334.384 182.192 334.651 182.825 335.084 183.338C335.532 183.864 336.112 184.262 336.764 184.489C337.423 184.749 338.155 184.749 338.814 184.489C339.415 184.2 339.903 183.718 340.2 183.12C339.76 183.568 339.218 183.902 338.621 184.094C338.478 184.14 338.332 184.174 338.184 184.195C338.036 184.212 337.887 184.212 337.739 184.195C337.451 184.186 337.167 184.129 336.899 184.027L336.479 183.859C336.344 183.784 336.21 183.725 336.084 183.641C335.821 183.483 335.576 183.297 335.353 183.086C334.909 182.639 334.558 182.108 334.32 181.524Z" fill="#C7C7C7"/>
<path d="M331.64 182.784C331.523 182.826 331.399 182.844 331.276 182.837C331.152 182.83 331.03 182.8 330.918 182.746C330.807 182.693 330.706 182.618 330.623 182.526C330.54 182.433 330.476 182.326 330.435 182.209C330.394 182.092 330.376 181.968 330.382 181.844C330.389 181.72 330.42 181.599 330.473 181.487C330.526 181.375 330.601 181.275 330.694 181.192C330.786 181.109 330.893 181.045 331.01 181.003C331.247 180.925 331.504 180.942 331.728 181.05C331.953 181.158 332.126 181.349 332.212 181.583C332.295 181.818 332.282 182.077 332.175 182.302C332.067 182.527 331.875 182.701 331.64 182.784Z" fill="#DBDBDB"/>
<path d="M330.96 181.44C330.833 181.485 330.719 181.559 330.627 181.657C330.535 181.755 330.467 181.873 330.431 182.003C330.41 181.794 330.46 181.584 330.572 181.408C330.685 181.231 330.854 181.097 331.052 181.028C331.289 180.95 331.546 180.966 331.77 181.075C331.995 181.183 332.168 181.374 332.254 181.608C332.313 181.776 332.323 181.958 332.283 182.132C332.243 182.306 332.154 182.465 332.027 182.591C332.106 182.391 332.106 182.169 332.027 181.969C331.992 181.864 331.936 181.767 331.864 181.684C331.791 181.6 331.702 181.532 331.603 181.483C331.504 181.434 331.396 181.405 331.286 181.397C331.176 181.39 331.065 181.404 330.96 181.44Z" fill="#C7C7C7"/>
<path d="M330.011 181.953C329.973 182.203 330.017 182.46 330.137 182.683C330.264 182.913 330.449 183.104 330.674 183.238C330.906 183.379 331.183 183.424 331.447 183.364C331.697 183.306 331.918 183.16 332.069 182.952C331.868 183.07 331.645 183.144 331.414 183.171C331.198 183.185 330.984 183.132 330.8 183.019C330.603 182.905 330.432 182.751 330.296 182.567C330.16 182.384 330.063 182.175 330.011 181.953Z" fill="#C7C7C7"/>
<path d="M338.763 188.16C338.501 188.205 338.232 188.171 337.989 188.062C337.746 187.953 337.541 187.775 337.4 187.549C337.258 187.324 337.187 187.062 337.195 186.796C337.202 186.53 337.289 186.272 337.443 186.056C337.598 185.839 337.813 185.673 338.061 185.579C338.31 185.484 338.581 185.466 338.84 185.526C339.1 185.586 339.335 185.721 339.517 185.915C339.7 186.109 339.82 186.352 339.864 186.615C339.894 186.788 339.889 186.966 339.85 187.138C339.811 187.31 339.738 187.473 339.636 187.617C339.533 187.76 339.404 187.882 339.254 187.976C339.104 188.069 338.938 188.132 338.763 188.16Z" fill="#DBDBDB"/>
<path d="M338.091 186.051C337.903 186.083 337.725 186.159 337.572 186.273C337.418 186.387 337.294 186.536 337.209 186.707C337.23 186.377 337.373 186.067 337.609 185.836C337.845 185.605 338.158 185.47 338.487 185.457C338.817 185.443 339.141 185.552 339.395 185.763C339.649 185.973 339.816 186.271 339.864 186.597C339.906 186.848 339.876 187.106 339.778 187.341C339.68 187.576 339.517 187.778 339.309 187.925C339.468 187.675 339.534 187.378 339.494 187.085C339.472 186.924 339.417 186.769 339.334 186.63C339.251 186.49 339.141 186.369 339.01 186.273C338.88 186.177 338.731 186.107 338.573 186.069C338.415 186.031 338.252 186.025 338.091 186.051Z" fill="#C7C7C7"/>
<path d="M336.697 186.572C336.606 186.916 336.62 187.279 336.739 187.614C336.854 187.957 337.06 188.261 337.335 188.496C337.618 188.738 337.979 188.869 338.352 188.865C338.711 188.85 339.054 188.714 339.326 188.479C339.024 188.62 338.693 188.686 338.36 188.672C338.049 188.643 337.755 188.517 337.52 188.311C337.272 188.101 337.071 187.841 336.932 187.547C336.786 187.242 336.706 186.91 336.697 186.572Z" fill="#C7C7C7"/>
<path d="M343.266 174.602C343.515 174.992 343.876 175.296 344.302 175.475C344.728 175.654 345.198 175.7 345.65 175.605C346.102 175.511 346.515 175.281 346.833 174.946C347.152 174.612 347.361 174.188 347.433 173.732C347.505 173.275 347.436 172.808 347.236 172.392C347.036 171.975 346.714 171.629 346.313 171.4C345.912 171.171 345.451 171.07 344.99 171.109C344.53 171.148 344.093 171.327 343.736 171.62C343.28 171.955 342.975 172.456 342.887 173.015C342.798 173.573 342.935 174.144 343.266 174.602Z" fill="#DBDBDB"/>
<path d="M346.391 172.637C346.577 172.87 346.701 173.146 346.751 173.44C346.801 173.734 346.775 174.036 346.676 174.317C346.98 173.958 347.153 173.507 347.167 173.037C347.181 172.567 347.034 172.106 346.752 171.73C346.363 171.321 345.829 171.081 345.265 171.062C344.701 171.043 344.152 171.247 343.736 171.629C343.413 171.884 343.165 172.222 343.017 172.606C342.869 172.99 342.827 173.407 342.896 173.813C342.999 173.318 343.269 172.873 343.661 172.553C344.035 172.204 344.532 172.018 345.043 172.033C345.554 172.049 346.039 172.266 346.391 172.637Z" fill="#C7C7C7"/>
<path d="M342.359 173.166C342.102 173.69 342.063 174.294 342.25 174.846C342.347 175.128 342.505 175.386 342.712 175.602C342.909 175.828 343.154 176.009 343.428 176.132C343.702 176.255 343.999 176.318 344.299 176.316C344.584 176.322 344.867 176.283 345.139 176.198C345.675 176.036 346.165 175.748 346.567 175.358C346.081 175.561 345.574 175.71 345.055 175.804C344.572 175.89 344.075 175.84 343.619 175.661C343.404 175.557 343.205 175.421 343.031 175.258C342.849 175.098 342.7 174.904 342.594 174.686C342.38 174.21 342.299 173.685 342.359 173.166Z" fill="#C7C7C7"/>
<path d="M210.101 131.738L209.513 131.276C212.159 127.916 214.939 124.758 217.779 121.801L218.308 122.322C215.485 125.253 212.722 128.428 210.101 131.738Z" fill="#3A5985"/>
<path d="M206.964 134.497L204.254 137.913L204.834 138.372L207.543 134.957L206.964 134.497Z" fill="#3A5985"/>
<path d="M265.247 170.706C283.5 141.364 285.987 112.452 272.698 103.094C259.409 93.7365 233.025 105.816 211.546 132.889L150.167 210.312L213.1 254.63L265.247 170.706Z" fill="#3A5985"/>
<path opacity="0.1" d="M258.065 165.649L204.641 248.7L198.106 236.209L251.168 160.441C266.171 139.013 274.579 119.432 274.613 108.529C274.611 108.318 274.684 108.114 274.819 107.952C274.954 107.79 275.142 107.681 275.35 107.645C275.558 107.608 275.771 107.647 275.953 107.753C276.135 107.86 276.273 108.028 276.343 108.227C280.123 119.105 273.571 141.549 258.065 165.649Z" fill="white"/>
<path d="M213.062 254.611C221.558 242.544 214.356 222.842 196.975 210.604C179.595 198.366 158.618 198.227 150.121 210.293C141.625 222.359 148.828 242.062 166.208 254.3C183.589 266.538 204.566 266.677 213.062 254.611Z" fill="#3A5985"/>
<path opacity="0.5" d="M213.062 254.611C221.558 242.544 214.356 222.842 196.975 210.604C179.595 198.366 158.618 198.227 150.121 210.293C141.625 222.359 148.828 242.062 166.208 254.3C183.589 266.538 204.566 266.677 213.062 254.611Z" fill="white"/>
<path opacity="0.1" d="M206.531 196.93C192.721 187.203 177.055 184.423 167.051 188.967L151.469 208.606C160.709 198.291 180.457 198.997 196.972 210.622C213.486 222.248 220.819 240.636 214.2 252.79L227.279 231.79C228.405 220.761 220.492 206.758 206.531 196.93Z" fill="black"/>
<path opacity="0.2" d="M228.648 133.611C224.818 139.676 221.928 151.025 233.31 159.03C244.692 167.035 254.403 160.508 258.813 154.83L228.648 133.611Z" fill="black"/>
<path d="M261.501 147.841C260.199 158.677 247.674 166.581 234.528 157.325C221.382 148.068 224.599 133.611 234.36 128.765C240.375 125.757 248.035 127.085 253.277 130.73C258.519 134.376 262.307 141.121 261.501 147.841Z" fill="white"/>
<path d="M236.317 154.763C231.202 151.168 228.581 146.464 228.951 141.541C229.119 139.417 229.833 137.372 231.026 135.605C232.218 133.839 233.847 132.411 235.755 131.461C240.324 129.176 246.792 129.89 251.488 133.192C256.183 136.493 259.048 142.356 258.418 147.43C258.168 149.54 257.377 151.55 256.122 153.264C254.866 154.979 253.189 156.34 251.253 157.216C246.767 159.248 241.433 158.366 236.317 154.763Z" fill="#3A5985"/>
<path opacity="0.3" d="M236.317 154.763C231.202 151.168 228.581 146.464 228.951 141.541C229.119 139.417 229.833 137.372 231.026 135.605C232.218 133.839 233.847 132.411 235.755 131.461C240.324 129.176 246.792 129.89 251.488 133.192C256.183 136.493 259.048 142.356 258.418 147.43C258.168 149.54 257.377 151.55 256.122 153.264C254.866 154.979 253.189 156.34 251.253 157.216C246.767 159.248 241.433 158.366 236.317 154.763Z" fill="black"/>
<path d="M236.317 154.762C231.202 151.167 228.489 146.598 228.69 141.91C228.777 139.918 229.413 137.988 230.528 136.333C231.643 134.679 233.193 133.365 235.007 132.536C239.4 130.503 245.742 131.394 250.438 134.703C255.133 138.013 258.107 143.683 257.67 148.504C257.501 150.495 256.783 152.399 255.597 154.007C254.411 155.614 252.802 156.861 250.95 157.61C246.641 159.382 241.433 158.366 236.317 154.762Z" fill="#3A5985"/>
<path opacity="0.2" d="M236.317 154.762C231.202 151.167 228.489 146.598 228.69 141.91C228.777 139.918 229.413 137.988 230.528 136.333C231.643 134.679 233.193 133.365 235.007 132.536C239.4 130.503 245.742 131.394 250.438 134.703C255.133 138.013 258.107 143.683 257.67 148.504C257.501 150.495 256.783 152.399 255.597 154.007C254.411 155.614 252.802 156.861 250.95 157.61C246.641 159.382 241.433 158.366 236.317 154.762Z" fill="white"/>
<path opacity="0.3" d="M254 138.022L230.354 148.454C229.181 146.478 228.598 144.208 228.674 141.911C228.718 140.829 228.931 139.761 229.304 138.744L244.566 132.024C248.271 132.963 251.573 135.072 253.983 138.038L254 138.022Z" fill="white"/>
<path opacity="0.3" d="M257.393 144.75L235.696 154.309C234.391 153.352 233.202 152.247 232.151 151.016L255.755 140.6C256.493 141.9 257.044 143.297 257.393 144.75Z" fill="white"/>
<path opacity="0.1" d="M281.047 126.043C280.325 120.247 275.873 113.544 268.834 108.588C261.795 103.632 253.991 101.7 248.287 102.968C257.989 99.0118 266.683 98.8606 272.698 103.094C278.712 107.328 281.501 115.577 281.047 126.043Z" fill="black"/>
<path opacity="0.5" d="M196.962 230.983C199.609 227.224 197.465 221.156 192.174 217.43C186.882 213.704 180.447 213.731 177.8 217.49C175.153 221.25 177.297 227.317 182.589 231.043C187.88 234.769 194.315 234.742 196.962 230.983Z" fill="#3A5985"/>
<path opacity="0.5" d="M172.007 227.456C169.361 231.211 162.927 231.245 157.635 227.515C152.343 223.786 150.192 217.721 152.838 213.966C155.484 210.211 161.927 210.178 167.219 213.907C172.511 217.637 174.62 223.702 172.007 227.456Z" fill="#3A5985"/>
<path opacity="0.5" d="M208.723 253.337C206.077 257.1 199.643 257.125 194.351 253.396C189.059 249.666 186.917 243.601 189.563 239.846C192.209 236.092 198.643 236.058 203.935 239.788C209.227 243.517 211.369 249.582 208.723 253.337Z" fill="#3A5985"/>
<path opacity="0.5" d="M183.767 249.8C181.121 253.555 174.687 253.58 169.395 249.859C164.103 246.138 161.961 240.065 164.607 236.301C167.253 232.538 173.687 232.521 178.979 236.243C184.271 239.964 186.379 246.037 183.767 249.8Z" fill="#3A5985"/>
<path opacity="0.5" d="M196.972 231.001C196.692 231.398 196.365 231.759 195.997 232.076C197.467 228.33 195.25 223.13 190.521 219.804C185.791 216.477 180.155 216.141 177.123 218.779C177.301 218.332 177.529 217.906 177.803 217.51C180.449 213.756 186.892 213.722 192.184 217.452C197.476 221.181 199.609 227.238 196.972 231.001Z" fill="#3A5985"/>
<path opacity="0.5" d="M172.007 227.456C171.728 227.851 171.404 228.212 171.041 228.531C172.511 224.777 170.302 219.585 165.564 216.251C160.827 212.916 155.199 212.588 152.166 215.234C152.343 214.786 152.571 214.36 152.847 213.966C155.493 210.203 161.927 210.177 167.219 213.907C172.511 217.637 174.619 223.693 172.007 227.456Z" fill="#3A5985"/>
<path opacity="0.5" d="M208.723 253.345C208.444 253.737 208.12 254.095 207.757 254.412C209.227 250.657 207.01 245.466 202.281 242.139C197.551 238.813 191.915 238.469 188.883 241.123C189.057 240.671 189.286 240.243 189.563 239.846C192.209 236.083 198.643 236.058 203.935 239.787C209.227 243.517 211.378 249.582 208.723 253.345Z" fill="#3A5985"/>
<path opacity="0.5" d="M183.767 249.8C183.493 250.196 183.168 250.555 182.801 250.867C184.271 247.121 182.053 241.921 177.324 238.595C172.595 235.268 166.959 234.932 163.926 237.578C164.099 237.126 164.328 236.697 164.607 236.301C167.253 232.538 173.687 232.521 178.979 236.243C184.271 239.964 186.379 246.037 183.767 249.8Z" fill="#3A5985"/>
<path d="M191.814 161.474C191.814 161.474 180.474 176.191 170.596 188.858C169.193 190.624 167.355 191.995 165.262 192.836C163.17 193.677 160.894 193.959 158.659 193.654C150.033 192.588 135.979 198.694 135.979 198.694C135.979 198.694 162.565 155.023 191.814 161.474Z" fill="#3A5985"/>
<path opacity="0.3" d="M191.814 161.474C191.814 161.474 180.474 176.191 170.596 188.858C169.193 190.624 167.355 191.995 165.262 192.836C163.17 193.677 160.894 193.959 158.659 193.654C150.033 192.588 135.979 198.694 135.979 198.694C135.979 198.694 162.565 155.023 191.814 161.474Z" fill="black"/>
<path d="M244.995 198.93C244.995 198.93 235.007 214.562 226.363 228.128C225.174 230.044 224.504 232.236 224.418 234.49C224.333 236.743 224.835 238.98 225.876 240.98C229.791 248.75 228.766 264.072 228.766 264.072C228.766 264.072 260.929 224.281 244.995 198.93Z" fill="#3A5985"/>
<path opacity="0.3" d="M244.995 198.93C244.995 198.93 235.007 214.562 226.363 228.128C225.174 230.044 224.504 232.236 224.418 234.49C224.333 236.743 224.835 238.98 225.876 240.98C229.791 248.75 228.766 264.072 228.766 264.072C228.766 264.072 260.929 224.281 244.995 198.93Z" fill="black"/>
<path d="M281.635 311.314C292.127 285.643 246.767 278.369 228.816 284.812C210.865 291.254 192.562 296.042 191.856 278.864C191.151 261.686 204.977 251.035 198.383 247.07C194.729 244.87 193.687 248.75 191.881 254.412C186.354 271.758 155.047 275.891 169.453 300.998C183.859 326.106 176.173 320.654 151.939 330.726C127.705 340.798 140.179 369.803 163.624 369.803H304.811C369.525 369.803 308.255 245.936 281.635 311.314Z" fill="#3A5985"/>
<path opacity="0.6" d="M281.635 311.314C292.127 285.643 246.767 278.369 228.816 284.812C210.865 291.254 192.562 296.042 191.856 278.864C191.151 261.686 204.977 251.035 198.383 247.07C194.729 244.87 193.687 248.75 191.881 254.412C186.354 271.758 155.047 275.891 169.453 300.998C183.859 326.106 176.173 320.654 151.939 330.726C127.705 340.798 140.179 369.803 163.624 369.803H304.811C369.525 369.803 308.255 245.936 281.635 311.314Z" fill="white"/>
<path d="M162.389 221.837C160.507 215.301 150.327 223.517 140.297 233.471C130.267 243.425 125.32 266.147 115.618 277.991C105.916 289.835 78.137 300.536 88.9982 318.361C105.017 344.628 68.1998 369.828 111.804 369.828H201.239C217.594 369.828 235.326 349.827 209.857 336.228C184.389 322.628 146.236 354.338 135.937 324.09C130.83 309.079 149.377 315.967 140.784 291.389C132.191 266.81 132.762 260.115 137.139 249.162C147.79 222.467 165.287 231.765 162.389 221.837Z" fill="#3A5985"/>
<path opacity="0.6" d="M162.389 221.837C160.507 215.301 150.327 223.517 140.297 233.471C130.267 243.425 125.32 266.147 115.618 277.991C105.916 289.835 78.137 300.536 88.9982 318.361C105.017 344.628 68.1998 369.828 111.804 369.828H201.239C217.594 369.828 235.326 349.827 209.857 336.228C184.389 322.628 146.236 354.338 135.937 324.09C130.83 309.079 149.377 315.967 140.784 291.389C132.191 266.81 132.762 260.115 137.139 249.162C147.79 222.467 165.287 231.765 162.389 221.837Z" fill="white"/>
<path d="M180.928 224.852C183.145 220.803 190.756 223.231 190.588 228.531C190.42 233.832 170.713 240.779 174.376 259.082C178.038 277.386 213.217 278.696 221.475 297.033C229.732 315.371 197.745 317.941 207.287 329.407C216.829 340.873 246.28 314.539 267.263 321.309C288.246 328.08 309.213 369.803 270.724 369.803H152.124C126.336 369.803 107.503 316.555 132.283 294.648C157.063 272.741 137.071 279.855 146.32 265.819C155.568 251.783 172.419 240.375 180.928 224.852Z" fill="#3A5985"/>
<path opacity="0.8" d="M180.928 224.852C183.145 220.803 190.756 223.231 190.588 228.531C190.42 233.832 170.713 240.779 174.376 259.082C178.038 277.386 213.217 278.696 221.475 297.033C229.732 315.371 197.745 317.941 207.287 329.407C216.829 340.873 246.28 314.539 267.263 321.309C288.246 328.08 309.213 369.803 270.724 369.803H152.124C126.336 369.803 107.503 316.555 132.283 294.648C157.063 272.741 137.071 279.855 146.32 265.819C155.568 251.783 172.419 240.375 180.928 224.852Z" fill="white"/>
<path d="M144.697 37.6388L151.165 31.1708C151.608 30.7305 151.959 30.207 152.199 29.6303C152.439 29.0537 152.562 28.4353 152.562 27.8108C152.562 27.1863 152.439 26.5679 152.199 25.9912C151.959 25.4146 151.608 24.8911 151.165 24.4508C150.724 24.0089 150.2 23.6582 149.624 23.419C149.047 23.1798 148.429 23.0566 147.805 23.0566C147.181 23.0566 146.562 23.1798 145.986 23.419C145.409 23.6582 144.886 24.0089 144.445 24.4508L137.977 30.9188C137.534 31.3591 137.182 31.8826 136.942 32.4592C136.703 33.0359 136.579 33.6543 136.579 34.2788C136.579 34.9033 136.703 35.5217 136.942 36.0983C137.182 36.675 137.534 37.1985 137.977 37.6388C138.418 38.0807 138.941 38.4313 139.518 38.6706C140.094 38.9098 140.713 39.0329 141.337 39.0329C141.961 39.0329 142.579 38.9098 143.156 38.6706C143.732 38.4313 144.256 38.0807 144.697 37.6388Z" fill="#EBEBEB"/>
<path d="M233.048 101.756L237.156 93.5828C237.719 92.4587 237.814 91.1568 237.419 89.963C237.023 88.7692 236.17 87.7811 235.047 87.2156C234.491 86.9353 233.885 86.7675 233.263 86.7218C232.642 86.676 232.018 86.7533 231.426 86.9491C230.835 87.145 230.288 87.4556 229.817 87.8631C229.345 88.2706 228.959 88.7671 228.68 89.3241L224.572 97.4972C224.292 98.0536 224.124 98.6598 224.078 99.2812C224.033 99.9025 224.11 100.527 224.306 101.118C224.502 101.71 224.812 102.257 225.22 102.728C225.627 103.199 226.124 103.585 226.681 103.864C227.237 104.145 227.843 104.313 228.465 104.358C229.086 104.404 229.71 104.327 230.302 104.131C230.893 103.935 231.44 103.625 231.911 103.217C232.383 102.809 232.769 102.313 233.048 101.756Z" fill="#EBEBEB"/>
<path d="M176.415 19.3772L181.279 18.68C182.524 18.5012 183.647 17.8354 184.401 16.8289C185.156 15.8225 185.48 14.5577 185.302 13.3124C185.215 12.6955 185.006 12.1019 184.689 11.5656C184.372 11.0292 183.952 10.5608 183.453 10.187C182.955 9.81329 182.387 9.54155 181.783 9.38742C181.18 9.2333 180.551 9.19982 179.935 9.28886L175.071 9.98605C174.454 10.0736 173.86 10.2819 173.324 10.5992C172.788 10.9165 172.319 11.3365 171.946 11.8351C171.572 12.3337 171.3 12.9011 171.146 13.5049C170.992 14.1087 170.958 14.7369 171.047 15.3537C171.226 16.5987 171.892 17.7218 172.899 18.4763C173.905 19.2307 175.17 19.5548 176.415 19.3772Z" fill="#EBEBEB"/>
<path d="M137.809 83.5618L137.111 78.6982C137.024 78.0812 136.816 77.4876 136.498 76.9513C136.181 76.415 135.761 75.9465 135.262 75.5728C134.764 75.199 134.196 74.9273 133.593 74.7732C132.989 74.6191 132.361 74.5856 131.744 74.6746C131.128 74.7621 130.535 74.9702 130 75.2871C129.465 75.604 128.997 76.0233 128.624 76.5211C128.251 77.019 127.98 77.5855 127.827 78.1882C127.673 78.791 127.64 79.4182 127.729 80.0338L128.417 84.9058C128.598 86.1498 129.265 87.2716 130.271 88.0256C131.277 88.7797 132.54 89.1046 133.785 88.9294C135.03 88.7505 136.153 88.0847 136.908 87.0783C137.662 86.0718 137.986 84.807 137.809 83.5618Z" fill="#EBEBEB"/>
<path d="M242.12 76.237V65.4682C242.12 64.4661 241.308 63.6538 240.305 63.6538H234.451C233.449 63.6538 232.636 64.4661 232.636 65.4682V76.237C232.636 77.2391 233.449 78.0514 234.451 78.0514H240.305C241.308 78.0514 242.12 77.2391 242.12 76.237Z" fill="#EBEBEB"/>
<path d="M167.612 124.789L172.358 126.057C172.96 126.218 173.587 126.259 174.205 126.178C174.822 126.096 175.418 125.893 175.957 125.581C176.496 125.269 176.968 124.854 177.347 124.359C177.725 123.864 178.002 123.299 178.162 122.697C178.323 122.095 178.364 121.467 178.283 120.849C178.201 120.231 177.999 119.635 177.687 119.095C177.375 118.555 176.959 118.082 176.464 117.703C175.969 117.323 175.405 117.045 174.802 116.884L170.056 115.616C169.454 115.455 168.826 115.414 168.208 115.495C167.589 115.577 166.993 115.78 166.454 116.092C165.914 116.404 165.441 116.819 165.061 117.314C164.682 117.809 164.404 118.374 164.243 118.976C163.923 120.193 164.097 121.488 164.728 122.578C165.359 123.667 166.396 124.462 167.612 124.789Z" fill="#EBEBEB"/>
<path d="M184.042 123.512C214.262 123.512 238.76 99.014 238.76 68.7943C238.76 38.5746 214.262 14.0767 184.042 14.0767C153.823 14.0767 129.325 38.5746 129.325 68.7943C129.325 99.014 153.823 123.512 184.042 123.512Z" fill="#EBEBEB"/>
<path d="M203.95 36.3369C204.088 38.965 203.378 41.5679 201.926 43.7625C200.459 46.0239 198.403 47.842 195.979 49.0209C193.486 50.2722 190.607 50.5159 187.94 49.7013C185.412 48.9001 183.247 47.2348 181.825 44.9973C183.77 46.4373 186.011 47.4271 188.385 47.8953C189.496 48.0928 190.634 48.0928 191.745 47.8953C192.854 47.7242 193.928 47.3783 194.929 46.8705C195.441 46.6185 195.962 46.3413 196.466 46.0305C196.97 45.7197 197.44 45.4005 197.886 45.0309C198.81 44.3302 199.655 43.5302 200.406 42.6453C201.986 40.7929 203.19 38.6501 203.95 36.3369Z" fill="#C7C7C7"/>
<path d="M184.278 39.4866C184.035 37.6623 184.439 35.8106 185.42 34.2534C186.403 32.635 187.832 31.3343 189.536 30.507C190.414 30.0655 191.371 29.8018 192.351 29.7312C193.331 29.6606 194.316 29.7844 195.248 30.0954C197.008 30.6939 198.472 31.9445 199.339 33.5898C197.953 32.7338 196.411 32.1627 194.803 31.9098C193.36 31.7393 191.898 31.9994 190.603 32.6574C187.722 34.0734 185.469 36.5064 184.278 39.4866Z" fill="#C7C7C7"/>
<path d="M165.747 77.0684C166.421 78.7336 166.469 80.587 165.881 82.2848C165.306 84.0484 164.203 85.5933 162.723 86.7116C161.968 87.301 161.103 87.7333 160.178 87.9828C159.253 88.2324 158.288 88.2943 157.339 88.1648C155.552 87.9182 153.919 87.0209 152.752 85.6448C154.257 86.1417 155.839 86.3636 157.423 86.3C158.824 86.1986 160.164 85.6809 161.27 84.8132C162.444 83.9259 163.432 82.8155 164.176 81.5456C164.958 80.1568 165.49 78.6413 165.747 77.0684Z" fill="#C7C7C7"/>
<path d="M154.416 83.2762C154.114 82.721 153.925 82.1111 153.862 81.4823C153.798 80.8534 153.861 80.2182 154.046 79.6138C154.411 78.3354 155.183 77.2114 156.247 76.4134C156.792 75.9829 157.421 75.6721 158.094 75.5014C158.767 75.3306 159.469 75.3036 160.153 75.4222C160.78 75.5304 161.379 75.7648 161.914 76.1114C162.448 76.4579 162.906 76.9093 163.261 77.4382C162.21 77.2326 161.134 77.1845 160.069 77.2954C159.201 77.4218 158.382 77.7721 157.692 78.3118C156.085 79.5629 154.934 81.3071 154.416 83.2762Z" fill="#C7C7C7"/>
<path d="M146.125 64.8887C146.608 65.3405 146.995 65.885 147.264 66.4897C147.532 67.0943 147.676 67.7468 147.687 68.4083C147.699 69.1235 147.568 69.834 147.301 70.4977C147.035 71.1614 146.637 71.7648 146.133 72.2723C145.615 72.793 144.984 73.1873 144.29 73.4248C143.595 73.6622 142.854 73.7364 142.126 73.6415C140.821 73.4956 139.607 72.9019 138.691 71.9615C139.82 72.0046 140.951 71.9399 142.067 71.7683C142.954 71.6364 143.775 71.2243 144.411 70.5923C145.065 69.9287 145.542 69.1112 145.797 68.2151C146.091 67.1322 146.201 66.008 146.125 64.8887Z" fill="#C7C7C7"/>
<path d="M139.346 70.2059C138.948 69.9347 138.618 69.5753 138.382 69.1557C138.146 68.736 138.01 68.2675 137.985 67.7867C137.951 67.2583 138.03 66.7287 138.217 66.2333C138.404 65.7379 138.694 65.2881 139.069 64.9139C139.455 64.5251 139.929 64.235 140.451 64.0684C140.973 63.9017 141.527 63.8632 142.067 63.9563C142.533 64.026 142.979 64.1874 143.382 64.4311C143.784 64.6748 144.134 64.9959 144.411 65.3759C143.635 65.4808 142.866 65.6351 142.109 65.8379C141.603 65.9652 141.14 66.2297 140.774 66.6023C140.381 67.0001 140.07 67.4709 139.858 67.9882C139.583 68.6993 139.41 69.4461 139.346 70.2059Z" fill="#C7C7C7"/>
<path d="M221.103 48.6851C221.166 49.3434 221.095 50.0077 220.893 50.6375C220.69 51.2672 220.362 51.849 219.927 52.3474C219.462 52.8904 218.894 53.335 218.255 53.6552C217.616 53.9755 216.919 54.1648 216.206 54.2122C215.473 54.2571 214.739 54.1327 214.062 53.8486C213.385 53.5646 212.782 53.1286 212.3 52.5743C211.418 51.6053 210.896 50.3627 210.822 49.0547C211.652 49.8359 212.555 50.5363 213.518 51.1463C214.267 51.6292 215.148 51.8669 216.038 51.8267C216.965 51.7679 217.863 51.4792 218.65 50.9867C219.588 50.3581 220.416 49.5807 221.103 48.6851Z" fill="#C7C7C7"/>
<path d="M212.501 48.1559C212.385 47.6883 212.378 47.2 212.482 46.7294C212.585 46.2587 212.796 45.8183 213.098 45.4427C213.423 45.0264 213.834 44.6838 214.301 44.4377C214.769 44.1915 215.284 44.0474 215.811 44.0147C216.357 43.9762 216.904 44.0715 217.405 44.2926C217.905 44.5137 218.345 44.8537 218.684 45.2831C218.992 45.6416 219.225 46.0583 219.369 46.5084C219.514 46.9586 219.566 47.4331 219.524 47.9039C218.875 47.4592 218.196 47.0606 217.491 46.7111C217.029 46.4693 216.508 46.3616 215.987 46.4003C215.43 46.4338 214.885 46.5765 214.383 46.8203C213.696 47.174 213.062 47.6237 212.501 48.1559Z" fill="#C7C7C7"/>
<path d="M190.426 85.8634C192.614 86.8534 195.046 87.1714 197.414 86.777C199.783 86.3827 201.981 85.2938 203.73 83.6484C205.478 82.0031 206.699 79.8754 207.237 77.5353C207.775 75.1952 207.605 72.7481 206.75 70.5043C205.895 68.2606 204.393 66.3214 202.435 64.9325C200.476 63.5437 198.149 62.7679 195.749 62.7036C193.348 62.6392 190.983 63.2892 188.953 64.571C186.922 65.8528 185.319 67.7088 184.345 69.9034C183.037 72.8267 182.944 76.1492 184.084 79.1414C185.224 82.1337 187.505 84.5513 190.426 85.8634Z" fill="#DBDBDB"/>
<path d="M201.027 69.0884C202.602 69.7916 203.987 70.8577 205.071 72.1995C206.154 73.5413 206.904 75.1205 207.26 76.808C207.589 74.8069 207.408 72.7552 206.734 70.8424C206.061 68.9296 204.916 67.2173 203.406 65.8637C201.896 64.51 200.069 63.5586 198.095 63.0972C196.12 62.6359 194.061 62.6796 192.107 63.2241C190.154 63.7687 188.369 64.7966 186.918 66.2131C185.466 67.6295 184.395 69.3887 183.803 71.3283C183.212 73.268 183.118 75.3254 183.531 77.3108C183.944 79.2962 184.851 81.1455 186.167 82.688C185.485 80.6666 185.406 78.4904 185.939 76.4248C186.472 74.3591 187.595 72.4931 189.17 71.0542C190.745 69.6153 192.705 68.6657 194.81 68.3212C196.915 67.9766 199.075 68.2519 201.027 69.1136V69.0884Z" fill="#C7C7C7"/>
<path d="M212.081 76.8247C212.144 80.0408 211.211 83.1975 209.41 85.8631C207.588 88.5925 205.071 90.7874 202.119 92.2219C199.102 93.7455 195.618 94.0639 192.375 93.1123C189.279 92.1617 186.596 90.1896 184.765 87.5179C187.118 89.3896 189.877 90.6842 192.82 91.2979C193.524 91.415 194.233 91.4907 194.945 91.5247C195.649 91.5321 196.352 91.4759 197.045 91.3567C198.446 91.1457 199.803 90.7148 201.069 90.0799C201.716 89.7523 202.363 89.4079 202.984 89.0383C203.606 88.6687 204.211 88.2571 204.765 87.7867C205.924 86.902 206.978 85.8874 207.907 84.7627C209.827 82.4306 211.248 79.7288 212.081 76.8247Z" fill="#C7C7C7"/>
<path d="M225.328 81.4282C226.2 81.6363 227.115 81.5807 227.955 81.2684C228.796 80.9562 229.525 80.4014 230.05 79.6743C230.575 78.9473 230.872 78.0807 230.904 77.1846C230.935 76.2885 230.7 75.403 230.228 74.6407C229.756 73.8783 229.068 73.2732 228.252 72.9022C227.436 72.5313 226.528 72.411 225.643 72.5568C224.758 72.7026 223.936 73.1079 223.282 73.7212C222.628 74.3345 222.171 75.1282 221.968 76.0018C221.696 77.1668 221.897 78.3923 222.527 79.4095C223.156 80.4268 224.164 81.1527 225.328 81.4282Z" fill="#DBDBDB"/>
<path d="M228.016 74.5234C228.642 74.6705 229.225 74.9632 229.717 75.3777C230.209 75.7922 230.596 76.3168 230.847 76.909C230.826 76.1529 230.615 75.4142 230.233 74.7612C229.851 74.1082 229.31 73.5621 228.662 73.1731C228.013 72.7841 227.276 72.5648 226.52 72.5356C225.765 72.5063 225.013 72.668 224.337 73.0057C223.66 73.3434 223.079 73.8462 222.647 74.4677C222.216 75.0892 221.948 75.8093 221.869 76.5616C221.789 77.3139 221.901 78.0741 222.193 78.772C222.485 79.4699 222.948 80.083 223.539 80.5546C223.026 79.6623 222.873 78.6077 223.111 77.6062C223.353 76.5472 224.006 75.6277 224.925 75.0497C225.845 74.4716 226.957 74.2823 228.016 74.5234Z" fill="#C7C7C7"/>
<path d="M232.611 76.5562C232.926 77.7335 232.847 78.9817 232.384 80.1094C231.925 81.2696 231.151 82.2789 230.15 83.0242C229.126 83.811 227.839 84.1749 226.555 84.0406C225.333 83.8996 224.203 83.3242 223.371 82.4194C224.383 82.881 225.484 83.116 226.597 83.1081C227.628 83.0722 228.622 82.7105 229.436 82.075C230.306 81.413 231.035 80.5837 231.581 79.636C232.126 78.6883 232.476 77.6412 232.611 76.5562Z" fill="#C7C7C7"/>
<path d="M194.29 110.711C195.56 110.785 196.824 110.481 197.921 109.837C199.018 109.193 199.899 108.238 200.453 107.092C201.007 105.947 201.208 104.663 201.031 103.403C200.854 102.143 200.308 100.964 199.46 100.015C198.613 99.0661 197.502 98.3902 196.27 98.0728C195.038 97.7554 193.74 97.8109 192.54 98.2321C191.339 98.6534 190.291 99.4215 189.527 100.439C188.764 101.457 188.319 102.678 188.251 103.949C188.203 104.789 188.322 105.631 188.599 106.426C188.877 107.221 189.309 107.953 189.87 108.581C190.43 109.209 191.11 109.72 191.868 110.086C192.627 110.451 193.45 110.663 194.29 110.711Z" fill="#DBDBDB"/>
<path d="M196.357 100.395C197.27 100.443 198.159 100.707 198.951 101.166C199.742 101.624 200.413 102.264 200.909 103.033C200.695 101.978 200.218 100.995 199.524 100.173C198.829 99.3516 197.938 98.7186 196.933 98.3325C195.929 97.9464 194.843 97.8197 193.777 97.9642C192.711 98.1088 191.698 98.5198 190.833 99.1593C189.967 99.7988 189.277 100.646 188.826 101.623C188.375 102.6 188.177 103.675 188.251 104.748C188.325 105.822 188.669 106.859 189.25 107.765C189.832 108.67 190.632 109.415 191.577 109.929C190.637 108.806 190.163 107.367 190.25 105.906C190.288 105.143 190.477 104.395 190.805 103.705C191.133 103.015 191.594 102.396 192.161 101.885C192.728 101.373 193.391 100.978 194.11 100.722C194.83 100.467 195.594 100.356 196.357 100.395Z" fill="#C7C7C7"/>
<path d="M203.295 102.125C203.916 103.708 204.042 105.442 203.656 107.098C203.272 108.79 202.446 110.349 201.262 111.617C200.058 112.933 198.403 113.749 196.626 113.902C194.918 114.017 193.221 113.559 191.804 112.6C193.32 113.097 194.932 113.226 196.508 112.978C198.004 112.694 199.366 111.93 200.389 110.803C201.453 109.671 202.263 108.325 202.766 106.855C203.269 105.332 203.449 103.722 203.295 102.125Z" fill="#C7C7C7"/>
<path d="M165.663 48.7267C162.765 53.1535 156.364 54.0943 151.383 50.8267C146.402 47.5591 144.663 41.3179 147.569 36.8911C150.476 32.4643 156.86 31.5235 161.849 34.7911C166.839 38.0587 168.553 44.2999 165.663 48.7267Z" fill="#DBDBDB"/>
<path d="M149.753 41.0408C149.002 42.2381 148.565 43.6056 148.483 45.0167C148.401 46.4277 148.676 47.8367 149.283 49.1132C145.923 45.6692 145.083 40.6376 147.553 36.8828C150.442 32.4644 156.843 31.5236 161.833 34.7912C163.507 35.8242 164.872 37.2888 165.786 39.0313C166.699 40.7739 167.127 42.7301 167.024 44.6948C166.276 42.3954 164.753 40.427 162.715 39.1256C158.195 36.1688 152.383 37.0172 149.753 41.0408Z" fill="#C7C7C7"/>
<path d="M169.191 41.4189C169.935 42.5597 170.446 43.837 170.692 45.1766C170.939 46.5162 170.917 47.8915 170.627 49.2225C170.311 50.6102 169.694 51.9118 168.821 53.0361C167.956 54.1743 166.895 55.1498 165.688 55.9173C164.437 56.6189 163.067 57.0831 161.648 57.2865C160.275 57.4584 158.884 57.4187 157.523 57.1689C154.893 56.7089 152.409 55.6323 150.274 54.0273C152.702 54.7336 155.201 55.1648 157.725 55.3125C160.057 55.4832 162.389 54.9818 164.445 53.8677C165.425 53.2711 166.299 52.5161 167.032 51.6333C167.799 50.768 168.4 49.7685 168.805 48.6849C169.595 46.3438 169.729 43.8307 169.191 41.4189Z" fill="#C7C7C7"/>
<path d="M324.87 285.491L329.499 286.34L330.532 291.22L331.565 286.34L336.193 285.483L331.582 284.357L330.532 279.754L329.473 284.357L324.87 285.491Z" fill="#C7C7C7"/>
<path d="M133.946 259.149L138.575 260.006L139.608 264.886L140.641 260.006L145.269 259.149L140.666 258.023L139.608 253.42L138.558 258.023L133.946 259.149Z" fill="#C7C7C7"/>
<path d="M277.603 207.01L282.232 207.866L283.265 212.738L284.298 207.866L288.926 207.01L284.323 205.876L283.265 201.272L282.215 205.876L277.603 207.01Z" fill="#C7C7C7"/>
<path d="M368.852 256.771L371.44 257.25L372.019 259.98L372.599 257.25L375.178 256.771L372.607 256.141L372.019 253.571L371.431 256.141L368.852 256.771Z" fill="#C7C7C7"/>
<path d="M172.595 360.511L175.174 360.99L175.753 363.72L176.333 360.99L178.92 360.511L176.341 359.881L175.753 357.311L175.165 359.881L172.595 360.511Z" fill="#C7C7C7"/>
<path d="M362.527 134.055L365.114 134.534L365.694 137.256L366.265 134.534L368.852 134.047L366.282 133.425L365.694 130.847L365.098 133.425L362.527 134.055Z" fill="#C7C7C7"/>
<path d="M57.4475 192.696L60.0347 193.175L60.6143 195.897L61.1855 193.175L63.7727 192.696L61.2023 192.066L60.6143 189.487L60.0263 192.066L57.4475 192.696Z" fill="#C7C7C7"/>
<path d="M71.3245 331.456L73.9117 331.935L74.4913 334.656L75.0625 331.935L77.6497 331.456L75.0793 330.826L74.4913 328.247L73.8949 330.826L71.3245 331.456Z" fill="#C7C7C7"/>
<path d="M352.548 203.112L355.135 203.591L355.706 206.313L356.286 203.591L358.873 203.112L356.303 202.482L355.706 199.903L355.118 202.482L352.548 203.112Z" fill="#C7C7C7"/>
<path d="M243.457 291.22L246.044 291.699L246.624 294.429L247.204 291.699L249.791 291.22L247.212 290.59L246.624 288.02L246.036 290.59L243.457 291.22Z" fill="#C7C7C7"/>
<path d="M149.344 72.2991L151.931 72.7779L152.51 75.4995L153.09 72.7779L155.669 72.2991L153.098 71.6691L152.51 69.0903L151.922 71.6691L149.344 72.2991Z" fill="#C7C7C7"/>
<path d="M250.589 281.316L253.176 281.795L253.756 284.525L254.335 281.795L256.922 281.316L254.344 280.686L253.756 278.107L253.168 280.686L250.589 281.316Z" fill="#C7C7C7"/>
<path d="M166.471 366.408C166.657 366.428 166.829 366.516 166.954 366.654C167.078 366.793 167.148 366.973 167.148 367.16C167.148 367.347 167.078 367.527 166.954 367.666C166.829 367.804 166.657 367.892 166.471 367.912C166.285 367.892 166.114 367.804 165.989 367.666C165.864 367.527 165.795 367.347 165.795 367.16C165.795 366.973 165.864 366.793 165.989 366.654C166.114 366.516 166.285 366.428 166.471 366.408Z" fill="#C7C7C7"/>
<path d="M300.208 225.8C300.393 225.82 300.565 225.908 300.69 226.046C300.815 226.185 300.884 226.365 300.884 226.552C300.884 226.739 300.815 226.919 300.69 227.058C300.565 227.197 300.393 227.284 300.208 227.304C300.022 227.284 299.85 227.197 299.725 227.058C299.6 226.919 299.531 226.739 299.531 226.552C299.531 226.365 299.6 226.185 299.725 226.046C299.85 225.908 300.022 225.82 300.208 225.8Z" fill="#C7C7C7"/>
<path d="M236.241 288.96C236.44 288.96 236.63 289.039 236.77 289.179C236.91 289.319 236.989 289.509 236.989 289.708C236.989 289.906 236.91 290.096 236.77 290.236C236.63 290.376 236.44 290.455 236.241 290.455C236.043 290.455 235.853 290.376 235.713 290.236C235.573 290.096 235.494 289.906 235.494 289.708C235.494 289.509 235.573 289.319 235.713 289.179C235.853 289.039 236.043 288.96 236.241 288.96Z" fill="#C7C7C7"/>
<path d="M125.051 360.789C125.249 360.789 125.439 360.867 125.579 361.008C125.72 361.148 125.798 361.338 125.798 361.536C125.798 361.734 125.72 361.925 125.579 362.065C125.439 362.205 125.249 362.284 125.051 362.284C124.853 362.284 124.662 362.205 124.522 362.065C124.382 361.925 124.303 361.734 124.303 361.536C124.303 361.338 124.382 361.148 124.522 361.008C124.662 360.867 124.853 360.789 125.051 360.789Z" fill="#C7C7C7"/>
<path d="M375.32 370.717C375.506 370.737 375.678 370.825 375.803 370.963C375.928 371.102 375.997 371.282 375.997 371.469C375.997 371.656 375.928 371.836 375.803 371.975C375.678 372.114 375.506 372.201 375.32 372.221C375.135 372.201 374.963 372.114 374.838 371.975C374.713 371.836 374.644 371.656 374.644 371.469C374.644 371.282 374.713 371.102 374.838 370.963C374.963 370.825 375.135 370.737 375.32 370.717Z" fill="#C7C7C7"/>
<path d="M335.882 235.628C336.081 235.628 336.271 235.707 336.411 235.847C336.551 235.988 336.63 236.178 336.63 236.376C336.63 236.574 336.551 236.764 336.411 236.905C336.271 237.045 336.081 237.124 335.882 237.124C335.684 237.124 335.494 237.045 335.354 236.905C335.214 236.764 335.135 236.574 335.135 236.376C335.135 236.178 335.214 235.988 335.354 235.847C335.494 235.707 335.684 235.628 335.882 235.628Z" fill="#C7C7C7"/>
<path d="M185.254 352.926C185.394 352.926 185.529 352.982 185.628 353.081C185.727 353.181 185.783 353.315 185.783 353.455C185.783 353.596 185.727 353.73 185.628 353.83C185.529 353.929 185.394 353.985 185.254 353.985C185.113 353.985 184.979 353.929 184.879 353.83C184.78 353.73 184.724 353.596 184.724 353.455C184.724 353.315 184.78 353.181 184.879 353.081C184.979 352.982 185.113 352.926 185.254 352.926Z" fill="#C7C7C7"/>
<path d="M79.3465 77.5488C79.4765 77.5652 79.596 77.6284 79.6826 77.7266C79.7692 77.8248 79.817 77.9513 79.817 78.0822C79.817 78.2132 79.7692 78.3397 79.6826 78.4379C79.596 78.5361 79.4765 78.5993 79.3465 78.6156C79.2166 78.5993 79.0971 78.5361 79.0104 78.4379C78.9238 78.3397 78.876 78.2132 78.876 78.0822C78.876 77.9513 78.9238 77.8248 79.0104 77.7266C79.0971 77.6284 79.2166 77.5652 79.3465 77.5488Z" fill="#C7C7C7"/>
<path d="M283.92 248.01C284.06 248.01 284.195 248.066 284.294 248.165C284.394 248.264 284.449 248.399 284.449 248.539C284.449 248.68 284.394 248.814 284.294 248.914C284.195 249.013 284.06 249.069 283.92 249.069C283.78 249.069 283.645 249.013 283.546 248.914C283.447 248.814 283.391 248.68 283.391 248.539C283.391 248.399 283.447 248.264 283.546 248.165C283.645 248.066 283.78 248.01 283.92 248.01Z" fill="#C7C7C7"/>
<path d="M258.267 293.899C258.407 293.899 258.541 293.955 258.641 294.054C258.74 294.154 258.796 294.288 258.796 294.429C258.796 294.569 258.74 294.704 258.641 294.803C258.541 294.902 258.407 294.958 258.267 294.958C258.126 294.958 257.992 294.902 257.892 294.803C257.793 294.704 257.737 294.569 257.737 294.429C257.737 294.288 257.793 294.154 257.892 294.054C257.992 293.955 258.126 293.899 258.267 293.899Z" fill="#C7C7C7"/>
<path d="M216.308 284.953C216.438 284.969 216.558 285.033 216.645 285.131C216.731 285.229 216.779 285.356 216.779 285.487C216.779 285.617 216.731 285.744 216.645 285.842C216.558 285.94 216.438 286.004 216.308 286.02C216.179 286.004 216.059 285.94 215.972 285.842C215.886 285.744 215.838 285.617 215.838 285.487C215.838 285.356 215.886 285.229 215.972 285.131C216.059 285.033 216.179 284.969 216.308 284.953Z" fill="#C7C7C7"/>
<path d="M265.911 238.375C266.291 238.375 266.657 238.527 266.926 238.796C267.196 239.066 267.347 239.431 267.347 239.812C267.347 240.193 267.196 240.558 266.926 240.828C266.657 241.097 266.291 241.248 265.911 241.248C265.53 241.248 265.164 241.097 264.895 240.828C264.625 240.558 264.474 240.193 264.474 239.812C264.474 239.431 264.625 239.066 264.895 238.796C265.164 238.527 265.53 238.375 265.911 238.375Z" fill="#C7C7C7"/>
<path d="M192.352 93.2147L196.98 94.0715L198.013 98.9435L199.046 94.0715L203.675 93.2147L199.063 92.0891L198.013 87.4775L196.955 92.0891L192.352 93.2147Z" fill="#C7C7C7"/>
<path d="M209.983 50.9881L212.57 51.4669L213.15 54.1885L213.73 51.4669L216.308 50.9881L213.738 50.3581L213.15 47.7793L212.562 50.3581L209.983 50.9881Z" fill="#C7C7C7"/>
<path d="M53.2056 120.96C53.4039 120.96 53.594 121.039 53.7342 121.179C53.8744 121.319 53.9532 121.509 53.9532 121.708C53.9532 121.906 53.8744 122.096 53.7342 122.236C53.594 122.376 53.4039 122.455 53.2056 122.455C53.0073 122.455 52.8172 122.376 52.677 122.236C52.5368 122.096 52.458 121.906 52.458 121.708C52.458 121.509 52.5368 121.319 52.677 121.179C52.8172 121.039 53.0073 120.96 53.2056 120.96Z" fill="#C7C7C7"/>
<path d="M64.9823 319.788C65.168 319.808 65.3399 319.895 65.4648 320.034C65.5897 320.173 65.6588 320.353 65.6588 320.54C65.6588 320.727 65.5897 320.907 65.4648 321.046C65.3399 321.184 65.168 321.272 64.9823 321.292C64.7966 321.272 64.6248 321.184 64.4999 321.046C64.375 320.907 64.3059 320.727 64.3059 320.54C64.3059 320.353 64.375 320.173 64.4999 320.034C64.6248 319.895 64.7966 319.808 64.9823 319.788Z" fill="#C7C7C7"/>
<path d="M44.6796 357C44.8653 357.02 45.0371 357.107 45.162 357.246C45.2869 357.385 45.356 357.565 45.356 357.752C45.356 357.939 45.2869 358.119 45.162 358.257C45.0371 358.396 44.8653 358.484 44.6796 358.504C44.4939 358.484 44.3221 358.396 44.1972 358.257C44.0723 358.119 44.0032 357.939 44.0032 357.752C44.0032 357.565 44.0723 357.385 44.1972 357.246C44.3221 357.107 44.4939 357.02 44.6796 357Z" fill="#C7C7C7"/>
<path d="M83.0761 183.809C83.2618 183.829 83.4336 183.916 83.5585 184.055C83.6834 184.194 83.7525 184.374 83.7525 184.561C83.7525 184.748 83.6834 184.928 83.5585 185.067C83.4336 185.205 83.2618 185.293 83.0761 185.313C82.8904 185.293 82.7185 185.205 82.5937 185.067C82.4688 184.928 82.3997 184.748 82.3997 184.561C82.3997 184.374 82.4688 184.194 82.5937 184.055C82.7185 183.916 82.8904 183.829 83.0761 183.809Z" fill="#C7C7C7"/>
<path d="M44.6796 54.4067C44.8653 54.4264 45.0371 54.5141 45.162 54.6529C45.2869 54.7917 45.356 54.9718 45.356 55.1585C45.356 55.3453 45.2869 55.5254 45.162 55.6642C45.0371 55.803 44.8653 55.8907 44.6796 55.9103C44.4939 55.8907 44.3221 55.803 44.1972 55.6642C44.0723 55.5254 44.0032 55.3453 44.0032 55.1585C44.0032 54.9718 44.0723 54.7917 44.1972 54.6529C44.3221 54.5141 44.4939 54.4264 44.6796 54.4067Z" fill="#C7C7C7"/>
<path d="M112.736 284.046C112.866 284.062 112.986 284.125 113.072 284.224C113.159 284.322 113.207 284.448 113.207 284.579C113.207 284.71 113.159 284.837 113.072 284.935C112.986 285.033 112.866 285.096 112.736 285.113C112.606 285.096 112.487 285.033 112.4 284.935C112.314 284.837 112.266 284.71 112.266 284.579C112.266 284.448 112.314 284.322 112.4 284.224C112.487 284.125 112.606 284.062 112.736 284.046Z" fill="#C7C7C7"/>
<path d="M224.608 352.027C224.748 352.027 224.883 352.083 224.982 352.182C225.081 352.282 225.137 352.416 225.137 352.557C225.137 352.697 225.081 352.832 224.982 352.931C224.883 353.03 224.748 353.086 224.608 353.086C224.467 353.086 224.333 353.03 224.233 352.931C224.134 352.832 224.078 352.697 224.078 352.557C224.078 352.416 224.134 352.282 224.233 352.182C224.333 352.083 224.467 352.027 224.608 352.027Z" fill="#C7C7C7"/>
<path d="M303.366 109.393C303.496 109.409 303.615 109.473 303.702 109.571C303.789 109.669 303.837 109.796 303.837 109.926C303.837 110.057 303.789 110.184 303.702 110.282C303.615 110.38 303.496 110.444 303.366 110.46C303.236 110.444 303.117 110.38 303.03 110.282C302.943 110.184 302.896 110.057 302.896 109.926C302.896 109.796 302.943 109.669 303.03 109.571C303.117 109.473 303.236 109.409 303.366 109.393Z" fill="#C7C7C7"/>
<path d="M207.564 76.9189C207.704 76.9189 207.839 76.9747 207.938 77.0739C208.037 77.1732 208.093 77.3078 208.093 77.4481C208.093 77.5885 208.037 77.7231 207.938 77.8223C207.839 77.9216 207.704 77.9773 207.564 77.9773C207.424 77.9773 207.289 77.9216 207.19 77.8223C207.09 77.7231 207.035 77.5885 207.035 77.4481C207.035 77.3078 207.09 77.1732 207.19 77.0739C207.289 76.9747 207.424 76.9189 207.564 76.9189Z" fill="#C7C7C7"/>
<path d="M175.753 265.205C176.134 265.205 176.5 265.356 176.769 265.626C177.038 265.895 177.19 266.261 177.19 266.641C177.19 267.022 177.038 267.388 176.769 267.657C176.5 267.927 176.134 268.078 175.753 268.078C175.372 268.078 175.007 267.927 174.738 267.657C174.468 267.388 174.317 267.022 174.317 266.641C174.317 266.261 174.468 265.895 174.738 265.626C175.007 265.356 175.372 265.205 175.753 265.205Z" fill="#C7C7C7"/>
<path d="M365.056 156.618C365.419 156.646 365.758 156.81 366.005 157.077C366.253 157.344 366.39 157.695 366.39 158.059C366.39 158.423 366.253 158.774 366.005 159.041C365.758 159.308 365.419 159.472 365.056 159.499C364.693 159.472 364.353 159.308 364.106 159.041C363.858 158.774 363.721 158.423 363.721 158.059C363.721 157.695 363.858 157.344 364.106 157.077C364.353 156.81 364.693 156.646 365.056 156.618Z" fill="#C7C7C7"/>
<path d="M70.9547 282.61C71.3357 282.61 71.701 282.761 71.9704 283.031C72.2398 283.3 72.3911 283.665 72.3911 284.046C72.3911 284.427 72.2398 284.793 71.9704 285.062C71.701 285.331 71.3357 285.483 70.9547 285.483C70.5738 285.483 70.2084 285.331 69.939 285.062C69.6696 284.793 69.5183 284.427 69.5183 284.046C69.5183 283.665 69.6696 283.3 69.939 283.031C70.2084 282.761 70.5738 282.61 70.9547 282.61Z" fill="#C7C7C7"/>
<path d="M191.68 227.304L194.267 227.783L194.846 230.504L195.426 227.783L198.013 227.304L195.434 226.674L194.846 224.095L194.258 226.674L191.68 227.304Z" fill="#C7C7C7"/>
<path d="M246.624 357.731L249.211 358.21L249.791 360.931L250.362 358.21L252.949 357.722L250.379 357.101L249.791 354.522L249.194 357.101L246.624 357.731Z" fill="#C7C7C7"/>
<path d="M258.082 324.139C258.267 324.159 258.439 324.246 258.564 324.385C258.689 324.524 258.758 324.704 258.758 324.891C258.758 325.078 258.689 325.258 258.564 325.397C258.439 325.535 258.267 325.623 258.082 325.643C257.896 325.623 257.724 325.535 257.599 325.397C257.474 325.258 257.405 325.078 257.405 324.891C257.405 324.704 257.474 324.524 257.599 324.385C257.724 324.246 257.896 324.159 258.082 324.139Z" fill="#C7C7C7"/>
<path d="M287.28 304.198C287.466 304.217 287.637 304.305 287.762 304.444C287.887 304.583 287.956 304.763 287.956 304.95C287.956 305.136 287.887 305.316 287.762 305.455C287.637 305.594 287.466 305.682 287.28 305.701C287.094 305.682 286.922 305.594 286.798 305.455C286.673 305.316 286.604 305.136 286.604 304.95C286.604 304.763 286.673 304.583 286.798 304.444C286.922 304.305 287.094 304.217 287.28 304.198Z" fill="#C7C7C7"/>
<path d="M194.846 338.629L197.434 339.108L198.013 341.838L198.593 339.108L201.18 338.629L198.601 337.999L198.013 335.42L197.425 337.999L194.846 338.629Z" fill="#C7C7C7"/>
<path d="M301.308 97.1714C301.494 97.191 301.666 97.2787 301.79 97.4175C301.915 97.5563 301.984 97.7365 301.984 97.9232C301.984 98.1099 301.915 98.29 301.79 98.4288C301.666 98.5677 301.494 98.6553 301.308 98.675C301.122 98.6553 300.95 98.5677 300.826 98.4288C300.701 98.29 300.632 98.1099 300.632 97.9232C300.632 97.7365 300.701 97.5563 300.826 97.4175C300.95 97.2787 301.122 97.191 301.308 97.1714Z" fill="#C7C7C7"/>
<path d="M319.343 306.6C319.483 306.6 319.618 306.656 319.717 306.755C319.816 306.854 319.872 306.989 319.872 307.129C319.872 307.27 319.816 307.404 319.717 307.503C319.618 307.603 319.483 307.659 319.343 307.659C319.202 307.659 319.068 307.603 318.968 307.503C318.869 307.404 318.813 307.27 318.813 307.129C318.813 306.989 318.869 306.854 318.968 306.755C319.068 306.656 319.202 306.6 319.343 306.6Z" fill="#C7C7C7"/>
<path d="M93.6768 216.401L96.264 216.879L96.8352 219.601L97.4148 216.879L100.002 216.401L97.4316 215.771L96.8352 213.192L96.2472 215.771L93.6768 216.401Z" fill="#C7C7C7"/>
<path d="M63.7727 257.653C63.971 257.653 64.1612 257.732 64.3014 257.872C64.4416 258.012 64.5203 258.203 64.5203 258.401C64.5203 258.599 64.4416 258.789 64.3014 258.93C64.1612 259.07 63.971 259.149 63.7727 259.149C63.5745 259.149 63.3843 259.07 63.2441 258.93C63.1039 258.789 63.0251 258.599 63.0251 258.401C63.0251 258.203 63.1039 258.012 63.2441 257.872C63.3843 257.732 63.5745 257.653 63.7727 257.653Z" fill="#C7C7C7"/>
<path d="M167.16 202.44C167.358 202.44 167.548 202.519 167.689 202.659C167.829 202.799 167.908 202.989 167.908 203.188C167.908 203.386 167.829 203.576 167.689 203.716C167.548 203.856 167.358 203.935 167.16 203.935C166.962 203.935 166.772 203.856 166.631 203.716C166.491 203.576 166.412 203.386 166.412 203.188C166.412 202.989 166.491 202.799 166.631 202.659C166.772 202.519 166.962 202.44 167.16 202.44Z" fill="#C7C7C7"/>
<path d="M79.3465 126.697C79.4765 126.714 79.596 126.777 79.6826 126.875C79.7692 126.973 79.817 127.1 79.817 127.231C79.817 127.362 79.7692 127.488 79.6826 127.586C79.596 127.685 79.4765 127.748 79.3465 127.764C79.2166 127.748 79.0971 127.685 79.0104 127.586C78.9238 127.488 78.876 127.362 78.876 127.231C78.876 127.1 78.9238 126.973 79.0104 126.875C79.0971 126.777 79.2166 126.714 79.3465 126.697Z" fill="#C7C7C7"/>
<path d="M72.5509 121.8C72.9319 121.8 73.2972 121.952 73.5666 122.221C73.836 122.49 73.9873 122.856 73.9873 123.237C73.9873 123.618 73.836 123.983 73.5666 124.252C73.2972 124.522 72.9319 124.673 72.5509 124.673C72.1699 124.673 71.8046 124.522 71.5352 124.252C71.2658 123.983 71.1145 123.618 71.1145 123.237C71.1145 122.856 71.2658 122.49 71.5352 122.221C71.8046 121.952 72.1699 121.8 72.5509 121.8Z" fill="#C7C7C7"/>
<path d="M366.442 58.3716C366.822 58.3716 367.188 58.5229 367.457 58.7923C367.727 59.0617 367.878 59.427 367.878 59.808C367.878 60.1889 367.727 60.5543 367.457 60.8237C367.188 61.093 366.822 61.2444 366.442 61.2444C366.061 61.2444 365.695 61.093 365.426 60.8237C365.156 60.5543 365.005 60.1889 365.005 59.808C365.005 59.427 365.156 59.0617 365.426 58.7923C365.695 58.5229 366.061 58.3716 366.442 58.3716Z" fill="#C7C7C7"/>
<path d="M345.135 186.289C356.131 175.912 356.633 158.586 346.256 147.59C335.879 136.594 318.553 136.092 307.557 146.469C296.561 156.845 296.059 174.171 306.436 185.167C316.812 196.163 334.138 196.666 345.135 186.289Z" fill="#455A64"/>
<path d="M300.869 176.445C303.234 174.034 305.964 172.01 308.959 170.448C314.175 167.625 328.673 163.837 335.209 159.847C344.398 154.244 345.171 148.927 344.902 146.256C342.306 143.876 339.278 142.017 335.981 140.779C335.519 143.593 333.646 152.404 318.199 159.259C310.219 162.812 302.239 161.51 299.483 161.073C298.456 166.224 298.938 171.561 300.869 176.445Z" fill="#37474F"/>
<path d="M313.209 190.422C318.721 193.427 325.096 194.449 331.271 193.319C337.446 192.19 343.046 188.976 347.137 184.215C345.526 183.495 343.833 182.973 342.097 182.661C334.612 181.468 326.817 185.634 324.003 187.524C320.868 189.75 317.038 190.778 313.209 190.422Z" fill="#37474F"/>
<path d="M302.818 180.41L303.213 181.049L303.583 181.611C303.868 182.04 304.154 182.451 304.423 182.863C304.692 183.275 304.986 183.585 305.263 183.93L305.59 184.316L305.968 184.745C306.094 184.887 306.22 185.03 306.355 185.165L306.825 185.652L307.296 186.122L307.716 186.517C308.026 186.803 308.346 187.08 308.665 187.357C310.404 187.735 312.663 187.357 315.88 185.744C320.685 183.401 325.65 178.293 334.948 174.077C340.695 171.525 347.034 170.607 353.269 171.422C354.31 165.864 353.6 160.12 351.236 154.983C349.489 155.059 343.936 156.311 332.756 167.147C329.289 170.609 325.475 173.705 321.374 176.387C311.588 182.561 305.548 181.427 302.986 180.41H302.818Z" fill="#37474F"/>
<path d="M327.64 150.615C328.228 151.682 329.959 151.858 331.513 151.01C333.067 150.162 333.84 148.599 333.26 147.532C332.68 146.466 330.942 146.298 329.388 147.146C327.834 147.994 327.061 149.506 327.64 150.615Z" fill="#263238"/>
<path d="M335.536 151.817C335.864 152.413 336.889 152.489 337.821 151.976C338.754 151.464 339.232 150.565 338.905 149.969C338.577 149.372 337.552 149.288 336.62 149.801C335.688 150.313 335.209 151.212 335.536 151.817Z" fill="#263238"/>
<path d="M317.443 187.223C317.947 188.138 319.45 188.273 320.803 187.525C322.155 186.777 322.852 185.442 322.357 184.526C321.861 183.611 320.349 183.485 318.997 184.224C317.644 184.963 316.947 186.315 317.443 187.223Z" fill="#263238"/>
<path d="M322.55 187.71C322.614 187.989 322.765 188.241 322.98 188.43C323.196 188.619 323.465 188.736 323.75 188.764C324.035 188.792 324.322 188.729 324.57 188.586C324.818 188.442 325.015 188.224 325.132 187.963C325.25 187.701 325.282 187.41 325.226 187.129C325.169 186.848 325.025 186.592 324.815 186.397C324.605 186.202 324.339 186.078 324.055 186.042C323.77 186.007 323.482 186.061 323.23 186.198C322.944 186.314 322.714 186.536 322.587 186.818C322.461 187.099 322.447 187.419 322.55 187.71Z" fill="#263238"/>
<path d="M323.129 185.106C323.252 185.253 323.427 185.348 323.617 185.371C323.807 185.394 323.999 185.345 324.154 185.232C324.566 185.005 324.767 184.585 324.608 184.299C324.483 184.152 324.308 184.057 324.116 184.033C323.924 184.01 323.731 184.06 323.575 184.173C323.171 184.4 322.97 184.82 323.129 185.106Z" fill="#263238"/>
<path d="M340.14 183.484C340.585 184.324 341.82 184.476 342.912 183.879C344.004 183.283 344.516 182.14 344.071 181.359C343.626 180.578 342.391 180.368 341.299 180.964C340.207 181.561 339.694 182.67 340.14 183.484Z" fill="#263238"/>
<path d="M339.14 179.83C339.223 180.033 339.365 180.207 339.549 180.327C339.732 180.448 339.947 180.51 340.167 180.505C340.386 180.501 340.599 180.43 340.777 180.301C340.955 180.173 341.09 179.994 341.164 179.787C341.238 179.581 341.247 179.356 341.191 179.144C341.135 178.932 341.016 178.742 340.849 178.599C340.683 178.457 340.477 178.368 340.258 178.344C340.04 178.321 339.82 178.365 339.627 178.469C339.383 178.586 339.194 178.794 339.103 179.049C339.012 179.304 339.025 179.585 339.14 179.83Z" fill="#263238"/>
<path d="M304.456 182.863C321.424 179.27 337.946 173.822 353.722 166.617C365.986 160.855 373.555 155.336 372.53 152.22C371.505 149.103 362.307 149.061 349.346 151.556C349.699 152.102 350.026 152.657 350.345 153.236C350.463 153.455 350.572 153.673 350.69 153.883C357.586 153.001 362.156 153.404 362.777 155.303C363.399 157.201 359.854 160.343 353.596 163.77C345.687 167.923 337.425 171.369 328.909 174.068C320.433 176.945 311.719 179.068 302.869 180.41C295.821 181.343 291.109 180.948 290.504 179.024C289.899 177.101 293.318 174.11 299.357 170.742C299.206 169.824 299.106 168.899 299.055 167.97C286.808 173.715 279.13 179.427 280.189 182.535C281.247 185.643 290.831 185.61 304.456 182.863Z" fill="#263238"/>
<path d="M306.002 184.736C314.181 182.983 322.265 180.807 330.219 178.217C338.143 175.682 345.932 172.741 353.554 169.406C370.589 161.846 381.467 154.143 380.048 149.725C378.628 145.306 365.533 145.399 347.59 149.137C347.851 149.464 348.111 149.8 348.363 150.145C363.433 147.255 374.235 147.415 375.453 151.203C376.671 154.991 367.834 161.569 353.663 168.104C345.926 171.613 337.991 174.67 329.9 177.26C321.782 179.903 313.516 182.068 305.145 183.745C289.899 186.701 278.945 186.559 277.719 182.737C276.493 178.915 285.111 172.547 298.954 166.105C298.954 165.676 298.954 165.265 299.005 164.819C282.322 172.253 271.721 179.855 273.124 184.223C274.527 188.591 287.849 188.549 306.002 184.736Z" fill="#37474F"/>
<path d="M192.142 197.442C192.427 196.787 193.435 196.602 194.393 197.014C195.351 197.426 195.888 198.299 195.603 198.954C195.317 199.61 194.309 199.794 193.351 199.391C192.394 198.988 191.856 198.106 192.142 197.442Z" fill="#C7C7C7"/>
<path d="M196.711 196.291C196.871 195.922 197.467 195.829 198.047 196.081C198.627 196.333 198.954 196.829 198.795 197.198C198.635 197.568 198.03 197.669 197.459 197.417C196.888 197.165 196.56 196.669 196.711 196.291Z" fill="#C7C7C7"/>
<path d="M184.187 176.45C184.43 175.896 185.304 175.728 186.144 176.098C186.984 176.467 187.463 177.215 187.211 177.778C186.959 178.34 186.094 178.5 185.254 178.13C184.414 177.761 183.96 177.013 184.187 176.45Z" fill="#C7C7C7"/>
<path d="M187.16 175.896C187.258 175.742 187.411 175.631 187.589 175.589C187.766 175.547 187.953 175.575 188.11 175.669C188.281 175.722 188.427 175.838 188.516 175.994C188.605 176.15 188.631 176.335 188.588 176.509C188.469 176.626 188.317 176.705 188.153 176.736C187.988 176.766 187.818 176.747 187.665 176.68C187.511 176.613 187.381 176.502 187.292 176.361C187.202 176.22 187.156 176.055 187.16 175.888V175.896Z" fill="#C7C7C7"/>
<path d="M187.639 177.391C187.704 177.298 187.802 177.234 187.913 177.21C188.023 177.187 188.139 177.207 188.236 177.265C188.488 177.375 188.622 177.61 188.547 177.786C188.484 177.882 188.387 177.95 188.276 177.975C188.164 178 188.047 177.981 187.95 177.921C187.84 177.889 187.747 177.817 187.689 177.718C187.631 177.62 187.613 177.503 187.639 177.391Z" fill="#C7C7C7"/>
<path d="M197.719 177.433C197.754 177.147 197.877 176.878 198.072 176.666C198.267 176.453 198.524 176.307 198.807 176.249C199.089 176.19 199.383 176.221 199.647 176.339C199.91 176.456 200.131 176.653 200.276 176.902C200.422 177.151 200.486 177.44 200.459 177.727C200.431 178.014 200.315 178.286 200.125 178.503C199.935 178.72 199.682 178.873 199.401 178.939C199.12 179.004 198.826 178.98 198.559 178.87C198.26 178.787 198.004 178.591 197.847 178.322C197.691 178.054 197.645 177.735 197.719 177.433Z" fill="#C7C7C7"/>
<path d="M197.333 179.634C197.406 179.488 197.533 179.376 197.687 179.32C197.841 179.265 198.01 179.27 198.16 179.336C198.31 179.402 198.429 179.523 198.492 179.673C198.555 179.824 198.558 179.994 198.5 180.147C198.427 180.293 198.3 180.405 198.146 180.461C197.992 180.516 197.823 180.51 197.673 180.445C197.524 180.379 197.405 180.258 197.341 180.107C197.278 179.957 197.275 179.787 197.333 179.634Z" fill="#C7C7C7"/>
<path d="M72.3641 199.796C80.6461 196.48 84.6719 187.078 81.356 178.796C78.04 170.514 68.6381 166.488 60.356 169.804C52.074 173.12 48.0482 182.522 51.3641 190.804C54.68 199.086 64.082 203.112 72.3641 199.796Z" fill="#3A5985"/>
<path opacity="0.1" d="M72.3641 199.796C80.6461 196.48 84.6719 187.078 81.356 178.796C78.04 170.514 68.6381 166.488 60.356 169.804C52.074 173.12 48.0482 182.522 51.3641 190.804C54.68 199.086 64.082 203.112 72.3641 199.796Z" fill="black"/>
<g opacity="0.1">
<path d="M81.8244 189.498C80.3186 188.194 78.618 187.134 76.7844 186.356C73.5756 184.945 64.89 183.433 60.8328 181.367C55.1628 178.502 54.4572 175.42 54.4908 173.807C55.9022 172.28 57.5968 171.042 59.4804 170.161C59.8836 171.791 61.3956 176.881 70.812 180.241C75.6756 181.921 80.3292 180.804 81.9084 180.418C82.754 183.389 82.7249 186.542 81.8244 189.498Z" fill="black"/>
<path d="M75.2221 198.31C72.123 200.34 68.4209 201.245 64.7347 200.873C61.0485 200.501 57.6015 198.876 54.9697 196.268C55.8854 195.769 56.8586 195.382 57.8677 195.118C62.2105 194.059 66.9985 196.142 68.7877 197.117C70.7225 198.267 73.0037 198.689 75.2221 198.31Z" fill="black"/>
<path d="M80.8502 191.926C80.7897 192.061 80.7224 192.192 80.6486 192.32C80.5898 192.438 80.531 192.556 80.4638 192.673C80.3126 192.934 80.1614 193.194 80.0018 193.446C79.8422 193.698 79.7162 193.9 79.5566 194.118L79.3802 194.353C79.3177 194.446 79.2504 194.536 79.1786 194.622L78.977 194.891L78.725 195.202L78.4646 195.496L78.2378 195.756C78.0698 195.941 77.8934 196.117 77.717 196.285C76.709 196.588 75.365 196.453 73.391 195.68C70.4594 194.53 67.2926 191.758 61.631 189.716C58.1419 188.498 54.386 188.257 50.7698 189.019C49.8858 185.794 50.0297 182.373 51.1814 179.233C52.2146 179.191 55.5326 179.662 62.6138 185.508C64.8143 187.379 67.2045 189.015 69.7454 190.388C75.8102 193.597 79.2962 192.673 80.7578 191.917H80.8502V191.926Z" fill="black"/>
</g>
<g opacity="0.1">
<path d="M65.5036 198.007C65.7892 197.344 66.7972 197.167 67.7548 197.57C68.7124 197.974 69.2584 198.856 68.9728 199.511C68.6872 200.166 67.6708 200.351 66.7216 199.948C65.7724 199.544 65.218 198.662 65.5036 198.007Z" fill="black"/>
<path d="M70.0817 196.873C70.2413 196.504 70.8377 196.403 71.4089 196.655C71.9801 196.907 72.3161 197.411 72.1565 197.78C71.9969 198.15 71.4005 198.242 70.8209 197.999C70.2413 197.755 69.9305 197.226 70.0817 196.873Z" fill="black"/>
<path d="M57.5488 177.015C57.7924 176.452 58.666 176.293 59.506 176.654C60.346 177.015 60.8248 177.771 60.5812 178.334C60.3376 178.897 59.4556 179.056 58.6156 178.687C57.7756 178.317 57.3304 177.553 57.5488 177.015Z" fill="black"/>
<path d="M60.5224 176.453C60.6209 176.3 60.7746 176.191 60.9514 176.149C61.1283 176.106 61.3146 176.134 61.4716 176.226C61.5653 176.239 61.6547 176.273 61.7329 176.327C61.811 176.38 61.8758 176.45 61.9221 176.533C61.9684 176.615 61.9951 176.707 61.9999 176.802C62.0047 176.896 61.9877 176.991 61.95 177.077C61.9123 177.164 61.8551 177.241 61.7828 177.302C61.7105 177.363 61.625 177.406 61.5332 177.429C61.4413 177.451 61.3454 177.452 61.2532 177.432C61.1609 177.411 61.0746 177.369 61.0012 177.309C60.827 177.255 60.6803 177.136 60.5912 176.976C60.5022 176.817 60.4775 176.63 60.5224 176.453Z" fill="black"/>
<path d="M61.0012 177.956C61.0647 177.862 61.1618 177.796 61.2727 177.771C61.3836 177.746 61.4998 177.764 61.5976 177.822C61.8496 177.94 61.9924 178.166 61.9168 178.351C61.8508 178.443 61.7532 178.506 61.6429 178.529C61.5327 178.553 61.4177 178.534 61.3204 178.477C61.0684 178.393 60.9256 178.133 61.0012 177.956Z" fill="black"/>
<path d="M71.0897 177.99C71.1267 177.706 71.2515 177.442 71.4466 177.233C71.6416 177.024 71.8972 176.881 72.1775 176.825C72.4577 176.768 72.7486 176.801 73.0093 176.918C73.27 177.036 73.4874 177.232 73.6311 177.479C73.7747 177.726 73.8375 178.012 73.8104 178.296C73.7834 178.581 73.668 178.85 73.4804 179.066C73.2928 179.281 73.0424 179.433 72.7643 179.499C72.4862 179.565 72.1943 179.543 71.9297 179.435C71.6283 179.352 71.3714 179.154 71.2144 178.884C71.0573 178.614 71.0125 178.293 71.0897 177.99Z" fill="black"/>
<path d="M70.6949 180.191C70.7683 180.045 70.895 179.932 71.0489 179.877C71.2028 179.821 71.3721 179.827 71.5219 179.893C71.6717 179.958 71.7906 180.079 71.8539 180.23C71.9173 180.381 71.9204 180.55 71.8625 180.703C71.7891 180.849 71.6623 180.962 71.5084 181.017C71.3545 181.073 71.1852 181.067 71.0354 181.001C70.8856 180.936 70.7668 180.815 70.7034 180.664C70.64 180.513 70.637 180.344 70.6949 180.191Z" fill="black"/>
</g>
</svg>
